G04 EAGLE Gerber RS-274X export*
G75*
%MOMM*%
%FSLAX34Y34*%
%LPD*%
%INSoldermask Bottom*%
%IPPOS*%
%AMOC8*
5,1,8,0,0,1.08239X$1,22.5*%
G01*
%ADD10C,0.228344*%
%ADD11C,1.127000*%
%ADD12C,2.006600*%
%ADD13C,3.175000*%
%ADD14C,1.270000*%
%ADD15C,1.627000*%

G36*
X332170Y1172857D02*
X332170Y1172857D01*
X332236Y1172859D01*
X332279Y1172877D01*
X332326Y1172885D01*
X332383Y1172919D01*
X332443Y1172944D01*
X332478Y1172975D01*
X332519Y1173000D01*
X332561Y1173051D01*
X332609Y1173095D01*
X332631Y1173137D01*
X332660Y1173174D01*
X332681Y1173236D01*
X332712Y1173295D01*
X332720Y1173349D01*
X332732Y1173386D01*
X332731Y1173426D01*
X332739Y1173480D01*
X332739Y1176020D01*
X332728Y1176085D01*
X332726Y1176151D01*
X332708Y1176194D01*
X332700Y1176241D01*
X332666Y1176298D01*
X332641Y1176358D01*
X332610Y1176393D01*
X332585Y1176434D01*
X332534Y1176476D01*
X332490Y1176524D01*
X332448Y1176546D01*
X332411Y1176575D01*
X332349Y1176596D01*
X332290Y1176627D01*
X332236Y1176635D01*
X332199Y1176647D01*
X332159Y1176646D01*
X332105Y1176654D01*
X328295Y1176654D01*
X328230Y1176643D01*
X328164Y1176641D01*
X328121Y1176623D01*
X328074Y1176615D01*
X328017Y1176581D01*
X327957Y1176556D01*
X327922Y1176525D01*
X327881Y1176500D01*
X327840Y1176449D01*
X327791Y1176405D01*
X327769Y1176363D01*
X327740Y1176326D01*
X327719Y1176264D01*
X327688Y1176205D01*
X327680Y1176151D01*
X327668Y1176114D01*
X327668Y1176111D01*
X327669Y1176074D01*
X327661Y1176020D01*
X327661Y1173480D01*
X327672Y1173415D01*
X327674Y1173349D01*
X327692Y1173306D01*
X327700Y1173259D01*
X327734Y1173202D01*
X327759Y1173142D01*
X327790Y1173107D01*
X327815Y1173066D01*
X327866Y1173025D01*
X327910Y1172976D01*
X327952Y1172954D01*
X327989Y1172925D01*
X328051Y1172904D01*
X328110Y1172873D01*
X328164Y1172865D01*
X328201Y1172853D01*
X328241Y1172854D01*
X328295Y1172846D01*
X332105Y1172846D01*
X332170Y1172857D01*
G37*
G36*
X692850Y1172857D02*
X692850Y1172857D01*
X692916Y1172859D01*
X692959Y1172877D01*
X693006Y1172885D01*
X693063Y1172919D01*
X693123Y1172944D01*
X693158Y1172975D01*
X693199Y1173000D01*
X693241Y1173051D01*
X693289Y1173095D01*
X693311Y1173137D01*
X693340Y1173174D01*
X693361Y1173236D01*
X693392Y1173295D01*
X693400Y1173349D01*
X693412Y1173386D01*
X693411Y1173426D01*
X693419Y1173480D01*
X693419Y1176020D01*
X693408Y1176085D01*
X693406Y1176151D01*
X693388Y1176194D01*
X693380Y1176241D01*
X693346Y1176298D01*
X693321Y1176358D01*
X693290Y1176393D01*
X693265Y1176434D01*
X693214Y1176476D01*
X693170Y1176524D01*
X693128Y1176546D01*
X693091Y1176575D01*
X693029Y1176596D01*
X692970Y1176627D01*
X692916Y1176635D01*
X692879Y1176647D01*
X692839Y1176646D01*
X692785Y1176654D01*
X688975Y1176654D01*
X688910Y1176643D01*
X688844Y1176641D01*
X688801Y1176623D01*
X688754Y1176615D01*
X688697Y1176581D01*
X688637Y1176556D01*
X688602Y1176525D01*
X688561Y1176500D01*
X688520Y1176449D01*
X688471Y1176405D01*
X688449Y1176363D01*
X688420Y1176326D01*
X688399Y1176264D01*
X688368Y1176205D01*
X688360Y1176151D01*
X688348Y1176114D01*
X688348Y1176111D01*
X688349Y1176074D01*
X688341Y1176020D01*
X688341Y1173480D01*
X688352Y1173415D01*
X688354Y1173349D01*
X688372Y1173306D01*
X688380Y1173259D01*
X688414Y1173202D01*
X688439Y1173142D01*
X688470Y1173107D01*
X688495Y1173066D01*
X688546Y1173025D01*
X688590Y1172976D01*
X688632Y1172954D01*
X688669Y1172925D01*
X688731Y1172904D01*
X688790Y1172873D01*
X688844Y1172865D01*
X688881Y1172853D01*
X688921Y1172854D01*
X688975Y1172846D01*
X692785Y1172846D01*
X692850Y1172857D01*
G37*
G36*
X1053530Y1172857D02*
X1053530Y1172857D01*
X1053596Y1172859D01*
X1053639Y1172877D01*
X1053686Y1172885D01*
X1053743Y1172919D01*
X1053803Y1172944D01*
X1053838Y1172975D01*
X1053879Y1173000D01*
X1053921Y1173051D01*
X1053969Y1173095D01*
X1053991Y1173137D01*
X1054020Y1173174D01*
X1054041Y1173236D01*
X1054072Y1173295D01*
X1054080Y1173349D01*
X1054092Y1173386D01*
X1054091Y1173426D01*
X1054099Y1173480D01*
X1054099Y1176020D01*
X1054088Y1176085D01*
X1054086Y1176151D01*
X1054068Y1176194D01*
X1054060Y1176241D01*
X1054026Y1176298D01*
X1054001Y1176358D01*
X1053970Y1176393D01*
X1053945Y1176434D01*
X1053894Y1176476D01*
X1053850Y1176524D01*
X1053808Y1176546D01*
X1053771Y1176575D01*
X1053709Y1176596D01*
X1053650Y1176627D01*
X1053596Y1176635D01*
X1053559Y1176647D01*
X1053519Y1176646D01*
X1053465Y1176654D01*
X1049655Y1176654D01*
X1049590Y1176643D01*
X1049524Y1176641D01*
X1049481Y1176623D01*
X1049434Y1176615D01*
X1049377Y1176581D01*
X1049317Y1176556D01*
X1049282Y1176525D01*
X1049241Y1176500D01*
X1049200Y1176449D01*
X1049151Y1176405D01*
X1049129Y1176363D01*
X1049100Y1176326D01*
X1049079Y1176264D01*
X1049048Y1176205D01*
X1049040Y1176151D01*
X1049028Y1176114D01*
X1049028Y1176111D01*
X1049029Y1176074D01*
X1049021Y1176020D01*
X1049021Y1173480D01*
X1049032Y1173415D01*
X1049034Y1173349D01*
X1049052Y1173306D01*
X1049060Y1173259D01*
X1049094Y1173202D01*
X1049119Y1173142D01*
X1049150Y1173107D01*
X1049175Y1173066D01*
X1049226Y1173025D01*
X1049270Y1172976D01*
X1049312Y1172954D01*
X1049349Y1172925D01*
X1049411Y1172904D01*
X1049470Y1172873D01*
X1049524Y1172865D01*
X1049561Y1172853D01*
X1049601Y1172854D01*
X1049655Y1172846D01*
X1053465Y1172846D01*
X1053530Y1172857D01*
G37*
G36*
X1053530Y1142377D02*
X1053530Y1142377D01*
X1053596Y1142379D01*
X1053639Y1142397D01*
X1053686Y1142405D01*
X1053743Y1142439D01*
X1053803Y1142464D01*
X1053838Y1142495D01*
X1053879Y1142520D01*
X1053921Y1142571D01*
X1053969Y1142615D01*
X1053991Y1142657D01*
X1054020Y1142694D01*
X1054041Y1142756D01*
X1054072Y1142815D01*
X1054080Y1142869D01*
X1054092Y1142906D01*
X1054091Y1142946D01*
X1054099Y1143000D01*
X1054099Y1145540D01*
X1054088Y1145605D01*
X1054086Y1145671D01*
X1054068Y1145714D01*
X1054060Y1145761D01*
X1054026Y1145818D01*
X1054001Y1145878D01*
X1053970Y1145913D01*
X1053945Y1145954D01*
X1053894Y1145996D01*
X1053850Y1146044D01*
X1053808Y1146066D01*
X1053771Y1146095D01*
X1053709Y1146116D01*
X1053650Y1146147D01*
X1053596Y1146155D01*
X1053559Y1146167D01*
X1053519Y1146166D01*
X1053465Y1146174D01*
X1049655Y1146174D01*
X1049590Y1146163D01*
X1049524Y1146161D01*
X1049481Y1146143D01*
X1049434Y1146135D01*
X1049377Y1146101D01*
X1049317Y1146076D01*
X1049282Y1146045D01*
X1049241Y1146020D01*
X1049200Y1145969D01*
X1049151Y1145925D01*
X1049129Y1145883D01*
X1049100Y1145846D01*
X1049079Y1145784D01*
X1049048Y1145725D01*
X1049040Y1145671D01*
X1049028Y1145634D01*
X1049028Y1145631D01*
X1049029Y1145594D01*
X1049021Y1145540D01*
X1049021Y1143000D01*
X1049032Y1142935D01*
X1049034Y1142869D01*
X1049052Y1142826D01*
X1049060Y1142779D01*
X1049094Y1142722D01*
X1049119Y1142662D01*
X1049150Y1142627D01*
X1049175Y1142586D01*
X1049226Y1142545D01*
X1049270Y1142496D01*
X1049312Y1142474D01*
X1049349Y1142445D01*
X1049411Y1142424D01*
X1049470Y1142393D01*
X1049524Y1142385D01*
X1049561Y1142373D01*
X1049601Y1142374D01*
X1049655Y1142366D01*
X1053465Y1142366D01*
X1053530Y1142377D01*
G37*
G36*
X332170Y1142377D02*
X332170Y1142377D01*
X332236Y1142379D01*
X332279Y1142397D01*
X332326Y1142405D01*
X332383Y1142439D01*
X332443Y1142464D01*
X332478Y1142495D01*
X332519Y1142520D01*
X332561Y1142571D01*
X332609Y1142615D01*
X332631Y1142657D01*
X332660Y1142694D01*
X332681Y1142756D01*
X332712Y1142815D01*
X332720Y1142869D01*
X332732Y1142906D01*
X332731Y1142946D01*
X332739Y1143000D01*
X332739Y1145540D01*
X332728Y1145605D01*
X332726Y1145671D01*
X332708Y1145714D01*
X332700Y1145761D01*
X332666Y1145818D01*
X332641Y1145878D01*
X332610Y1145913D01*
X332585Y1145954D01*
X332534Y1145996D01*
X332490Y1146044D01*
X332448Y1146066D01*
X332411Y1146095D01*
X332349Y1146116D01*
X332290Y1146147D01*
X332236Y1146155D01*
X332199Y1146167D01*
X332159Y1146166D01*
X332105Y1146174D01*
X328295Y1146174D01*
X328230Y1146163D01*
X328164Y1146161D01*
X328121Y1146143D01*
X328074Y1146135D01*
X328017Y1146101D01*
X327957Y1146076D01*
X327922Y1146045D01*
X327881Y1146020D01*
X327840Y1145969D01*
X327791Y1145925D01*
X327769Y1145883D01*
X327740Y1145846D01*
X327719Y1145784D01*
X327688Y1145725D01*
X327680Y1145671D01*
X327668Y1145634D01*
X327668Y1145631D01*
X327669Y1145594D01*
X327661Y1145540D01*
X327661Y1143000D01*
X327672Y1142935D01*
X327674Y1142869D01*
X327692Y1142826D01*
X327700Y1142779D01*
X327734Y1142722D01*
X327759Y1142662D01*
X327790Y1142627D01*
X327815Y1142586D01*
X327866Y1142545D01*
X327910Y1142496D01*
X327952Y1142474D01*
X327989Y1142445D01*
X328051Y1142424D01*
X328110Y1142393D01*
X328164Y1142385D01*
X328201Y1142373D01*
X328241Y1142374D01*
X328295Y1142366D01*
X332105Y1142366D01*
X332170Y1142377D01*
G37*
G36*
X692850Y1142377D02*
X692850Y1142377D01*
X692916Y1142379D01*
X692959Y1142397D01*
X693006Y1142405D01*
X693063Y1142439D01*
X693123Y1142464D01*
X693158Y1142495D01*
X693199Y1142520D01*
X693241Y1142571D01*
X693289Y1142615D01*
X693311Y1142657D01*
X693340Y1142694D01*
X693361Y1142756D01*
X693392Y1142815D01*
X693400Y1142869D01*
X693412Y1142906D01*
X693411Y1142946D01*
X693419Y1143000D01*
X693419Y1145540D01*
X693408Y1145605D01*
X693406Y1145671D01*
X693388Y1145714D01*
X693380Y1145761D01*
X693346Y1145818D01*
X693321Y1145878D01*
X693290Y1145913D01*
X693265Y1145954D01*
X693214Y1145996D01*
X693170Y1146044D01*
X693128Y1146066D01*
X693091Y1146095D01*
X693029Y1146116D01*
X692970Y1146147D01*
X692916Y1146155D01*
X692879Y1146167D01*
X692839Y1146166D01*
X692785Y1146174D01*
X688975Y1146174D01*
X688910Y1146163D01*
X688844Y1146161D01*
X688801Y1146143D01*
X688754Y1146135D01*
X688697Y1146101D01*
X688637Y1146076D01*
X688602Y1146045D01*
X688561Y1146020D01*
X688520Y1145969D01*
X688471Y1145925D01*
X688449Y1145883D01*
X688420Y1145846D01*
X688399Y1145784D01*
X688368Y1145725D01*
X688360Y1145671D01*
X688348Y1145634D01*
X688348Y1145631D01*
X688349Y1145594D01*
X688341Y1145540D01*
X688341Y1143000D01*
X688352Y1142935D01*
X688354Y1142869D01*
X688372Y1142826D01*
X688380Y1142779D01*
X688414Y1142722D01*
X688439Y1142662D01*
X688470Y1142627D01*
X688495Y1142586D01*
X688546Y1142545D01*
X688590Y1142496D01*
X688632Y1142474D01*
X688669Y1142445D01*
X688731Y1142424D01*
X688790Y1142393D01*
X688844Y1142385D01*
X688881Y1142373D01*
X688921Y1142374D01*
X688975Y1142366D01*
X692785Y1142366D01*
X692850Y1142377D01*
G37*
G36*
X896050Y1119517D02*
X896050Y1119517D01*
X896116Y1119519D01*
X896159Y1119537D01*
X896206Y1119545D01*
X896263Y1119579D01*
X896323Y1119604D01*
X896358Y1119635D01*
X896399Y1119660D01*
X896441Y1119711D01*
X896489Y1119755D01*
X896511Y1119797D01*
X896540Y1119834D01*
X896561Y1119896D01*
X896592Y1119955D01*
X896600Y1120009D01*
X896612Y1120046D01*
X896611Y1120086D01*
X896619Y1120140D01*
X896619Y1122680D01*
X896608Y1122745D01*
X896606Y1122811D01*
X896588Y1122854D01*
X896580Y1122901D01*
X896546Y1122958D01*
X896521Y1123018D01*
X896490Y1123053D01*
X896465Y1123094D01*
X896414Y1123136D01*
X896370Y1123184D01*
X896328Y1123206D01*
X896291Y1123235D01*
X896229Y1123256D01*
X896170Y1123287D01*
X896116Y1123295D01*
X896079Y1123307D01*
X896039Y1123306D01*
X895985Y1123314D01*
X892175Y1123314D01*
X892110Y1123303D01*
X892044Y1123301D01*
X892001Y1123283D01*
X891954Y1123275D01*
X891897Y1123241D01*
X891837Y1123216D01*
X891802Y1123185D01*
X891761Y1123160D01*
X891720Y1123109D01*
X891671Y1123065D01*
X891649Y1123023D01*
X891620Y1122986D01*
X891599Y1122924D01*
X891568Y1122865D01*
X891560Y1122811D01*
X891548Y1122774D01*
X891548Y1122771D01*
X891549Y1122734D01*
X891541Y1122680D01*
X891541Y1120140D01*
X891552Y1120075D01*
X891554Y1120009D01*
X891572Y1119966D01*
X891580Y1119919D01*
X891614Y1119862D01*
X891639Y1119802D01*
X891670Y1119767D01*
X891695Y1119726D01*
X891746Y1119685D01*
X891790Y1119636D01*
X891832Y1119614D01*
X891869Y1119585D01*
X891931Y1119564D01*
X891990Y1119533D01*
X892044Y1119525D01*
X892081Y1119513D01*
X892121Y1119514D01*
X892175Y1119506D01*
X895985Y1119506D01*
X896050Y1119517D01*
G37*
G36*
X906210Y1119517D02*
X906210Y1119517D01*
X906276Y1119519D01*
X906319Y1119537D01*
X906366Y1119545D01*
X906423Y1119579D01*
X906483Y1119604D01*
X906518Y1119635D01*
X906559Y1119660D01*
X906601Y1119711D01*
X906649Y1119755D01*
X906671Y1119797D01*
X906700Y1119834D01*
X906721Y1119896D01*
X906752Y1119955D01*
X906760Y1120009D01*
X906772Y1120046D01*
X906771Y1120086D01*
X906779Y1120140D01*
X906779Y1122680D01*
X906768Y1122745D01*
X906766Y1122811D01*
X906748Y1122854D01*
X906740Y1122901D01*
X906706Y1122958D01*
X906681Y1123018D01*
X906650Y1123053D01*
X906625Y1123094D01*
X906574Y1123136D01*
X906530Y1123184D01*
X906488Y1123206D01*
X906451Y1123235D01*
X906389Y1123256D01*
X906330Y1123287D01*
X906276Y1123295D01*
X906239Y1123307D01*
X906199Y1123306D01*
X906145Y1123314D01*
X902335Y1123314D01*
X902270Y1123303D01*
X902204Y1123301D01*
X902161Y1123283D01*
X902114Y1123275D01*
X902057Y1123241D01*
X901997Y1123216D01*
X901962Y1123185D01*
X901921Y1123160D01*
X901880Y1123109D01*
X901831Y1123065D01*
X901809Y1123023D01*
X901780Y1122986D01*
X901759Y1122924D01*
X901728Y1122865D01*
X901720Y1122811D01*
X901708Y1122774D01*
X901708Y1122771D01*
X901709Y1122734D01*
X901701Y1122680D01*
X901701Y1120140D01*
X901712Y1120075D01*
X901714Y1120009D01*
X901732Y1119966D01*
X901740Y1119919D01*
X901774Y1119862D01*
X901799Y1119802D01*
X901830Y1119767D01*
X901855Y1119726D01*
X901906Y1119685D01*
X901950Y1119636D01*
X901992Y1119614D01*
X902029Y1119585D01*
X902091Y1119564D01*
X902150Y1119533D01*
X902204Y1119525D01*
X902241Y1119513D01*
X902281Y1119514D01*
X902335Y1119506D01*
X906145Y1119506D01*
X906210Y1119517D01*
G37*
G36*
X545530Y1119517D02*
X545530Y1119517D01*
X545596Y1119519D01*
X545639Y1119537D01*
X545686Y1119545D01*
X545743Y1119579D01*
X545803Y1119604D01*
X545838Y1119635D01*
X545879Y1119660D01*
X545921Y1119711D01*
X545969Y1119755D01*
X545991Y1119797D01*
X546020Y1119834D01*
X546041Y1119896D01*
X546072Y1119955D01*
X546080Y1120009D01*
X546092Y1120046D01*
X546091Y1120086D01*
X546099Y1120140D01*
X546099Y1122680D01*
X546088Y1122745D01*
X546086Y1122811D01*
X546068Y1122854D01*
X546060Y1122901D01*
X546026Y1122958D01*
X546001Y1123018D01*
X545970Y1123053D01*
X545945Y1123094D01*
X545894Y1123136D01*
X545850Y1123184D01*
X545808Y1123206D01*
X545771Y1123235D01*
X545709Y1123256D01*
X545650Y1123287D01*
X545596Y1123295D01*
X545559Y1123307D01*
X545519Y1123306D01*
X545465Y1123314D01*
X541655Y1123314D01*
X541590Y1123303D01*
X541524Y1123301D01*
X541481Y1123283D01*
X541434Y1123275D01*
X541377Y1123241D01*
X541317Y1123216D01*
X541282Y1123185D01*
X541241Y1123160D01*
X541200Y1123109D01*
X541151Y1123065D01*
X541129Y1123023D01*
X541100Y1122986D01*
X541079Y1122924D01*
X541048Y1122865D01*
X541040Y1122811D01*
X541028Y1122774D01*
X541028Y1122771D01*
X541029Y1122734D01*
X541021Y1122680D01*
X541021Y1120140D01*
X541032Y1120075D01*
X541034Y1120009D01*
X541052Y1119966D01*
X541060Y1119919D01*
X541094Y1119862D01*
X541119Y1119802D01*
X541150Y1119767D01*
X541175Y1119726D01*
X541226Y1119685D01*
X541270Y1119636D01*
X541312Y1119614D01*
X541349Y1119585D01*
X541411Y1119564D01*
X541470Y1119533D01*
X541524Y1119525D01*
X541561Y1119513D01*
X541601Y1119514D01*
X541655Y1119506D01*
X545465Y1119506D01*
X545530Y1119517D01*
G37*
G36*
X184850Y1119517D02*
X184850Y1119517D01*
X184916Y1119519D01*
X184959Y1119537D01*
X185006Y1119545D01*
X185063Y1119579D01*
X185123Y1119604D01*
X185158Y1119635D01*
X185199Y1119660D01*
X185241Y1119711D01*
X185289Y1119755D01*
X185311Y1119797D01*
X185340Y1119834D01*
X185361Y1119896D01*
X185392Y1119955D01*
X185400Y1120009D01*
X185412Y1120046D01*
X185411Y1120086D01*
X185419Y1120140D01*
X185419Y1122680D01*
X185408Y1122745D01*
X185406Y1122811D01*
X185388Y1122854D01*
X185380Y1122901D01*
X185346Y1122958D01*
X185321Y1123018D01*
X185290Y1123053D01*
X185265Y1123094D01*
X185214Y1123136D01*
X185170Y1123184D01*
X185128Y1123206D01*
X185091Y1123235D01*
X185029Y1123256D01*
X184970Y1123287D01*
X184916Y1123295D01*
X184879Y1123307D01*
X184839Y1123306D01*
X184785Y1123314D01*
X180975Y1123314D01*
X180910Y1123303D01*
X180844Y1123301D01*
X180801Y1123283D01*
X180754Y1123275D01*
X180697Y1123241D01*
X180637Y1123216D01*
X180602Y1123185D01*
X180561Y1123160D01*
X180520Y1123109D01*
X180471Y1123065D01*
X180449Y1123023D01*
X180420Y1122986D01*
X180399Y1122924D01*
X180368Y1122865D01*
X180360Y1122811D01*
X180348Y1122774D01*
X180348Y1122771D01*
X180349Y1122734D01*
X180341Y1122680D01*
X180341Y1120140D01*
X180352Y1120075D01*
X180354Y1120009D01*
X180372Y1119966D01*
X180380Y1119919D01*
X180414Y1119862D01*
X180439Y1119802D01*
X180470Y1119767D01*
X180495Y1119726D01*
X180546Y1119685D01*
X180590Y1119636D01*
X180632Y1119614D01*
X180669Y1119585D01*
X180731Y1119564D01*
X180790Y1119533D01*
X180844Y1119525D01*
X180881Y1119513D01*
X180921Y1119514D01*
X180975Y1119506D01*
X184785Y1119506D01*
X184850Y1119517D01*
G37*
G36*
X174690Y1119517D02*
X174690Y1119517D01*
X174756Y1119519D01*
X174799Y1119537D01*
X174846Y1119545D01*
X174903Y1119579D01*
X174963Y1119604D01*
X174998Y1119635D01*
X175039Y1119660D01*
X175081Y1119711D01*
X175129Y1119755D01*
X175151Y1119797D01*
X175180Y1119834D01*
X175201Y1119896D01*
X175232Y1119955D01*
X175240Y1120009D01*
X175252Y1120046D01*
X175251Y1120086D01*
X175259Y1120140D01*
X175259Y1122680D01*
X175248Y1122745D01*
X175246Y1122811D01*
X175228Y1122854D01*
X175220Y1122901D01*
X175186Y1122958D01*
X175161Y1123018D01*
X175130Y1123053D01*
X175105Y1123094D01*
X175054Y1123136D01*
X175010Y1123184D01*
X174968Y1123206D01*
X174931Y1123235D01*
X174869Y1123256D01*
X174810Y1123287D01*
X174756Y1123295D01*
X174719Y1123307D01*
X174679Y1123306D01*
X174625Y1123314D01*
X170815Y1123314D01*
X170750Y1123303D01*
X170684Y1123301D01*
X170641Y1123283D01*
X170594Y1123275D01*
X170537Y1123241D01*
X170477Y1123216D01*
X170442Y1123185D01*
X170401Y1123160D01*
X170360Y1123109D01*
X170311Y1123065D01*
X170289Y1123023D01*
X170260Y1122986D01*
X170239Y1122924D01*
X170208Y1122865D01*
X170200Y1122811D01*
X170188Y1122774D01*
X170188Y1122771D01*
X170189Y1122734D01*
X170181Y1122680D01*
X170181Y1120140D01*
X170192Y1120075D01*
X170194Y1120009D01*
X170212Y1119966D01*
X170220Y1119919D01*
X170254Y1119862D01*
X170279Y1119802D01*
X170310Y1119767D01*
X170335Y1119726D01*
X170386Y1119685D01*
X170430Y1119636D01*
X170472Y1119614D01*
X170509Y1119585D01*
X170571Y1119564D01*
X170630Y1119533D01*
X170684Y1119525D01*
X170721Y1119513D01*
X170761Y1119514D01*
X170815Y1119506D01*
X174625Y1119506D01*
X174690Y1119517D01*
G37*
G36*
X535370Y1119517D02*
X535370Y1119517D01*
X535436Y1119519D01*
X535479Y1119537D01*
X535526Y1119545D01*
X535583Y1119579D01*
X535643Y1119604D01*
X535678Y1119635D01*
X535719Y1119660D01*
X535761Y1119711D01*
X535809Y1119755D01*
X535831Y1119797D01*
X535860Y1119834D01*
X535881Y1119896D01*
X535912Y1119955D01*
X535920Y1120009D01*
X535932Y1120046D01*
X535931Y1120086D01*
X535939Y1120140D01*
X535939Y1122680D01*
X535928Y1122745D01*
X535926Y1122811D01*
X535908Y1122854D01*
X535900Y1122901D01*
X535866Y1122958D01*
X535841Y1123018D01*
X535810Y1123053D01*
X535785Y1123094D01*
X535734Y1123136D01*
X535690Y1123184D01*
X535648Y1123206D01*
X535611Y1123235D01*
X535549Y1123256D01*
X535490Y1123287D01*
X535436Y1123295D01*
X535399Y1123307D01*
X535359Y1123306D01*
X535305Y1123314D01*
X531495Y1123314D01*
X531430Y1123303D01*
X531364Y1123301D01*
X531321Y1123283D01*
X531274Y1123275D01*
X531217Y1123241D01*
X531157Y1123216D01*
X531122Y1123185D01*
X531081Y1123160D01*
X531040Y1123109D01*
X530991Y1123065D01*
X530969Y1123023D01*
X530940Y1122986D01*
X530919Y1122924D01*
X530888Y1122865D01*
X530880Y1122811D01*
X530868Y1122774D01*
X530868Y1122771D01*
X530869Y1122734D01*
X530861Y1122680D01*
X530861Y1120140D01*
X530872Y1120075D01*
X530874Y1120009D01*
X530892Y1119966D01*
X530900Y1119919D01*
X530934Y1119862D01*
X530959Y1119802D01*
X530990Y1119767D01*
X531015Y1119726D01*
X531066Y1119685D01*
X531110Y1119636D01*
X531152Y1119614D01*
X531189Y1119585D01*
X531251Y1119564D01*
X531310Y1119533D01*
X531364Y1119525D01*
X531401Y1119513D01*
X531441Y1119514D01*
X531495Y1119506D01*
X535305Y1119506D01*
X535370Y1119517D01*
G37*
G36*
X1053530Y1111897D02*
X1053530Y1111897D01*
X1053596Y1111899D01*
X1053639Y1111917D01*
X1053686Y1111925D01*
X1053743Y1111959D01*
X1053803Y1111984D01*
X1053838Y1112015D01*
X1053879Y1112040D01*
X1053921Y1112091D01*
X1053969Y1112135D01*
X1053991Y1112177D01*
X1054020Y1112214D01*
X1054041Y1112276D01*
X1054072Y1112335D01*
X1054080Y1112389D01*
X1054092Y1112426D01*
X1054091Y1112466D01*
X1054099Y1112520D01*
X1054099Y1115060D01*
X1054088Y1115125D01*
X1054086Y1115191D01*
X1054068Y1115234D01*
X1054060Y1115281D01*
X1054026Y1115338D01*
X1054001Y1115398D01*
X1053970Y1115433D01*
X1053945Y1115474D01*
X1053894Y1115516D01*
X1053850Y1115564D01*
X1053808Y1115586D01*
X1053771Y1115615D01*
X1053709Y1115636D01*
X1053650Y1115667D01*
X1053596Y1115675D01*
X1053559Y1115687D01*
X1053519Y1115686D01*
X1053465Y1115694D01*
X1049655Y1115694D01*
X1049590Y1115683D01*
X1049524Y1115681D01*
X1049481Y1115663D01*
X1049434Y1115655D01*
X1049377Y1115621D01*
X1049317Y1115596D01*
X1049282Y1115565D01*
X1049241Y1115540D01*
X1049200Y1115489D01*
X1049151Y1115445D01*
X1049129Y1115403D01*
X1049100Y1115366D01*
X1049079Y1115304D01*
X1049048Y1115245D01*
X1049040Y1115191D01*
X1049028Y1115154D01*
X1049028Y1115151D01*
X1049029Y1115114D01*
X1049021Y1115060D01*
X1049021Y1112520D01*
X1049032Y1112455D01*
X1049034Y1112389D01*
X1049052Y1112346D01*
X1049060Y1112299D01*
X1049094Y1112242D01*
X1049119Y1112182D01*
X1049150Y1112147D01*
X1049175Y1112106D01*
X1049226Y1112065D01*
X1049270Y1112016D01*
X1049312Y1111994D01*
X1049349Y1111965D01*
X1049411Y1111944D01*
X1049470Y1111913D01*
X1049524Y1111905D01*
X1049561Y1111893D01*
X1049601Y1111894D01*
X1049655Y1111886D01*
X1053465Y1111886D01*
X1053530Y1111897D01*
G37*
G36*
X332170Y1111897D02*
X332170Y1111897D01*
X332236Y1111899D01*
X332279Y1111917D01*
X332326Y1111925D01*
X332383Y1111959D01*
X332443Y1111984D01*
X332478Y1112015D01*
X332519Y1112040D01*
X332561Y1112091D01*
X332609Y1112135D01*
X332631Y1112177D01*
X332660Y1112214D01*
X332681Y1112276D01*
X332712Y1112335D01*
X332720Y1112389D01*
X332732Y1112426D01*
X332731Y1112466D01*
X332739Y1112520D01*
X332739Y1115060D01*
X332728Y1115125D01*
X332726Y1115191D01*
X332708Y1115234D01*
X332700Y1115281D01*
X332666Y1115338D01*
X332641Y1115398D01*
X332610Y1115433D01*
X332585Y1115474D01*
X332534Y1115516D01*
X332490Y1115564D01*
X332448Y1115586D01*
X332411Y1115615D01*
X332349Y1115636D01*
X332290Y1115667D01*
X332236Y1115675D01*
X332199Y1115687D01*
X332159Y1115686D01*
X332105Y1115694D01*
X328295Y1115694D01*
X328230Y1115683D01*
X328164Y1115681D01*
X328121Y1115663D01*
X328074Y1115655D01*
X328017Y1115621D01*
X327957Y1115596D01*
X327922Y1115565D01*
X327881Y1115540D01*
X327840Y1115489D01*
X327791Y1115445D01*
X327769Y1115403D01*
X327740Y1115366D01*
X327719Y1115304D01*
X327688Y1115245D01*
X327680Y1115191D01*
X327668Y1115154D01*
X327668Y1115151D01*
X327669Y1115114D01*
X327661Y1115060D01*
X327661Y1112520D01*
X327672Y1112455D01*
X327674Y1112389D01*
X327692Y1112346D01*
X327700Y1112299D01*
X327734Y1112242D01*
X327759Y1112182D01*
X327790Y1112147D01*
X327815Y1112106D01*
X327866Y1112065D01*
X327910Y1112016D01*
X327952Y1111994D01*
X327989Y1111965D01*
X328051Y1111944D01*
X328110Y1111913D01*
X328164Y1111905D01*
X328201Y1111893D01*
X328241Y1111894D01*
X328295Y1111886D01*
X332105Y1111886D01*
X332170Y1111897D01*
G37*
G36*
X692850Y1111897D02*
X692850Y1111897D01*
X692916Y1111899D01*
X692959Y1111917D01*
X693006Y1111925D01*
X693063Y1111959D01*
X693123Y1111984D01*
X693158Y1112015D01*
X693199Y1112040D01*
X693241Y1112091D01*
X693289Y1112135D01*
X693311Y1112177D01*
X693340Y1112214D01*
X693361Y1112276D01*
X693392Y1112335D01*
X693400Y1112389D01*
X693412Y1112426D01*
X693411Y1112466D01*
X693419Y1112520D01*
X693419Y1115060D01*
X693408Y1115125D01*
X693406Y1115191D01*
X693388Y1115234D01*
X693380Y1115281D01*
X693346Y1115338D01*
X693321Y1115398D01*
X693290Y1115433D01*
X693265Y1115474D01*
X693214Y1115516D01*
X693170Y1115564D01*
X693128Y1115586D01*
X693091Y1115615D01*
X693029Y1115636D01*
X692970Y1115667D01*
X692916Y1115675D01*
X692879Y1115687D01*
X692839Y1115686D01*
X692785Y1115694D01*
X688975Y1115694D01*
X688910Y1115683D01*
X688844Y1115681D01*
X688801Y1115663D01*
X688754Y1115655D01*
X688697Y1115621D01*
X688637Y1115596D01*
X688602Y1115565D01*
X688561Y1115540D01*
X688520Y1115489D01*
X688471Y1115445D01*
X688449Y1115403D01*
X688420Y1115366D01*
X688399Y1115304D01*
X688368Y1115245D01*
X688360Y1115191D01*
X688348Y1115154D01*
X688348Y1115151D01*
X688349Y1115114D01*
X688341Y1115060D01*
X688341Y1112520D01*
X688352Y1112455D01*
X688354Y1112389D01*
X688372Y1112346D01*
X688380Y1112299D01*
X688414Y1112242D01*
X688439Y1112182D01*
X688470Y1112147D01*
X688495Y1112106D01*
X688546Y1112065D01*
X688590Y1112016D01*
X688632Y1111994D01*
X688669Y1111965D01*
X688731Y1111944D01*
X688790Y1111913D01*
X688844Y1111905D01*
X688881Y1111893D01*
X688921Y1111894D01*
X688975Y1111886D01*
X692785Y1111886D01*
X692850Y1111897D01*
G37*
G36*
X332170Y647077D02*
X332170Y647077D01*
X332236Y647079D01*
X332279Y647097D01*
X332326Y647105D01*
X332383Y647139D01*
X332443Y647164D01*
X332478Y647195D01*
X332519Y647220D01*
X332561Y647271D01*
X332609Y647315D01*
X332631Y647357D01*
X332660Y647394D01*
X332681Y647456D01*
X332712Y647515D01*
X332720Y647569D01*
X332732Y647606D01*
X332731Y647646D01*
X332739Y647700D01*
X332739Y650240D01*
X332728Y650305D01*
X332726Y650371D01*
X332708Y650414D01*
X332700Y650461D01*
X332666Y650518D01*
X332641Y650578D01*
X332610Y650613D01*
X332585Y650654D01*
X332534Y650696D01*
X332490Y650744D01*
X332448Y650766D01*
X332411Y650795D01*
X332349Y650816D01*
X332290Y650847D01*
X332236Y650855D01*
X332199Y650867D01*
X332159Y650866D01*
X332105Y650874D01*
X328295Y650874D01*
X328230Y650863D01*
X328164Y650861D01*
X328121Y650843D01*
X328074Y650835D01*
X328017Y650801D01*
X327957Y650776D01*
X327922Y650745D01*
X327881Y650720D01*
X327840Y650669D01*
X327791Y650625D01*
X327769Y650583D01*
X327740Y650546D01*
X327719Y650484D01*
X327688Y650425D01*
X327680Y650371D01*
X327668Y650334D01*
X327668Y650331D01*
X327669Y650294D01*
X327661Y650240D01*
X327661Y647700D01*
X327672Y647635D01*
X327674Y647569D01*
X327692Y647526D01*
X327700Y647479D01*
X327734Y647422D01*
X327759Y647362D01*
X327790Y647327D01*
X327815Y647286D01*
X327866Y647245D01*
X327910Y647196D01*
X327952Y647174D01*
X327989Y647145D01*
X328051Y647124D01*
X328110Y647093D01*
X328164Y647085D01*
X328201Y647073D01*
X328241Y647074D01*
X328295Y647066D01*
X332105Y647066D01*
X332170Y647077D01*
G37*
G36*
X1053530Y647077D02*
X1053530Y647077D01*
X1053596Y647079D01*
X1053639Y647097D01*
X1053686Y647105D01*
X1053743Y647139D01*
X1053803Y647164D01*
X1053838Y647195D01*
X1053879Y647220D01*
X1053921Y647271D01*
X1053969Y647315D01*
X1053991Y647357D01*
X1054020Y647394D01*
X1054041Y647456D01*
X1054072Y647515D01*
X1054080Y647569D01*
X1054092Y647606D01*
X1054091Y647646D01*
X1054099Y647700D01*
X1054099Y650240D01*
X1054088Y650305D01*
X1054086Y650371D01*
X1054068Y650414D01*
X1054060Y650461D01*
X1054026Y650518D01*
X1054001Y650578D01*
X1053970Y650613D01*
X1053945Y650654D01*
X1053894Y650696D01*
X1053850Y650744D01*
X1053808Y650766D01*
X1053771Y650795D01*
X1053709Y650816D01*
X1053650Y650847D01*
X1053596Y650855D01*
X1053559Y650867D01*
X1053519Y650866D01*
X1053465Y650874D01*
X1049655Y650874D01*
X1049590Y650863D01*
X1049524Y650861D01*
X1049481Y650843D01*
X1049434Y650835D01*
X1049377Y650801D01*
X1049317Y650776D01*
X1049282Y650745D01*
X1049241Y650720D01*
X1049200Y650669D01*
X1049151Y650625D01*
X1049129Y650583D01*
X1049100Y650546D01*
X1049079Y650484D01*
X1049048Y650425D01*
X1049040Y650371D01*
X1049028Y650334D01*
X1049028Y650331D01*
X1049029Y650294D01*
X1049021Y650240D01*
X1049021Y647700D01*
X1049032Y647635D01*
X1049034Y647569D01*
X1049052Y647526D01*
X1049060Y647479D01*
X1049094Y647422D01*
X1049119Y647362D01*
X1049150Y647327D01*
X1049175Y647286D01*
X1049226Y647245D01*
X1049270Y647196D01*
X1049312Y647174D01*
X1049349Y647145D01*
X1049411Y647124D01*
X1049470Y647093D01*
X1049524Y647085D01*
X1049561Y647073D01*
X1049601Y647074D01*
X1049655Y647066D01*
X1053465Y647066D01*
X1053530Y647077D01*
G37*
G36*
X692850Y647077D02*
X692850Y647077D01*
X692916Y647079D01*
X692959Y647097D01*
X693006Y647105D01*
X693063Y647139D01*
X693123Y647164D01*
X693158Y647195D01*
X693199Y647220D01*
X693241Y647271D01*
X693289Y647315D01*
X693311Y647357D01*
X693340Y647394D01*
X693361Y647456D01*
X693392Y647515D01*
X693400Y647569D01*
X693412Y647606D01*
X693411Y647646D01*
X693419Y647700D01*
X693419Y650240D01*
X693408Y650305D01*
X693406Y650371D01*
X693388Y650414D01*
X693380Y650461D01*
X693346Y650518D01*
X693321Y650578D01*
X693290Y650613D01*
X693265Y650654D01*
X693214Y650696D01*
X693170Y650744D01*
X693128Y650766D01*
X693091Y650795D01*
X693029Y650816D01*
X692970Y650847D01*
X692916Y650855D01*
X692879Y650867D01*
X692839Y650866D01*
X692785Y650874D01*
X688975Y650874D01*
X688910Y650863D01*
X688844Y650861D01*
X688801Y650843D01*
X688754Y650835D01*
X688697Y650801D01*
X688637Y650776D01*
X688602Y650745D01*
X688561Y650720D01*
X688520Y650669D01*
X688471Y650625D01*
X688449Y650583D01*
X688420Y650546D01*
X688399Y650484D01*
X688368Y650425D01*
X688360Y650371D01*
X688348Y650334D01*
X688348Y650331D01*
X688349Y650294D01*
X688341Y650240D01*
X688341Y647700D01*
X688352Y647635D01*
X688354Y647569D01*
X688372Y647526D01*
X688380Y647479D01*
X688414Y647422D01*
X688439Y647362D01*
X688470Y647327D01*
X688495Y647286D01*
X688546Y647245D01*
X688590Y647196D01*
X688632Y647174D01*
X688669Y647145D01*
X688731Y647124D01*
X688790Y647093D01*
X688844Y647085D01*
X688881Y647073D01*
X688921Y647074D01*
X688975Y647066D01*
X692785Y647066D01*
X692850Y647077D01*
G37*
G36*
X332170Y616597D02*
X332170Y616597D01*
X332236Y616599D01*
X332279Y616617D01*
X332326Y616625D01*
X332383Y616659D01*
X332443Y616684D01*
X332478Y616715D01*
X332519Y616740D01*
X332561Y616791D01*
X332609Y616835D01*
X332631Y616877D01*
X332660Y616914D01*
X332681Y616976D01*
X332712Y617035D01*
X332720Y617089D01*
X332732Y617126D01*
X332731Y617166D01*
X332739Y617220D01*
X332739Y619760D01*
X332728Y619825D01*
X332726Y619891D01*
X332708Y619934D01*
X332700Y619981D01*
X332666Y620038D01*
X332641Y620098D01*
X332610Y620133D01*
X332585Y620174D01*
X332534Y620216D01*
X332490Y620264D01*
X332448Y620286D01*
X332411Y620315D01*
X332349Y620336D01*
X332290Y620367D01*
X332236Y620375D01*
X332199Y620387D01*
X332159Y620386D01*
X332105Y620394D01*
X328295Y620394D01*
X328230Y620383D01*
X328164Y620381D01*
X328121Y620363D01*
X328074Y620355D01*
X328017Y620321D01*
X327957Y620296D01*
X327922Y620265D01*
X327881Y620240D01*
X327840Y620189D01*
X327791Y620145D01*
X327769Y620103D01*
X327740Y620066D01*
X327719Y620004D01*
X327688Y619945D01*
X327680Y619891D01*
X327668Y619854D01*
X327668Y619851D01*
X327669Y619814D01*
X327661Y619760D01*
X327661Y617220D01*
X327672Y617155D01*
X327674Y617089D01*
X327692Y617046D01*
X327700Y616999D01*
X327734Y616942D01*
X327759Y616882D01*
X327790Y616847D01*
X327815Y616806D01*
X327866Y616765D01*
X327910Y616716D01*
X327952Y616694D01*
X327989Y616665D01*
X328051Y616644D01*
X328110Y616613D01*
X328164Y616605D01*
X328201Y616593D01*
X328241Y616594D01*
X328295Y616586D01*
X332105Y616586D01*
X332170Y616597D01*
G37*
G36*
X1053530Y616597D02*
X1053530Y616597D01*
X1053596Y616599D01*
X1053639Y616617D01*
X1053686Y616625D01*
X1053743Y616659D01*
X1053803Y616684D01*
X1053838Y616715D01*
X1053879Y616740D01*
X1053921Y616791D01*
X1053969Y616835D01*
X1053991Y616877D01*
X1054020Y616914D01*
X1054041Y616976D01*
X1054072Y617035D01*
X1054080Y617089D01*
X1054092Y617126D01*
X1054091Y617166D01*
X1054099Y617220D01*
X1054099Y619760D01*
X1054088Y619825D01*
X1054086Y619891D01*
X1054068Y619934D01*
X1054060Y619981D01*
X1054026Y620038D01*
X1054001Y620098D01*
X1053970Y620133D01*
X1053945Y620174D01*
X1053894Y620216D01*
X1053850Y620264D01*
X1053808Y620286D01*
X1053771Y620315D01*
X1053709Y620336D01*
X1053650Y620367D01*
X1053596Y620375D01*
X1053559Y620387D01*
X1053519Y620386D01*
X1053465Y620394D01*
X1049655Y620394D01*
X1049590Y620383D01*
X1049524Y620381D01*
X1049481Y620363D01*
X1049434Y620355D01*
X1049377Y620321D01*
X1049317Y620296D01*
X1049282Y620265D01*
X1049241Y620240D01*
X1049200Y620189D01*
X1049151Y620145D01*
X1049129Y620103D01*
X1049100Y620066D01*
X1049079Y620004D01*
X1049048Y619945D01*
X1049040Y619891D01*
X1049028Y619854D01*
X1049028Y619851D01*
X1049029Y619814D01*
X1049021Y619760D01*
X1049021Y617220D01*
X1049032Y617155D01*
X1049034Y617089D01*
X1049052Y617046D01*
X1049060Y616999D01*
X1049094Y616942D01*
X1049119Y616882D01*
X1049150Y616847D01*
X1049175Y616806D01*
X1049226Y616765D01*
X1049270Y616716D01*
X1049312Y616694D01*
X1049349Y616665D01*
X1049411Y616644D01*
X1049470Y616613D01*
X1049524Y616605D01*
X1049561Y616593D01*
X1049601Y616594D01*
X1049655Y616586D01*
X1053465Y616586D01*
X1053530Y616597D01*
G37*
G36*
X692850Y616597D02*
X692850Y616597D01*
X692916Y616599D01*
X692959Y616617D01*
X693006Y616625D01*
X693063Y616659D01*
X693123Y616684D01*
X693158Y616715D01*
X693199Y616740D01*
X693241Y616791D01*
X693289Y616835D01*
X693311Y616877D01*
X693340Y616914D01*
X693361Y616976D01*
X693392Y617035D01*
X693400Y617089D01*
X693412Y617126D01*
X693411Y617166D01*
X693419Y617220D01*
X693419Y619760D01*
X693408Y619825D01*
X693406Y619891D01*
X693388Y619934D01*
X693380Y619981D01*
X693346Y620038D01*
X693321Y620098D01*
X693290Y620133D01*
X693265Y620174D01*
X693214Y620216D01*
X693170Y620264D01*
X693128Y620286D01*
X693091Y620315D01*
X693029Y620336D01*
X692970Y620367D01*
X692916Y620375D01*
X692879Y620387D01*
X692839Y620386D01*
X692785Y620394D01*
X688975Y620394D01*
X688910Y620383D01*
X688844Y620381D01*
X688801Y620363D01*
X688754Y620355D01*
X688697Y620321D01*
X688637Y620296D01*
X688602Y620265D01*
X688561Y620240D01*
X688520Y620189D01*
X688471Y620145D01*
X688449Y620103D01*
X688420Y620066D01*
X688399Y620004D01*
X688368Y619945D01*
X688360Y619891D01*
X688348Y619854D01*
X688348Y619851D01*
X688349Y619814D01*
X688341Y619760D01*
X688341Y617220D01*
X688352Y617155D01*
X688354Y617089D01*
X688372Y617046D01*
X688380Y616999D01*
X688414Y616942D01*
X688439Y616882D01*
X688470Y616847D01*
X688495Y616806D01*
X688546Y616765D01*
X688590Y616716D01*
X688632Y616694D01*
X688669Y616665D01*
X688731Y616644D01*
X688790Y616613D01*
X688844Y616605D01*
X688881Y616593D01*
X688921Y616594D01*
X688975Y616586D01*
X692785Y616586D01*
X692850Y616597D01*
G37*
G36*
X174690Y593737D02*
X174690Y593737D01*
X174756Y593739D01*
X174799Y593757D01*
X174846Y593765D01*
X174903Y593799D01*
X174963Y593824D01*
X174998Y593855D01*
X175039Y593880D01*
X175081Y593931D01*
X175129Y593975D01*
X175151Y594017D01*
X175180Y594054D01*
X175201Y594116D01*
X175232Y594175D01*
X175240Y594229D01*
X175252Y594266D01*
X175251Y594306D01*
X175259Y594360D01*
X175259Y596900D01*
X175248Y596965D01*
X175246Y597031D01*
X175228Y597074D01*
X175220Y597121D01*
X175186Y597178D01*
X175161Y597238D01*
X175130Y597273D01*
X175105Y597314D01*
X175054Y597356D01*
X175010Y597404D01*
X174968Y597426D01*
X174931Y597455D01*
X174869Y597476D01*
X174810Y597507D01*
X174756Y597515D01*
X174719Y597527D01*
X174679Y597526D01*
X174625Y597534D01*
X170815Y597534D01*
X170750Y597523D01*
X170684Y597521D01*
X170641Y597503D01*
X170594Y597495D01*
X170537Y597461D01*
X170477Y597436D01*
X170442Y597405D01*
X170401Y597380D01*
X170360Y597329D01*
X170311Y597285D01*
X170289Y597243D01*
X170260Y597206D01*
X170239Y597144D01*
X170208Y597085D01*
X170200Y597031D01*
X170188Y596994D01*
X170188Y596991D01*
X170189Y596954D01*
X170181Y596900D01*
X170181Y594360D01*
X170192Y594295D01*
X170194Y594229D01*
X170212Y594186D01*
X170220Y594139D01*
X170254Y594082D01*
X170279Y594022D01*
X170310Y593987D01*
X170335Y593946D01*
X170386Y593905D01*
X170430Y593856D01*
X170472Y593834D01*
X170509Y593805D01*
X170571Y593784D01*
X170630Y593753D01*
X170684Y593745D01*
X170721Y593733D01*
X170761Y593734D01*
X170815Y593726D01*
X174625Y593726D01*
X174690Y593737D01*
G37*
G36*
X906210Y593737D02*
X906210Y593737D01*
X906276Y593739D01*
X906319Y593757D01*
X906366Y593765D01*
X906423Y593799D01*
X906483Y593824D01*
X906518Y593855D01*
X906559Y593880D01*
X906601Y593931D01*
X906649Y593975D01*
X906671Y594017D01*
X906700Y594054D01*
X906721Y594116D01*
X906752Y594175D01*
X906760Y594229D01*
X906772Y594266D01*
X906771Y594306D01*
X906779Y594360D01*
X906779Y596900D01*
X906768Y596965D01*
X906766Y597031D01*
X906748Y597074D01*
X906740Y597121D01*
X906706Y597178D01*
X906681Y597238D01*
X906650Y597273D01*
X906625Y597314D01*
X906574Y597356D01*
X906530Y597404D01*
X906488Y597426D01*
X906451Y597455D01*
X906389Y597476D01*
X906330Y597507D01*
X906276Y597515D01*
X906239Y597527D01*
X906199Y597526D01*
X906145Y597534D01*
X902335Y597534D01*
X902270Y597523D01*
X902204Y597521D01*
X902161Y597503D01*
X902114Y597495D01*
X902057Y597461D01*
X901997Y597436D01*
X901962Y597405D01*
X901921Y597380D01*
X901880Y597329D01*
X901831Y597285D01*
X901809Y597243D01*
X901780Y597206D01*
X901759Y597144D01*
X901728Y597085D01*
X901720Y597031D01*
X901708Y596994D01*
X901708Y596991D01*
X901709Y596954D01*
X901701Y596900D01*
X901701Y594360D01*
X901712Y594295D01*
X901714Y594229D01*
X901732Y594186D01*
X901740Y594139D01*
X901774Y594082D01*
X901799Y594022D01*
X901830Y593987D01*
X901855Y593946D01*
X901906Y593905D01*
X901950Y593856D01*
X901992Y593834D01*
X902029Y593805D01*
X902091Y593784D01*
X902150Y593753D01*
X902204Y593745D01*
X902241Y593733D01*
X902281Y593734D01*
X902335Y593726D01*
X906145Y593726D01*
X906210Y593737D01*
G37*
G36*
X184850Y593737D02*
X184850Y593737D01*
X184916Y593739D01*
X184959Y593757D01*
X185006Y593765D01*
X185063Y593799D01*
X185123Y593824D01*
X185158Y593855D01*
X185199Y593880D01*
X185241Y593931D01*
X185289Y593975D01*
X185311Y594017D01*
X185340Y594054D01*
X185361Y594116D01*
X185392Y594175D01*
X185400Y594229D01*
X185412Y594266D01*
X185411Y594306D01*
X185419Y594360D01*
X185419Y596900D01*
X185408Y596965D01*
X185406Y597031D01*
X185388Y597074D01*
X185380Y597121D01*
X185346Y597178D01*
X185321Y597238D01*
X185290Y597273D01*
X185265Y597314D01*
X185214Y597356D01*
X185170Y597404D01*
X185128Y597426D01*
X185091Y597455D01*
X185029Y597476D01*
X184970Y597507D01*
X184916Y597515D01*
X184879Y597527D01*
X184839Y597526D01*
X184785Y597534D01*
X180975Y597534D01*
X180910Y597523D01*
X180844Y597521D01*
X180801Y597503D01*
X180754Y597495D01*
X180697Y597461D01*
X180637Y597436D01*
X180602Y597405D01*
X180561Y597380D01*
X180520Y597329D01*
X180471Y597285D01*
X180449Y597243D01*
X180420Y597206D01*
X180399Y597144D01*
X180368Y597085D01*
X180360Y597031D01*
X180348Y596994D01*
X180348Y596991D01*
X180349Y596954D01*
X180341Y596900D01*
X180341Y594360D01*
X180352Y594295D01*
X180354Y594229D01*
X180372Y594186D01*
X180380Y594139D01*
X180414Y594082D01*
X180439Y594022D01*
X180470Y593987D01*
X180495Y593946D01*
X180546Y593905D01*
X180590Y593856D01*
X180632Y593834D01*
X180669Y593805D01*
X180731Y593784D01*
X180790Y593753D01*
X180844Y593745D01*
X180881Y593733D01*
X180921Y593734D01*
X180975Y593726D01*
X184785Y593726D01*
X184850Y593737D01*
G37*
G36*
X896050Y593737D02*
X896050Y593737D01*
X896116Y593739D01*
X896159Y593757D01*
X896206Y593765D01*
X896263Y593799D01*
X896323Y593824D01*
X896358Y593855D01*
X896399Y593880D01*
X896441Y593931D01*
X896489Y593975D01*
X896511Y594017D01*
X896540Y594054D01*
X896561Y594116D01*
X896592Y594175D01*
X896600Y594229D01*
X896612Y594266D01*
X896611Y594306D01*
X896619Y594360D01*
X896619Y596900D01*
X896608Y596965D01*
X896606Y597031D01*
X896588Y597074D01*
X896580Y597121D01*
X896546Y597178D01*
X896521Y597238D01*
X896490Y597273D01*
X896465Y597314D01*
X896414Y597356D01*
X896370Y597404D01*
X896328Y597426D01*
X896291Y597455D01*
X896229Y597476D01*
X896170Y597507D01*
X896116Y597515D01*
X896079Y597527D01*
X896039Y597526D01*
X895985Y597534D01*
X892175Y597534D01*
X892110Y597523D01*
X892044Y597521D01*
X892001Y597503D01*
X891954Y597495D01*
X891897Y597461D01*
X891837Y597436D01*
X891802Y597405D01*
X891761Y597380D01*
X891720Y597329D01*
X891671Y597285D01*
X891649Y597243D01*
X891620Y597206D01*
X891599Y597144D01*
X891568Y597085D01*
X891560Y597031D01*
X891548Y596994D01*
X891548Y596991D01*
X891549Y596954D01*
X891541Y596900D01*
X891541Y594360D01*
X891552Y594295D01*
X891554Y594229D01*
X891572Y594186D01*
X891580Y594139D01*
X891614Y594082D01*
X891639Y594022D01*
X891670Y593987D01*
X891695Y593946D01*
X891746Y593905D01*
X891790Y593856D01*
X891832Y593834D01*
X891869Y593805D01*
X891931Y593784D01*
X891990Y593753D01*
X892044Y593745D01*
X892081Y593733D01*
X892121Y593734D01*
X892175Y593726D01*
X895985Y593726D01*
X896050Y593737D01*
G37*
G36*
X545530Y593737D02*
X545530Y593737D01*
X545596Y593739D01*
X545639Y593757D01*
X545686Y593765D01*
X545743Y593799D01*
X545803Y593824D01*
X545838Y593855D01*
X545879Y593880D01*
X545921Y593931D01*
X545969Y593975D01*
X545991Y594017D01*
X546020Y594054D01*
X546041Y594116D01*
X546072Y594175D01*
X546080Y594229D01*
X546092Y594266D01*
X546091Y594306D01*
X546099Y594360D01*
X546099Y596900D01*
X546088Y596965D01*
X546086Y597031D01*
X546068Y597074D01*
X546060Y597121D01*
X546026Y597178D01*
X546001Y597238D01*
X545970Y597273D01*
X545945Y597314D01*
X545894Y597356D01*
X545850Y597404D01*
X545808Y597426D01*
X545771Y597455D01*
X545709Y597476D01*
X545650Y597507D01*
X545596Y597515D01*
X545559Y597527D01*
X545519Y597526D01*
X545465Y597534D01*
X541655Y597534D01*
X541590Y597523D01*
X541524Y597521D01*
X541481Y597503D01*
X541434Y597495D01*
X541377Y597461D01*
X541317Y597436D01*
X541282Y597405D01*
X541241Y597380D01*
X541200Y597329D01*
X541151Y597285D01*
X541129Y597243D01*
X541100Y597206D01*
X541079Y597144D01*
X541048Y597085D01*
X541040Y597031D01*
X541028Y596994D01*
X541028Y596991D01*
X541029Y596954D01*
X541021Y596900D01*
X541021Y594360D01*
X541032Y594295D01*
X541034Y594229D01*
X541052Y594186D01*
X541060Y594139D01*
X541094Y594082D01*
X541119Y594022D01*
X541150Y593987D01*
X541175Y593946D01*
X541226Y593905D01*
X541270Y593856D01*
X541312Y593834D01*
X541349Y593805D01*
X541411Y593784D01*
X541470Y593753D01*
X541524Y593745D01*
X541561Y593733D01*
X541601Y593734D01*
X541655Y593726D01*
X545465Y593726D01*
X545530Y593737D01*
G37*
G36*
X535370Y593737D02*
X535370Y593737D01*
X535436Y593739D01*
X535479Y593757D01*
X535526Y593765D01*
X535583Y593799D01*
X535643Y593824D01*
X535678Y593855D01*
X535719Y593880D01*
X535761Y593931D01*
X535809Y593975D01*
X535831Y594017D01*
X535860Y594054D01*
X535881Y594116D01*
X535912Y594175D01*
X535920Y594229D01*
X535932Y594266D01*
X535931Y594306D01*
X535939Y594360D01*
X535939Y596900D01*
X535928Y596965D01*
X535926Y597031D01*
X535908Y597074D01*
X535900Y597121D01*
X535866Y597178D01*
X535841Y597238D01*
X535810Y597273D01*
X535785Y597314D01*
X535734Y597356D01*
X535690Y597404D01*
X535648Y597426D01*
X535611Y597455D01*
X535549Y597476D01*
X535490Y597507D01*
X535436Y597515D01*
X535399Y597527D01*
X535359Y597526D01*
X535305Y597534D01*
X531495Y597534D01*
X531430Y597523D01*
X531364Y597521D01*
X531321Y597503D01*
X531274Y597495D01*
X531217Y597461D01*
X531157Y597436D01*
X531122Y597405D01*
X531081Y597380D01*
X531040Y597329D01*
X530991Y597285D01*
X530969Y597243D01*
X530940Y597206D01*
X530919Y597144D01*
X530888Y597085D01*
X530880Y597031D01*
X530868Y596994D01*
X530868Y596991D01*
X530869Y596954D01*
X530861Y596900D01*
X530861Y594360D01*
X530872Y594295D01*
X530874Y594229D01*
X530892Y594186D01*
X530900Y594139D01*
X530934Y594082D01*
X530959Y594022D01*
X530990Y593987D01*
X531015Y593946D01*
X531066Y593905D01*
X531110Y593856D01*
X531152Y593834D01*
X531189Y593805D01*
X531251Y593784D01*
X531310Y593753D01*
X531364Y593745D01*
X531401Y593733D01*
X531441Y593734D01*
X531495Y593726D01*
X535305Y593726D01*
X535370Y593737D01*
G37*
G36*
X332170Y586117D02*
X332170Y586117D01*
X332236Y586119D01*
X332279Y586137D01*
X332326Y586145D01*
X332383Y586179D01*
X332443Y586204D01*
X332478Y586235D01*
X332519Y586260D01*
X332561Y586311D01*
X332609Y586355D01*
X332631Y586397D01*
X332660Y586434D01*
X332681Y586496D01*
X332712Y586555D01*
X332720Y586609D01*
X332732Y586646D01*
X332731Y586686D01*
X332739Y586740D01*
X332739Y589280D01*
X332728Y589345D01*
X332726Y589411D01*
X332708Y589454D01*
X332700Y589501D01*
X332666Y589558D01*
X332641Y589618D01*
X332610Y589653D01*
X332585Y589694D01*
X332534Y589736D01*
X332490Y589784D01*
X332448Y589806D01*
X332411Y589835D01*
X332349Y589856D01*
X332290Y589887D01*
X332236Y589895D01*
X332199Y589907D01*
X332159Y589906D01*
X332105Y589914D01*
X328295Y589914D01*
X328230Y589903D01*
X328164Y589901D01*
X328121Y589883D01*
X328074Y589875D01*
X328017Y589841D01*
X327957Y589816D01*
X327922Y589785D01*
X327881Y589760D01*
X327840Y589709D01*
X327791Y589665D01*
X327769Y589623D01*
X327740Y589586D01*
X327719Y589524D01*
X327688Y589465D01*
X327680Y589411D01*
X327668Y589374D01*
X327668Y589371D01*
X327669Y589334D01*
X327661Y589280D01*
X327661Y586740D01*
X327672Y586675D01*
X327674Y586609D01*
X327692Y586566D01*
X327700Y586519D01*
X327734Y586462D01*
X327759Y586402D01*
X327790Y586367D01*
X327815Y586326D01*
X327866Y586285D01*
X327910Y586236D01*
X327952Y586214D01*
X327989Y586185D01*
X328051Y586164D01*
X328110Y586133D01*
X328164Y586125D01*
X328201Y586113D01*
X328241Y586114D01*
X328295Y586106D01*
X332105Y586106D01*
X332170Y586117D01*
G37*
G36*
X692850Y586117D02*
X692850Y586117D01*
X692916Y586119D01*
X692959Y586137D01*
X693006Y586145D01*
X693063Y586179D01*
X693123Y586204D01*
X693158Y586235D01*
X693199Y586260D01*
X693241Y586311D01*
X693289Y586355D01*
X693311Y586397D01*
X693340Y586434D01*
X693361Y586496D01*
X693392Y586555D01*
X693400Y586609D01*
X693412Y586646D01*
X693411Y586686D01*
X693419Y586740D01*
X693419Y589280D01*
X693408Y589345D01*
X693406Y589411D01*
X693388Y589454D01*
X693380Y589501D01*
X693346Y589558D01*
X693321Y589618D01*
X693290Y589653D01*
X693265Y589694D01*
X693214Y589736D01*
X693170Y589784D01*
X693128Y589806D01*
X693091Y589835D01*
X693029Y589856D01*
X692970Y589887D01*
X692916Y589895D01*
X692879Y589907D01*
X692839Y589906D01*
X692785Y589914D01*
X688975Y589914D01*
X688910Y589903D01*
X688844Y589901D01*
X688801Y589883D01*
X688754Y589875D01*
X688697Y589841D01*
X688637Y589816D01*
X688602Y589785D01*
X688561Y589760D01*
X688520Y589709D01*
X688471Y589665D01*
X688449Y589623D01*
X688420Y589586D01*
X688399Y589524D01*
X688368Y589465D01*
X688360Y589411D01*
X688348Y589374D01*
X688348Y589371D01*
X688349Y589334D01*
X688341Y589280D01*
X688341Y586740D01*
X688352Y586675D01*
X688354Y586609D01*
X688372Y586566D01*
X688380Y586519D01*
X688414Y586462D01*
X688439Y586402D01*
X688470Y586367D01*
X688495Y586326D01*
X688546Y586285D01*
X688590Y586236D01*
X688632Y586214D01*
X688669Y586185D01*
X688731Y586164D01*
X688790Y586133D01*
X688844Y586125D01*
X688881Y586113D01*
X688921Y586114D01*
X688975Y586106D01*
X692785Y586106D01*
X692850Y586117D01*
G37*
G36*
X1053530Y586117D02*
X1053530Y586117D01*
X1053596Y586119D01*
X1053639Y586137D01*
X1053686Y586145D01*
X1053743Y586179D01*
X1053803Y586204D01*
X1053838Y586235D01*
X1053879Y586260D01*
X1053921Y586311D01*
X1053969Y586355D01*
X1053991Y586397D01*
X1054020Y586434D01*
X1054041Y586496D01*
X1054072Y586555D01*
X1054080Y586609D01*
X1054092Y586646D01*
X1054091Y586686D01*
X1054099Y586740D01*
X1054099Y589280D01*
X1054088Y589345D01*
X1054086Y589411D01*
X1054068Y589454D01*
X1054060Y589501D01*
X1054026Y589558D01*
X1054001Y589618D01*
X1053970Y589653D01*
X1053945Y589694D01*
X1053894Y589736D01*
X1053850Y589784D01*
X1053808Y589806D01*
X1053771Y589835D01*
X1053709Y589856D01*
X1053650Y589887D01*
X1053596Y589895D01*
X1053559Y589907D01*
X1053519Y589906D01*
X1053465Y589914D01*
X1049655Y589914D01*
X1049590Y589903D01*
X1049524Y589901D01*
X1049481Y589883D01*
X1049434Y589875D01*
X1049377Y589841D01*
X1049317Y589816D01*
X1049282Y589785D01*
X1049241Y589760D01*
X1049200Y589709D01*
X1049151Y589665D01*
X1049129Y589623D01*
X1049100Y589586D01*
X1049079Y589524D01*
X1049048Y589465D01*
X1049040Y589411D01*
X1049028Y589374D01*
X1049028Y589371D01*
X1049029Y589334D01*
X1049021Y589280D01*
X1049021Y586740D01*
X1049032Y586675D01*
X1049034Y586609D01*
X1049052Y586566D01*
X1049060Y586519D01*
X1049094Y586462D01*
X1049119Y586402D01*
X1049150Y586367D01*
X1049175Y586326D01*
X1049226Y586285D01*
X1049270Y586236D01*
X1049312Y586214D01*
X1049349Y586185D01*
X1049411Y586164D01*
X1049470Y586133D01*
X1049524Y586125D01*
X1049561Y586113D01*
X1049601Y586114D01*
X1049655Y586106D01*
X1053465Y586106D01*
X1053530Y586117D01*
G37*
G36*
X1053530Y121297D02*
X1053530Y121297D01*
X1053596Y121299D01*
X1053639Y121317D01*
X1053686Y121325D01*
X1053743Y121359D01*
X1053803Y121384D01*
X1053838Y121415D01*
X1053879Y121440D01*
X1053921Y121491D01*
X1053969Y121535D01*
X1053991Y121577D01*
X1054020Y121614D01*
X1054041Y121676D01*
X1054072Y121735D01*
X1054080Y121789D01*
X1054092Y121826D01*
X1054091Y121866D01*
X1054099Y121920D01*
X1054099Y124460D01*
X1054088Y124525D01*
X1054086Y124591D01*
X1054068Y124634D01*
X1054060Y124681D01*
X1054026Y124738D01*
X1054001Y124798D01*
X1053970Y124833D01*
X1053945Y124874D01*
X1053894Y124916D01*
X1053850Y124964D01*
X1053808Y124986D01*
X1053771Y125015D01*
X1053709Y125036D01*
X1053650Y125067D01*
X1053596Y125075D01*
X1053559Y125087D01*
X1053519Y125086D01*
X1053465Y125094D01*
X1049655Y125094D01*
X1049590Y125083D01*
X1049524Y125081D01*
X1049481Y125063D01*
X1049434Y125055D01*
X1049377Y125021D01*
X1049317Y124996D01*
X1049282Y124965D01*
X1049241Y124940D01*
X1049200Y124889D01*
X1049151Y124845D01*
X1049129Y124803D01*
X1049100Y124766D01*
X1049079Y124704D01*
X1049048Y124645D01*
X1049040Y124591D01*
X1049028Y124554D01*
X1049028Y124551D01*
X1049029Y124514D01*
X1049021Y124460D01*
X1049021Y121920D01*
X1049032Y121855D01*
X1049034Y121789D01*
X1049052Y121746D01*
X1049060Y121699D01*
X1049094Y121642D01*
X1049119Y121582D01*
X1049150Y121547D01*
X1049175Y121506D01*
X1049226Y121465D01*
X1049270Y121416D01*
X1049312Y121394D01*
X1049349Y121365D01*
X1049411Y121344D01*
X1049470Y121313D01*
X1049524Y121305D01*
X1049561Y121293D01*
X1049601Y121294D01*
X1049655Y121286D01*
X1053465Y121286D01*
X1053530Y121297D01*
G37*
G36*
X692850Y121297D02*
X692850Y121297D01*
X692916Y121299D01*
X692959Y121317D01*
X693006Y121325D01*
X693063Y121359D01*
X693123Y121384D01*
X693158Y121415D01*
X693199Y121440D01*
X693241Y121491D01*
X693289Y121535D01*
X693311Y121577D01*
X693340Y121614D01*
X693361Y121676D01*
X693392Y121735D01*
X693400Y121789D01*
X693412Y121826D01*
X693411Y121866D01*
X693419Y121920D01*
X693419Y124460D01*
X693408Y124525D01*
X693406Y124591D01*
X693388Y124634D01*
X693380Y124681D01*
X693346Y124738D01*
X693321Y124798D01*
X693290Y124833D01*
X693265Y124874D01*
X693214Y124916D01*
X693170Y124964D01*
X693128Y124986D01*
X693091Y125015D01*
X693029Y125036D01*
X692970Y125067D01*
X692916Y125075D01*
X692879Y125087D01*
X692839Y125086D01*
X692785Y125094D01*
X688975Y125094D01*
X688910Y125083D01*
X688844Y125081D01*
X688801Y125063D01*
X688754Y125055D01*
X688697Y125021D01*
X688637Y124996D01*
X688602Y124965D01*
X688561Y124940D01*
X688520Y124889D01*
X688471Y124845D01*
X688449Y124803D01*
X688420Y124766D01*
X688399Y124704D01*
X688368Y124645D01*
X688360Y124591D01*
X688348Y124554D01*
X688348Y124551D01*
X688349Y124514D01*
X688341Y124460D01*
X688341Y121920D01*
X688352Y121855D01*
X688354Y121789D01*
X688372Y121746D01*
X688380Y121699D01*
X688414Y121642D01*
X688439Y121582D01*
X688470Y121547D01*
X688495Y121506D01*
X688546Y121465D01*
X688590Y121416D01*
X688632Y121394D01*
X688669Y121365D01*
X688731Y121344D01*
X688790Y121313D01*
X688844Y121305D01*
X688881Y121293D01*
X688921Y121294D01*
X688975Y121286D01*
X692785Y121286D01*
X692850Y121297D01*
G37*
G36*
X332170Y121297D02*
X332170Y121297D01*
X332236Y121299D01*
X332279Y121317D01*
X332326Y121325D01*
X332383Y121359D01*
X332443Y121384D01*
X332478Y121415D01*
X332519Y121440D01*
X332561Y121491D01*
X332609Y121535D01*
X332631Y121577D01*
X332660Y121614D01*
X332681Y121676D01*
X332712Y121735D01*
X332720Y121789D01*
X332732Y121826D01*
X332731Y121866D01*
X332739Y121920D01*
X332739Y124460D01*
X332728Y124525D01*
X332726Y124591D01*
X332708Y124634D01*
X332700Y124681D01*
X332666Y124738D01*
X332641Y124798D01*
X332610Y124833D01*
X332585Y124874D01*
X332534Y124916D01*
X332490Y124964D01*
X332448Y124986D01*
X332411Y125015D01*
X332349Y125036D01*
X332290Y125067D01*
X332236Y125075D01*
X332199Y125087D01*
X332159Y125086D01*
X332105Y125094D01*
X328295Y125094D01*
X328230Y125083D01*
X328164Y125081D01*
X328121Y125063D01*
X328074Y125055D01*
X328017Y125021D01*
X327957Y124996D01*
X327922Y124965D01*
X327881Y124940D01*
X327840Y124889D01*
X327791Y124845D01*
X327769Y124803D01*
X327740Y124766D01*
X327719Y124704D01*
X327688Y124645D01*
X327680Y124591D01*
X327668Y124554D01*
X327668Y124551D01*
X327669Y124514D01*
X327661Y124460D01*
X327661Y121920D01*
X327672Y121855D01*
X327674Y121789D01*
X327692Y121746D01*
X327700Y121699D01*
X327734Y121642D01*
X327759Y121582D01*
X327790Y121547D01*
X327815Y121506D01*
X327866Y121465D01*
X327910Y121416D01*
X327952Y121394D01*
X327989Y121365D01*
X328051Y121344D01*
X328110Y121313D01*
X328164Y121305D01*
X328201Y121293D01*
X328241Y121294D01*
X328295Y121286D01*
X332105Y121286D01*
X332170Y121297D01*
G37*
G36*
X332170Y90817D02*
X332170Y90817D01*
X332236Y90819D01*
X332279Y90837D01*
X332326Y90845D01*
X332383Y90879D01*
X332443Y90904D01*
X332478Y90935D01*
X332519Y90960D01*
X332561Y91011D01*
X332609Y91055D01*
X332631Y91097D01*
X332660Y91134D01*
X332681Y91196D01*
X332712Y91255D01*
X332720Y91309D01*
X332732Y91346D01*
X332731Y91386D01*
X332739Y91440D01*
X332739Y93980D01*
X332728Y94045D01*
X332726Y94111D01*
X332708Y94154D01*
X332700Y94201D01*
X332666Y94258D01*
X332641Y94318D01*
X332610Y94353D01*
X332585Y94394D01*
X332534Y94436D01*
X332490Y94484D01*
X332448Y94506D01*
X332411Y94535D01*
X332349Y94556D01*
X332290Y94587D01*
X332236Y94595D01*
X332199Y94607D01*
X332159Y94606D01*
X332105Y94614D01*
X328295Y94614D01*
X328230Y94603D01*
X328164Y94601D01*
X328121Y94583D01*
X328074Y94575D01*
X328017Y94541D01*
X327957Y94516D01*
X327922Y94485D01*
X327881Y94460D01*
X327840Y94409D01*
X327791Y94365D01*
X327769Y94323D01*
X327740Y94286D01*
X327719Y94224D01*
X327688Y94165D01*
X327680Y94111D01*
X327668Y94074D01*
X327668Y94071D01*
X327669Y94034D01*
X327661Y93980D01*
X327661Y91440D01*
X327672Y91375D01*
X327674Y91309D01*
X327692Y91266D01*
X327700Y91219D01*
X327734Y91162D01*
X327759Y91102D01*
X327790Y91067D01*
X327815Y91026D01*
X327866Y90985D01*
X327910Y90936D01*
X327952Y90914D01*
X327989Y90885D01*
X328051Y90864D01*
X328110Y90833D01*
X328164Y90825D01*
X328201Y90813D01*
X328241Y90814D01*
X328295Y90806D01*
X332105Y90806D01*
X332170Y90817D01*
G37*
G36*
X692850Y90817D02*
X692850Y90817D01*
X692916Y90819D01*
X692959Y90837D01*
X693006Y90845D01*
X693063Y90879D01*
X693123Y90904D01*
X693158Y90935D01*
X693199Y90960D01*
X693241Y91011D01*
X693289Y91055D01*
X693311Y91097D01*
X693340Y91134D01*
X693361Y91196D01*
X693392Y91255D01*
X693400Y91309D01*
X693412Y91346D01*
X693411Y91386D01*
X693419Y91440D01*
X693419Y93980D01*
X693408Y94045D01*
X693406Y94111D01*
X693388Y94154D01*
X693380Y94201D01*
X693346Y94258D01*
X693321Y94318D01*
X693290Y94353D01*
X693265Y94394D01*
X693214Y94436D01*
X693170Y94484D01*
X693128Y94506D01*
X693091Y94535D01*
X693029Y94556D01*
X692970Y94587D01*
X692916Y94595D01*
X692879Y94607D01*
X692839Y94606D01*
X692785Y94614D01*
X688975Y94614D01*
X688910Y94603D01*
X688844Y94601D01*
X688801Y94583D01*
X688754Y94575D01*
X688697Y94541D01*
X688637Y94516D01*
X688602Y94485D01*
X688561Y94460D01*
X688520Y94409D01*
X688471Y94365D01*
X688449Y94323D01*
X688420Y94286D01*
X688399Y94224D01*
X688368Y94165D01*
X688360Y94111D01*
X688348Y94074D01*
X688348Y94071D01*
X688349Y94034D01*
X688341Y93980D01*
X688341Y91440D01*
X688352Y91375D01*
X688354Y91309D01*
X688372Y91266D01*
X688380Y91219D01*
X688414Y91162D01*
X688439Y91102D01*
X688470Y91067D01*
X688495Y91026D01*
X688546Y90985D01*
X688590Y90936D01*
X688632Y90914D01*
X688669Y90885D01*
X688731Y90864D01*
X688790Y90833D01*
X688844Y90825D01*
X688881Y90813D01*
X688921Y90814D01*
X688975Y90806D01*
X692785Y90806D01*
X692850Y90817D01*
G37*
G36*
X1053530Y90817D02*
X1053530Y90817D01*
X1053596Y90819D01*
X1053639Y90837D01*
X1053686Y90845D01*
X1053743Y90879D01*
X1053803Y90904D01*
X1053838Y90935D01*
X1053879Y90960D01*
X1053921Y91011D01*
X1053969Y91055D01*
X1053991Y91097D01*
X1054020Y91134D01*
X1054041Y91196D01*
X1054072Y91255D01*
X1054080Y91309D01*
X1054092Y91346D01*
X1054091Y91386D01*
X1054099Y91440D01*
X1054099Y93980D01*
X1054088Y94045D01*
X1054086Y94111D01*
X1054068Y94154D01*
X1054060Y94201D01*
X1054026Y94258D01*
X1054001Y94318D01*
X1053970Y94353D01*
X1053945Y94394D01*
X1053894Y94436D01*
X1053850Y94484D01*
X1053808Y94506D01*
X1053771Y94535D01*
X1053709Y94556D01*
X1053650Y94587D01*
X1053596Y94595D01*
X1053559Y94607D01*
X1053519Y94606D01*
X1053465Y94614D01*
X1049655Y94614D01*
X1049590Y94603D01*
X1049524Y94601D01*
X1049481Y94583D01*
X1049434Y94575D01*
X1049377Y94541D01*
X1049317Y94516D01*
X1049282Y94485D01*
X1049241Y94460D01*
X1049200Y94409D01*
X1049151Y94365D01*
X1049129Y94323D01*
X1049100Y94286D01*
X1049079Y94224D01*
X1049048Y94165D01*
X1049040Y94111D01*
X1049028Y94074D01*
X1049028Y94071D01*
X1049029Y94034D01*
X1049021Y93980D01*
X1049021Y91440D01*
X1049032Y91375D01*
X1049034Y91309D01*
X1049052Y91266D01*
X1049060Y91219D01*
X1049094Y91162D01*
X1049119Y91102D01*
X1049150Y91067D01*
X1049175Y91026D01*
X1049226Y90985D01*
X1049270Y90936D01*
X1049312Y90914D01*
X1049349Y90885D01*
X1049411Y90864D01*
X1049470Y90833D01*
X1049524Y90825D01*
X1049561Y90813D01*
X1049601Y90814D01*
X1049655Y90806D01*
X1053465Y90806D01*
X1053530Y90817D01*
G37*
G36*
X906210Y67957D02*
X906210Y67957D01*
X906276Y67959D01*
X906319Y67977D01*
X906366Y67985D01*
X906423Y68019D01*
X906483Y68044D01*
X906518Y68075D01*
X906559Y68100D01*
X906601Y68151D01*
X906649Y68195D01*
X906671Y68237D01*
X906700Y68274D01*
X906721Y68336D01*
X906752Y68395D01*
X906760Y68449D01*
X906772Y68486D01*
X906771Y68526D01*
X906779Y68580D01*
X906779Y71120D01*
X906768Y71185D01*
X906766Y71251D01*
X906748Y71294D01*
X906740Y71341D01*
X906706Y71398D01*
X906681Y71458D01*
X906650Y71493D01*
X906625Y71534D01*
X906574Y71576D01*
X906530Y71624D01*
X906488Y71646D01*
X906451Y71675D01*
X906389Y71696D01*
X906330Y71727D01*
X906276Y71735D01*
X906239Y71747D01*
X906199Y71746D01*
X906145Y71754D01*
X902335Y71754D01*
X902270Y71743D01*
X902204Y71741D01*
X902161Y71723D01*
X902114Y71715D01*
X902057Y71681D01*
X901997Y71656D01*
X901962Y71625D01*
X901921Y71600D01*
X901880Y71549D01*
X901831Y71505D01*
X901809Y71463D01*
X901780Y71426D01*
X901759Y71364D01*
X901728Y71305D01*
X901720Y71251D01*
X901708Y71214D01*
X901708Y71211D01*
X901709Y71174D01*
X901701Y71120D01*
X901701Y68580D01*
X901712Y68515D01*
X901714Y68449D01*
X901732Y68406D01*
X901740Y68359D01*
X901774Y68302D01*
X901799Y68242D01*
X901830Y68207D01*
X901855Y68166D01*
X901906Y68125D01*
X901950Y68076D01*
X901992Y68054D01*
X902029Y68025D01*
X902091Y68004D01*
X902150Y67973D01*
X902204Y67965D01*
X902241Y67953D01*
X902281Y67954D01*
X902335Y67946D01*
X906145Y67946D01*
X906210Y67957D01*
G37*
G36*
X896050Y67957D02*
X896050Y67957D01*
X896116Y67959D01*
X896159Y67977D01*
X896206Y67985D01*
X896263Y68019D01*
X896323Y68044D01*
X896358Y68075D01*
X896399Y68100D01*
X896441Y68151D01*
X896489Y68195D01*
X896511Y68237D01*
X896540Y68274D01*
X896561Y68336D01*
X896592Y68395D01*
X896600Y68449D01*
X896612Y68486D01*
X896611Y68526D01*
X896619Y68580D01*
X896619Y71120D01*
X896608Y71185D01*
X896606Y71251D01*
X896588Y71294D01*
X896580Y71341D01*
X896546Y71398D01*
X896521Y71458D01*
X896490Y71493D01*
X896465Y71534D01*
X896414Y71576D01*
X896370Y71624D01*
X896328Y71646D01*
X896291Y71675D01*
X896229Y71696D01*
X896170Y71727D01*
X896116Y71735D01*
X896079Y71747D01*
X896039Y71746D01*
X895985Y71754D01*
X892175Y71754D01*
X892110Y71743D01*
X892044Y71741D01*
X892001Y71723D01*
X891954Y71715D01*
X891897Y71681D01*
X891837Y71656D01*
X891802Y71625D01*
X891761Y71600D01*
X891720Y71549D01*
X891671Y71505D01*
X891649Y71463D01*
X891620Y71426D01*
X891599Y71364D01*
X891568Y71305D01*
X891560Y71251D01*
X891548Y71214D01*
X891548Y71211D01*
X891549Y71174D01*
X891541Y71120D01*
X891541Y68580D01*
X891552Y68515D01*
X891554Y68449D01*
X891572Y68406D01*
X891580Y68359D01*
X891614Y68302D01*
X891639Y68242D01*
X891670Y68207D01*
X891695Y68166D01*
X891746Y68125D01*
X891790Y68076D01*
X891832Y68054D01*
X891869Y68025D01*
X891931Y68004D01*
X891990Y67973D01*
X892044Y67965D01*
X892081Y67953D01*
X892121Y67954D01*
X892175Y67946D01*
X895985Y67946D01*
X896050Y67957D01*
G37*
G36*
X545530Y67957D02*
X545530Y67957D01*
X545596Y67959D01*
X545639Y67977D01*
X545686Y67985D01*
X545743Y68019D01*
X545803Y68044D01*
X545838Y68075D01*
X545879Y68100D01*
X545921Y68151D01*
X545969Y68195D01*
X545991Y68237D01*
X546020Y68274D01*
X546041Y68336D01*
X546072Y68395D01*
X546080Y68449D01*
X546092Y68486D01*
X546091Y68526D01*
X546099Y68580D01*
X546099Y71120D01*
X546088Y71185D01*
X546086Y71251D01*
X546068Y71294D01*
X546060Y71341D01*
X546026Y71398D01*
X546001Y71458D01*
X545970Y71493D01*
X545945Y71534D01*
X545894Y71576D01*
X545850Y71624D01*
X545808Y71646D01*
X545771Y71675D01*
X545709Y71696D01*
X545650Y71727D01*
X545596Y71735D01*
X545559Y71747D01*
X545519Y71746D01*
X545465Y71754D01*
X541655Y71754D01*
X541590Y71743D01*
X541524Y71741D01*
X541481Y71723D01*
X541434Y71715D01*
X541377Y71681D01*
X541317Y71656D01*
X541282Y71625D01*
X541241Y71600D01*
X541200Y71549D01*
X541151Y71505D01*
X541129Y71463D01*
X541100Y71426D01*
X541079Y71364D01*
X541048Y71305D01*
X541040Y71251D01*
X541028Y71214D01*
X541028Y71211D01*
X541029Y71174D01*
X541021Y71120D01*
X541021Y68580D01*
X541032Y68515D01*
X541034Y68449D01*
X541052Y68406D01*
X541060Y68359D01*
X541094Y68302D01*
X541119Y68242D01*
X541150Y68207D01*
X541175Y68166D01*
X541226Y68125D01*
X541270Y68076D01*
X541312Y68054D01*
X541349Y68025D01*
X541411Y68004D01*
X541470Y67973D01*
X541524Y67965D01*
X541561Y67953D01*
X541601Y67954D01*
X541655Y67946D01*
X545465Y67946D01*
X545530Y67957D01*
G37*
G36*
X535370Y67957D02*
X535370Y67957D01*
X535436Y67959D01*
X535479Y67977D01*
X535526Y67985D01*
X535583Y68019D01*
X535643Y68044D01*
X535678Y68075D01*
X535719Y68100D01*
X535761Y68151D01*
X535809Y68195D01*
X535831Y68237D01*
X535860Y68274D01*
X535881Y68336D01*
X535912Y68395D01*
X535920Y68449D01*
X535932Y68486D01*
X535931Y68526D01*
X535939Y68580D01*
X535939Y71120D01*
X535928Y71185D01*
X535926Y71251D01*
X535908Y71294D01*
X535900Y71341D01*
X535866Y71398D01*
X535841Y71458D01*
X535810Y71493D01*
X535785Y71534D01*
X535734Y71576D01*
X535690Y71624D01*
X535648Y71646D01*
X535611Y71675D01*
X535549Y71696D01*
X535490Y71727D01*
X535436Y71735D01*
X535399Y71747D01*
X535359Y71746D01*
X535305Y71754D01*
X531495Y71754D01*
X531430Y71743D01*
X531364Y71741D01*
X531321Y71723D01*
X531274Y71715D01*
X531217Y71681D01*
X531157Y71656D01*
X531122Y71625D01*
X531081Y71600D01*
X531040Y71549D01*
X530991Y71505D01*
X530969Y71463D01*
X530940Y71426D01*
X530919Y71364D01*
X530888Y71305D01*
X530880Y71251D01*
X530868Y71214D01*
X530868Y71211D01*
X530869Y71174D01*
X530861Y71120D01*
X530861Y68580D01*
X530872Y68515D01*
X530874Y68449D01*
X530892Y68406D01*
X530900Y68359D01*
X530934Y68302D01*
X530959Y68242D01*
X530990Y68207D01*
X531015Y68166D01*
X531066Y68125D01*
X531110Y68076D01*
X531152Y68054D01*
X531189Y68025D01*
X531251Y68004D01*
X531310Y67973D01*
X531364Y67965D01*
X531401Y67953D01*
X531441Y67954D01*
X531495Y67946D01*
X535305Y67946D01*
X535370Y67957D01*
G37*
G36*
X184850Y67957D02*
X184850Y67957D01*
X184916Y67959D01*
X184959Y67977D01*
X185006Y67985D01*
X185063Y68019D01*
X185123Y68044D01*
X185158Y68075D01*
X185199Y68100D01*
X185241Y68151D01*
X185289Y68195D01*
X185311Y68237D01*
X185340Y68274D01*
X185361Y68336D01*
X185392Y68395D01*
X185400Y68449D01*
X185412Y68486D01*
X185411Y68526D01*
X185419Y68580D01*
X185419Y71120D01*
X185408Y71185D01*
X185406Y71251D01*
X185388Y71294D01*
X185380Y71341D01*
X185346Y71398D01*
X185321Y71458D01*
X185290Y71493D01*
X185265Y71534D01*
X185214Y71576D01*
X185170Y71624D01*
X185128Y71646D01*
X185091Y71675D01*
X185029Y71696D01*
X184970Y71727D01*
X184916Y71735D01*
X184879Y71747D01*
X184839Y71746D01*
X184785Y71754D01*
X180975Y71754D01*
X180910Y71743D01*
X180844Y71741D01*
X180801Y71723D01*
X180754Y71715D01*
X180697Y71681D01*
X180637Y71656D01*
X180602Y71625D01*
X180561Y71600D01*
X180520Y71549D01*
X180471Y71505D01*
X180449Y71463D01*
X180420Y71426D01*
X180399Y71364D01*
X180368Y71305D01*
X180360Y71251D01*
X180348Y71214D01*
X180348Y71211D01*
X180349Y71174D01*
X180341Y71120D01*
X180341Y68580D01*
X180352Y68515D01*
X180354Y68449D01*
X180372Y68406D01*
X180380Y68359D01*
X180414Y68302D01*
X180439Y68242D01*
X180470Y68207D01*
X180495Y68166D01*
X180546Y68125D01*
X180590Y68076D01*
X180632Y68054D01*
X180669Y68025D01*
X180731Y68004D01*
X180790Y67973D01*
X180844Y67965D01*
X180881Y67953D01*
X180921Y67954D01*
X180975Y67946D01*
X184785Y67946D01*
X184850Y67957D01*
G37*
G36*
X174690Y67957D02*
X174690Y67957D01*
X174756Y67959D01*
X174799Y67977D01*
X174846Y67985D01*
X174903Y68019D01*
X174963Y68044D01*
X174998Y68075D01*
X175039Y68100D01*
X175081Y68151D01*
X175129Y68195D01*
X175151Y68237D01*
X175180Y68274D01*
X175201Y68336D01*
X175232Y68395D01*
X175240Y68449D01*
X175252Y68486D01*
X175251Y68526D01*
X175259Y68580D01*
X175259Y71120D01*
X175248Y71185D01*
X175246Y71251D01*
X175228Y71294D01*
X175220Y71341D01*
X175186Y71398D01*
X175161Y71458D01*
X175130Y71493D01*
X175105Y71534D01*
X175054Y71576D01*
X175010Y71624D01*
X174968Y71646D01*
X174931Y71675D01*
X174869Y71696D01*
X174810Y71727D01*
X174756Y71735D01*
X174719Y71747D01*
X174679Y71746D01*
X174625Y71754D01*
X170815Y71754D01*
X170750Y71743D01*
X170684Y71741D01*
X170641Y71723D01*
X170594Y71715D01*
X170537Y71681D01*
X170477Y71656D01*
X170442Y71625D01*
X170401Y71600D01*
X170360Y71549D01*
X170311Y71505D01*
X170289Y71463D01*
X170260Y71426D01*
X170239Y71364D01*
X170208Y71305D01*
X170200Y71251D01*
X170188Y71214D01*
X170188Y71211D01*
X170189Y71174D01*
X170181Y71120D01*
X170181Y68580D01*
X170192Y68515D01*
X170194Y68449D01*
X170212Y68406D01*
X170220Y68359D01*
X170254Y68302D01*
X170279Y68242D01*
X170310Y68207D01*
X170335Y68166D01*
X170386Y68125D01*
X170430Y68076D01*
X170472Y68054D01*
X170509Y68025D01*
X170571Y68004D01*
X170630Y67973D01*
X170684Y67965D01*
X170721Y67953D01*
X170761Y67954D01*
X170815Y67946D01*
X174625Y67946D01*
X174690Y67957D01*
G37*
G36*
X1053530Y60337D02*
X1053530Y60337D01*
X1053596Y60339D01*
X1053639Y60357D01*
X1053686Y60365D01*
X1053743Y60399D01*
X1053803Y60424D01*
X1053838Y60455D01*
X1053879Y60480D01*
X1053921Y60531D01*
X1053969Y60575D01*
X1053991Y60617D01*
X1054020Y60654D01*
X1054041Y60716D01*
X1054072Y60775D01*
X1054080Y60829D01*
X1054092Y60866D01*
X1054091Y60906D01*
X1054099Y60960D01*
X1054099Y63500D01*
X1054088Y63565D01*
X1054086Y63631D01*
X1054068Y63674D01*
X1054060Y63721D01*
X1054026Y63778D01*
X1054001Y63838D01*
X1053970Y63873D01*
X1053945Y63914D01*
X1053894Y63956D01*
X1053850Y64004D01*
X1053808Y64026D01*
X1053771Y64055D01*
X1053709Y64076D01*
X1053650Y64107D01*
X1053596Y64115D01*
X1053559Y64127D01*
X1053519Y64126D01*
X1053465Y64134D01*
X1049655Y64134D01*
X1049590Y64123D01*
X1049524Y64121D01*
X1049481Y64103D01*
X1049434Y64095D01*
X1049377Y64061D01*
X1049317Y64036D01*
X1049282Y64005D01*
X1049241Y63980D01*
X1049200Y63929D01*
X1049151Y63885D01*
X1049129Y63843D01*
X1049100Y63806D01*
X1049079Y63744D01*
X1049048Y63685D01*
X1049040Y63631D01*
X1049028Y63594D01*
X1049028Y63591D01*
X1049029Y63554D01*
X1049021Y63500D01*
X1049021Y60960D01*
X1049032Y60895D01*
X1049034Y60829D01*
X1049052Y60786D01*
X1049060Y60739D01*
X1049094Y60682D01*
X1049119Y60622D01*
X1049150Y60587D01*
X1049175Y60546D01*
X1049226Y60505D01*
X1049270Y60456D01*
X1049312Y60434D01*
X1049349Y60405D01*
X1049411Y60384D01*
X1049470Y60353D01*
X1049524Y60345D01*
X1049561Y60333D01*
X1049601Y60334D01*
X1049655Y60326D01*
X1053465Y60326D01*
X1053530Y60337D01*
G37*
G36*
X332170Y60337D02*
X332170Y60337D01*
X332236Y60339D01*
X332279Y60357D01*
X332326Y60365D01*
X332383Y60399D01*
X332443Y60424D01*
X332478Y60455D01*
X332519Y60480D01*
X332561Y60531D01*
X332609Y60575D01*
X332631Y60617D01*
X332660Y60654D01*
X332681Y60716D01*
X332712Y60775D01*
X332720Y60829D01*
X332732Y60866D01*
X332731Y60906D01*
X332739Y60960D01*
X332739Y63500D01*
X332728Y63565D01*
X332726Y63631D01*
X332708Y63674D01*
X332700Y63721D01*
X332666Y63778D01*
X332641Y63838D01*
X332610Y63873D01*
X332585Y63914D01*
X332534Y63956D01*
X332490Y64004D01*
X332448Y64026D01*
X332411Y64055D01*
X332349Y64076D01*
X332290Y64107D01*
X332236Y64115D01*
X332199Y64127D01*
X332159Y64126D01*
X332105Y64134D01*
X328295Y64134D01*
X328230Y64123D01*
X328164Y64121D01*
X328121Y64103D01*
X328074Y64095D01*
X328017Y64061D01*
X327957Y64036D01*
X327922Y64005D01*
X327881Y63980D01*
X327840Y63929D01*
X327791Y63885D01*
X327769Y63843D01*
X327740Y63806D01*
X327719Y63744D01*
X327688Y63685D01*
X327680Y63631D01*
X327668Y63594D01*
X327668Y63591D01*
X327669Y63554D01*
X327661Y63500D01*
X327661Y60960D01*
X327672Y60895D01*
X327674Y60829D01*
X327692Y60786D01*
X327700Y60739D01*
X327734Y60682D01*
X327759Y60622D01*
X327790Y60587D01*
X327815Y60546D01*
X327866Y60505D01*
X327910Y60456D01*
X327952Y60434D01*
X327989Y60405D01*
X328051Y60384D01*
X328110Y60353D01*
X328164Y60345D01*
X328201Y60333D01*
X328241Y60334D01*
X328295Y60326D01*
X332105Y60326D01*
X332170Y60337D01*
G37*
G36*
X692850Y60337D02*
X692850Y60337D01*
X692916Y60339D01*
X692959Y60357D01*
X693006Y60365D01*
X693063Y60399D01*
X693123Y60424D01*
X693158Y60455D01*
X693199Y60480D01*
X693241Y60531D01*
X693289Y60575D01*
X693311Y60617D01*
X693340Y60654D01*
X693361Y60716D01*
X693392Y60775D01*
X693400Y60829D01*
X693412Y60866D01*
X693411Y60906D01*
X693419Y60960D01*
X693419Y63500D01*
X693408Y63565D01*
X693406Y63631D01*
X693388Y63674D01*
X693380Y63721D01*
X693346Y63778D01*
X693321Y63838D01*
X693290Y63873D01*
X693265Y63914D01*
X693214Y63956D01*
X693170Y64004D01*
X693128Y64026D01*
X693091Y64055D01*
X693029Y64076D01*
X692970Y64107D01*
X692916Y64115D01*
X692879Y64127D01*
X692839Y64126D01*
X692785Y64134D01*
X688975Y64134D01*
X688910Y64123D01*
X688844Y64121D01*
X688801Y64103D01*
X688754Y64095D01*
X688697Y64061D01*
X688637Y64036D01*
X688602Y64005D01*
X688561Y63980D01*
X688520Y63929D01*
X688471Y63885D01*
X688449Y63843D01*
X688420Y63806D01*
X688399Y63744D01*
X688368Y63685D01*
X688360Y63631D01*
X688348Y63594D01*
X688348Y63591D01*
X688349Y63554D01*
X688341Y63500D01*
X688341Y60960D01*
X688352Y60895D01*
X688354Y60829D01*
X688372Y60786D01*
X688380Y60739D01*
X688414Y60682D01*
X688439Y60622D01*
X688470Y60587D01*
X688495Y60546D01*
X688546Y60505D01*
X688590Y60456D01*
X688632Y60434D01*
X688669Y60405D01*
X688731Y60384D01*
X688790Y60353D01*
X688844Y60345D01*
X688881Y60333D01*
X688921Y60334D01*
X688975Y60326D01*
X692785Y60326D01*
X692850Y60337D01*
G37*
D10*
X185418Y75694D02*
X191010Y75694D01*
X191010Y64006D01*
X185418Y64006D01*
X185418Y75694D01*
X185418Y66175D02*
X191010Y66175D01*
X191010Y68344D02*
X185418Y68344D01*
X185418Y70513D02*
X191010Y70513D01*
X191010Y72682D02*
X185418Y72682D01*
X185418Y74851D02*
X191010Y74851D01*
X180596Y75694D02*
X175004Y75694D01*
X180596Y75694D02*
X180596Y64006D01*
X175004Y64006D01*
X175004Y75694D01*
X175004Y66175D02*
X180596Y66175D01*
X180596Y68344D02*
X175004Y68344D01*
X175004Y70513D02*
X180596Y70513D01*
X180596Y72682D02*
X175004Y72682D01*
X175004Y74851D02*
X180596Y74851D01*
X170182Y75694D02*
X164590Y75694D01*
X170182Y75694D02*
X170182Y64006D01*
X164590Y64006D01*
X164590Y75694D01*
X164590Y66175D02*
X170182Y66175D01*
X170182Y68344D02*
X164590Y68344D01*
X164590Y70513D02*
X170182Y70513D01*
X170182Y72682D02*
X164590Y72682D01*
X164590Y74851D02*
X170182Y74851D01*
D11*
X12700Y381000D03*
X309880Y10160D03*
D12*
X241300Y330200D03*
X241300Y304800D03*
X241300Y279400D03*
X241300Y254000D03*
X241300Y228600D03*
X241300Y203200D03*
X241300Y177800D03*
X241300Y152400D03*
X241300Y127000D03*
X241300Y101600D03*
X114300Y330200D03*
X114300Y304800D03*
X114300Y279400D03*
X114300Y254000D03*
X114300Y228600D03*
X114300Y203200D03*
X114300Y177800D03*
X114300Y152400D03*
X114300Y127000D03*
X114300Y101600D03*
D10*
X322197Y56386D02*
X327789Y56386D01*
X322197Y56386D02*
X322197Y68074D01*
X327789Y68074D01*
X327789Y56386D01*
X327789Y58555D02*
X322197Y58555D01*
X322197Y60724D02*
X327789Y60724D01*
X327789Y62893D02*
X322197Y62893D01*
X322197Y65062D02*
X327789Y65062D01*
X327789Y67231D02*
X322197Y67231D01*
X332611Y56386D02*
X338203Y56386D01*
X332611Y56386D02*
X332611Y68074D01*
X338203Y68074D01*
X338203Y56386D01*
X338203Y58555D02*
X332611Y58555D01*
X332611Y60724D02*
X338203Y60724D01*
X338203Y62893D02*
X332611Y62893D01*
X332611Y65062D02*
X338203Y65062D01*
X338203Y67231D02*
X332611Y67231D01*
X327789Y117346D02*
X322197Y117346D01*
X322197Y129034D01*
X327789Y129034D01*
X327789Y117346D01*
X327789Y119515D02*
X322197Y119515D01*
X322197Y121684D02*
X327789Y121684D01*
X327789Y123853D02*
X322197Y123853D01*
X322197Y126022D02*
X327789Y126022D01*
X327789Y128191D02*
X322197Y128191D01*
X332611Y117346D02*
X338203Y117346D01*
X332611Y117346D02*
X332611Y129034D01*
X338203Y129034D01*
X338203Y117346D01*
X338203Y119515D02*
X332611Y119515D01*
X332611Y121684D02*
X338203Y121684D01*
X338203Y123853D02*
X332611Y123853D01*
X332611Y126022D02*
X338203Y126022D01*
X338203Y128191D02*
X332611Y128191D01*
D13*
X330200Y495300D03*
X330200Y25400D03*
X25400Y495300D03*
X25400Y25400D03*
D10*
X322197Y86866D02*
X327789Y86866D01*
X322197Y86866D02*
X322197Y98554D01*
X327789Y98554D01*
X327789Y86866D01*
X327789Y89035D02*
X322197Y89035D01*
X322197Y91204D02*
X327789Y91204D01*
X327789Y93373D02*
X322197Y93373D01*
X322197Y95542D02*
X327789Y95542D01*
X327789Y97711D02*
X322197Y97711D01*
X332611Y86866D02*
X338203Y86866D01*
X332611Y86866D02*
X332611Y98554D01*
X338203Y98554D01*
X338203Y86866D01*
X338203Y89035D02*
X332611Y89035D01*
X332611Y91204D02*
X338203Y91204D01*
X338203Y93373D02*
X332611Y93373D01*
X332611Y95542D02*
X338203Y95542D01*
X338203Y97711D02*
X332611Y97711D01*
D12*
X241300Y76200D03*
X114300Y76200D03*
D10*
X546098Y75694D02*
X551690Y75694D01*
X551690Y64006D01*
X546098Y64006D01*
X546098Y75694D01*
X546098Y66175D02*
X551690Y66175D01*
X551690Y68344D02*
X546098Y68344D01*
X546098Y70513D02*
X551690Y70513D01*
X551690Y72682D02*
X546098Y72682D01*
X546098Y74851D02*
X551690Y74851D01*
X541276Y75694D02*
X535684Y75694D01*
X541276Y75694D02*
X541276Y64006D01*
X535684Y64006D01*
X535684Y75694D01*
X535684Y66175D02*
X541276Y66175D01*
X541276Y68344D02*
X535684Y68344D01*
X535684Y70513D02*
X541276Y70513D01*
X541276Y72682D02*
X535684Y72682D01*
X535684Y74851D02*
X541276Y74851D01*
X530862Y75694D02*
X525270Y75694D01*
X530862Y75694D02*
X530862Y64006D01*
X525270Y64006D01*
X525270Y75694D01*
X525270Y66175D02*
X530862Y66175D01*
X530862Y68344D02*
X525270Y68344D01*
X525270Y70513D02*
X530862Y70513D01*
X530862Y72682D02*
X525270Y72682D01*
X525270Y74851D02*
X530862Y74851D01*
D11*
X373380Y381000D03*
X670560Y10160D03*
D12*
X601980Y330200D03*
X601980Y304800D03*
X601980Y279400D03*
X601980Y254000D03*
X601980Y228600D03*
X601980Y203200D03*
X601980Y177800D03*
X601980Y152400D03*
X601980Y127000D03*
X601980Y101600D03*
X474980Y330200D03*
X474980Y304800D03*
X474980Y279400D03*
X474980Y254000D03*
X474980Y228600D03*
X474980Y203200D03*
X474980Y177800D03*
X474980Y152400D03*
X474980Y127000D03*
X474980Y101600D03*
D10*
X682877Y56386D02*
X688469Y56386D01*
X682877Y56386D02*
X682877Y68074D01*
X688469Y68074D01*
X688469Y56386D01*
X688469Y58555D02*
X682877Y58555D01*
X682877Y60724D02*
X688469Y60724D01*
X688469Y62893D02*
X682877Y62893D01*
X682877Y65062D02*
X688469Y65062D01*
X688469Y67231D02*
X682877Y67231D01*
X693291Y56386D02*
X698883Y56386D01*
X693291Y56386D02*
X693291Y68074D01*
X698883Y68074D01*
X698883Y56386D01*
X698883Y58555D02*
X693291Y58555D01*
X693291Y60724D02*
X698883Y60724D01*
X698883Y62893D02*
X693291Y62893D01*
X693291Y65062D02*
X698883Y65062D01*
X698883Y67231D02*
X693291Y67231D01*
X688469Y117346D02*
X682877Y117346D01*
X682877Y129034D01*
X688469Y129034D01*
X688469Y117346D01*
X688469Y119515D02*
X682877Y119515D01*
X682877Y121684D02*
X688469Y121684D01*
X688469Y123853D02*
X682877Y123853D01*
X682877Y126022D02*
X688469Y126022D01*
X688469Y128191D02*
X682877Y128191D01*
X693291Y117346D02*
X698883Y117346D01*
X693291Y117346D02*
X693291Y129034D01*
X698883Y129034D01*
X698883Y117346D01*
X698883Y119515D02*
X693291Y119515D01*
X693291Y121684D02*
X698883Y121684D01*
X698883Y123853D02*
X693291Y123853D01*
X693291Y126022D02*
X698883Y126022D01*
X698883Y128191D02*
X693291Y128191D01*
D13*
X690880Y495300D03*
X690880Y25400D03*
X386080Y495300D03*
X386080Y25400D03*
D10*
X682877Y86866D02*
X688469Y86866D01*
X682877Y86866D02*
X682877Y98554D01*
X688469Y98554D01*
X688469Y86866D01*
X688469Y89035D02*
X682877Y89035D01*
X682877Y91204D02*
X688469Y91204D01*
X688469Y93373D02*
X682877Y93373D01*
X682877Y95542D02*
X688469Y95542D01*
X688469Y97711D02*
X682877Y97711D01*
X693291Y86866D02*
X698883Y86866D01*
X693291Y86866D02*
X693291Y98554D01*
X698883Y98554D01*
X698883Y86866D01*
X698883Y89035D02*
X693291Y89035D01*
X693291Y91204D02*
X698883Y91204D01*
X698883Y93373D02*
X693291Y93373D01*
X693291Y95542D02*
X698883Y95542D01*
X698883Y97711D02*
X693291Y97711D01*
D12*
X601980Y76200D03*
X474980Y76200D03*
D10*
X906778Y75694D02*
X912370Y75694D01*
X912370Y64006D01*
X906778Y64006D01*
X906778Y75694D01*
X906778Y66175D02*
X912370Y66175D01*
X912370Y68344D02*
X906778Y68344D01*
X906778Y70513D02*
X912370Y70513D01*
X912370Y72682D02*
X906778Y72682D01*
X906778Y74851D02*
X912370Y74851D01*
X901956Y75694D02*
X896364Y75694D01*
X901956Y75694D02*
X901956Y64006D01*
X896364Y64006D01*
X896364Y75694D01*
X896364Y66175D02*
X901956Y66175D01*
X901956Y68344D02*
X896364Y68344D01*
X896364Y70513D02*
X901956Y70513D01*
X901956Y72682D02*
X896364Y72682D01*
X896364Y74851D02*
X901956Y74851D01*
X891542Y75694D02*
X885950Y75694D01*
X891542Y75694D02*
X891542Y64006D01*
X885950Y64006D01*
X885950Y75694D01*
X885950Y66175D02*
X891542Y66175D01*
X891542Y68344D02*
X885950Y68344D01*
X885950Y70513D02*
X891542Y70513D01*
X891542Y72682D02*
X885950Y72682D01*
X885950Y74851D02*
X891542Y74851D01*
D11*
X734060Y381000D03*
X1031240Y10160D03*
D12*
X962660Y330200D03*
X962660Y304800D03*
X962660Y279400D03*
X962660Y254000D03*
X962660Y228600D03*
X962660Y203200D03*
X962660Y177800D03*
X962660Y152400D03*
X962660Y127000D03*
X962660Y101600D03*
X835660Y330200D03*
X835660Y304800D03*
X835660Y279400D03*
X835660Y254000D03*
X835660Y228600D03*
X835660Y203200D03*
X835660Y177800D03*
X835660Y152400D03*
X835660Y127000D03*
X835660Y101600D03*
D10*
X1043557Y56386D02*
X1049149Y56386D01*
X1043557Y56386D02*
X1043557Y68074D01*
X1049149Y68074D01*
X1049149Y56386D01*
X1049149Y58555D02*
X1043557Y58555D01*
X1043557Y60724D02*
X1049149Y60724D01*
X1049149Y62893D02*
X1043557Y62893D01*
X1043557Y65062D02*
X1049149Y65062D01*
X1049149Y67231D02*
X1043557Y67231D01*
X1053971Y56386D02*
X1059563Y56386D01*
X1053971Y56386D02*
X1053971Y68074D01*
X1059563Y68074D01*
X1059563Y56386D01*
X1059563Y58555D02*
X1053971Y58555D01*
X1053971Y60724D02*
X1059563Y60724D01*
X1059563Y62893D02*
X1053971Y62893D01*
X1053971Y65062D02*
X1059563Y65062D01*
X1059563Y67231D02*
X1053971Y67231D01*
X1049149Y117346D02*
X1043557Y117346D01*
X1043557Y129034D01*
X1049149Y129034D01*
X1049149Y117346D01*
X1049149Y119515D02*
X1043557Y119515D01*
X1043557Y121684D02*
X1049149Y121684D01*
X1049149Y123853D02*
X1043557Y123853D01*
X1043557Y126022D02*
X1049149Y126022D01*
X1049149Y128191D02*
X1043557Y128191D01*
X1053971Y117346D02*
X1059563Y117346D01*
X1053971Y117346D02*
X1053971Y129034D01*
X1059563Y129034D01*
X1059563Y117346D01*
X1059563Y119515D02*
X1053971Y119515D01*
X1053971Y121684D02*
X1059563Y121684D01*
X1059563Y123853D02*
X1053971Y123853D01*
X1053971Y126022D02*
X1059563Y126022D01*
X1059563Y128191D02*
X1053971Y128191D01*
D13*
X1051560Y495300D03*
X1051560Y25400D03*
X746760Y495300D03*
X746760Y25400D03*
D10*
X1043557Y86866D02*
X1049149Y86866D01*
X1043557Y86866D02*
X1043557Y98554D01*
X1049149Y98554D01*
X1049149Y86866D01*
X1049149Y89035D02*
X1043557Y89035D01*
X1043557Y91204D02*
X1049149Y91204D01*
X1049149Y93373D02*
X1043557Y93373D01*
X1043557Y95542D02*
X1049149Y95542D01*
X1049149Y97711D02*
X1043557Y97711D01*
X1053971Y86866D02*
X1059563Y86866D01*
X1053971Y86866D02*
X1053971Y98554D01*
X1059563Y98554D01*
X1059563Y86866D01*
X1059563Y89035D02*
X1053971Y89035D01*
X1053971Y91204D02*
X1059563Y91204D01*
X1059563Y93373D02*
X1053971Y93373D01*
X1053971Y95542D02*
X1059563Y95542D01*
X1059563Y97711D02*
X1053971Y97711D01*
D12*
X962660Y76200D03*
X835660Y76200D03*
D10*
X191010Y601474D02*
X185418Y601474D01*
X191010Y601474D02*
X191010Y589786D01*
X185418Y589786D01*
X185418Y601474D01*
X185418Y591955D02*
X191010Y591955D01*
X191010Y594124D02*
X185418Y594124D01*
X185418Y596293D02*
X191010Y596293D01*
X191010Y598462D02*
X185418Y598462D01*
X185418Y600631D02*
X191010Y600631D01*
X180596Y601474D02*
X175004Y601474D01*
X180596Y601474D02*
X180596Y589786D01*
X175004Y589786D01*
X175004Y601474D01*
X175004Y591955D02*
X180596Y591955D01*
X180596Y594124D02*
X175004Y594124D01*
X175004Y596293D02*
X180596Y596293D01*
X180596Y598462D02*
X175004Y598462D01*
X175004Y600631D02*
X180596Y600631D01*
X170182Y601474D02*
X164590Y601474D01*
X170182Y601474D02*
X170182Y589786D01*
X164590Y589786D01*
X164590Y601474D01*
X164590Y591955D02*
X170182Y591955D01*
X170182Y594124D02*
X164590Y594124D01*
X164590Y596293D02*
X170182Y596293D01*
X170182Y598462D02*
X164590Y598462D01*
X164590Y600631D02*
X170182Y600631D01*
D11*
X12700Y906780D03*
X309880Y535940D03*
D12*
X241300Y855980D03*
X241300Y830580D03*
X241300Y805180D03*
X241300Y779780D03*
X241300Y754380D03*
X241300Y728980D03*
X241300Y703580D03*
X241300Y678180D03*
X241300Y652780D03*
X241300Y627380D03*
X114300Y855980D03*
X114300Y830580D03*
X114300Y805180D03*
X114300Y779780D03*
X114300Y754380D03*
X114300Y728980D03*
X114300Y703580D03*
X114300Y678180D03*
X114300Y652780D03*
X114300Y627380D03*
D10*
X322197Y582166D02*
X327789Y582166D01*
X322197Y582166D02*
X322197Y593854D01*
X327789Y593854D01*
X327789Y582166D01*
X327789Y584335D02*
X322197Y584335D01*
X322197Y586504D02*
X327789Y586504D01*
X327789Y588673D02*
X322197Y588673D01*
X322197Y590842D02*
X327789Y590842D01*
X327789Y593011D02*
X322197Y593011D01*
X332611Y582166D02*
X338203Y582166D01*
X332611Y582166D02*
X332611Y593854D01*
X338203Y593854D01*
X338203Y582166D01*
X338203Y584335D02*
X332611Y584335D01*
X332611Y586504D02*
X338203Y586504D01*
X338203Y588673D02*
X332611Y588673D01*
X332611Y590842D02*
X338203Y590842D01*
X338203Y593011D02*
X332611Y593011D01*
X327789Y643126D02*
X322197Y643126D01*
X322197Y654814D01*
X327789Y654814D01*
X327789Y643126D01*
X327789Y645295D02*
X322197Y645295D01*
X322197Y647464D02*
X327789Y647464D01*
X327789Y649633D02*
X322197Y649633D01*
X322197Y651802D02*
X327789Y651802D01*
X327789Y653971D02*
X322197Y653971D01*
X332611Y643126D02*
X338203Y643126D01*
X332611Y643126D02*
X332611Y654814D01*
X338203Y654814D01*
X338203Y643126D01*
X338203Y645295D02*
X332611Y645295D01*
X332611Y647464D02*
X338203Y647464D01*
X338203Y649633D02*
X332611Y649633D01*
X332611Y651802D02*
X338203Y651802D01*
X338203Y653971D02*
X332611Y653971D01*
D13*
X330200Y1021080D03*
X330200Y551180D03*
X25400Y1021080D03*
X25400Y551180D03*
D10*
X322197Y612646D02*
X327789Y612646D01*
X322197Y612646D02*
X322197Y624334D01*
X327789Y624334D01*
X327789Y612646D01*
X327789Y614815D02*
X322197Y614815D01*
X322197Y616984D02*
X327789Y616984D01*
X327789Y619153D02*
X322197Y619153D01*
X322197Y621322D02*
X327789Y621322D01*
X327789Y623491D02*
X322197Y623491D01*
X332611Y612646D02*
X338203Y612646D01*
X332611Y612646D02*
X332611Y624334D01*
X338203Y624334D01*
X338203Y612646D01*
X338203Y614815D02*
X332611Y614815D01*
X332611Y616984D02*
X338203Y616984D01*
X338203Y619153D02*
X332611Y619153D01*
X332611Y621322D02*
X338203Y621322D01*
X338203Y623491D02*
X332611Y623491D01*
D12*
X241300Y601980D03*
X114300Y601980D03*
D10*
X546098Y601474D02*
X551690Y601474D01*
X551690Y589786D01*
X546098Y589786D01*
X546098Y601474D01*
X546098Y591955D02*
X551690Y591955D01*
X551690Y594124D02*
X546098Y594124D01*
X546098Y596293D02*
X551690Y596293D01*
X551690Y598462D02*
X546098Y598462D01*
X546098Y600631D02*
X551690Y600631D01*
X541276Y601474D02*
X535684Y601474D01*
X541276Y601474D02*
X541276Y589786D01*
X535684Y589786D01*
X535684Y601474D01*
X535684Y591955D02*
X541276Y591955D01*
X541276Y594124D02*
X535684Y594124D01*
X535684Y596293D02*
X541276Y596293D01*
X541276Y598462D02*
X535684Y598462D01*
X535684Y600631D02*
X541276Y600631D01*
X530862Y601474D02*
X525270Y601474D01*
X530862Y601474D02*
X530862Y589786D01*
X525270Y589786D01*
X525270Y601474D01*
X525270Y591955D02*
X530862Y591955D01*
X530862Y594124D02*
X525270Y594124D01*
X525270Y596293D02*
X530862Y596293D01*
X530862Y598462D02*
X525270Y598462D01*
X525270Y600631D02*
X530862Y600631D01*
D11*
X373380Y906780D03*
X670560Y535940D03*
D12*
X601980Y855980D03*
X601980Y830580D03*
X601980Y805180D03*
X601980Y779780D03*
X601980Y754380D03*
X601980Y728980D03*
X601980Y703580D03*
X601980Y678180D03*
X601980Y652780D03*
X601980Y627380D03*
X474980Y855980D03*
X474980Y830580D03*
X474980Y805180D03*
X474980Y779780D03*
X474980Y754380D03*
X474980Y728980D03*
X474980Y703580D03*
X474980Y678180D03*
X474980Y652780D03*
X474980Y627380D03*
D10*
X682877Y582166D02*
X688469Y582166D01*
X682877Y582166D02*
X682877Y593854D01*
X688469Y593854D01*
X688469Y582166D01*
X688469Y584335D02*
X682877Y584335D01*
X682877Y586504D02*
X688469Y586504D01*
X688469Y588673D02*
X682877Y588673D01*
X682877Y590842D02*
X688469Y590842D01*
X688469Y593011D02*
X682877Y593011D01*
X693291Y582166D02*
X698883Y582166D01*
X693291Y582166D02*
X693291Y593854D01*
X698883Y593854D01*
X698883Y582166D01*
X698883Y584335D02*
X693291Y584335D01*
X693291Y586504D02*
X698883Y586504D01*
X698883Y588673D02*
X693291Y588673D01*
X693291Y590842D02*
X698883Y590842D01*
X698883Y593011D02*
X693291Y593011D01*
X688469Y643126D02*
X682877Y643126D01*
X682877Y654814D01*
X688469Y654814D01*
X688469Y643126D01*
X688469Y645295D02*
X682877Y645295D01*
X682877Y647464D02*
X688469Y647464D01*
X688469Y649633D02*
X682877Y649633D01*
X682877Y651802D02*
X688469Y651802D01*
X688469Y653971D02*
X682877Y653971D01*
X693291Y643126D02*
X698883Y643126D01*
X693291Y643126D02*
X693291Y654814D01*
X698883Y654814D01*
X698883Y643126D01*
X698883Y645295D02*
X693291Y645295D01*
X693291Y647464D02*
X698883Y647464D01*
X698883Y649633D02*
X693291Y649633D01*
X693291Y651802D02*
X698883Y651802D01*
X698883Y653971D02*
X693291Y653971D01*
D13*
X690880Y1021080D03*
X690880Y551180D03*
X386080Y1021080D03*
X386080Y551180D03*
D10*
X682877Y612646D02*
X688469Y612646D01*
X682877Y612646D02*
X682877Y624334D01*
X688469Y624334D01*
X688469Y612646D01*
X688469Y614815D02*
X682877Y614815D01*
X682877Y616984D02*
X688469Y616984D01*
X688469Y619153D02*
X682877Y619153D01*
X682877Y621322D02*
X688469Y621322D01*
X688469Y623491D02*
X682877Y623491D01*
X693291Y612646D02*
X698883Y612646D01*
X693291Y612646D02*
X693291Y624334D01*
X698883Y624334D01*
X698883Y612646D01*
X698883Y614815D02*
X693291Y614815D01*
X693291Y616984D02*
X698883Y616984D01*
X698883Y619153D02*
X693291Y619153D01*
X693291Y621322D02*
X698883Y621322D01*
X698883Y623491D02*
X693291Y623491D01*
D12*
X601980Y601980D03*
X474980Y601980D03*
D10*
X906778Y601474D02*
X912370Y601474D01*
X912370Y589786D01*
X906778Y589786D01*
X906778Y601474D01*
X906778Y591955D02*
X912370Y591955D01*
X912370Y594124D02*
X906778Y594124D01*
X906778Y596293D02*
X912370Y596293D01*
X912370Y598462D02*
X906778Y598462D01*
X906778Y600631D02*
X912370Y600631D01*
X901956Y601474D02*
X896364Y601474D01*
X901956Y601474D02*
X901956Y589786D01*
X896364Y589786D01*
X896364Y601474D01*
X896364Y591955D02*
X901956Y591955D01*
X901956Y594124D02*
X896364Y594124D01*
X896364Y596293D02*
X901956Y596293D01*
X901956Y598462D02*
X896364Y598462D01*
X896364Y600631D02*
X901956Y600631D01*
X891542Y601474D02*
X885950Y601474D01*
X891542Y601474D02*
X891542Y589786D01*
X885950Y589786D01*
X885950Y601474D01*
X885950Y591955D02*
X891542Y591955D01*
X891542Y594124D02*
X885950Y594124D01*
X885950Y596293D02*
X891542Y596293D01*
X891542Y598462D02*
X885950Y598462D01*
X885950Y600631D02*
X891542Y600631D01*
D11*
X734060Y906780D03*
X1031240Y535940D03*
D12*
X962660Y855980D03*
X962660Y830580D03*
X962660Y805180D03*
X962660Y779780D03*
X962660Y754380D03*
X962660Y728980D03*
X962660Y703580D03*
X962660Y678180D03*
X962660Y652780D03*
X962660Y627380D03*
X835660Y855980D03*
X835660Y830580D03*
X835660Y805180D03*
X835660Y779780D03*
X835660Y754380D03*
X835660Y728980D03*
X835660Y703580D03*
X835660Y678180D03*
X835660Y652780D03*
X835660Y627380D03*
D10*
X1043557Y582166D02*
X1049149Y582166D01*
X1043557Y582166D02*
X1043557Y593854D01*
X1049149Y593854D01*
X1049149Y582166D01*
X1049149Y584335D02*
X1043557Y584335D01*
X1043557Y586504D02*
X1049149Y586504D01*
X1049149Y588673D02*
X1043557Y588673D01*
X1043557Y590842D02*
X1049149Y590842D01*
X1049149Y593011D02*
X1043557Y593011D01*
X1053971Y582166D02*
X1059563Y582166D01*
X1053971Y582166D02*
X1053971Y593854D01*
X1059563Y593854D01*
X1059563Y582166D01*
X1059563Y584335D02*
X1053971Y584335D01*
X1053971Y586504D02*
X1059563Y586504D01*
X1059563Y588673D02*
X1053971Y588673D01*
X1053971Y590842D02*
X1059563Y590842D01*
X1059563Y593011D02*
X1053971Y593011D01*
X1049149Y643126D02*
X1043557Y643126D01*
X1043557Y654814D01*
X1049149Y654814D01*
X1049149Y643126D01*
X1049149Y645295D02*
X1043557Y645295D01*
X1043557Y647464D02*
X1049149Y647464D01*
X1049149Y649633D02*
X1043557Y649633D01*
X1043557Y651802D02*
X1049149Y651802D01*
X1049149Y653971D02*
X1043557Y653971D01*
X1053971Y643126D02*
X1059563Y643126D01*
X1053971Y643126D02*
X1053971Y654814D01*
X1059563Y654814D01*
X1059563Y643126D01*
X1059563Y645295D02*
X1053971Y645295D01*
X1053971Y647464D02*
X1059563Y647464D01*
X1059563Y649633D02*
X1053971Y649633D01*
X1053971Y651802D02*
X1059563Y651802D01*
X1059563Y653971D02*
X1053971Y653971D01*
D13*
X1051560Y1021080D03*
X1051560Y551180D03*
X746760Y1021080D03*
X746760Y551180D03*
D10*
X1043557Y612646D02*
X1049149Y612646D01*
X1043557Y612646D02*
X1043557Y624334D01*
X1049149Y624334D01*
X1049149Y612646D01*
X1049149Y614815D02*
X1043557Y614815D01*
X1043557Y616984D02*
X1049149Y616984D01*
X1049149Y619153D02*
X1043557Y619153D01*
X1043557Y621322D02*
X1049149Y621322D01*
X1049149Y623491D02*
X1043557Y623491D01*
X1053971Y612646D02*
X1059563Y612646D01*
X1053971Y612646D02*
X1053971Y624334D01*
X1059563Y624334D01*
X1059563Y612646D01*
X1059563Y614815D02*
X1053971Y614815D01*
X1053971Y616984D02*
X1059563Y616984D01*
X1059563Y619153D02*
X1053971Y619153D01*
X1053971Y621322D02*
X1059563Y621322D01*
X1059563Y623491D02*
X1053971Y623491D01*
D12*
X962660Y601980D03*
X835660Y601980D03*
D10*
X191010Y1127254D02*
X185418Y1127254D01*
X191010Y1127254D02*
X191010Y1115566D01*
X185418Y1115566D01*
X185418Y1127254D01*
X185418Y1117735D02*
X191010Y1117735D01*
X191010Y1119904D02*
X185418Y1119904D01*
X185418Y1122073D02*
X191010Y1122073D01*
X191010Y1124242D02*
X185418Y1124242D01*
X185418Y1126411D02*
X191010Y1126411D01*
X180596Y1127254D02*
X175004Y1127254D01*
X180596Y1127254D02*
X180596Y1115566D01*
X175004Y1115566D01*
X175004Y1127254D01*
X175004Y1117735D02*
X180596Y1117735D01*
X180596Y1119904D02*
X175004Y1119904D01*
X175004Y1122073D02*
X180596Y1122073D01*
X180596Y1124242D02*
X175004Y1124242D01*
X175004Y1126411D02*
X180596Y1126411D01*
X170182Y1127254D02*
X164590Y1127254D01*
X170182Y1127254D02*
X170182Y1115566D01*
X164590Y1115566D01*
X164590Y1127254D01*
X164590Y1117735D02*
X170182Y1117735D01*
X170182Y1119904D02*
X164590Y1119904D01*
X164590Y1122073D02*
X170182Y1122073D01*
X170182Y1124242D02*
X164590Y1124242D01*
X164590Y1126411D02*
X170182Y1126411D01*
D11*
X12700Y1432560D03*
X309880Y1061720D03*
D12*
X241300Y1381760D03*
X241300Y1356360D03*
X241300Y1330960D03*
X241300Y1305560D03*
X241300Y1280160D03*
X241300Y1254760D03*
X241300Y1229360D03*
X241300Y1203960D03*
X241300Y1178560D03*
X241300Y1153160D03*
X114300Y1381760D03*
X114300Y1356360D03*
X114300Y1330960D03*
X114300Y1305560D03*
X114300Y1280160D03*
X114300Y1254760D03*
X114300Y1229360D03*
X114300Y1203960D03*
X114300Y1178560D03*
X114300Y1153160D03*
D10*
X322197Y1107946D02*
X327789Y1107946D01*
X322197Y1107946D02*
X322197Y1119634D01*
X327789Y1119634D01*
X327789Y1107946D01*
X327789Y1110115D02*
X322197Y1110115D01*
X322197Y1112284D02*
X327789Y1112284D01*
X327789Y1114453D02*
X322197Y1114453D01*
X322197Y1116622D02*
X327789Y1116622D01*
X327789Y1118791D02*
X322197Y1118791D01*
X332611Y1107946D02*
X338203Y1107946D01*
X332611Y1107946D02*
X332611Y1119634D01*
X338203Y1119634D01*
X338203Y1107946D01*
X338203Y1110115D02*
X332611Y1110115D01*
X332611Y1112284D02*
X338203Y1112284D01*
X338203Y1114453D02*
X332611Y1114453D01*
X332611Y1116622D02*
X338203Y1116622D01*
X338203Y1118791D02*
X332611Y1118791D01*
X327789Y1168906D02*
X322197Y1168906D01*
X322197Y1180594D01*
X327789Y1180594D01*
X327789Y1168906D01*
X327789Y1171075D02*
X322197Y1171075D01*
X322197Y1173244D02*
X327789Y1173244D01*
X327789Y1175413D02*
X322197Y1175413D01*
X322197Y1177582D02*
X327789Y1177582D01*
X327789Y1179751D02*
X322197Y1179751D01*
X332611Y1168906D02*
X338203Y1168906D01*
X332611Y1168906D02*
X332611Y1180594D01*
X338203Y1180594D01*
X338203Y1168906D01*
X338203Y1171075D02*
X332611Y1171075D01*
X332611Y1173244D02*
X338203Y1173244D01*
X338203Y1175413D02*
X332611Y1175413D01*
X332611Y1177582D02*
X338203Y1177582D01*
X338203Y1179751D02*
X332611Y1179751D01*
D13*
X330200Y1546860D03*
X330200Y1076960D03*
X25400Y1546860D03*
X25400Y1076960D03*
D10*
X322197Y1138426D02*
X327789Y1138426D01*
X322197Y1138426D02*
X322197Y1150114D01*
X327789Y1150114D01*
X327789Y1138426D01*
X327789Y1140595D02*
X322197Y1140595D01*
X322197Y1142764D02*
X327789Y1142764D01*
X327789Y1144933D02*
X322197Y1144933D01*
X322197Y1147102D02*
X327789Y1147102D01*
X327789Y1149271D02*
X322197Y1149271D01*
X332611Y1138426D02*
X338203Y1138426D01*
X332611Y1138426D02*
X332611Y1150114D01*
X338203Y1150114D01*
X338203Y1138426D01*
X338203Y1140595D02*
X332611Y1140595D01*
X332611Y1142764D02*
X338203Y1142764D01*
X338203Y1144933D02*
X332611Y1144933D01*
X332611Y1147102D02*
X338203Y1147102D01*
X338203Y1149271D02*
X332611Y1149271D01*
D12*
X241300Y1127760D03*
X114300Y1127760D03*
D10*
X546098Y1127254D02*
X551690Y1127254D01*
X551690Y1115566D01*
X546098Y1115566D01*
X546098Y1127254D01*
X546098Y1117735D02*
X551690Y1117735D01*
X551690Y1119904D02*
X546098Y1119904D01*
X546098Y1122073D02*
X551690Y1122073D01*
X551690Y1124242D02*
X546098Y1124242D01*
X546098Y1126411D02*
X551690Y1126411D01*
X541276Y1127254D02*
X535684Y1127254D01*
X541276Y1127254D02*
X541276Y1115566D01*
X535684Y1115566D01*
X535684Y1127254D01*
X535684Y1117735D02*
X541276Y1117735D01*
X541276Y1119904D02*
X535684Y1119904D01*
X535684Y1122073D02*
X541276Y1122073D01*
X541276Y1124242D02*
X535684Y1124242D01*
X535684Y1126411D02*
X541276Y1126411D01*
X530862Y1127254D02*
X525270Y1127254D01*
X530862Y1127254D02*
X530862Y1115566D01*
X525270Y1115566D01*
X525270Y1127254D01*
X525270Y1117735D02*
X530862Y1117735D01*
X530862Y1119904D02*
X525270Y1119904D01*
X525270Y1122073D02*
X530862Y1122073D01*
X530862Y1124242D02*
X525270Y1124242D01*
X525270Y1126411D02*
X530862Y1126411D01*
D11*
X373380Y1432560D03*
X670560Y1061720D03*
D12*
X601980Y1381760D03*
X601980Y1356360D03*
X601980Y1330960D03*
X601980Y1305560D03*
X601980Y1280160D03*
X601980Y1254760D03*
X601980Y1229360D03*
X601980Y1203960D03*
X601980Y1178560D03*
X601980Y1153160D03*
X474980Y1381760D03*
X474980Y1356360D03*
X474980Y1330960D03*
X474980Y1305560D03*
X474980Y1280160D03*
X474980Y1254760D03*
X474980Y1229360D03*
X474980Y1203960D03*
X474980Y1178560D03*
X474980Y1153160D03*
D10*
X682877Y1107946D02*
X688469Y1107946D01*
X682877Y1107946D02*
X682877Y1119634D01*
X688469Y1119634D01*
X688469Y1107946D01*
X688469Y1110115D02*
X682877Y1110115D01*
X682877Y1112284D02*
X688469Y1112284D01*
X688469Y1114453D02*
X682877Y1114453D01*
X682877Y1116622D02*
X688469Y1116622D01*
X688469Y1118791D02*
X682877Y1118791D01*
X693291Y1107946D02*
X698883Y1107946D01*
X693291Y1107946D02*
X693291Y1119634D01*
X698883Y1119634D01*
X698883Y1107946D01*
X698883Y1110115D02*
X693291Y1110115D01*
X693291Y1112284D02*
X698883Y1112284D01*
X698883Y1114453D02*
X693291Y1114453D01*
X693291Y1116622D02*
X698883Y1116622D01*
X698883Y1118791D02*
X693291Y1118791D01*
X688469Y1168906D02*
X682877Y1168906D01*
X682877Y1180594D01*
X688469Y1180594D01*
X688469Y1168906D01*
X688469Y1171075D02*
X682877Y1171075D01*
X682877Y1173244D02*
X688469Y1173244D01*
X688469Y1175413D02*
X682877Y1175413D01*
X682877Y1177582D02*
X688469Y1177582D01*
X688469Y1179751D02*
X682877Y1179751D01*
X693291Y1168906D02*
X698883Y1168906D01*
X693291Y1168906D02*
X693291Y1180594D01*
X698883Y1180594D01*
X698883Y1168906D01*
X698883Y1171075D02*
X693291Y1171075D01*
X693291Y1173244D02*
X698883Y1173244D01*
X698883Y1175413D02*
X693291Y1175413D01*
X693291Y1177582D02*
X698883Y1177582D01*
X698883Y1179751D02*
X693291Y1179751D01*
D13*
X690880Y1546860D03*
X690880Y1076960D03*
X386080Y1546860D03*
X386080Y1076960D03*
D10*
X682877Y1138426D02*
X688469Y1138426D01*
X682877Y1138426D02*
X682877Y1150114D01*
X688469Y1150114D01*
X688469Y1138426D01*
X688469Y1140595D02*
X682877Y1140595D01*
X682877Y1142764D02*
X688469Y1142764D01*
X688469Y1144933D02*
X682877Y1144933D01*
X682877Y1147102D02*
X688469Y1147102D01*
X688469Y1149271D02*
X682877Y1149271D01*
X693291Y1138426D02*
X698883Y1138426D01*
X693291Y1138426D02*
X693291Y1150114D01*
X698883Y1150114D01*
X698883Y1138426D01*
X698883Y1140595D02*
X693291Y1140595D01*
X693291Y1142764D02*
X698883Y1142764D01*
X698883Y1144933D02*
X693291Y1144933D01*
X693291Y1147102D02*
X698883Y1147102D01*
X698883Y1149271D02*
X693291Y1149271D01*
D12*
X601980Y1127760D03*
X474980Y1127760D03*
D10*
X906778Y1127254D02*
X912370Y1127254D01*
X912370Y1115566D01*
X906778Y1115566D01*
X906778Y1127254D01*
X906778Y1117735D02*
X912370Y1117735D01*
X912370Y1119904D02*
X906778Y1119904D01*
X906778Y1122073D02*
X912370Y1122073D01*
X912370Y1124242D02*
X906778Y1124242D01*
X906778Y1126411D02*
X912370Y1126411D01*
X901956Y1127254D02*
X896364Y1127254D01*
X901956Y1127254D02*
X901956Y1115566D01*
X896364Y1115566D01*
X896364Y1127254D01*
X896364Y1117735D02*
X901956Y1117735D01*
X901956Y1119904D02*
X896364Y1119904D01*
X896364Y1122073D02*
X901956Y1122073D01*
X901956Y1124242D02*
X896364Y1124242D01*
X896364Y1126411D02*
X901956Y1126411D01*
X891542Y1127254D02*
X885950Y1127254D01*
X891542Y1127254D02*
X891542Y1115566D01*
X885950Y1115566D01*
X885950Y1127254D01*
X885950Y1117735D02*
X891542Y1117735D01*
X891542Y1119904D02*
X885950Y1119904D01*
X885950Y1122073D02*
X891542Y1122073D01*
X891542Y1124242D02*
X885950Y1124242D01*
X885950Y1126411D02*
X891542Y1126411D01*
D11*
X734060Y1432560D03*
X1031240Y1061720D03*
D12*
X962660Y1381760D03*
X962660Y1356360D03*
X962660Y1330960D03*
X962660Y1305560D03*
X962660Y1280160D03*
X962660Y1254760D03*
X962660Y1229360D03*
X962660Y1203960D03*
X962660Y1178560D03*
X962660Y1153160D03*
X835660Y1381760D03*
X835660Y1356360D03*
X835660Y1330960D03*
X835660Y1305560D03*
X835660Y1280160D03*
X835660Y1254760D03*
X835660Y1229360D03*
X835660Y1203960D03*
X835660Y1178560D03*
X835660Y1153160D03*
D10*
X1043557Y1107946D02*
X1049149Y1107946D01*
X1043557Y1107946D02*
X1043557Y1119634D01*
X1049149Y1119634D01*
X1049149Y1107946D01*
X1049149Y1110115D02*
X1043557Y1110115D01*
X1043557Y1112284D02*
X1049149Y1112284D01*
X1049149Y1114453D02*
X1043557Y1114453D01*
X1043557Y1116622D02*
X1049149Y1116622D01*
X1049149Y1118791D02*
X1043557Y1118791D01*
X1053971Y1107946D02*
X1059563Y1107946D01*
X1053971Y1107946D02*
X1053971Y1119634D01*
X1059563Y1119634D01*
X1059563Y1107946D01*
X1059563Y1110115D02*
X1053971Y1110115D01*
X1053971Y1112284D02*
X1059563Y1112284D01*
X1059563Y1114453D02*
X1053971Y1114453D01*
X1053971Y1116622D02*
X1059563Y1116622D01*
X1059563Y1118791D02*
X1053971Y1118791D01*
X1049149Y1168906D02*
X1043557Y1168906D01*
X1043557Y1180594D01*
X1049149Y1180594D01*
X1049149Y1168906D01*
X1049149Y1171075D02*
X1043557Y1171075D01*
X1043557Y1173244D02*
X1049149Y1173244D01*
X1049149Y1175413D02*
X1043557Y1175413D01*
X1043557Y1177582D02*
X1049149Y1177582D01*
X1049149Y1179751D02*
X1043557Y1179751D01*
X1053971Y1168906D02*
X1059563Y1168906D01*
X1053971Y1168906D02*
X1053971Y1180594D01*
X1059563Y1180594D01*
X1059563Y1168906D01*
X1059563Y1171075D02*
X1053971Y1171075D01*
X1053971Y1173244D02*
X1059563Y1173244D01*
X1059563Y1175413D02*
X1053971Y1175413D01*
X1053971Y1177582D02*
X1059563Y1177582D01*
X1059563Y1179751D02*
X1053971Y1179751D01*
D13*
X1051560Y1546860D03*
X1051560Y1076960D03*
X746760Y1546860D03*
X746760Y1076960D03*
D10*
X1043557Y1138426D02*
X1049149Y1138426D01*
X1043557Y1138426D02*
X1043557Y1150114D01*
X1049149Y1150114D01*
X1049149Y1138426D01*
X1049149Y1140595D02*
X1043557Y1140595D01*
X1043557Y1142764D02*
X1049149Y1142764D01*
X1049149Y1144933D02*
X1043557Y1144933D01*
X1043557Y1147102D02*
X1049149Y1147102D01*
X1049149Y1149271D02*
X1043557Y1149271D01*
X1053971Y1138426D02*
X1059563Y1138426D01*
X1053971Y1138426D02*
X1053971Y1150114D01*
X1059563Y1150114D01*
X1059563Y1138426D01*
X1059563Y1140595D02*
X1053971Y1140595D01*
X1053971Y1142764D02*
X1059563Y1142764D01*
X1059563Y1144933D02*
X1053971Y1144933D01*
X1053971Y1147102D02*
X1059563Y1147102D01*
X1059563Y1149271D02*
X1053971Y1149271D01*
D12*
X962660Y1127760D03*
X835660Y1127760D03*
D11*
X-26238Y1545590D03*
X1098118Y1545590D03*
D14*
X-35293Y63500D02*
X-35290Y63722D01*
X-35282Y63944D01*
X-35268Y64166D01*
X-35249Y64388D01*
X-35225Y64608D01*
X-35195Y64829D01*
X-35160Y65048D01*
X-35119Y65267D01*
X-35073Y65484D01*
X-35022Y65700D01*
X-34965Y65915D01*
X-34903Y66129D01*
X-34836Y66340D01*
X-34764Y66551D01*
X-34686Y66759D01*
X-34604Y66965D01*
X-34516Y67169D01*
X-34424Y67372D01*
X-34326Y67571D01*
X-34224Y67768D01*
X-34117Y67963D01*
X-34005Y68155D01*
X-33888Y68344D01*
X-33767Y68531D01*
X-33641Y68714D01*
X-33511Y68894D01*
X-33376Y69071D01*
X-33238Y69244D01*
X-33095Y69414D01*
X-32947Y69581D01*
X-32796Y69744D01*
X-32641Y69903D01*
X-32482Y70058D01*
X-32319Y70209D01*
X-32152Y70357D01*
X-31982Y70500D01*
X-31809Y70638D01*
X-31632Y70773D01*
X-31452Y70903D01*
X-31269Y71029D01*
X-31082Y71150D01*
X-30893Y71267D01*
X-30701Y71379D01*
X-30506Y71486D01*
X-30309Y71588D01*
X-30110Y71686D01*
X-29907Y71778D01*
X-29703Y71866D01*
X-29497Y71948D01*
X-29289Y72026D01*
X-29078Y72098D01*
X-28867Y72165D01*
X-28653Y72227D01*
X-28438Y72284D01*
X-28222Y72335D01*
X-28005Y72381D01*
X-27786Y72422D01*
X-27567Y72457D01*
X-27346Y72487D01*
X-27126Y72511D01*
X-26904Y72530D01*
X-26682Y72544D01*
X-26460Y72552D01*
X-26238Y72555D01*
X-26016Y72552D01*
X-25794Y72544D01*
X-25572Y72530D01*
X-25350Y72511D01*
X-25130Y72487D01*
X-24909Y72457D01*
X-24690Y72422D01*
X-24471Y72381D01*
X-24254Y72335D01*
X-24038Y72284D01*
X-23823Y72227D01*
X-23609Y72165D01*
X-23398Y72098D01*
X-23187Y72026D01*
X-22979Y71948D01*
X-22773Y71866D01*
X-22569Y71778D01*
X-22366Y71686D01*
X-22167Y71588D01*
X-21970Y71486D01*
X-21775Y71379D01*
X-21583Y71267D01*
X-21394Y71150D01*
X-21207Y71029D01*
X-21024Y70903D01*
X-20844Y70773D01*
X-20667Y70638D01*
X-20494Y70500D01*
X-20324Y70357D01*
X-20157Y70209D01*
X-19994Y70058D01*
X-19835Y69903D01*
X-19680Y69744D01*
X-19529Y69581D01*
X-19381Y69414D01*
X-19238Y69244D01*
X-19100Y69071D01*
X-18965Y68894D01*
X-18835Y68714D01*
X-18709Y68531D01*
X-18588Y68344D01*
X-18471Y68155D01*
X-18359Y67963D01*
X-18252Y67768D01*
X-18150Y67571D01*
X-18052Y67372D01*
X-17960Y67169D01*
X-17872Y66965D01*
X-17790Y66759D01*
X-17712Y66551D01*
X-17640Y66340D01*
X-17573Y66129D01*
X-17511Y65915D01*
X-17454Y65700D01*
X-17403Y65484D01*
X-17357Y65267D01*
X-17316Y65048D01*
X-17281Y64829D01*
X-17251Y64608D01*
X-17227Y64388D01*
X-17208Y64166D01*
X-17194Y63944D01*
X-17186Y63722D01*
X-17183Y63500D01*
X-17186Y63278D01*
X-17194Y63056D01*
X-17208Y62834D01*
X-17227Y62612D01*
X-17251Y62392D01*
X-17281Y62171D01*
X-17316Y61952D01*
X-17357Y61733D01*
X-17403Y61516D01*
X-17454Y61300D01*
X-17511Y61085D01*
X-17573Y60871D01*
X-17640Y60660D01*
X-17712Y60449D01*
X-17790Y60241D01*
X-17872Y60035D01*
X-17960Y59831D01*
X-18052Y59628D01*
X-18150Y59429D01*
X-18252Y59232D01*
X-18359Y59037D01*
X-18471Y58845D01*
X-18588Y58656D01*
X-18709Y58469D01*
X-18835Y58286D01*
X-18965Y58106D01*
X-19100Y57929D01*
X-19238Y57756D01*
X-19381Y57586D01*
X-19529Y57419D01*
X-19680Y57256D01*
X-19835Y57097D01*
X-19994Y56942D01*
X-20157Y56791D01*
X-20324Y56643D01*
X-20494Y56500D01*
X-20667Y56362D01*
X-20844Y56227D01*
X-21024Y56097D01*
X-21207Y55971D01*
X-21394Y55850D01*
X-21583Y55733D01*
X-21775Y55621D01*
X-21970Y55514D01*
X-22167Y55412D01*
X-22366Y55314D01*
X-22569Y55222D01*
X-22773Y55134D01*
X-22979Y55052D01*
X-23187Y54974D01*
X-23398Y54902D01*
X-23609Y54835D01*
X-23823Y54773D01*
X-24038Y54716D01*
X-24254Y54665D01*
X-24471Y54619D01*
X-24690Y54578D01*
X-24909Y54543D01*
X-25130Y54513D01*
X-25350Y54489D01*
X-25572Y54470D01*
X-25794Y54456D01*
X-26016Y54448D01*
X-26238Y54445D01*
X-26460Y54448D01*
X-26682Y54456D01*
X-26904Y54470D01*
X-27126Y54489D01*
X-27346Y54513D01*
X-27567Y54543D01*
X-27786Y54578D01*
X-28005Y54619D01*
X-28222Y54665D01*
X-28438Y54716D01*
X-28653Y54773D01*
X-28867Y54835D01*
X-29078Y54902D01*
X-29289Y54974D01*
X-29497Y55052D01*
X-29703Y55134D01*
X-29907Y55222D01*
X-30110Y55314D01*
X-30309Y55412D01*
X-30506Y55514D01*
X-30701Y55621D01*
X-30893Y55733D01*
X-31082Y55850D01*
X-31269Y55971D01*
X-31452Y56097D01*
X-31632Y56227D01*
X-31809Y56362D01*
X-31982Y56500D01*
X-32152Y56643D01*
X-32319Y56791D01*
X-32482Y56942D01*
X-32641Y57097D01*
X-32796Y57256D01*
X-32947Y57419D01*
X-33095Y57586D01*
X-33238Y57756D01*
X-33376Y57929D01*
X-33511Y58106D01*
X-33641Y58286D01*
X-33767Y58469D01*
X-33888Y58656D01*
X-34005Y58845D01*
X-34117Y59037D01*
X-34224Y59232D01*
X-34326Y59429D01*
X-34424Y59628D01*
X-34516Y59831D01*
X-34604Y60035D01*
X-34686Y60241D01*
X-34764Y60449D01*
X-34836Y60660D01*
X-34903Y60871D01*
X-34965Y61085D01*
X-35022Y61300D01*
X-35073Y61516D01*
X-35119Y61733D01*
X-35160Y61952D01*
X-35195Y62171D01*
X-35225Y62392D01*
X-35249Y62612D01*
X-35268Y62834D01*
X-35282Y63056D01*
X-35290Y63278D01*
X-35293Y63500D01*
D15*
X-26238Y63500D03*
M02*
