G04 EAGLE Gerber RS-274X export*
G75*
%MOMM*%
%FSLAX34Y34*%
%LPD*%
%INSoldermask Top*%
%IPPOS*%
%AMOC8*
5,1,8,0,0,1.08239X$1,22.5*%
G01*
%ADD10C,0.225588*%
%ADD11C,0.225369*%
%ADD12C,0.225400*%
%ADD13C,1.127000*%
%ADD14C,0.222250*%
%ADD15C,2.006600*%
%ADD16C,0.428259*%
%ADD17C,0.223409*%
%ADD18C,0.224509*%
%ADD19C,0.223519*%
%ADD20C,0.224709*%
%ADD21C,3.175000*%
%ADD22C,1.270000*%
%ADD23C,1.627000*%


D10*
X155307Y4543D02*
X144293Y4543D01*
X144293Y23557D01*
X155307Y23557D01*
X155307Y4543D01*
X155307Y6686D02*
X144293Y6686D01*
X144293Y8829D02*
X155307Y8829D01*
X155307Y10972D02*
X144293Y10972D01*
X144293Y13115D02*
X155307Y13115D01*
X155307Y15258D02*
X144293Y15258D01*
X144293Y17401D02*
X155307Y17401D01*
X155307Y19544D02*
X144293Y19544D01*
X144293Y21687D02*
X155307Y21687D01*
X200293Y4543D02*
X211307Y4543D01*
X200293Y4543D02*
X200293Y23557D01*
X211307Y23557D01*
X211307Y4543D01*
X211307Y6686D02*
X200293Y6686D01*
X200293Y8829D02*
X211307Y8829D01*
X211307Y10972D02*
X200293Y10972D01*
X200293Y13115D02*
X211307Y13115D01*
X211307Y15258D02*
X200293Y15258D01*
X200293Y17401D02*
X211307Y17401D01*
X211307Y19544D02*
X200293Y19544D01*
X200293Y21687D02*
X211307Y21687D01*
D11*
X165308Y44542D02*
X160292Y44542D01*
X160292Y57058D01*
X165308Y57058D01*
X165308Y44542D01*
X165308Y46683D02*
X160292Y46683D01*
X160292Y48824D02*
X165308Y48824D01*
X165308Y50965D02*
X160292Y50965D01*
X160292Y53106D02*
X165308Y53106D01*
X165308Y55247D02*
X160292Y55247D01*
X170292Y44542D02*
X175308Y44542D01*
X170292Y44542D02*
X170292Y57058D01*
X175308Y57058D01*
X175308Y44542D01*
X175308Y46683D02*
X170292Y46683D01*
X170292Y48824D02*
X175308Y48824D01*
X175308Y50965D02*
X170292Y50965D01*
X170292Y53106D02*
X175308Y53106D01*
X175308Y55247D02*
X170292Y55247D01*
X180292Y44542D02*
X185308Y44542D01*
X180292Y44542D02*
X180292Y57058D01*
X185308Y57058D01*
X185308Y44542D01*
X185308Y46683D02*
X180292Y46683D01*
X180292Y48824D02*
X185308Y48824D01*
X185308Y50965D02*
X180292Y50965D01*
X180292Y53106D02*
X185308Y53106D01*
X185308Y55247D02*
X180292Y55247D01*
X190292Y44542D02*
X195308Y44542D01*
X190292Y44542D02*
X190292Y57058D01*
X195308Y57058D01*
X195308Y44542D01*
X195308Y46683D02*
X190292Y46683D01*
X190292Y48824D02*
X195308Y48824D01*
X195308Y50965D02*
X190292Y50965D01*
X190292Y53106D02*
X195308Y53106D01*
X195308Y55247D02*
X190292Y55247D01*
D12*
X160592Y97472D02*
X160592Y107488D01*
X169608Y107488D01*
X169608Y97472D01*
X160592Y97472D01*
X160592Y99613D02*
X169608Y99613D01*
X169608Y101754D02*
X160592Y101754D01*
X160592Y103895D02*
X169608Y103895D01*
X169608Y106036D02*
X160592Y106036D01*
X160592Y90488D02*
X160592Y80472D01*
X160592Y90488D02*
X169608Y90488D01*
X169608Y80472D01*
X160592Y80472D01*
X160592Y82613D02*
X169608Y82613D01*
X169608Y84754D02*
X160592Y84754D01*
X160592Y86895D02*
X169608Y86895D01*
X169608Y89036D02*
X160592Y89036D01*
X185992Y97472D02*
X185992Y107488D01*
X195008Y107488D01*
X195008Y97472D01*
X185992Y97472D01*
X185992Y99613D02*
X195008Y99613D01*
X195008Y101754D02*
X185992Y101754D01*
X185992Y103895D02*
X195008Y103895D01*
X195008Y106036D02*
X185992Y106036D01*
X185992Y90488D02*
X185992Y80472D01*
X185992Y90488D02*
X195008Y90488D01*
X195008Y80472D01*
X185992Y80472D01*
X185992Y82613D02*
X195008Y82613D01*
X195008Y84754D02*
X185992Y84754D01*
X185992Y86895D02*
X195008Y86895D01*
X195008Y89036D02*
X185992Y89036D01*
D13*
X12700Y381000D03*
X309880Y10160D03*
D14*
X80804Y47466D02*
X80804Y54134D01*
X80804Y47466D02*
X66516Y47466D01*
X66516Y54134D01*
X80804Y54134D01*
X80804Y49578D02*
X66516Y49578D01*
X66516Y51690D02*
X80804Y51690D01*
X80804Y53802D02*
X66516Y53802D01*
X136684Y54134D02*
X136684Y47466D01*
X122396Y47466D01*
X122396Y54134D01*
X136684Y54134D01*
X136684Y49578D02*
X122396Y49578D01*
X122396Y51690D02*
X136684Y51690D01*
X136684Y53802D02*
X122396Y53802D01*
X80804Y16034D02*
X80804Y9366D01*
X66516Y9366D01*
X66516Y16034D01*
X80804Y16034D01*
X80804Y11478D02*
X66516Y11478D01*
X66516Y13590D02*
X80804Y13590D01*
X80804Y15702D02*
X66516Y15702D01*
X136684Y16034D02*
X136684Y9366D01*
X122396Y9366D01*
X122396Y16034D01*
X136684Y16034D01*
X136684Y11478D02*
X122396Y11478D01*
X122396Y13590D02*
X136684Y13590D01*
X136684Y15702D02*
X122396Y15702D01*
X233204Y47466D02*
X233204Y54134D01*
X233204Y47466D02*
X218916Y47466D01*
X218916Y54134D01*
X233204Y54134D01*
X233204Y49578D02*
X218916Y49578D01*
X218916Y51690D02*
X233204Y51690D01*
X233204Y53802D02*
X218916Y53802D01*
X289084Y54134D02*
X289084Y47466D01*
X274796Y47466D01*
X274796Y54134D01*
X289084Y54134D01*
X289084Y49578D02*
X274796Y49578D01*
X274796Y51690D02*
X289084Y51690D01*
X289084Y53802D02*
X274796Y53802D01*
X233204Y16034D02*
X233204Y9366D01*
X218916Y9366D01*
X218916Y16034D01*
X233204Y16034D01*
X233204Y11478D02*
X218916Y11478D01*
X218916Y13590D02*
X233204Y13590D01*
X233204Y15702D02*
X218916Y15702D01*
X289084Y16034D02*
X289084Y9366D01*
X274796Y9366D01*
X274796Y16034D01*
X289084Y16034D01*
X289084Y11478D02*
X274796Y11478D01*
X274796Y13590D02*
X289084Y13590D01*
X289084Y15702D02*
X274796Y15702D01*
D15*
X241300Y330200D03*
X241300Y304800D03*
X241300Y279400D03*
X241300Y254000D03*
X241300Y228600D03*
X241300Y203200D03*
X241300Y177800D03*
X241300Y152400D03*
X241300Y127000D03*
X241300Y101600D03*
X114300Y330200D03*
X114300Y304800D03*
X114300Y279400D03*
X114300Y254000D03*
X114300Y228600D03*
X114300Y203200D03*
X114300Y177800D03*
X114300Y152400D03*
X114300Y127000D03*
X114300Y101600D03*
D12*
X288752Y57722D02*
X298768Y57722D01*
X288752Y57722D02*
X288752Y66738D01*
X298768Y66738D01*
X298768Y57722D01*
X298768Y59863D02*
X288752Y59863D01*
X288752Y62004D02*
X298768Y62004D01*
X298768Y64145D02*
X288752Y64145D01*
X288752Y66286D02*
X298768Y66286D01*
X305752Y57722D02*
X315768Y57722D01*
X305752Y57722D02*
X305752Y66738D01*
X315768Y66738D01*
X315768Y57722D01*
X315768Y59863D02*
X305752Y59863D01*
X305752Y62004D02*
X315768Y62004D01*
X315768Y64145D02*
X305752Y64145D01*
X305752Y66286D02*
X315768Y66286D01*
D16*
X339286Y65724D02*
X339286Y58736D01*
X339286Y65724D02*
X346274Y65724D01*
X346274Y58736D01*
X339286Y58736D01*
X339286Y62805D02*
X346274Y62805D01*
X321746Y65724D02*
X321746Y58736D01*
X321746Y65724D02*
X328734Y65724D01*
X328734Y58736D01*
X321746Y58736D01*
X321746Y62805D02*
X328734Y62805D01*
X339286Y119696D02*
X339286Y126684D01*
X346274Y126684D01*
X346274Y119696D01*
X339286Y119696D01*
X339286Y123765D02*
X346274Y123765D01*
X321746Y126684D02*
X321746Y119696D01*
X321746Y126684D02*
X328734Y126684D01*
X328734Y119696D01*
X321746Y119696D01*
X321746Y123765D02*
X328734Y123765D01*
D12*
X298768Y118682D02*
X288752Y118682D01*
X288752Y127698D01*
X298768Y127698D01*
X298768Y118682D01*
X298768Y120823D02*
X288752Y120823D01*
X288752Y122964D02*
X298768Y122964D01*
X298768Y125105D02*
X288752Y125105D01*
X288752Y127246D02*
X298768Y127246D01*
X305752Y118682D02*
X315768Y118682D01*
X305752Y118682D02*
X305752Y127698D01*
X315768Y127698D01*
X315768Y118682D01*
X315768Y120823D02*
X305752Y120823D01*
X305752Y122964D02*
X315768Y122964D01*
X315768Y125105D02*
X305752Y125105D01*
X305752Y127246D02*
X315768Y127246D01*
D17*
X157868Y145081D02*
X153332Y145081D01*
X153332Y157617D01*
X157868Y157617D01*
X157868Y145081D01*
X157868Y147203D02*
X153332Y147203D01*
X153332Y149325D02*
X157868Y149325D01*
X157868Y151447D02*
X153332Y151447D01*
X153332Y153569D02*
X157868Y153569D01*
X157868Y155691D02*
X153332Y155691D01*
X162832Y145081D02*
X167368Y145081D01*
X162832Y145081D02*
X162832Y157617D01*
X167368Y157617D01*
X167368Y145081D01*
X167368Y147203D02*
X162832Y147203D01*
X162832Y149325D02*
X167368Y149325D01*
X167368Y151447D02*
X162832Y151447D01*
X162832Y153569D02*
X167368Y153569D01*
X167368Y155691D02*
X162832Y155691D01*
X172332Y145081D02*
X176868Y145081D01*
X172332Y145081D02*
X172332Y157617D01*
X176868Y157617D01*
X176868Y145081D01*
X176868Y147203D02*
X172332Y147203D01*
X172332Y149325D02*
X176868Y149325D01*
X176868Y151447D02*
X172332Y151447D01*
X172332Y153569D02*
X176868Y153569D01*
X176868Y155691D02*
X172332Y155691D01*
X172332Y172583D02*
X176868Y172583D01*
X172332Y172583D02*
X172332Y185119D01*
X176868Y185119D01*
X176868Y172583D01*
X176868Y174705D02*
X172332Y174705D01*
X172332Y176827D02*
X176868Y176827D01*
X176868Y178949D02*
X172332Y178949D01*
X172332Y181071D02*
X176868Y181071D01*
X176868Y183193D02*
X172332Y183193D01*
X167368Y172583D02*
X162832Y172583D01*
X162832Y185119D01*
X167368Y185119D01*
X167368Y172583D01*
X167368Y174705D02*
X162832Y174705D01*
X162832Y176827D02*
X167368Y176827D01*
X167368Y178949D02*
X162832Y178949D01*
X162832Y181071D02*
X167368Y181071D01*
X167368Y183193D02*
X162832Y183193D01*
X157868Y172583D02*
X153332Y172583D01*
X153332Y185119D01*
X157868Y185119D01*
X157868Y172583D01*
X157868Y174705D02*
X153332Y174705D01*
X153332Y176827D02*
X157868Y176827D01*
X157868Y178949D02*
X153332Y178949D01*
X153332Y181071D02*
X157868Y181071D01*
X157868Y183193D02*
X153332Y183193D01*
D18*
X150667Y190927D02*
X189693Y190927D01*
X150667Y190927D02*
X150667Y205953D01*
X189693Y205953D01*
X189693Y190927D01*
X189693Y193060D02*
X150667Y193060D01*
X150667Y195193D02*
X189693Y195193D01*
X189693Y197326D02*
X150667Y197326D01*
X150667Y199459D02*
X189693Y199459D01*
X189693Y201592D02*
X150667Y201592D01*
X150667Y203725D02*
X189693Y203725D01*
X189693Y205858D02*
X150667Y205858D01*
X150667Y229927D02*
X189693Y229927D01*
X150667Y229927D02*
X150667Y244953D01*
X189693Y244953D01*
X189693Y229927D01*
X189693Y232060D02*
X150667Y232060D01*
X150667Y234193D02*
X189693Y234193D01*
X189693Y236326D02*
X150667Y236326D01*
X150667Y238459D02*
X189693Y238459D01*
X189693Y240592D02*
X150667Y240592D01*
X150667Y242725D02*
X189693Y242725D01*
X189693Y244858D02*
X150667Y244858D01*
D12*
X140398Y187008D02*
X140398Y176992D01*
X131382Y176992D01*
X131382Y187008D01*
X140398Y187008D01*
X140398Y179133D02*
X131382Y179133D01*
X131382Y181274D02*
X140398Y181274D01*
X140398Y183415D02*
X131382Y183415D01*
X131382Y185556D02*
X140398Y185556D01*
X140398Y193992D02*
X140398Y204008D01*
X140398Y193992D02*
X131382Y193992D01*
X131382Y204008D01*
X140398Y204008D01*
X140398Y196133D02*
X131382Y196133D01*
X131382Y198274D02*
X140398Y198274D01*
X140398Y200415D02*
X131382Y200415D01*
X131382Y202556D02*
X140398Y202556D01*
X218758Y228790D02*
X218758Y238806D01*
X227774Y238806D01*
X227774Y228790D01*
X218758Y228790D01*
X218758Y230931D02*
X227774Y230931D01*
X227774Y233072D02*
X218758Y233072D01*
X218758Y235213D02*
X227774Y235213D01*
X227774Y237354D02*
X218758Y237354D01*
X218758Y221806D02*
X218758Y211790D01*
X218758Y221806D02*
X227774Y221806D01*
X227774Y211790D01*
X218758Y211790D01*
X218758Y213931D02*
X227774Y213931D01*
X227774Y216072D02*
X218758Y216072D01*
X218758Y218213D02*
X227774Y218213D01*
X227774Y220354D02*
X218758Y220354D01*
X203518Y228790D02*
X203518Y238806D01*
X212534Y238806D01*
X212534Y228790D01*
X203518Y228790D01*
X203518Y230931D02*
X212534Y230931D01*
X212534Y233072D02*
X203518Y233072D01*
X203518Y235213D02*
X212534Y235213D01*
X212534Y237354D02*
X203518Y237354D01*
X203518Y221806D02*
X203518Y211790D01*
X203518Y221806D02*
X212534Y221806D01*
X212534Y211790D01*
X203518Y211790D01*
X203518Y213931D02*
X212534Y213931D01*
X212534Y216072D02*
X203518Y216072D01*
X203518Y218213D02*
X212534Y218213D01*
X212534Y220354D02*
X203518Y220354D01*
D19*
X213018Y148338D02*
X213018Y136602D01*
X193382Y136602D01*
X193382Y148338D01*
X213018Y148338D01*
X213018Y138725D02*
X193382Y138725D01*
X193382Y140848D02*
X213018Y140848D01*
X213018Y142971D02*
X193382Y142971D01*
X193382Y145094D02*
X213018Y145094D01*
X213018Y147217D02*
X193382Y147217D01*
X213018Y171702D02*
X213018Y183438D01*
X213018Y171702D02*
X193382Y171702D01*
X193382Y183438D01*
X213018Y183438D01*
X213018Y173825D02*
X193382Y173825D01*
X193382Y175948D02*
X213018Y175948D01*
X213018Y178071D02*
X193382Y178071D01*
X193382Y180194D02*
X213018Y180194D01*
X213018Y182317D02*
X193382Y182317D01*
D12*
X161608Y130112D02*
X151592Y130112D01*
X151592Y139128D01*
X161608Y139128D01*
X161608Y130112D01*
X161608Y132253D02*
X151592Y132253D01*
X151592Y134394D02*
X161608Y134394D01*
X161608Y136535D02*
X151592Y136535D01*
X151592Y138676D02*
X161608Y138676D01*
X168592Y130112D02*
X178608Y130112D01*
X168592Y130112D02*
X168592Y139128D01*
X178608Y139128D01*
X178608Y130112D01*
X178608Y132253D02*
X168592Y132253D01*
X168592Y134394D02*
X178608Y134394D01*
X178608Y136535D02*
X168592Y136535D01*
X168592Y138676D02*
X178608Y138676D01*
D20*
X60812Y323238D02*
X60812Y330762D01*
X60812Y323238D02*
X44788Y323238D01*
X44788Y330762D01*
X60812Y330762D01*
X60812Y325373D02*
X44788Y325373D01*
X44788Y327508D02*
X60812Y327508D01*
X60812Y329643D02*
X44788Y329643D01*
X90812Y310762D02*
X90812Y303238D01*
X74788Y303238D01*
X74788Y310762D01*
X90812Y310762D01*
X90812Y305373D02*
X74788Y305373D01*
X74788Y307508D02*
X90812Y307508D01*
X90812Y309643D02*
X74788Y309643D01*
X60812Y290762D02*
X60812Y283238D01*
X44788Y283238D01*
X44788Y290762D01*
X60812Y290762D01*
X60812Y285373D02*
X44788Y285373D01*
X44788Y287508D02*
X60812Y287508D01*
X60812Y289643D02*
X44788Y289643D01*
X90812Y270762D02*
X90812Y263238D01*
X74788Y263238D01*
X74788Y270762D01*
X90812Y270762D01*
X90812Y265373D02*
X74788Y265373D01*
X74788Y267508D02*
X90812Y267508D01*
X90812Y269643D02*
X74788Y269643D01*
X60812Y250762D02*
X60812Y243238D01*
X44788Y243238D01*
X44788Y250762D01*
X60812Y250762D01*
X60812Y245373D02*
X44788Y245373D01*
X44788Y247508D02*
X60812Y247508D01*
X60812Y249643D02*
X44788Y249643D01*
X90812Y230762D02*
X90812Y223238D01*
X74788Y223238D01*
X74788Y230762D01*
X90812Y230762D01*
X90812Y225373D02*
X74788Y225373D01*
X74788Y227508D02*
X90812Y227508D01*
X90812Y229643D02*
X74788Y229643D01*
X60812Y210762D02*
X60812Y203238D01*
X44788Y203238D01*
X44788Y210762D01*
X60812Y210762D01*
X60812Y205373D02*
X44788Y205373D01*
X44788Y207508D02*
X60812Y207508D01*
X60812Y209643D02*
X44788Y209643D01*
X90812Y190762D02*
X90812Y183238D01*
X74788Y183238D01*
X74788Y190762D01*
X90812Y190762D01*
X90812Y185373D02*
X74788Y185373D01*
X74788Y187508D02*
X90812Y187508D01*
X90812Y189643D02*
X74788Y189643D01*
X60812Y170762D02*
X60812Y163238D01*
X44788Y163238D01*
X44788Y170762D01*
X60812Y170762D01*
X60812Y165373D02*
X44788Y165373D01*
X44788Y167508D02*
X60812Y167508D01*
X60812Y169643D02*
X44788Y169643D01*
X90812Y150762D02*
X90812Y143238D01*
X74788Y143238D01*
X74788Y150762D01*
X90812Y150762D01*
X90812Y145373D02*
X74788Y145373D01*
X74788Y147508D02*
X90812Y147508D01*
X90812Y149643D02*
X74788Y149643D01*
X310812Y150762D02*
X310812Y143238D01*
X294788Y143238D01*
X294788Y150762D01*
X310812Y150762D01*
X310812Y145373D02*
X294788Y145373D01*
X294788Y147508D02*
X310812Y147508D01*
X310812Y149643D02*
X294788Y149643D01*
X280812Y163238D02*
X280812Y170762D01*
X280812Y163238D02*
X264788Y163238D01*
X264788Y170762D01*
X280812Y170762D01*
X280812Y165373D02*
X264788Y165373D01*
X264788Y167508D02*
X280812Y167508D01*
X280812Y169643D02*
X264788Y169643D01*
X310812Y183238D02*
X310812Y190762D01*
X310812Y183238D02*
X294788Y183238D01*
X294788Y190762D01*
X310812Y190762D01*
X310812Y185373D02*
X294788Y185373D01*
X294788Y187508D02*
X310812Y187508D01*
X310812Y189643D02*
X294788Y189643D01*
X280812Y203238D02*
X280812Y210762D01*
X280812Y203238D02*
X264788Y203238D01*
X264788Y210762D01*
X280812Y210762D01*
X280812Y205373D02*
X264788Y205373D01*
X264788Y207508D02*
X280812Y207508D01*
X280812Y209643D02*
X264788Y209643D01*
X310812Y223238D02*
X310812Y230762D01*
X310812Y223238D02*
X294788Y223238D01*
X294788Y230762D01*
X310812Y230762D01*
X310812Y225373D02*
X294788Y225373D01*
X294788Y227508D02*
X310812Y227508D01*
X310812Y229643D02*
X294788Y229643D01*
X280812Y243238D02*
X280812Y250762D01*
X280812Y243238D02*
X264788Y243238D01*
X264788Y250762D01*
X280812Y250762D01*
X280812Y245373D02*
X264788Y245373D01*
X264788Y247508D02*
X280812Y247508D01*
X280812Y249643D02*
X264788Y249643D01*
X310812Y263238D02*
X310812Y270762D01*
X310812Y263238D02*
X294788Y263238D01*
X294788Y270762D01*
X310812Y270762D01*
X310812Y265373D02*
X294788Y265373D01*
X294788Y267508D02*
X310812Y267508D01*
X310812Y269643D02*
X294788Y269643D01*
X280812Y283238D02*
X280812Y290762D01*
X280812Y283238D02*
X264788Y283238D01*
X264788Y290762D01*
X280812Y290762D01*
X280812Y285373D02*
X264788Y285373D01*
X264788Y287508D02*
X280812Y287508D01*
X280812Y289643D02*
X264788Y289643D01*
X310812Y303238D02*
X310812Y310762D01*
X310812Y303238D02*
X294788Y303238D01*
X294788Y310762D01*
X310812Y310762D01*
X310812Y305373D02*
X294788Y305373D01*
X294788Y307508D02*
X310812Y307508D01*
X310812Y309643D02*
X294788Y309643D01*
X280812Y323238D02*
X280812Y330762D01*
X280812Y323238D02*
X264788Y323238D01*
X264788Y330762D01*
X280812Y330762D01*
X280812Y325373D02*
X264788Y325373D01*
X264788Y327508D02*
X280812Y327508D01*
X280812Y329643D02*
X264788Y329643D01*
D12*
X38908Y253428D02*
X28892Y253428D01*
X38908Y253428D02*
X38908Y244412D01*
X28892Y244412D01*
X28892Y253428D01*
X28892Y246553D02*
X38908Y246553D01*
X38908Y248694D02*
X28892Y248694D01*
X28892Y250835D02*
X38908Y250835D01*
X38908Y252976D02*
X28892Y252976D01*
X21908Y253428D02*
X11892Y253428D01*
X21908Y253428D02*
X21908Y244412D01*
X11892Y244412D01*
X11892Y253428D01*
X11892Y246553D02*
X21908Y246553D01*
X21908Y248694D02*
X11892Y248694D01*
X11892Y250835D02*
X21908Y250835D01*
X21908Y252976D02*
X11892Y252976D01*
X28892Y300418D02*
X38908Y300418D01*
X38908Y291402D01*
X28892Y291402D01*
X28892Y300418D01*
X28892Y293543D02*
X38908Y293543D01*
X38908Y295684D02*
X28892Y295684D01*
X28892Y297825D02*
X38908Y297825D01*
X38908Y299966D02*
X28892Y299966D01*
X21908Y300418D02*
X11892Y300418D01*
X21908Y300418D02*
X21908Y291402D01*
X11892Y291402D01*
X11892Y300418D01*
X11892Y293543D02*
X21908Y293543D01*
X21908Y295684D02*
X11892Y295684D01*
X11892Y297825D02*
X21908Y297825D01*
X21908Y299966D02*
X11892Y299966D01*
X28892Y285178D02*
X38908Y285178D01*
X38908Y276162D01*
X28892Y276162D01*
X28892Y285178D01*
X28892Y278303D02*
X38908Y278303D01*
X38908Y280444D02*
X28892Y280444D01*
X28892Y282585D02*
X38908Y282585D01*
X38908Y284726D02*
X28892Y284726D01*
X21908Y285178D02*
X11892Y285178D01*
X21908Y285178D02*
X21908Y276162D01*
X11892Y276162D01*
X11892Y285178D01*
X11892Y278303D02*
X21908Y278303D01*
X21908Y280444D02*
X11892Y280444D01*
X11892Y282585D02*
X21908Y282585D01*
X21908Y284726D02*
X11892Y284726D01*
X28892Y269938D02*
X38908Y269938D01*
X38908Y260922D01*
X28892Y260922D01*
X28892Y269938D01*
X28892Y263063D02*
X38908Y263063D01*
X38908Y265204D02*
X28892Y265204D01*
X28892Y267345D02*
X38908Y267345D01*
X38908Y269486D02*
X28892Y269486D01*
X21908Y269938D02*
X11892Y269938D01*
X21908Y269938D02*
X21908Y260922D01*
X11892Y260922D01*
X11892Y269938D01*
X11892Y263063D02*
X21908Y263063D01*
X21908Y265204D02*
X11892Y265204D01*
X11892Y267345D02*
X21908Y267345D01*
X21908Y269486D02*
X11892Y269486D01*
D21*
X330200Y495300D03*
X330200Y25400D03*
X25400Y495300D03*
X25400Y25400D03*
D16*
X339286Y89216D02*
X339286Y96204D01*
X346274Y96204D01*
X346274Y89216D01*
X339286Y89216D01*
X339286Y93285D02*
X346274Y93285D01*
X321746Y96204D02*
X321746Y89216D01*
X321746Y96204D02*
X328734Y96204D01*
X328734Y89216D01*
X321746Y89216D01*
X321746Y93285D02*
X328734Y93285D01*
D12*
X298768Y88202D02*
X288752Y88202D01*
X288752Y97218D01*
X298768Y97218D01*
X298768Y88202D01*
X298768Y90343D02*
X288752Y90343D01*
X288752Y92484D02*
X298768Y92484D01*
X298768Y94625D02*
X288752Y94625D01*
X288752Y96766D02*
X298768Y96766D01*
X305752Y88202D02*
X315768Y88202D01*
X305752Y88202D02*
X305752Y97218D01*
X315768Y97218D01*
X315768Y88202D01*
X315768Y90343D02*
X305752Y90343D01*
X305752Y92484D02*
X315768Y92484D01*
X315768Y94625D02*
X305752Y94625D01*
X305752Y96766D02*
X315768Y96766D01*
D15*
X241300Y76200D03*
X114300Y76200D03*
D12*
X38908Y315658D02*
X28892Y315658D01*
X38908Y315658D02*
X38908Y306642D01*
X28892Y306642D01*
X28892Y315658D01*
X28892Y308783D02*
X38908Y308783D01*
X38908Y310924D02*
X28892Y310924D01*
X28892Y313065D02*
X38908Y313065D01*
X38908Y315206D02*
X28892Y315206D01*
X21908Y315658D02*
X11892Y315658D01*
X21908Y315658D02*
X21908Y306642D01*
X11892Y306642D01*
X11892Y315658D01*
X11892Y308783D02*
X21908Y308783D01*
X21908Y310924D02*
X11892Y310924D01*
X11892Y313065D02*
X21908Y313065D01*
X21908Y315206D02*
X11892Y315206D01*
X28892Y330898D02*
X38908Y330898D01*
X38908Y321882D01*
X28892Y321882D01*
X28892Y330898D01*
X28892Y324023D02*
X38908Y324023D01*
X38908Y326164D02*
X28892Y326164D01*
X28892Y328305D02*
X38908Y328305D01*
X38908Y330446D02*
X28892Y330446D01*
X21908Y330898D02*
X11892Y330898D01*
X21908Y330898D02*
X21908Y321882D01*
X11892Y321882D01*
X11892Y330898D01*
X11892Y324023D02*
X21908Y324023D01*
X21908Y326164D02*
X11892Y326164D01*
X11892Y328305D02*
X21908Y328305D01*
X21908Y330446D02*
X11892Y330446D01*
D10*
X504973Y4543D02*
X515987Y4543D01*
X504973Y4543D02*
X504973Y23557D01*
X515987Y23557D01*
X515987Y4543D01*
X515987Y6686D02*
X504973Y6686D01*
X504973Y8829D02*
X515987Y8829D01*
X515987Y10972D02*
X504973Y10972D01*
X504973Y13115D02*
X515987Y13115D01*
X515987Y15258D02*
X504973Y15258D01*
X504973Y17401D02*
X515987Y17401D01*
X515987Y19544D02*
X504973Y19544D01*
X504973Y21687D02*
X515987Y21687D01*
X560973Y4543D02*
X571987Y4543D01*
X560973Y4543D02*
X560973Y23557D01*
X571987Y23557D01*
X571987Y4543D01*
X571987Y6686D02*
X560973Y6686D01*
X560973Y8829D02*
X571987Y8829D01*
X571987Y10972D02*
X560973Y10972D01*
X560973Y13115D02*
X571987Y13115D01*
X571987Y15258D02*
X560973Y15258D01*
X560973Y17401D02*
X571987Y17401D01*
X571987Y19544D02*
X560973Y19544D01*
X560973Y21687D02*
X571987Y21687D01*
D11*
X525988Y44542D02*
X520972Y44542D01*
X520972Y57058D01*
X525988Y57058D01*
X525988Y44542D01*
X525988Y46683D02*
X520972Y46683D01*
X520972Y48824D02*
X525988Y48824D01*
X525988Y50965D02*
X520972Y50965D01*
X520972Y53106D02*
X525988Y53106D01*
X525988Y55247D02*
X520972Y55247D01*
X530972Y44542D02*
X535988Y44542D01*
X530972Y44542D02*
X530972Y57058D01*
X535988Y57058D01*
X535988Y44542D01*
X535988Y46683D02*
X530972Y46683D01*
X530972Y48824D02*
X535988Y48824D01*
X535988Y50965D02*
X530972Y50965D01*
X530972Y53106D02*
X535988Y53106D01*
X535988Y55247D02*
X530972Y55247D01*
X540972Y44542D02*
X545988Y44542D01*
X540972Y44542D02*
X540972Y57058D01*
X545988Y57058D01*
X545988Y44542D01*
X545988Y46683D02*
X540972Y46683D01*
X540972Y48824D02*
X545988Y48824D01*
X545988Y50965D02*
X540972Y50965D01*
X540972Y53106D02*
X545988Y53106D01*
X545988Y55247D02*
X540972Y55247D01*
X550972Y44542D02*
X555988Y44542D01*
X550972Y44542D02*
X550972Y57058D01*
X555988Y57058D01*
X555988Y44542D01*
X555988Y46683D02*
X550972Y46683D01*
X550972Y48824D02*
X555988Y48824D01*
X555988Y50965D02*
X550972Y50965D01*
X550972Y53106D02*
X555988Y53106D01*
X555988Y55247D02*
X550972Y55247D01*
D12*
X521272Y97472D02*
X521272Y107488D01*
X530288Y107488D01*
X530288Y97472D01*
X521272Y97472D01*
X521272Y99613D02*
X530288Y99613D01*
X530288Y101754D02*
X521272Y101754D01*
X521272Y103895D02*
X530288Y103895D01*
X530288Y106036D02*
X521272Y106036D01*
X521272Y90488D02*
X521272Y80472D01*
X521272Y90488D02*
X530288Y90488D01*
X530288Y80472D01*
X521272Y80472D01*
X521272Y82613D02*
X530288Y82613D01*
X530288Y84754D02*
X521272Y84754D01*
X521272Y86895D02*
X530288Y86895D01*
X530288Y89036D02*
X521272Y89036D01*
X546672Y97472D02*
X546672Y107488D01*
X555688Y107488D01*
X555688Y97472D01*
X546672Y97472D01*
X546672Y99613D02*
X555688Y99613D01*
X555688Y101754D02*
X546672Y101754D01*
X546672Y103895D02*
X555688Y103895D01*
X555688Y106036D02*
X546672Y106036D01*
X546672Y90488D02*
X546672Y80472D01*
X546672Y90488D02*
X555688Y90488D01*
X555688Y80472D01*
X546672Y80472D01*
X546672Y82613D02*
X555688Y82613D01*
X555688Y84754D02*
X546672Y84754D01*
X546672Y86895D02*
X555688Y86895D01*
X555688Y89036D02*
X546672Y89036D01*
D13*
X373380Y381000D03*
X670560Y10160D03*
D14*
X441484Y47466D02*
X441484Y54134D01*
X441484Y47466D02*
X427196Y47466D01*
X427196Y54134D01*
X441484Y54134D01*
X441484Y49578D02*
X427196Y49578D01*
X427196Y51690D02*
X441484Y51690D01*
X441484Y53802D02*
X427196Y53802D01*
X497364Y54134D02*
X497364Y47466D01*
X483076Y47466D01*
X483076Y54134D01*
X497364Y54134D01*
X497364Y49578D02*
X483076Y49578D01*
X483076Y51690D02*
X497364Y51690D01*
X497364Y53802D02*
X483076Y53802D01*
X441484Y16034D02*
X441484Y9366D01*
X427196Y9366D01*
X427196Y16034D01*
X441484Y16034D01*
X441484Y11478D02*
X427196Y11478D01*
X427196Y13590D02*
X441484Y13590D01*
X441484Y15702D02*
X427196Y15702D01*
X497364Y16034D02*
X497364Y9366D01*
X483076Y9366D01*
X483076Y16034D01*
X497364Y16034D01*
X497364Y11478D02*
X483076Y11478D01*
X483076Y13590D02*
X497364Y13590D01*
X497364Y15702D02*
X483076Y15702D01*
X593884Y47466D02*
X593884Y54134D01*
X593884Y47466D02*
X579596Y47466D01*
X579596Y54134D01*
X593884Y54134D01*
X593884Y49578D02*
X579596Y49578D01*
X579596Y51690D02*
X593884Y51690D01*
X593884Y53802D02*
X579596Y53802D01*
X649764Y54134D02*
X649764Y47466D01*
X635476Y47466D01*
X635476Y54134D01*
X649764Y54134D01*
X649764Y49578D02*
X635476Y49578D01*
X635476Y51690D02*
X649764Y51690D01*
X649764Y53802D02*
X635476Y53802D01*
X593884Y16034D02*
X593884Y9366D01*
X579596Y9366D01*
X579596Y16034D01*
X593884Y16034D01*
X593884Y11478D02*
X579596Y11478D01*
X579596Y13590D02*
X593884Y13590D01*
X593884Y15702D02*
X579596Y15702D01*
X649764Y16034D02*
X649764Y9366D01*
X635476Y9366D01*
X635476Y16034D01*
X649764Y16034D01*
X649764Y11478D02*
X635476Y11478D01*
X635476Y13590D02*
X649764Y13590D01*
X649764Y15702D02*
X635476Y15702D01*
D15*
X601980Y330200D03*
X601980Y304800D03*
X601980Y279400D03*
X601980Y254000D03*
X601980Y228600D03*
X601980Y203200D03*
X601980Y177800D03*
X601980Y152400D03*
X601980Y127000D03*
X601980Y101600D03*
X474980Y330200D03*
X474980Y304800D03*
X474980Y279400D03*
X474980Y254000D03*
X474980Y228600D03*
X474980Y203200D03*
X474980Y177800D03*
X474980Y152400D03*
X474980Y127000D03*
X474980Y101600D03*
D12*
X649432Y57722D02*
X659448Y57722D01*
X649432Y57722D02*
X649432Y66738D01*
X659448Y66738D01*
X659448Y57722D01*
X659448Y59863D02*
X649432Y59863D01*
X649432Y62004D02*
X659448Y62004D01*
X659448Y64145D02*
X649432Y64145D01*
X649432Y66286D02*
X659448Y66286D01*
X666432Y57722D02*
X676448Y57722D01*
X666432Y57722D02*
X666432Y66738D01*
X676448Y66738D01*
X676448Y57722D01*
X676448Y59863D02*
X666432Y59863D01*
X666432Y62004D02*
X676448Y62004D01*
X676448Y64145D02*
X666432Y64145D01*
X666432Y66286D02*
X676448Y66286D01*
D16*
X699966Y65724D02*
X699966Y58736D01*
X699966Y65724D02*
X706954Y65724D01*
X706954Y58736D01*
X699966Y58736D01*
X699966Y62805D02*
X706954Y62805D01*
X682426Y65724D02*
X682426Y58736D01*
X682426Y65724D02*
X689414Y65724D01*
X689414Y58736D01*
X682426Y58736D01*
X682426Y62805D02*
X689414Y62805D01*
X699966Y119696D02*
X699966Y126684D01*
X706954Y126684D01*
X706954Y119696D01*
X699966Y119696D01*
X699966Y123765D02*
X706954Y123765D01*
X682426Y126684D02*
X682426Y119696D01*
X682426Y126684D02*
X689414Y126684D01*
X689414Y119696D01*
X682426Y119696D01*
X682426Y123765D02*
X689414Y123765D01*
D12*
X659448Y118682D02*
X649432Y118682D01*
X649432Y127698D01*
X659448Y127698D01*
X659448Y118682D01*
X659448Y120823D02*
X649432Y120823D01*
X649432Y122964D02*
X659448Y122964D01*
X659448Y125105D02*
X649432Y125105D01*
X649432Y127246D02*
X659448Y127246D01*
X666432Y118682D02*
X676448Y118682D01*
X666432Y118682D02*
X666432Y127698D01*
X676448Y127698D01*
X676448Y118682D01*
X676448Y120823D02*
X666432Y120823D01*
X666432Y122964D02*
X676448Y122964D01*
X676448Y125105D02*
X666432Y125105D01*
X666432Y127246D02*
X676448Y127246D01*
D17*
X518548Y145081D02*
X514012Y145081D01*
X514012Y157617D01*
X518548Y157617D01*
X518548Y145081D01*
X518548Y147203D02*
X514012Y147203D01*
X514012Y149325D02*
X518548Y149325D01*
X518548Y151447D02*
X514012Y151447D01*
X514012Y153569D02*
X518548Y153569D01*
X518548Y155691D02*
X514012Y155691D01*
X523512Y145081D02*
X528048Y145081D01*
X523512Y145081D02*
X523512Y157617D01*
X528048Y157617D01*
X528048Y145081D01*
X528048Y147203D02*
X523512Y147203D01*
X523512Y149325D02*
X528048Y149325D01*
X528048Y151447D02*
X523512Y151447D01*
X523512Y153569D02*
X528048Y153569D01*
X528048Y155691D02*
X523512Y155691D01*
X533012Y145081D02*
X537548Y145081D01*
X533012Y145081D02*
X533012Y157617D01*
X537548Y157617D01*
X537548Y145081D01*
X537548Y147203D02*
X533012Y147203D01*
X533012Y149325D02*
X537548Y149325D01*
X537548Y151447D02*
X533012Y151447D01*
X533012Y153569D02*
X537548Y153569D01*
X537548Y155691D02*
X533012Y155691D01*
X533012Y172583D02*
X537548Y172583D01*
X533012Y172583D02*
X533012Y185119D01*
X537548Y185119D01*
X537548Y172583D01*
X537548Y174705D02*
X533012Y174705D01*
X533012Y176827D02*
X537548Y176827D01*
X537548Y178949D02*
X533012Y178949D01*
X533012Y181071D02*
X537548Y181071D01*
X537548Y183193D02*
X533012Y183193D01*
X528048Y172583D02*
X523512Y172583D01*
X523512Y185119D01*
X528048Y185119D01*
X528048Y172583D01*
X528048Y174705D02*
X523512Y174705D01*
X523512Y176827D02*
X528048Y176827D01*
X528048Y178949D02*
X523512Y178949D01*
X523512Y181071D02*
X528048Y181071D01*
X528048Y183193D02*
X523512Y183193D01*
X518548Y172583D02*
X514012Y172583D01*
X514012Y185119D01*
X518548Y185119D01*
X518548Y172583D01*
X518548Y174705D02*
X514012Y174705D01*
X514012Y176827D02*
X518548Y176827D01*
X518548Y178949D02*
X514012Y178949D01*
X514012Y181071D02*
X518548Y181071D01*
X518548Y183193D02*
X514012Y183193D01*
D18*
X511347Y190927D02*
X550373Y190927D01*
X511347Y190927D02*
X511347Y205953D01*
X550373Y205953D01*
X550373Y190927D01*
X550373Y193060D02*
X511347Y193060D01*
X511347Y195193D02*
X550373Y195193D01*
X550373Y197326D02*
X511347Y197326D01*
X511347Y199459D02*
X550373Y199459D01*
X550373Y201592D02*
X511347Y201592D01*
X511347Y203725D02*
X550373Y203725D01*
X550373Y205858D02*
X511347Y205858D01*
X511347Y229927D02*
X550373Y229927D01*
X511347Y229927D02*
X511347Y244953D01*
X550373Y244953D01*
X550373Y229927D01*
X550373Y232060D02*
X511347Y232060D01*
X511347Y234193D02*
X550373Y234193D01*
X550373Y236326D02*
X511347Y236326D01*
X511347Y238459D02*
X550373Y238459D01*
X550373Y240592D02*
X511347Y240592D01*
X511347Y242725D02*
X550373Y242725D01*
X550373Y244858D02*
X511347Y244858D01*
D12*
X501078Y187008D02*
X501078Y176992D01*
X492062Y176992D01*
X492062Y187008D01*
X501078Y187008D01*
X501078Y179133D02*
X492062Y179133D01*
X492062Y181274D02*
X501078Y181274D01*
X501078Y183415D02*
X492062Y183415D01*
X492062Y185556D02*
X501078Y185556D01*
X501078Y193992D02*
X501078Y204008D01*
X501078Y193992D02*
X492062Y193992D01*
X492062Y204008D01*
X501078Y204008D01*
X501078Y196133D02*
X492062Y196133D01*
X492062Y198274D02*
X501078Y198274D01*
X501078Y200415D02*
X492062Y200415D01*
X492062Y202556D02*
X501078Y202556D01*
X579438Y228790D02*
X579438Y238806D01*
X588454Y238806D01*
X588454Y228790D01*
X579438Y228790D01*
X579438Y230931D02*
X588454Y230931D01*
X588454Y233072D02*
X579438Y233072D01*
X579438Y235213D02*
X588454Y235213D01*
X588454Y237354D02*
X579438Y237354D01*
X579438Y221806D02*
X579438Y211790D01*
X579438Y221806D02*
X588454Y221806D01*
X588454Y211790D01*
X579438Y211790D01*
X579438Y213931D02*
X588454Y213931D01*
X588454Y216072D02*
X579438Y216072D01*
X579438Y218213D02*
X588454Y218213D01*
X588454Y220354D02*
X579438Y220354D01*
X564198Y228790D02*
X564198Y238806D01*
X573214Y238806D01*
X573214Y228790D01*
X564198Y228790D01*
X564198Y230931D02*
X573214Y230931D01*
X573214Y233072D02*
X564198Y233072D01*
X564198Y235213D02*
X573214Y235213D01*
X573214Y237354D02*
X564198Y237354D01*
X564198Y221806D02*
X564198Y211790D01*
X564198Y221806D02*
X573214Y221806D01*
X573214Y211790D01*
X564198Y211790D01*
X564198Y213931D02*
X573214Y213931D01*
X573214Y216072D02*
X564198Y216072D01*
X564198Y218213D02*
X573214Y218213D01*
X573214Y220354D02*
X564198Y220354D01*
D19*
X573698Y148338D02*
X573698Y136602D01*
X554062Y136602D01*
X554062Y148338D01*
X573698Y148338D01*
X573698Y138725D02*
X554062Y138725D01*
X554062Y140848D02*
X573698Y140848D01*
X573698Y142971D02*
X554062Y142971D01*
X554062Y145094D02*
X573698Y145094D01*
X573698Y147217D02*
X554062Y147217D01*
X573698Y171702D02*
X573698Y183438D01*
X573698Y171702D02*
X554062Y171702D01*
X554062Y183438D01*
X573698Y183438D01*
X573698Y173825D02*
X554062Y173825D01*
X554062Y175948D02*
X573698Y175948D01*
X573698Y178071D02*
X554062Y178071D01*
X554062Y180194D02*
X573698Y180194D01*
X573698Y182317D02*
X554062Y182317D01*
D12*
X522288Y130112D02*
X512272Y130112D01*
X512272Y139128D01*
X522288Y139128D01*
X522288Y130112D01*
X522288Y132253D02*
X512272Y132253D01*
X512272Y134394D02*
X522288Y134394D01*
X522288Y136535D02*
X512272Y136535D01*
X512272Y138676D02*
X522288Y138676D01*
X529272Y130112D02*
X539288Y130112D01*
X529272Y130112D02*
X529272Y139128D01*
X539288Y139128D01*
X539288Y130112D01*
X539288Y132253D02*
X529272Y132253D01*
X529272Y134394D02*
X539288Y134394D01*
X539288Y136535D02*
X529272Y136535D01*
X529272Y138676D02*
X539288Y138676D01*
D20*
X421492Y323238D02*
X421492Y330762D01*
X421492Y323238D02*
X405468Y323238D01*
X405468Y330762D01*
X421492Y330762D01*
X421492Y325373D02*
X405468Y325373D01*
X405468Y327508D02*
X421492Y327508D01*
X421492Y329643D02*
X405468Y329643D01*
X451492Y310762D02*
X451492Y303238D01*
X435468Y303238D01*
X435468Y310762D01*
X451492Y310762D01*
X451492Y305373D02*
X435468Y305373D01*
X435468Y307508D02*
X451492Y307508D01*
X451492Y309643D02*
X435468Y309643D01*
X421492Y290762D02*
X421492Y283238D01*
X405468Y283238D01*
X405468Y290762D01*
X421492Y290762D01*
X421492Y285373D02*
X405468Y285373D01*
X405468Y287508D02*
X421492Y287508D01*
X421492Y289643D02*
X405468Y289643D01*
X451492Y270762D02*
X451492Y263238D01*
X435468Y263238D01*
X435468Y270762D01*
X451492Y270762D01*
X451492Y265373D02*
X435468Y265373D01*
X435468Y267508D02*
X451492Y267508D01*
X451492Y269643D02*
X435468Y269643D01*
X421492Y250762D02*
X421492Y243238D01*
X405468Y243238D01*
X405468Y250762D01*
X421492Y250762D01*
X421492Y245373D02*
X405468Y245373D01*
X405468Y247508D02*
X421492Y247508D01*
X421492Y249643D02*
X405468Y249643D01*
X451492Y230762D02*
X451492Y223238D01*
X435468Y223238D01*
X435468Y230762D01*
X451492Y230762D01*
X451492Y225373D02*
X435468Y225373D01*
X435468Y227508D02*
X451492Y227508D01*
X451492Y229643D02*
X435468Y229643D01*
X421492Y210762D02*
X421492Y203238D01*
X405468Y203238D01*
X405468Y210762D01*
X421492Y210762D01*
X421492Y205373D02*
X405468Y205373D01*
X405468Y207508D02*
X421492Y207508D01*
X421492Y209643D02*
X405468Y209643D01*
X451492Y190762D02*
X451492Y183238D01*
X435468Y183238D01*
X435468Y190762D01*
X451492Y190762D01*
X451492Y185373D02*
X435468Y185373D01*
X435468Y187508D02*
X451492Y187508D01*
X451492Y189643D02*
X435468Y189643D01*
X421492Y170762D02*
X421492Y163238D01*
X405468Y163238D01*
X405468Y170762D01*
X421492Y170762D01*
X421492Y165373D02*
X405468Y165373D01*
X405468Y167508D02*
X421492Y167508D01*
X421492Y169643D02*
X405468Y169643D01*
X451492Y150762D02*
X451492Y143238D01*
X435468Y143238D01*
X435468Y150762D01*
X451492Y150762D01*
X451492Y145373D02*
X435468Y145373D01*
X435468Y147508D02*
X451492Y147508D01*
X451492Y149643D02*
X435468Y149643D01*
X671492Y150762D02*
X671492Y143238D01*
X655468Y143238D01*
X655468Y150762D01*
X671492Y150762D01*
X671492Y145373D02*
X655468Y145373D01*
X655468Y147508D02*
X671492Y147508D01*
X671492Y149643D02*
X655468Y149643D01*
X641492Y163238D02*
X641492Y170762D01*
X641492Y163238D02*
X625468Y163238D01*
X625468Y170762D01*
X641492Y170762D01*
X641492Y165373D02*
X625468Y165373D01*
X625468Y167508D02*
X641492Y167508D01*
X641492Y169643D02*
X625468Y169643D01*
X671492Y183238D02*
X671492Y190762D01*
X671492Y183238D02*
X655468Y183238D01*
X655468Y190762D01*
X671492Y190762D01*
X671492Y185373D02*
X655468Y185373D01*
X655468Y187508D02*
X671492Y187508D01*
X671492Y189643D02*
X655468Y189643D01*
X641492Y203238D02*
X641492Y210762D01*
X641492Y203238D02*
X625468Y203238D01*
X625468Y210762D01*
X641492Y210762D01*
X641492Y205373D02*
X625468Y205373D01*
X625468Y207508D02*
X641492Y207508D01*
X641492Y209643D02*
X625468Y209643D01*
X671492Y223238D02*
X671492Y230762D01*
X671492Y223238D02*
X655468Y223238D01*
X655468Y230762D01*
X671492Y230762D01*
X671492Y225373D02*
X655468Y225373D01*
X655468Y227508D02*
X671492Y227508D01*
X671492Y229643D02*
X655468Y229643D01*
X641492Y243238D02*
X641492Y250762D01*
X641492Y243238D02*
X625468Y243238D01*
X625468Y250762D01*
X641492Y250762D01*
X641492Y245373D02*
X625468Y245373D01*
X625468Y247508D02*
X641492Y247508D01*
X641492Y249643D02*
X625468Y249643D01*
X671492Y263238D02*
X671492Y270762D01*
X671492Y263238D02*
X655468Y263238D01*
X655468Y270762D01*
X671492Y270762D01*
X671492Y265373D02*
X655468Y265373D01*
X655468Y267508D02*
X671492Y267508D01*
X671492Y269643D02*
X655468Y269643D01*
X641492Y283238D02*
X641492Y290762D01*
X641492Y283238D02*
X625468Y283238D01*
X625468Y290762D01*
X641492Y290762D01*
X641492Y285373D02*
X625468Y285373D01*
X625468Y287508D02*
X641492Y287508D01*
X641492Y289643D02*
X625468Y289643D01*
X671492Y303238D02*
X671492Y310762D01*
X671492Y303238D02*
X655468Y303238D01*
X655468Y310762D01*
X671492Y310762D01*
X671492Y305373D02*
X655468Y305373D01*
X655468Y307508D02*
X671492Y307508D01*
X671492Y309643D02*
X655468Y309643D01*
X641492Y323238D02*
X641492Y330762D01*
X641492Y323238D02*
X625468Y323238D01*
X625468Y330762D01*
X641492Y330762D01*
X641492Y325373D02*
X625468Y325373D01*
X625468Y327508D02*
X641492Y327508D01*
X641492Y329643D02*
X625468Y329643D01*
D12*
X399588Y253428D02*
X389572Y253428D01*
X399588Y253428D02*
X399588Y244412D01*
X389572Y244412D01*
X389572Y253428D01*
X389572Y246553D02*
X399588Y246553D01*
X399588Y248694D02*
X389572Y248694D01*
X389572Y250835D02*
X399588Y250835D01*
X399588Y252976D02*
X389572Y252976D01*
X382588Y253428D02*
X372572Y253428D01*
X382588Y253428D02*
X382588Y244412D01*
X372572Y244412D01*
X372572Y253428D01*
X372572Y246553D02*
X382588Y246553D01*
X382588Y248694D02*
X372572Y248694D01*
X372572Y250835D02*
X382588Y250835D01*
X382588Y252976D02*
X372572Y252976D01*
X389572Y300418D02*
X399588Y300418D01*
X399588Y291402D01*
X389572Y291402D01*
X389572Y300418D01*
X389572Y293543D02*
X399588Y293543D01*
X399588Y295684D02*
X389572Y295684D01*
X389572Y297825D02*
X399588Y297825D01*
X399588Y299966D02*
X389572Y299966D01*
X382588Y300418D02*
X372572Y300418D01*
X382588Y300418D02*
X382588Y291402D01*
X372572Y291402D01*
X372572Y300418D01*
X372572Y293543D02*
X382588Y293543D01*
X382588Y295684D02*
X372572Y295684D01*
X372572Y297825D02*
X382588Y297825D01*
X382588Y299966D02*
X372572Y299966D01*
X389572Y285178D02*
X399588Y285178D01*
X399588Y276162D01*
X389572Y276162D01*
X389572Y285178D01*
X389572Y278303D02*
X399588Y278303D01*
X399588Y280444D02*
X389572Y280444D01*
X389572Y282585D02*
X399588Y282585D01*
X399588Y284726D02*
X389572Y284726D01*
X382588Y285178D02*
X372572Y285178D01*
X382588Y285178D02*
X382588Y276162D01*
X372572Y276162D01*
X372572Y285178D01*
X372572Y278303D02*
X382588Y278303D01*
X382588Y280444D02*
X372572Y280444D01*
X372572Y282585D02*
X382588Y282585D01*
X382588Y284726D02*
X372572Y284726D01*
X389572Y269938D02*
X399588Y269938D01*
X399588Y260922D01*
X389572Y260922D01*
X389572Y269938D01*
X389572Y263063D02*
X399588Y263063D01*
X399588Y265204D02*
X389572Y265204D01*
X389572Y267345D02*
X399588Y267345D01*
X399588Y269486D02*
X389572Y269486D01*
X382588Y269938D02*
X372572Y269938D01*
X382588Y269938D02*
X382588Y260922D01*
X372572Y260922D01*
X372572Y269938D01*
X372572Y263063D02*
X382588Y263063D01*
X382588Y265204D02*
X372572Y265204D01*
X372572Y267345D02*
X382588Y267345D01*
X382588Y269486D02*
X372572Y269486D01*
D21*
X690880Y495300D03*
X690880Y25400D03*
X386080Y495300D03*
X386080Y25400D03*
D16*
X699966Y89216D02*
X699966Y96204D01*
X706954Y96204D01*
X706954Y89216D01*
X699966Y89216D01*
X699966Y93285D02*
X706954Y93285D01*
X682426Y96204D02*
X682426Y89216D01*
X682426Y96204D02*
X689414Y96204D01*
X689414Y89216D01*
X682426Y89216D01*
X682426Y93285D02*
X689414Y93285D01*
D12*
X659448Y88202D02*
X649432Y88202D01*
X649432Y97218D01*
X659448Y97218D01*
X659448Y88202D01*
X659448Y90343D02*
X649432Y90343D01*
X649432Y92484D02*
X659448Y92484D01*
X659448Y94625D02*
X649432Y94625D01*
X649432Y96766D02*
X659448Y96766D01*
X666432Y88202D02*
X676448Y88202D01*
X666432Y88202D02*
X666432Y97218D01*
X676448Y97218D01*
X676448Y88202D01*
X676448Y90343D02*
X666432Y90343D01*
X666432Y92484D02*
X676448Y92484D01*
X676448Y94625D02*
X666432Y94625D01*
X666432Y96766D02*
X676448Y96766D01*
D15*
X601980Y76200D03*
X474980Y76200D03*
D12*
X399588Y315658D02*
X389572Y315658D01*
X399588Y315658D02*
X399588Y306642D01*
X389572Y306642D01*
X389572Y315658D01*
X389572Y308783D02*
X399588Y308783D01*
X399588Y310924D02*
X389572Y310924D01*
X389572Y313065D02*
X399588Y313065D01*
X399588Y315206D02*
X389572Y315206D01*
X382588Y315658D02*
X372572Y315658D01*
X382588Y315658D02*
X382588Y306642D01*
X372572Y306642D01*
X372572Y315658D01*
X372572Y308783D02*
X382588Y308783D01*
X382588Y310924D02*
X372572Y310924D01*
X372572Y313065D02*
X382588Y313065D01*
X382588Y315206D02*
X372572Y315206D01*
X389572Y330898D02*
X399588Y330898D01*
X399588Y321882D01*
X389572Y321882D01*
X389572Y330898D01*
X389572Y324023D02*
X399588Y324023D01*
X399588Y326164D02*
X389572Y326164D01*
X389572Y328305D02*
X399588Y328305D01*
X399588Y330446D02*
X389572Y330446D01*
X382588Y330898D02*
X372572Y330898D01*
X382588Y330898D02*
X382588Y321882D01*
X372572Y321882D01*
X372572Y330898D01*
X372572Y324023D02*
X382588Y324023D01*
X382588Y326164D02*
X372572Y326164D01*
X372572Y328305D02*
X382588Y328305D01*
X382588Y330446D02*
X372572Y330446D01*
D10*
X865653Y4543D02*
X876667Y4543D01*
X865653Y4543D02*
X865653Y23557D01*
X876667Y23557D01*
X876667Y4543D01*
X876667Y6686D02*
X865653Y6686D01*
X865653Y8829D02*
X876667Y8829D01*
X876667Y10972D02*
X865653Y10972D01*
X865653Y13115D02*
X876667Y13115D01*
X876667Y15258D02*
X865653Y15258D01*
X865653Y17401D02*
X876667Y17401D01*
X876667Y19544D02*
X865653Y19544D01*
X865653Y21687D02*
X876667Y21687D01*
X921653Y4543D02*
X932667Y4543D01*
X921653Y4543D02*
X921653Y23557D01*
X932667Y23557D01*
X932667Y4543D01*
X932667Y6686D02*
X921653Y6686D01*
X921653Y8829D02*
X932667Y8829D01*
X932667Y10972D02*
X921653Y10972D01*
X921653Y13115D02*
X932667Y13115D01*
X932667Y15258D02*
X921653Y15258D01*
X921653Y17401D02*
X932667Y17401D01*
X932667Y19544D02*
X921653Y19544D01*
X921653Y21687D02*
X932667Y21687D01*
D11*
X886668Y44542D02*
X881652Y44542D01*
X881652Y57058D01*
X886668Y57058D01*
X886668Y44542D01*
X886668Y46683D02*
X881652Y46683D01*
X881652Y48824D02*
X886668Y48824D01*
X886668Y50965D02*
X881652Y50965D01*
X881652Y53106D02*
X886668Y53106D01*
X886668Y55247D02*
X881652Y55247D01*
X891652Y44542D02*
X896668Y44542D01*
X891652Y44542D02*
X891652Y57058D01*
X896668Y57058D01*
X896668Y44542D01*
X896668Y46683D02*
X891652Y46683D01*
X891652Y48824D02*
X896668Y48824D01*
X896668Y50965D02*
X891652Y50965D01*
X891652Y53106D02*
X896668Y53106D01*
X896668Y55247D02*
X891652Y55247D01*
X901652Y44542D02*
X906668Y44542D01*
X901652Y44542D02*
X901652Y57058D01*
X906668Y57058D01*
X906668Y44542D01*
X906668Y46683D02*
X901652Y46683D01*
X901652Y48824D02*
X906668Y48824D01*
X906668Y50965D02*
X901652Y50965D01*
X901652Y53106D02*
X906668Y53106D01*
X906668Y55247D02*
X901652Y55247D01*
X911652Y44542D02*
X916668Y44542D01*
X911652Y44542D02*
X911652Y57058D01*
X916668Y57058D01*
X916668Y44542D01*
X916668Y46683D02*
X911652Y46683D01*
X911652Y48824D02*
X916668Y48824D01*
X916668Y50965D02*
X911652Y50965D01*
X911652Y53106D02*
X916668Y53106D01*
X916668Y55247D02*
X911652Y55247D01*
D12*
X881952Y97472D02*
X881952Y107488D01*
X890968Y107488D01*
X890968Y97472D01*
X881952Y97472D01*
X881952Y99613D02*
X890968Y99613D01*
X890968Y101754D02*
X881952Y101754D01*
X881952Y103895D02*
X890968Y103895D01*
X890968Y106036D02*
X881952Y106036D01*
X881952Y90488D02*
X881952Y80472D01*
X881952Y90488D02*
X890968Y90488D01*
X890968Y80472D01*
X881952Y80472D01*
X881952Y82613D02*
X890968Y82613D01*
X890968Y84754D02*
X881952Y84754D01*
X881952Y86895D02*
X890968Y86895D01*
X890968Y89036D02*
X881952Y89036D01*
X907352Y97472D02*
X907352Y107488D01*
X916368Y107488D01*
X916368Y97472D01*
X907352Y97472D01*
X907352Y99613D02*
X916368Y99613D01*
X916368Y101754D02*
X907352Y101754D01*
X907352Y103895D02*
X916368Y103895D01*
X916368Y106036D02*
X907352Y106036D01*
X907352Y90488D02*
X907352Y80472D01*
X907352Y90488D02*
X916368Y90488D01*
X916368Y80472D01*
X907352Y80472D01*
X907352Y82613D02*
X916368Y82613D01*
X916368Y84754D02*
X907352Y84754D01*
X907352Y86895D02*
X916368Y86895D01*
X916368Y89036D02*
X907352Y89036D01*
D13*
X734060Y381000D03*
X1031240Y10160D03*
D14*
X802164Y47466D02*
X802164Y54134D01*
X802164Y47466D02*
X787876Y47466D01*
X787876Y54134D01*
X802164Y54134D01*
X802164Y49578D02*
X787876Y49578D01*
X787876Y51690D02*
X802164Y51690D01*
X802164Y53802D02*
X787876Y53802D01*
X858044Y54134D02*
X858044Y47466D01*
X843756Y47466D01*
X843756Y54134D01*
X858044Y54134D01*
X858044Y49578D02*
X843756Y49578D01*
X843756Y51690D02*
X858044Y51690D01*
X858044Y53802D02*
X843756Y53802D01*
X802164Y16034D02*
X802164Y9366D01*
X787876Y9366D01*
X787876Y16034D01*
X802164Y16034D01*
X802164Y11478D02*
X787876Y11478D01*
X787876Y13590D02*
X802164Y13590D01*
X802164Y15702D02*
X787876Y15702D01*
X858044Y16034D02*
X858044Y9366D01*
X843756Y9366D01*
X843756Y16034D01*
X858044Y16034D01*
X858044Y11478D02*
X843756Y11478D01*
X843756Y13590D02*
X858044Y13590D01*
X858044Y15702D02*
X843756Y15702D01*
X954564Y47466D02*
X954564Y54134D01*
X954564Y47466D02*
X940276Y47466D01*
X940276Y54134D01*
X954564Y54134D01*
X954564Y49578D02*
X940276Y49578D01*
X940276Y51690D02*
X954564Y51690D01*
X954564Y53802D02*
X940276Y53802D01*
X1010444Y54134D02*
X1010444Y47466D01*
X996156Y47466D01*
X996156Y54134D01*
X1010444Y54134D01*
X1010444Y49578D02*
X996156Y49578D01*
X996156Y51690D02*
X1010444Y51690D01*
X1010444Y53802D02*
X996156Y53802D01*
X954564Y16034D02*
X954564Y9366D01*
X940276Y9366D01*
X940276Y16034D01*
X954564Y16034D01*
X954564Y11478D02*
X940276Y11478D01*
X940276Y13590D02*
X954564Y13590D01*
X954564Y15702D02*
X940276Y15702D01*
X1010444Y16034D02*
X1010444Y9366D01*
X996156Y9366D01*
X996156Y16034D01*
X1010444Y16034D01*
X1010444Y11478D02*
X996156Y11478D01*
X996156Y13590D02*
X1010444Y13590D01*
X1010444Y15702D02*
X996156Y15702D01*
D15*
X962660Y330200D03*
X962660Y304800D03*
X962660Y279400D03*
X962660Y254000D03*
X962660Y228600D03*
X962660Y203200D03*
X962660Y177800D03*
X962660Y152400D03*
X962660Y127000D03*
X962660Y101600D03*
X835660Y330200D03*
X835660Y304800D03*
X835660Y279400D03*
X835660Y254000D03*
X835660Y228600D03*
X835660Y203200D03*
X835660Y177800D03*
X835660Y152400D03*
X835660Y127000D03*
X835660Y101600D03*
D12*
X1010112Y57722D02*
X1020128Y57722D01*
X1010112Y57722D02*
X1010112Y66738D01*
X1020128Y66738D01*
X1020128Y57722D01*
X1020128Y59863D02*
X1010112Y59863D01*
X1010112Y62004D02*
X1020128Y62004D01*
X1020128Y64145D02*
X1010112Y64145D01*
X1010112Y66286D02*
X1020128Y66286D01*
X1027112Y57722D02*
X1037128Y57722D01*
X1027112Y57722D02*
X1027112Y66738D01*
X1037128Y66738D01*
X1037128Y57722D01*
X1037128Y59863D02*
X1027112Y59863D01*
X1027112Y62004D02*
X1037128Y62004D01*
X1037128Y64145D02*
X1027112Y64145D01*
X1027112Y66286D02*
X1037128Y66286D01*
D16*
X1060646Y65724D02*
X1060646Y58736D01*
X1060646Y65724D02*
X1067634Y65724D01*
X1067634Y58736D01*
X1060646Y58736D01*
X1060646Y62805D02*
X1067634Y62805D01*
X1043106Y65724D02*
X1043106Y58736D01*
X1043106Y65724D02*
X1050094Y65724D01*
X1050094Y58736D01*
X1043106Y58736D01*
X1043106Y62805D02*
X1050094Y62805D01*
X1060646Y119696D02*
X1060646Y126684D01*
X1067634Y126684D01*
X1067634Y119696D01*
X1060646Y119696D01*
X1060646Y123765D02*
X1067634Y123765D01*
X1043106Y126684D02*
X1043106Y119696D01*
X1043106Y126684D02*
X1050094Y126684D01*
X1050094Y119696D01*
X1043106Y119696D01*
X1043106Y123765D02*
X1050094Y123765D01*
D12*
X1020128Y118682D02*
X1010112Y118682D01*
X1010112Y127698D01*
X1020128Y127698D01*
X1020128Y118682D01*
X1020128Y120823D02*
X1010112Y120823D01*
X1010112Y122964D02*
X1020128Y122964D01*
X1020128Y125105D02*
X1010112Y125105D01*
X1010112Y127246D02*
X1020128Y127246D01*
X1027112Y118682D02*
X1037128Y118682D01*
X1027112Y118682D02*
X1027112Y127698D01*
X1037128Y127698D01*
X1037128Y118682D01*
X1037128Y120823D02*
X1027112Y120823D01*
X1027112Y122964D02*
X1037128Y122964D01*
X1037128Y125105D02*
X1027112Y125105D01*
X1027112Y127246D02*
X1037128Y127246D01*
D17*
X879228Y145081D02*
X874692Y145081D01*
X874692Y157617D01*
X879228Y157617D01*
X879228Y145081D01*
X879228Y147203D02*
X874692Y147203D01*
X874692Y149325D02*
X879228Y149325D01*
X879228Y151447D02*
X874692Y151447D01*
X874692Y153569D02*
X879228Y153569D01*
X879228Y155691D02*
X874692Y155691D01*
X884192Y145081D02*
X888728Y145081D01*
X884192Y145081D02*
X884192Y157617D01*
X888728Y157617D01*
X888728Y145081D01*
X888728Y147203D02*
X884192Y147203D01*
X884192Y149325D02*
X888728Y149325D01*
X888728Y151447D02*
X884192Y151447D01*
X884192Y153569D02*
X888728Y153569D01*
X888728Y155691D02*
X884192Y155691D01*
X893692Y145081D02*
X898228Y145081D01*
X893692Y145081D02*
X893692Y157617D01*
X898228Y157617D01*
X898228Y145081D01*
X898228Y147203D02*
X893692Y147203D01*
X893692Y149325D02*
X898228Y149325D01*
X898228Y151447D02*
X893692Y151447D01*
X893692Y153569D02*
X898228Y153569D01*
X898228Y155691D02*
X893692Y155691D01*
X893692Y172583D02*
X898228Y172583D01*
X893692Y172583D02*
X893692Y185119D01*
X898228Y185119D01*
X898228Y172583D01*
X898228Y174705D02*
X893692Y174705D01*
X893692Y176827D02*
X898228Y176827D01*
X898228Y178949D02*
X893692Y178949D01*
X893692Y181071D02*
X898228Y181071D01*
X898228Y183193D02*
X893692Y183193D01*
X888728Y172583D02*
X884192Y172583D01*
X884192Y185119D01*
X888728Y185119D01*
X888728Y172583D01*
X888728Y174705D02*
X884192Y174705D01*
X884192Y176827D02*
X888728Y176827D01*
X888728Y178949D02*
X884192Y178949D01*
X884192Y181071D02*
X888728Y181071D01*
X888728Y183193D02*
X884192Y183193D01*
X879228Y172583D02*
X874692Y172583D01*
X874692Y185119D01*
X879228Y185119D01*
X879228Y172583D01*
X879228Y174705D02*
X874692Y174705D01*
X874692Y176827D02*
X879228Y176827D01*
X879228Y178949D02*
X874692Y178949D01*
X874692Y181071D02*
X879228Y181071D01*
X879228Y183193D02*
X874692Y183193D01*
D18*
X872027Y190927D02*
X911053Y190927D01*
X872027Y190927D02*
X872027Y205953D01*
X911053Y205953D01*
X911053Y190927D01*
X911053Y193060D02*
X872027Y193060D01*
X872027Y195193D02*
X911053Y195193D01*
X911053Y197326D02*
X872027Y197326D01*
X872027Y199459D02*
X911053Y199459D01*
X911053Y201592D02*
X872027Y201592D01*
X872027Y203725D02*
X911053Y203725D01*
X911053Y205858D02*
X872027Y205858D01*
X872027Y229927D02*
X911053Y229927D01*
X872027Y229927D02*
X872027Y244953D01*
X911053Y244953D01*
X911053Y229927D01*
X911053Y232060D02*
X872027Y232060D01*
X872027Y234193D02*
X911053Y234193D01*
X911053Y236326D02*
X872027Y236326D01*
X872027Y238459D02*
X911053Y238459D01*
X911053Y240592D02*
X872027Y240592D01*
X872027Y242725D02*
X911053Y242725D01*
X911053Y244858D02*
X872027Y244858D01*
D12*
X861758Y187008D02*
X861758Y176992D01*
X852742Y176992D01*
X852742Y187008D01*
X861758Y187008D01*
X861758Y179133D02*
X852742Y179133D01*
X852742Y181274D02*
X861758Y181274D01*
X861758Y183415D02*
X852742Y183415D01*
X852742Y185556D02*
X861758Y185556D01*
X861758Y193992D02*
X861758Y204008D01*
X861758Y193992D02*
X852742Y193992D01*
X852742Y204008D01*
X861758Y204008D01*
X861758Y196133D02*
X852742Y196133D01*
X852742Y198274D02*
X861758Y198274D01*
X861758Y200415D02*
X852742Y200415D01*
X852742Y202556D02*
X861758Y202556D01*
X940118Y228790D02*
X940118Y238806D01*
X949134Y238806D01*
X949134Y228790D01*
X940118Y228790D01*
X940118Y230931D02*
X949134Y230931D01*
X949134Y233072D02*
X940118Y233072D01*
X940118Y235213D02*
X949134Y235213D01*
X949134Y237354D02*
X940118Y237354D01*
X940118Y221806D02*
X940118Y211790D01*
X940118Y221806D02*
X949134Y221806D01*
X949134Y211790D01*
X940118Y211790D01*
X940118Y213931D02*
X949134Y213931D01*
X949134Y216072D02*
X940118Y216072D01*
X940118Y218213D02*
X949134Y218213D01*
X949134Y220354D02*
X940118Y220354D01*
X924878Y228790D02*
X924878Y238806D01*
X933894Y238806D01*
X933894Y228790D01*
X924878Y228790D01*
X924878Y230931D02*
X933894Y230931D01*
X933894Y233072D02*
X924878Y233072D01*
X924878Y235213D02*
X933894Y235213D01*
X933894Y237354D02*
X924878Y237354D01*
X924878Y221806D02*
X924878Y211790D01*
X924878Y221806D02*
X933894Y221806D01*
X933894Y211790D01*
X924878Y211790D01*
X924878Y213931D02*
X933894Y213931D01*
X933894Y216072D02*
X924878Y216072D01*
X924878Y218213D02*
X933894Y218213D01*
X933894Y220354D02*
X924878Y220354D01*
D19*
X934378Y148338D02*
X934378Y136602D01*
X914742Y136602D01*
X914742Y148338D01*
X934378Y148338D01*
X934378Y138725D02*
X914742Y138725D01*
X914742Y140848D02*
X934378Y140848D01*
X934378Y142971D02*
X914742Y142971D01*
X914742Y145094D02*
X934378Y145094D01*
X934378Y147217D02*
X914742Y147217D01*
X934378Y171702D02*
X934378Y183438D01*
X934378Y171702D02*
X914742Y171702D01*
X914742Y183438D01*
X934378Y183438D01*
X934378Y173825D02*
X914742Y173825D01*
X914742Y175948D02*
X934378Y175948D01*
X934378Y178071D02*
X914742Y178071D01*
X914742Y180194D02*
X934378Y180194D01*
X934378Y182317D02*
X914742Y182317D01*
D12*
X882968Y130112D02*
X872952Y130112D01*
X872952Y139128D01*
X882968Y139128D01*
X882968Y130112D01*
X882968Y132253D02*
X872952Y132253D01*
X872952Y134394D02*
X882968Y134394D01*
X882968Y136535D02*
X872952Y136535D01*
X872952Y138676D02*
X882968Y138676D01*
X889952Y130112D02*
X899968Y130112D01*
X889952Y130112D02*
X889952Y139128D01*
X899968Y139128D01*
X899968Y130112D01*
X899968Y132253D02*
X889952Y132253D01*
X889952Y134394D02*
X899968Y134394D01*
X899968Y136535D02*
X889952Y136535D01*
X889952Y138676D02*
X899968Y138676D01*
D20*
X782172Y323238D02*
X782172Y330762D01*
X782172Y323238D02*
X766148Y323238D01*
X766148Y330762D01*
X782172Y330762D01*
X782172Y325373D02*
X766148Y325373D01*
X766148Y327508D02*
X782172Y327508D01*
X782172Y329643D02*
X766148Y329643D01*
X812172Y310762D02*
X812172Y303238D01*
X796148Y303238D01*
X796148Y310762D01*
X812172Y310762D01*
X812172Y305373D02*
X796148Y305373D01*
X796148Y307508D02*
X812172Y307508D01*
X812172Y309643D02*
X796148Y309643D01*
X782172Y290762D02*
X782172Y283238D01*
X766148Y283238D01*
X766148Y290762D01*
X782172Y290762D01*
X782172Y285373D02*
X766148Y285373D01*
X766148Y287508D02*
X782172Y287508D01*
X782172Y289643D02*
X766148Y289643D01*
X812172Y270762D02*
X812172Y263238D01*
X796148Y263238D01*
X796148Y270762D01*
X812172Y270762D01*
X812172Y265373D02*
X796148Y265373D01*
X796148Y267508D02*
X812172Y267508D01*
X812172Y269643D02*
X796148Y269643D01*
X782172Y250762D02*
X782172Y243238D01*
X766148Y243238D01*
X766148Y250762D01*
X782172Y250762D01*
X782172Y245373D02*
X766148Y245373D01*
X766148Y247508D02*
X782172Y247508D01*
X782172Y249643D02*
X766148Y249643D01*
X812172Y230762D02*
X812172Y223238D01*
X796148Y223238D01*
X796148Y230762D01*
X812172Y230762D01*
X812172Y225373D02*
X796148Y225373D01*
X796148Y227508D02*
X812172Y227508D01*
X812172Y229643D02*
X796148Y229643D01*
X782172Y210762D02*
X782172Y203238D01*
X766148Y203238D01*
X766148Y210762D01*
X782172Y210762D01*
X782172Y205373D02*
X766148Y205373D01*
X766148Y207508D02*
X782172Y207508D01*
X782172Y209643D02*
X766148Y209643D01*
X812172Y190762D02*
X812172Y183238D01*
X796148Y183238D01*
X796148Y190762D01*
X812172Y190762D01*
X812172Y185373D02*
X796148Y185373D01*
X796148Y187508D02*
X812172Y187508D01*
X812172Y189643D02*
X796148Y189643D01*
X782172Y170762D02*
X782172Y163238D01*
X766148Y163238D01*
X766148Y170762D01*
X782172Y170762D01*
X782172Y165373D02*
X766148Y165373D01*
X766148Y167508D02*
X782172Y167508D01*
X782172Y169643D02*
X766148Y169643D01*
X812172Y150762D02*
X812172Y143238D01*
X796148Y143238D01*
X796148Y150762D01*
X812172Y150762D01*
X812172Y145373D02*
X796148Y145373D01*
X796148Y147508D02*
X812172Y147508D01*
X812172Y149643D02*
X796148Y149643D01*
X1032172Y150762D02*
X1032172Y143238D01*
X1016148Y143238D01*
X1016148Y150762D01*
X1032172Y150762D01*
X1032172Y145373D02*
X1016148Y145373D01*
X1016148Y147508D02*
X1032172Y147508D01*
X1032172Y149643D02*
X1016148Y149643D01*
X1002172Y163238D02*
X1002172Y170762D01*
X1002172Y163238D02*
X986148Y163238D01*
X986148Y170762D01*
X1002172Y170762D01*
X1002172Y165373D02*
X986148Y165373D01*
X986148Y167508D02*
X1002172Y167508D01*
X1002172Y169643D02*
X986148Y169643D01*
X1032172Y183238D02*
X1032172Y190762D01*
X1032172Y183238D02*
X1016148Y183238D01*
X1016148Y190762D01*
X1032172Y190762D01*
X1032172Y185373D02*
X1016148Y185373D01*
X1016148Y187508D02*
X1032172Y187508D01*
X1032172Y189643D02*
X1016148Y189643D01*
X1002172Y203238D02*
X1002172Y210762D01*
X1002172Y203238D02*
X986148Y203238D01*
X986148Y210762D01*
X1002172Y210762D01*
X1002172Y205373D02*
X986148Y205373D01*
X986148Y207508D02*
X1002172Y207508D01*
X1002172Y209643D02*
X986148Y209643D01*
X1032172Y223238D02*
X1032172Y230762D01*
X1032172Y223238D02*
X1016148Y223238D01*
X1016148Y230762D01*
X1032172Y230762D01*
X1032172Y225373D02*
X1016148Y225373D01*
X1016148Y227508D02*
X1032172Y227508D01*
X1032172Y229643D02*
X1016148Y229643D01*
X1002172Y243238D02*
X1002172Y250762D01*
X1002172Y243238D02*
X986148Y243238D01*
X986148Y250762D01*
X1002172Y250762D01*
X1002172Y245373D02*
X986148Y245373D01*
X986148Y247508D02*
X1002172Y247508D01*
X1002172Y249643D02*
X986148Y249643D01*
X1032172Y263238D02*
X1032172Y270762D01*
X1032172Y263238D02*
X1016148Y263238D01*
X1016148Y270762D01*
X1032172Y270762D01*
X1032172Y265373D02*
X1016148Y265373D01*
X1016148Y267508D02*
X1032172Y267508D01*
X1032172Y269643D02*
X1016148Y269643D01*
X1002172Y283238D02*
X1002172Y290762D01*
X1002172Y283238D02*
X986148Y283238D01*
X986148Y290762D01*
X1002172Y290762D01*
X1002172Y285373D02*
X986148Y285373D01*
X986148Y287508D02*
X1002172Y287508D01*
X1002172Y289643D02*
X986148Y289643D01*
X1032172Y303238D02*
X1032172Y310762D01*
X1032172Y303238D02*
X1016148Y303238D01*
X1016148Y310762D01*
X1032172Y310762D01*
X1032172Y305373D02*
X1016148Y305373D01*
X1016148Y307508D02*
X1032172Y307508D01*
X1032172Y309643D02*
X1016148Y309643D01*
X1002172Y323238D02*
X1002172Y330762D01*
X1002172Y323238D02*
X986148Y323238D01*
X986148Y330762D01*
X1002172Y330762D01*
X1002172Y325373D02*
X986148Y325373D01*
X986148Y327508D02*
X1002172Y327508D01*
X1002172Y329643D02*
X986148Y329643D01*
D12*
X760268Y253428D02*
X750252Y253428D01*
X760268Y253428D02*
X760268Y244412D01*
X750252Y244412D01*
X750252Y253428D01*
X750252Y246553D02*
X760268Y246553D01*
X760268Y248694D02*
X750252Y248694D01*
X750252Y250835D02*
X760268Y250835D01*
X760268Y252976D02*
X750252Y252976D01*
X743268Y253428D02*
X733252Y253428D01*
X743268Y253428D02*
X743268Y244412D01*
X733252Y244412D01*
X733252Y253428D01*
X733252Y246553D02*
X743268Y246553D01*
X743268Y248694D02*
X733252Y248694D01*
X733252Y250835D02*
X743268Y250835D01*
X743268Y252976D02*
X733252Y252976D01*
X750252Y300418D02*
X760268Y300418D01*
X760268Y291402D01*
X750252Y291402D01*
X750252Y300418D01*
X750252Y293543D02*
X760268Y293543D01*
X760268Y295684D02*
X750252Y295684D01*
X750252Y297825D02*
X760268Y297825D01*
X760268Y299966D02*
X750252Y299966D01*
X743268Y300418D02*
X733252Y300418D01*
X743268Y300418D02*
X743268Y291402D01*
X733252Y291402D01*
X733252Y300418D01*
X733252Y293543D02*
X743268Y293543D01*
X743268Y295684D02*
X733252Y295684D01*
X733252Y297825D02*
X743268Y297825D01*
X743268Y299966D02*
X733252Y299966D01*
X750252Y285178D02*
X760268Y285178D01*
X760268Y276162D01*
X750252Y276162D01*
X750252Y285178D01*
X750252Y278303D02*
X760268Y278303D01*
X760268Y280444D02*
X750252Y280444D01*
X750252Y282585D02*
X760268Y282585D01*
X760268Y284726D02*
X750252Y284726D01*
X743268Y285178D02*
X733252Y285178D01*
X743268Y285178D02*
X743268Y276162D01*
X733252Y276162D01*
X733252Y285178D01*
X733252Y278303D02*
X743268Y278303D01*
X743268Y280444D02*
X733252Y280444D01*
X733252Y282585D02*
X743268Y282585D01*
X743268Y284726D02*
X733252Y284726D01*
X750252Y269938D02*
X760268Y269938D01*
X760268Y260922D01*
X750252Y260922D01*
X750252Y269938D01*
X750252Y263063D02*
X760268Y263063D01*
X760268Y265204D02*
X750252Y265204D01*
X750252Y267345D02*
X760268Y267345D01*
X760268Y269486D02*
X750252Y269486D01*
X743268Y269938D02*
X733252Y269938D01*
X743268Y269938D02*
X743268Y260922D01*
X733252Y260922D01*
X733252Y269938D01*
X733252Y263063D02*
X743268Y263063D01*
X743268Y265204D02*
X733252Y265204D01*
X733252Y267345D02*
X743268Y267345D01*
X743268Y269486D02*
X733252Y269486D01*
D21*
X1051560Y495300D03*
X1051560Y25400D03*
X746760Y495300D03*
X746760Y25400D03*
D16*
X1060646Y89216D02*
X1060646Y96204D01*
X1067634Y96204D01*
X1067634Y89216D01*
X1060646Y89216D01*
X1060646Y93285D02*
X1067634Y93285D01*
X1043106Y96204D02*
X1043106Y89216D01*
X1043106Y96204D02*
X1050094Y96204D01*
X1050094Y89216D01*
X1043106Y89216D01*
X1043106Y93285D02*
X1050094Y93285D01*
D12*
X1020128Y88202D02*
X1010112Y88202D01*
X1010112Y97218D01*
X1020128Y97218D01*
X1020128Y88202D01*
X1020128Y90343D02*
X1010112Y90343D01*
X1010112Y92484D02*
X1020128Y92484D01*
X1020128Y94625D02*
X1010112Y94625D01*
X1010112Y96766D02*
X1020128Y96766D01*
X1027112Y88202D02*
X1037128Y88202D01*
X1027112Y88202D02*
X1027112Y97218D01*
X1037128Y97218D01*
X1037128Y88202D01*
X1037128Y90343D02*
X1027112Y90343D01*
X1027112Y92484D02*
X1037128Y92484D01*
X1037128Y94625D02*
X1027112Y94625D01*
X1027112Y96766D02*
X1037128Y96766D01*
D15*
X962660Y76200D03*
X835660Y76200D03*
D12*
X760268Y315658D02*
X750252Y315658D01*
X760268Y315658D02*
X760268Y306642D01*
X750252Y306642D01*
X750252Y315658D01*
X750252Y308783D02*
X760268Y308783D01*
X760268Y310924D02*
X750252Y310924D01*
X750252Y313065D02*
X760268Y313065D01*
X760268Y315206D02*
X750252Y315206D01*
X743268Y315658D02*
X733252Y315658D01*
X743268Y315658D02*
X743268Y306642D01*
X733252Y306642D01*
X733252Y315658D01*
X733252Y308783D02*
X743268Y308783D01*
X743268Y310924D02*
X733252Y310924D01*
X733252Y313065D02*
X743268Y313065D01*
X743268Y315206D02*
X733252Y315206D01*
X750252Y330898D02*
X760268Y330898D01*
X760268Y321882D01*
X750252Y321882D01*
X750252Y330898D01*
X750252Y324023D02*
X760268Y324023D01*
X760268Y326164D02*
X750252Y326164D01*
X750252Y328305D02*
X760268Y328305D01*
X760268Y330446D02*
X750252Y330446D01*
X743268Y330898D02*
X733252Y330898D01*
X743268Y330898D02*
X743268Y321882D01*
X733252Y321882D01*
X733252Y330898D01*
X733252Y324023D02*
X743268Y324023D01*
X743268Y326164D02*
X733252Y326164D01*
X733252Y328305D02*
X743268Y328305D01*
X743268Y330446D02*
X733252Y330446D01*
D10*
X155307Y530323D02*
X144293Y530323D01*
X144293Y549337D01*
X155307Y549337D01*
X155307Y530323D01*
X155307Y532466D02*
X144293Y532466D01*
X144293Y534609D02*
X155307Y534609D01*
X155307Y536752D02*
X144293Y536752D01*
X144293Y538895D02*
X155307Y538895D01*
X155307Y541038D02*
X144293Y541038D01*
X144293Y543181D02*
X155307Y543181D01*
X155307Y545324D02*
X144293Y545324D01*
X144293Y547467D02*
X155307Y547467D01*
X200293Y530323D02*
X211307Y530323D01*
X200293Y530323D02*
X200293Y549337D01*
X211307Y549337D01*
X211307Y530323D01*
X211307Y532466D02*
X200293Y532466D01*
X200293Y534609D02*
X211307Y534609D01*
X211307Y536752D02*
X200293Y536752D01*
X200293Y538895D02*
X211307Y538895D01*
X211307Y541038D02*
X200293Y541038D01*
X200293Y543181D02*
X211307Y543181D01*
X211307Y545324D02*
X200293Y545324D01*
X200293Y547467D02*
X211307Y547467D01*
D11*
X165308Y570322D02*
X160292Y570322D01*
X160292Y582838D01*
X165308Y582838D01*
X165308Y570322D01*
X165308Y572463D02*
X160292Y572463D01*
X160292Y574604D02*
X165308Y574604D01*
X165308Y576745D02*
X160292Y576745D01*
X160292Y578886D02*
X165308Y578886D01*
X165308Y581027D02*
X160292Y581027D01*
X170292Y570322D02*
X175308Y570322D01*
X170292Y570322D02*
X170292Y582838D01*
X175308Y582838D01*
X175308Y570322D01*
X175308Y572463D02*
X170292Y572463D01*
X170292Y574604D02*
X175308Y574604D01*
X175308Y576745D02*
X170292Y576745D01*
X170292Y578886D02*
X175308Y578886D01*
X175308Y581027D02*
X170292Y581027D01*
X180292Y570322D02*
X185308Y570322D01*
X180292Y570322D02*
X180292Y582838D01*
X185308Y582838D01*
X185308Y570322D01*
X185308Y572463D02*
X180292Y572463D01*
X180292Y574604D02*
X185308Y574604D01*
X185308Y576745D02*
X180292Y576745D01*
X180292Y578886D02*
X185308Y578886D01*
X185308Y581027D02*
X180292Y581027D01*
X190292Y570322D02*
X195308Y570322D01*
X190292Y570322D02*
X190292Y582838D01*
X195308Y582838D01*
X195308Y570322D01*
X195308Y572463D02*
X190292Y572463D01*
X190292Y574604D02*
X195308Y574604D01*
X195308Y576745D02*
X190292Y576745D01*
X190292Y578886D02*
X195308Y578886D01*
X195308Y581027D02*
X190292Y581027D01*
D12*
X160592Y623252D02*
X160592Y633268D01*
X169608Y633268D01*
X169608Y623252D01*
X160592Y623252D01*
X160592Y625393D02*
X169608Y625393D01*
X169608Y627534D02*
X160592Y627534D01*
X160592Y629675D02*
X169608Y629675D01*
X169608Y631816D02*
X160592Y631816D01*
X160592Y616268D02*
X160592Y606252D01*
X160592Y616268D02*
X169608Y616268D01*
X169608Y606252D01*
X160592Y606252D01*
X160592Y608393D02*
X169608Y608393D01*
X169608Y610534D02*
X160592Y610534D01*
X160592Y612675D02*
X169608Y612675D01*
X169608Y614816D02*
X160592Y614816D01*
X185992Y623252D02*
X185992Y633268D01*
X195008Y633268D01*
X195008Y623252D01*
X185992Y623252D01*
X185992Y625393D02*
X195008Y625393D01*
X195008Y627534D02*
X185992Y627534D01*
X185992Y629675D02*
X195008Y629675D01*
X195008Y631816D02*
X185992Y631816D01*
X185992Y616268D02*
X185992Y606252D01*
X185992Y616268D02*
X195008Y616268D01*
X195008Y606252D01*
X185992Y606252D01*
X185992Y608393D02*
X195008Y608393D01*
X195008Y610534D02*
X185992Y610534D01*
X185992Y612675D02*
X195008Y612675D01*
X195008Y614816D02*
X185992Y614816D01*
D13*
X12700Y906780D03*
X309880Y535940D03*
D14*
X80804Y573246D02*
X80804Y579914D01*
X80804Y573246D02*
X66516Y573246D01*
X66516Y579914D01*
X80804Y579914D01*
X80804Y575358D02*
X66516Y575358D01*
X66516Y577470D02*
X80804Y577470D01*
X80804Y579582D02*
X66516Y579582D01*
X136684Y579914D02*
X136684Y573246D01*
X122396Y573246D01*
X122396Y579914D01*
X136684Y579914D01*
X136684Y575358D02*
X122396Y575358D01*
X122396Y577470D02*
X136684Y577470D01*
X136684Y579582D02*
X122396Y579582D01*
X80804Y541814D02*
X80804Y535146D01*
X66516Y535146D01*
X66516Y541814D01*
X80804Y541814D01*
X80804Y537258D02*
X66516Y537258D01*
X66516Y539370D02*
X80804Y539370D01*
X80804Y541482D02*
X66516Y541482D01*
X136684Y541814D02*
X136684Y535146D01*
X122396Y535146D01*
X122396Y541814D01*
X136684Y541814D01*
X136684Y537258D02*
X122396Y537258D01*
X122396Y539370D02*
X136684Y539370D01*
X136684Y541482D02*
X122396Y541482D01*
X233204Y573246D02*
X233204Y579914D01*
X233204Y573246D02*
X218916Y573246D01*
X218916Y579914D01*
X233204Y579914D01*
X233204Y575358D02*
X218916Y575358D01*
X218916Y577470D02*
X233204Y577470D01*
X233204Y579582D02*
X218916Y579582D01*
X289084Y579914D02*
X289084Y573246D01*
X274796Y573246D01*
X274796Y579914D01*
X289084Y579914D01*
X289084Y575358D02*
X274796Y575358D01*
X274796Y577470D02*
X289084Y577470D01*
X289084Y579582D02*
X274796Y579582D01*
X233204Y541814D02*
X233204Y535146D01*
X218916Y535146D01*
X218916Y541814D01*
X233204Y541814D01*
X233204Y537258D02*
X218916Y537258D01*
X218916Y539370D02*
X233204Y539370D01*
X233204Y541482D02*
X218916Y541482D01*
X289084Y541814D02*
X289084Y535146D01*
X274796Y535146D01*
X274796Y541814D01*
X289084Y541814D01*
X289084Y537258D02*
X274796Y537258D01*
X274796Y539370D02*
X289084Y539370D01*
X289084Y541482D02*
X274796Y541482D01*
D15*
X241300Y855980D03*
X241300Y830580D03*
X241300Y805180D03*
X241300Y779780D03*
X241300Y754380D03*
X241300Y728980D03*
X241300Y703580D03*
X241300Y678180D03*
X241300Y652780D03*
X241300Y627380D03*
X114300Y855980D03*
X114300Y830580D03*
X114300Y805180D03*
X114300Y779780D03*
X114300Y754380D03*
X114300Y728980D03*
X114300Y703580D03*
X114300Y678180D03*
X114300Y652780D03*
X114300Y627380D03*
D12*
X288752Y583502D02*
X298768Y583502D01*
X288752Y583502D02*
X288752Y592518D01*
X298768Y592518D01*
X298768Y583502D01*
X298768Y585643D02*
X288752Y585643D01*
X288752Y587784D02*
X298768Y587784D01*
X298768Y589925D02*
X288752Y589925D01*
X288752Y592066D02*
X298768Y592066D01*
X305752Y583502D02*
X315768Y583502D01*
X305752Y583502D02*
X305752Y592518D01*
X315768Y592518D01*
X315768Y583502D01*
X315768Y585643D02*
X305752Y585643D01*
X305752Y587784D02*
X315768Y587784D01*
X315768Y589925D02*
X305752Y589925D01*
X305752Y592066D02*
X315768Y592066D01*
D16*
X339286Y591504D02*
X339286Y584516D01*
X339286Y591504D02*
X346274Y591504D01*
X346274Y584516D01*
X339286Y584516D01*
X339286Y588585D02*
X346274Y588585D01*
X321746Y591504D02*
X321746Y584516D01*
X321746Y591504D02*
X328734Y591504D01*
X328734Y584516D01*
X321746Y584516D01*
X321746Y588585D02*
X328734Y588585D01*
X339286Y645476D02*
X339286Y652464D01*
X346274Y652464D01*
X346274Y645476D01*
X339286Y645476D01*
X339286Y649545D02*
X346274Y649545D01*
X321746Y652464D02*
X321746Y645476D01*
X321746Y652464D02*
X328734Y652464D01*
X328734Y645476D01*
X321746Y645476D01*
X321746Y649545D02*
X328734Y649545D01*
D12*
X298768Y644462D02*
X288752Y644462D01*
X288752Y653478D01*
X298768Y653478D01*
X298768Y644462D01*
X298768Y646603D02*
X288752Y646603D01*
X288752Y648744D02*
X298768Y648744D01*
X298768Y650885D02*
X288752Y650885D01*
X288752Y653026D02*
X298768Y653026D01*
X305752Y644462D02*
X315768Y644462D01*
X305752Y644462D02*
X305752Y653478D01*
X315768Y653478D01*
X315768Y644462D01*
X315768Y646603D02*
X305752Y646603D01*
X305752Y648744D02*
X315768Y648744D01*
X315768Y650885D02*
X305752Y650885D01*
X305752Y653026D02*
X315768Y653026D01*
D17*
X157868Y670861D02*
X153332Y670861D01*
X153332Y683397D01*
X157868Y683397D01*
X157868Y670861D01*
X157868Y672983D02*
X153332Y672983D01*
X153332Y675105D02*
X157868Y675105D01*
X157868Y677227D02*
X153332Y677227D01*
X153332Y679349D02*
X157868Y679349D01*
X157868Y681471D02*
X153332Y681471D01*
X162832Y670861D02*
X167368Y670861D01*
X162832Y670861D02*
X162832Y683397D01*
X167368Y683397D01*
X167368Y670861D01*
X167368Y672983D02*
X162832Y672983D01*
X162832Y675105D02*
X167368Y675105D01*
X167368Y677227D02*
X162832Y677227D01*
X162832Y679349D02*
X167368Y679349D01*
X167368Y681471D02*
X162832Y681471D01*
X172332Y670861D02*
X176868Y670861D01*
X172332Y670861D02*
X172332Y683397D01*
X176868Y683397D01*
X176868Y670861D01*
X176868Y672983D02*
X172332Y672983D01*
X172332Y675105D02*
X176868Y675105D01*
X176868Y677227D02*
X172332Y677227D01*
X172332Y679349D02*
X176868Y679349D01*
X176868Y681471D02*
X172332Y681471D01*
X172332Y698363D02*
X176868Y698363D01*
X172332Y698363D02*
X172332Y710899D01*
X176868Y710899D01*
X176868Y698363D01*
X176868Y700485D02*
X172332Y700485D01*
X172332Y702607D02*
X176868Y702607D01*
X176868Y704729D02*
X172332Y704729D01*
X172332Y706851D02*
X176868Y706851D01*
X176868Y708973D02*
X172332Y708973D01*
X167368Y698363D02*
X162832Y698363D01*
X162832Y710899D01*
X167368Y710899D01*
X167368Y698363D01*
X167368Y700485D02*
X162832Y700485D01*
X162832Y702607D02*
X167368Y702607D01*
X167368Y704729D02*
X162832Y704729D01*
X162832Y706851D02*
X167368Y706851D01*
X167368Y708973D02*
X162832Y708973D01*
X157868Y698363D02*
X153332Y698363D01*
X153332Y710899D01*
X157868Y710899D01*
X157868Y698363D01*
X157868Y700485D02*
X153332Y700485D01*
X153332Y702607D02*
X157868Y702607D01*
X157868Y704729D02*
X153332Y704729D01*
X153332Y706851D02*
X157868Y706851D01*
X157868Y708973D02*
X153332Y708973D01*
D18*
X150667Y716707D02*
X189693Y716707D01*
X150667Y716707D02*
X150667Y731733D01*
X189693Y731733D01*
X189693Y716707D01*
X189693Y718840D02*
X150667Y718840D01*
X150667Y720973D02*
X189693Y720973D01*
X189693Y723106D02*
X150667Y723106D01*
X150667Y725239D02*
X189693Y725239D01*
X189693Y727372D02*
X150667Y727372D01*
X150667Y729505D02*
X189693Y729505D01*
X189693Y731638D02*
X150667Y731638D01*
X150667Y755707D02*
X189693Y755707D01*
X150667Y755707D02*
X150667Y770733D01*
X189693Y770733D01*
X189693Y755707D01*
X189693Y757840D02*
X150667Y757840D01*
X150667Y759973D02*
X189693Y759973D01*
X189693Y762106D02*
X150667Y762106D01*
X150667Y764239D02*
X189693Y764239D01*
X189693Y766372D02*
X150667Y766372D01*
X150667Y768505D02*
X189693Y768505D01*
X189693Y770638D02*
X150667Y770638D01*
D12*
X140398Y712788D02*
X140398Y702772D01*
X131382Y702772D01*
X131382Y712788D01*
X140398Y712788D01*
X140398Y704913D02*
X131382Y704913D01*
X131382Y707054D02*
X140398Y707054D01*
X140398Y709195D02*
X131382Y709195D01*
X131382Y711336D02*
X140398Y711336D01*
X140398Y719772D02*
X140398Y729788D01*
X140398Y719772D02*
X131382Y719772D01*
X131382Y729788D01*
X140398Y729788D01*
X140398Y721913D02*
X131382Y721913D01*
X131382Y724054D02*
X140398Y724054D01*
X140398Y726195D02*
X131382Y726195D01*
X131382Y728336D02*
X140398Y728336D01*
X218758Y754570D02*
X218758Y764586D01*
X227774Y764586D01*
X227774Y754570D01*
X218758Y754570D01*
X218758Y756711D02*
X227774Y756711D01*
X227774Y758852D02*
X218758Y758852D01*
X218758Y760993D02*
X227774Y760993D01*
X227774Y763134D02*
X218758Y763134D01*
X218758Y747586D02*
X218758Y737570D01*
X218758Y747586D02*
X227774Y747586D01*
X227774Y737570D01*
X218758Y737570D01*
X218758Y739711D02*
X227774Y739711D01*
X227774Y741852D02*
X218758Y741852D01*
X218758Y743993D02*
X227774Y743993D01*
X227774Y746134D02*
X218758Y746134D01*
X203518Y754570D02*
X203518Y764586D01*
X212534Y764586D01*
X212534Y754570D01*
X203518Y754570D01*
X203518Y756711D02*
X212534Y756711D01*
X212534Y758852D02*
X203518Y758852D01*
X203518Y760993D02*
X212534Y760993D01*
X212534Y763134D02*
X203518Y763134D01*
X203518Y747586D02*
X203518Y737570D01*
X203518Y747586D02*
X212534Y747586D01*
X212534Y737570D01*
X203518Y737570D01*
X203518Y739711D02*
X212534Y739711D01*
X212534Y741852D02*
X203518Y741852D01*
X203518Y743993D02*
X212534Y743993D01*
X212534Y746134D02*
X203518Y746134D01*
D19*
X213018Y674118D02*
X213018Y662382D01*
X193382Y662382D01*
X193382Y674118D01*
X213018Y674118D01*
X213018Y664505D02*
X193382Y664505D01*
X193382Y666628D02*
X213018Y666628D01*
X213018Y668751D02*
X193382Y668751D01*
X193382Y670874D02*
X213018Y670874D01*
X213018Y672997D02*
X193382Y672997D01*
X213018Y697482D02*
X213018Y709218D01*
X213018Y697482D02*
X193382Y697482D01*
X193382Y709218D01*
X213018Y709218D01*
X213018Y699605D02*
X193382Y699605D01*
X193382Y701728D02*
X213018Y701728D01*
X213018Y703851D02*
X193382Y703851D01*
X193382Y705974D02*
X213018Y705974D01*
X213018Y708097D02*
X193382Y708097D01*
D12*
X161608Y655892D02*
X151592Y655892D01*
X151592Y664908D01*
X161608Y664908D01*
X161608Y655892D01*
X161608Y658033D02*
X151592Y658033D01*
X151592Y660174D02*
X161608Y660174D01*
X161608Y662315D02*
X151592Y662315D01*
X151592Y664456D02*
X161608Y664456D01*
X168592Y655892D02*
X178608Y655892D01*
X168592Y655892D02*
X168592Y664908D01*
X178608Y664908D01*
X178608Y655892D01*
X178608Y658033D02*
X168592Y658033D01*
X168592Y660174D02*
X178608Y660174D01*
X178608Y662315D02*
X168592Y662315D01*
X168592Y664456D02*
X178608Y664456D01*
D20*
X60812Y849018D02*
X60812Y856542D01*
X60812Y849018D02*
X44788Y849018D01*
X44788Y856542D01*
X60812Y856542D01*
X60812Y851153D02*
X44788Y851153D01*
X44788Y853288D02*
X60812Y853288D01*
X60812Y855423D02*
X44788Y855423D01*
X90812Y836542D02*
X90812Y829018D01*
X74788Y829018D01*
X74788Y836542D01*
X90812Y836542D01*
X90812Y831153D02*
X74788Y831153D01*
X74788Y833288D02*
X90812Y833288D01*
X90812Y835423D02*
X74788Y835423D01*
X60812Y816542D02*
X60812Y809018D01*
X44788Y809018D01*
X44788Y816542D01*
X60812Y816542D01*
X60812Y811153D02*
X44788Y811153D01*
X44788Y813288D02*
X60812Y813288D01*
X60812Y815423D02*
X44788Y815423D01*
X90812Y796542D02*
X90812Y789018D01*
X74788Y789018D01*
X74788Y796542D01*
X90812Y796542D01*
X90812Y791153D02*
X74788Y791153D01*
X74788Y793288D02*
X90812Y793288D01*
X90812Y795423D02*
X74788Y795423D01*
X60812Y776542D02*
X60812Y769018D01*
X44788Y769018D01*
X44788Y776542D01*
X60812Y776542D01*
X60812Y771153D02*
X44788Y771153D01*
X44788Y773288D02*
X60812Y773288D01*
X60812Y775423D02*
X44788Y775423D01*
X90812Y756542D02*
X90812Y749018D01*
X74788Y749018D01*
X74788Y756542D01*
X90812Y756542D01*
X90812Y751153D02*
X74788Y751153D01*
X74788Y753288D02*
X90812Y753288D01*
X90812Y755423D02*
X74788Y755423D01*
X60812Y736542D02*
X60812Y729018D01*
X44788Y729018D01*
X44788Y736542D01*
X60812Y736542D01*
X60812Y731153D02*
X44788Y731153D01*
X44788Y733288D02*
X60812Y733288D01*
X60812Y735423D02*
X44788Y735423D01*
X90812Y716542D02*
X90812Y709018D01*
X74788Y709018D01*
X74788Y716542D01*
X90812Y716542D01*
X90812Y711153D02*
X74788Y711153D01*
X74788Y713288D02*
X90812Y713288D01*
X90812Y715423D02*
X74788Y715423D01*
X60812Y696542D02*
X60812Y689018D01*
X44788Y689018D01*
X44788Y696542D01*
X60812Y696542D01*
X60812Y691153D02*
X44788Y691153D01*
X44788Y693288D02*
X60812Y693288D01*
X60812Y695423D02*
X44788Y695423D01*
X90812Y676542D02*
X90812Y669018D01*
X74788Y669018D01*
X74788Y676542D01*
X90812Y676542D01*
X90812Y671153D02*
X74788Y671153D01*
X74788Y673288D02*
X90812Y673288D01*
X90812Y675423D02*
X74788Y675423D01*
X310812Y676542D02*
X310812Y669018D01*
X294788Y669018D01*
X294788Y676542D01*
X310812Y676542D01*
X310812Y671153D02*
X294788Y671153D01*
X294788Y673288D02*
X310812Y673288D01*
X310812Y675423D02*
X294788Y675423D01*
X280812Y689018D02*
X280812Y696542D01*
X280812Y689018D02*
X264788Y689018D01*
X264788Y696542D01*
X280812Y696542D01*
X280812Y691153D02*
X264788Y691153D01*
X264788Y693288D02*
X280812Y693288D01*
X280812Y695423D02*
X264788Y695423D01*
X310812Y709018D02*
X310812Y716542D01*
X310812Y709018D02*
X294788Y709018D01*
X294788Y716542D01*
X310812Y716542D01*
X310812Y711153D02*
X294788Y711153D01*
X294788Y713288D02*
X310812Y713288D01*
X310812Y715423D02*
X294788Y715423D01*
X280812Y729018D02*
X280812Y736542D01*
X280812Y729018D02*
X264788Y729018D01*
X264788Y736542D01*
X280812Y736542D01*
X280812Y731153D02*
X264788Y731153D01*
X264788Y733288D02*
X280812Y733288D01*
X280812Y735423D02*
X264788Y735423D01*
X310812Y749018D02*
X310812Y756542D01*
X310812Y749018D02*
X294788Y749018D01*
X294788Y756542D01*
X310812Y756542D01*
X310812Y751153D02*
X294788Y751153D01*
X294788Y753288D02*
X310812Y753288D01*
X310812Y755423D02*
X294788Y755423D01*
X280812Y769018D02*
X280812Y776542D01*
X280812Y769018D02*
X264788Y769018D01*
X264788Y776542D01*
X280812Y776542D01*
X280812Y771153D02*
X264788Y771153D01*
X264788Y773288D02*
X280812Y773288D01*
X280812Y775423D02*
X264788Y775423D01*
X310812Y789018D02*
X310812Y796542D01*
X310812Y789018D02*
X294788Y789018D01*
X294788Y796542D01*
X310812Y796542D01*
X310812Y791153D02*
X294788Y791153D01*
X294788Y793288D02*
X310812Y793288D01*
X310812Y795423D02*
X294788Y795423D01*
X280812Y809018D02*
X280812Y816542D01*
X280812Y809018D02*
X264788Y809018D01*
X264788Y816542D01*
X280812Y816542D01*
X280812Y811153D02*
X264788Y811153D01*
X264788Y813288D02*
X280812Y813288D01*
X280812Y815423D02*
X264788Y815423D01*
X310812Y829018D02*
X310812Y836542D01*
X310812Y829018D02*
X294788Y829018D01*
X294788Y836542D01*
X310812Y836542D01*
X310812Y831153D02*
X294788Y831153D01*
X294788Y833288D02*
X310812Y833288D01*
X310812Y835423D02*
X294788Y835423D01*
X280812Y849018D02*
X280812Y856542D01*
X280812Y849018D02*
X264788Y849018D01*
X264788Y856542D01*
X280812Y856542D01*
X280812Y851153D02*
X264788Y851153D01*
X264788Y853288D02*
X280812Y853288D01*
X280812Y855423D02*
X264788Y855423D01*
D12*
X38908Y779208D02*
X28892Y779208D01*
X38908Y779208D02*
X38908Y770192D01*
X28892Y770192D01*
X28892Y779208D01*
X28892Y772333D02*
X38908Y772333D01*
X38908Y774474D02*
X28892Y774474D01*
X28892Y776615D02*
X38908Y776615D01*
X38908Y778756D02*
X28892Y778756D01*
X21908Y779208D02*
X11892Y779208D01*
X21908Y779208D02*
X21908Y770192D01*
X11892Y770192D01*
X11892Y779208D01*
X11892Y772333D02*
X21908Y772333D01*
X21908Y774474D02*
X11892Y774474D01*
X11892Y776615D02*
X21908Y776615D01*
X21908Y778756D02*
X11892Y778756D01*
X28892Y826198D02*
X38908Y826198D01*
X38908Y817182D01*
X28892Y817182D01*
X28892Y826198D01*
X28892Y819323D02*
X38908Y819323D01*
X38908Y821464D02*
X28892Y821464D01*
X28892Y823605D02*
X38908Y823605D01*
X38908Y825746D02*
X28892Y825746D01*
X21908Y826198D02*
X11892Y826198D01*
X21908Y826198D02*
X21908Y817182D01*
X11892Y817182D01*
X11892Y826198D01*
X11892Y819323D02*
X21908Y819323D01*
X21908Y821464D02*
X11892Y821464D01*
X11892Y823605D02*
X21908Y823605D01*
X21908Y825746D02*
X11892Y825746D01*
X28892Y810958D02*
X38908Y810958D01*
X38908Y801942D01*
X28892Y801942D01*
X28892Y810958D01*
X28892Y804083D02*
X38908Y804083D01*
X38908Y806224D02*
X28892Y806224D01*
X28892Y808365D02*
X38908Y808365D01*
X38908Y810506D02*
X28892Y810506D01*
X21908Y810958D02*
X11892Y810958D01*
X21908Y810958D02*
X21908Y801942D01*
X11892Y801942D01*
X11892Y810958D01*
X11892Y804083D02*
X21908Y804083D01*
X21908Y806224D02*
X11892Y806224D01*
X11892Y808365D02*
X21908Y808365D01*
X21908Y810506D02*
X11892Y810506D01*
X28892Y795718D02*
X38908Y795718D01*
X38908Y786702D01*
X28892Y786702D01*
X28892Y795718D01*
X28892Y788843D02*
X38908Y788843D01*
X38908Y790984D02*
X28892Y790984D01*
X28892Y793125D02*
X38908Y793125D01*
X38908Y795266D02*
X28892Y795266D01*
X21908Y795718D02*
X11892Y795718D01*
X21908Y795718D02*
X21908Y786702D01*
X11892Y786702D01*
X11892Y795718D01*
X11892Y788843D02*
X21908Y788843D01*
X21908Y790984D02*
X11892Y790984D01*
X11892Y793125D02*
X21908Y793125D01*
X21908Y795266D02*
X11892Y795266D01*
D21*
X330200Y1021080D03*
X330200Y551180D03*
X25400Y1021080D03*
X25400Y551180D03*
D16*
X339286Y614996D02*
X339286Y621984D01*
X346274Y621984D01*
X346274Y614996D01*
X339286Y614996D01*
X339286Y619065D02*
X346274Y619065D01*
X321746Y621984D02*
X321746Y614996D01*
X321746Y621984D02*
X328734Y621984D01*
X328734Y614996D01*
X321746Y614996D01*
X321746Y619065D02*
X328734Y619065D01*
D12*
X298768Y613982D02*
X288752Y613982D01*
X288752Y622998D01*
X298768Y622998D01*
X298768Y613982D01*
X298768Y616123D02*
X288752Y616123D01*
X288752Y618264D02*
X298768Y618264D01*
X298768Y620405D02*
X288752Y620405D01*
X288752Y622546D02*
X298768Y622546D01*
X305752Y613982D02*
X315768Y613982D01*
X305752Y613982D02*
X305752Y622998D01*
X315768Y622998D01*
X315768Y613982D01*
X315768Y616123D02*
X305752Y616123D01*
X305752Y618264D02*
X315768Y618264D01*
X315768Y620405D02*
X305752Y620405D01*
X305752Y622546D02*
X315768Y622546D01*
D15*
X241300Y601980D03*
X114300Y601980D03*
D12*
X38908Y841438D02*
X28892Y841438D01*
X38908Y841438D02*
X38908Y832422D01*
X28892Y832422D01*
X28892Y841438D01*
X28892Y834563D02*
X38908Y834563D01*
X38908Y836704D02*
X28892Y836704D01*
X28892Y838845D02*
X38908Y838845D01*
X38908Y840986D02*
X28892Y840986D01*
X21908Y841438D02*
X11892Y841438D01*
X21908Y841438D02*
X21908Y832422D01*
X11892Y832422D01*
X11892Y841438D01*
X11892Y834563D02*
X21908Y834563D01*
X21908Y836704D02*
X11892Y836704D01*
X11892Y838845D02*
X21908Y838845D01*
X21908Y840986D02*
X11892Y840986D01*
X28892Y856678D02*
X38908Y856678D01*
X38908Y847662D01*
X28892Y847662D01*
X28892Y856678D01*
X28892Y849803D02*
X38908Y849803D01*
X38908Y851944D02*
X28892Y851944D01*
X28892Y854085D02*
X38908Y854085D01*
X38908Y856226D02*
X28892Y856226D01*
X21908Y856678D02*
X11892Y856678D01*
X21908Y856678D02*
X21908Y847662D01*
X11892Y847662D01*
X11892Y856678D01*
X11892Y849803D02*
X21908Y849803D01*
X21908Y851944D02*
X11892Y851944D01*
X11892Y854085D02*
X21908Y854085D01*
X21908Y856226D02*
X11892Y856226D01*
D10*
X504973Y530323D02*
X515987Y530323D01*
X504973Y530323D02*
X504973Y549337D01*
X515987Y549337D01*
X515987Y530323D01*
X515987Y532466D02*
X504973Y532466D01*
X504973Y534609D02*
X515987Y534609D01*
X515987Y536752D02*
X504973Y536752D01*
X504973Y538895D02*
X515987Y538895D01*
X515987Y541038D02*
X504973Y541038D01*
X504973Y543181D02*
X515987Y543181D01*
X515987Y545324D02*
X504973Y545324D01*
X504973Y547467D02*
X515987Y547467D01*
X560973Y530323D02*
X571987Y530323D01*
X560973Y530323D02*
X560973Y549337D01*
X571987Y549337D01*
X571987Y530323D01*
X571987Y532466D02*
X560973Y532466D01*
X560973Y534609D02*
X571987Y534609D01*
X571987Y536752D02*
X560973Y536752D01*
X560973Y538895D02*
X571987Y538895D01*
X571987Y541038D02*
X560973Y541038D01*
X560973Y543181D02*
X571987Y543181D01*
X571987Y545324D02*
X560973Y545324D01*
X560973Y547467D02*
X571987Y547467D01*
D11*
X525988Y570322D02*
X520972Y570322D01*
X520972Y582838D01*
X525988Y582838D01*
X525988Y570322D01*
X525988Y572463D02*
X520972Y572463D01*
X520972Y574604D02*
X525988Y574604D01*
X525988Y576745D02*
X520972Y576745D01*
X520972Y578886D02*
X525988Y578886D01*
X525988Y581027D02*
X520972Y581027D01*
X530972Y570322D02*
X535988Y570322D01*
X530972Y570322D02*
X530972Y582838D01*
X535988Y582838D01*
X535988Y570322D01*
X535988Y572463D02*
X530972Y572463D01*
X530972Y574604D02*
X535988Y574604D01*
X535988Y576745D02*
X530972Y576745D01*
X530972Y578886D02*
X535988Y578886D01*
X535988Y581027D02*
X530972Y581027D01*
X540972Y570322D02*
X545988Y570322D01*
X540972Y570322D02*
X540972Y582838D01*
X545988Y582838D01*
X545988Y570322D01*
X545988Y572463D02*
X540972Y572463D01*
X540972Y574604D02*
X545988Y574604D01*
X545988Y576745D02*
X540972Y576745D01*
X540972Y578886D02*
X545988Y578886D01*
X545988Y581027D02*
X540972Y581027D01*
X550972Y570322D02*
X555988Y570322D01*
X550972Y570322D02*
X550972Y582838D01*
X555988Y582838D01*
X555988Y570322D01*
X555988Y572463D02*
X550972Y572463D01*
X550972Y574604D02*
X555988Y574604D01*
X555988Y576745D02*
X550972Y576745D01*
X550972Y578886D02*
X555988Y578886D01*
X555988Y581027D02*
X550972Y581027D01*
D12*
X521272Y623252D02*
X521272Y633268D01*
X530288Y633268D01*
X530288Y623252D01*
X521272Y623252D01*
X521272Y625393D02*
X530288Y625393D01*
X530288Y627534D02*
X521272Y627534D01*
X521272Y629675D02*
X530288Y629675D01*
X530288Y631816D02*
X521272Y631816D01*
X521272Y616268D02*
X521272Y606252D01*
X521272Y616268D02*
X530288Y616268D01*
X530288Y606252D01*
X521272Y606252D01*
X521272Y608393D02*
X530288Y608393D01*
X530288Y610534D02*
X521272Y610534D01*
X521272Y612675D02*
X530288Y612675D01*
X530288Y614816D02*
X521272Y614816D01*
X546672Y623252D02*
X546672Y633268D01*
X555688Y633268D01*
X555688Y623252D01*
X546672Y623252D01*
X546672Y625393D02*
X555688Y625393D01*
X555688Y627534D02*
X546672Y627534D01*
X546672Y629675D02*
X555688Y629675D01*
X555688Y631816D02*
X546672Y631816D01*
X546672Y616268D02*
X546672Y606252D01*
X546672Y616268D02*
X555688Y616268D01*
X555688Y606252D01*
X546672Y606252D01*
X546672Y608393D02*
X555688Y608393D01*
X555688Y610534D02*
X546672Y610534D01*
X546672Y612675D02*
X555688Y612675D01*
X555688Y614816D02*
X546672Y614816D01*
D13*
X373380Y906780D03*
X670560Y535940D03*
D14*
X441484Y573246D02*
X441484Y579914D01*
X441484Y573246D02*
X427196Y573246D01*
X427196Y579914D01*
X441484Y579914D01*
X441484Y575358D02*
X427196Y575358D01*
X427196Y577470D02*
X441484Y577470D01*
X441484Y579582D02*
X427196Y579582D01*
X497364Y579914D02*
X497364Y573246D01*
X483076Y573246D01*
X483076Y579914D01*
X497364Y579914D01*
X497364Y575358D02*
X483076Y575358D01*
X483076Y577470D02*
X497364Y577470D01*
X497364Y579582D02*
X483076Y579582D01*
X441484Y541814D02*
X441484Y535146D01*
X427196Y535146D01*
X427196Y541814D01*
X441484Y541814D01*
X441484Y537258D02*
X427196Y537258D01*
X427196Y539370D02*
X441484Y539370D01*
X441484Y541482D02*
X427196Y541482D01*
X497364Y541814D02*
X497364Y535146D01*
X483076Y535146D01*
X483076Y541814D01*
X497364Y541814D01*
X497364Y537258D02*
X483076Y537258D01*
X483076Y539370D02*
X497364Y539370D01*
X497364Y541482D02*
X483076Y541482D01*
X593884Y573246D02*
X593884Y579914D01*
X593884Y573246D02*
X579596Y573246D01*
X579596Y579914D01*
X593884Y579914D01*
X593884Y575358D02*
X579596Y575358D01*
X579596Y577470D02*
X593884Y577470D01*
X593884Y579582D02*
X579596Y579582D01*
X649764Y579914D02*
X649764Y573246D01*
X635476Y573246D01*
X635476Y579914D01*
X649764Y579914D01*
X649764Y575358D02*
X635476Y575358D01*
X635476Y577470D02*
X649764Y577470D01*
X649764Y579582D02*
X635476Y579582D01*
X593884Y541814D02*
X593884Y535146D01*
X579596Y535146D01*
X579596Y541814D01*
X593884Y541814D01*
X593884Y537258D02*
X579596Y537258D01*
X579596Y539370D02*
X593884Y539370D01*
X593884Y541482D02*
X579596Y541482D01*
X649764Y541814D02*
X649764Y535146D01*
X635476Y535146D01*
X635476Y541814D01*
X649764Y541814D01*
X649764Y537258D02*
X635476Y537258D01*
X635476Y539370D02*
X649764Y539370D01*
X649764Y541482D02*
X635476Y541482D01*
D15*
X601980Y855980D03*
X601980Y830580D03*
X601980Y805180D03*
X601980Y779780D03*
X601980Y754380D03*
X601980Y728980D03*
X601980Y703580D03*
X601980Y678180D03*
X601980Y652780D03*
X601980Y627380D03*
X474980Y855980D03*
X474980Y830580D03*
X474980Y805180D03*
X474980Y779780D03*
X474980Y754380D03*
X474980Y728980D03*
X474980Y703580D03*
X474980Y678180D03*
X474980Y652780D03*
X474980Y627380D03*
D12*
X649432Y583502D02*
X659448Y583502D01*
X649432Y583502D02*
X649432Y592518D01*
X659448Y592518D01*
X659448Y583502D01*
X659448Y585643D02*
X649432Y585643D01*
X649432Y587784D02*
X659448Y587784D01*
X659448Y589925D02*
X649432Y589925D01*
X649432Y592066D02*
X659448Y592066D01*
X666432Y583502D02*
X676448Y583502D01*
X666432Y583502D02*
X666432Y592518D01*
X676448Y592518D01*
X676448Y583502D01*
X676448Y585643D02*
X666432Y585643D01*
X666432Y587784D02*
X676448Y587784D01*
X676448Y589925D02*
X666432Y589925D01*
X666432Y592066D02*
X676448Y592066D01*
D16*
X699966Y591504D02*
X699966Y584516D01*
X699966Y591504D02*
X706954Y591504D01*
X706954Y584516D01*
X699966Y584516D01*
X699966Y588585D02*
X706954Y588585D01*
X682426Y591504D02*
X682426Y584516D01*
X682426Y591504D02*
X689414Y591504D01*
X689414Y584516D01*
X682426Y584516D01*
X682426Y588585D02*
X689414Y588585D01*
X699966Y645476D02*
X699966Y652464D01*
X706954Y652464D01*
X706954Y645476D01*
X699966Y645476D01*
X699966Y649545D02*
X706954Y649545D01*
X682426Y652464D02*
X682426Y645476D01*
X682426Y652464D02*
X689414Y652464D01*
X689414Y645476D01*
X682426Y645476D01*
X682426Y649545D02*
X689414Y649545D01*
D12*
X659448Y644462D02*
X649432Y644462D01*
X649432Y653478D01*
X659448Y653478D01*
X659448Y644462D01*
X659448Y646603D02*
X649432Y646603D01*
X649432Y648744D02*
X659448Y648744D01*
X659448Y650885D02*
X649432Y650885D01*
X649432Y653026D02*
X659448Y653026D01*
X666432Y644462D02*
X676448Y644462D01*
X666432Y644462D02*
X666432Y653478D01*
X676448Y653478D01*
X676448Y644462D01*
X676448Y646603D02*
X666432Y646603D01*
X666432Y648744D02*
X676448Y648744D01*
X676448Y650885D02*
X666432Y650885D01*
X666432Y653026D02*
X676448Y653026D01*
D17*
X518548Y670861D02*
X514012Y670861D01*
X514012Y683397D01*
X518548Y683397D01*
X518548Y670861D01*
X518548Y672983D02*
X514012Y672983D01*
X514012Y675105D02*
X518548Y675105D01*
X518548Y677227D02*
X514012Y677227D01*
X514012Y679349D02*
X518548Y679349D01*
X518548Y681471D02*
X514012Y681471D01*
X523512Y670861D02*
X528048Y670861D01*
X523512Y670861D02*
X523512Y683397D01*
X528048Y683397D01*
X528048Y670861D01*
X528048Y672983D02*
X523512Y672983D01*
X523512Y675105D02*
X528048Y675105D01*
X528048Y677227D02*
X523512Y677227D01*
X523512Y679349D02*
X528048Y679349D01*
X528048Y681471D02*
X523512Y681471D01*
X533012Y670861D02*
X537548Y670861D01*
X533012Y670861D02*
X533012Y683397D01*
X537548Y683397D01*
X537548Y670861D01*
X537548Y672983D02*
X533012Y672983D01*
X533012Y675105D02*
X537548Y675105D01*
X537548Y677227D02*
X533012Y677227D01*
X533012Y679349D02*
X537548Y679349D01*
X537548Y681471D02*
X533012Y681471D01*
X533012Y698363D02*
X537548Y698363D01*
X533012Y698363D02*
X533012Y710899D01*
X537548Y710899D01*
X537548Y698363D01*
X537548Y700485D02*
X533012Y700485D01*
X533012Y702607D02*
X537548Y702607D01*
X537548Y704729D02*
X533012Y704729D01*
X533012Y706851D02*
X537548Y706851D01*
X537548Y708973D02*
X533012Y708973D01*
X528048Y698363D02*
X523512Y698363D01*
X523512Y710899D01*
X528048Y710899D01*
X528048Y698363D01*
X528048Y700485D02*
X523512Y700485D01*
X523512Y702607D02*
X528048Y702607D01*
X528048Y704729D02*
X523512Y704729D01*
X523512Y706851D02*
X528048Y706851D01*
X528048Y708973D02*
X523512Y708973D01*
X518548Y698363D02*
X514012Y698363D01*
X514012Y710899D01*
X518548Y710899D01*
X518548Y698363D01*
X518548Y700485D02*
X514012Y700485D01*
X514012Y702607D02*
X518548Y702607D01*
X518548Y704729D02*
X514012Y704729D01*
X514012Y706851D02*
X518548Y706851D01*
X518548Y708973D02*
X514012Y708973D01*
D18*
X511347Y716707D02*
X550373Y716707D01*
X511347Y716707D02*
X511347Y731733D01*
X550373Y731733D01*
X550373Y716707D01*
X550373Y718840D02*
X511347Y718840D01*
X511347Y720973D02*
X550373Y720973D01*
X550373Y723106D02*
X511347Y723106D01*
X511347Y725239D02*
X550373Y725239D01*
X550373Y727372D02*
X511347Y727372D01*
X511347Y729505D02*
X550373Y729505D01*
X550373Y731638D02*
X511347Y731638D01*
X511347Y755707D02*
X550373Y755707D01*
X511347Y755707D02*
X511347Y770733D01*
X550373Y770733D01*
X550373Y755707D01*
X550373Y757840D02*
X511347Y757840D01*
X511347Y759973D02*
X550373Y759973D01*
X550373Y762106D02*
X511347Y762106D01*
X511347Y764239D02*
X550373Y764239D01*
X550373Y766372D02*
X511347Y766372D01*
X511347Y768505D02*
X550373Y768505D01*
X550373Y770638D02*
X511347Y770638D01*
D12*
X501078Y712788D02*
X501078Y702772D01*
X492062Y702772D01*
X492062Y712788D01*
X501078Y712788D01*
X501078Y704913D02*
X492062Y704913D01*
X492062Y707054D02*
X501078Y707054D01*
X501078Y709195D02*
X492062Y709195D01*
X492062Y711336D02*
X501078Y711336D01*
X501078Y719772D02*
X501078Y729788D01*
X501078Y719772D02*
X492062Y719772D01*
X492062Y729788D01*
X501078Y729788D01*
X501078Y721913D02*
X492062Y721913D01*
X492062Y724054D02*
X501078Y724054D01*
X501078Y726195D02*
X492062Y726195D01*
X492062Y728336D02*
X501078Y728336D01*
X579438Y754570D02*
X579438Y764586D01*
X588454Y764586D01*
X588454Y754570D01*
X579438Y754570D01*
X579438Y756711D02*
X588454Y756711D01*
X588454Y758852D02*
X579438Y758852D01*
X579438Y760993D02*
X588454Y760993D01*
X588454Y763134D02*
X579438Y763134D01*
X579438Y747586D02*
X579438Y737570D01*
X579438Y747586D02*
X588454Y747586D01*
X588454Y737570D01*
X579438Y737570D01*
X579438Y739711D02*
X588454Y739711D01*
X588454Y741852D02*
X579438Y741852D01*
X579438Y743993D02*
X588454Y743993D01*
X588454Y746134D02*
X579438Y746134D01*
X564198Y754570D02*
X564198Y764586D01*
X573214Y764586D01*
X573214Y754570D01*
X564198Y754570D01*
X564198Y756711D02*
X573214Y756711D01*
X573214Y758852D02*
X564198Y758852D01*
X564198Y760993D02*
X573214Y760993D01*
X573214Y763134D02*
X564198Y763134D01*
X564198Y747586D02*
X564198Y737570D01*
X564198Y747586D02*
X573214Y747586D01*
X573214Y737570D01*
X564198Y737570D01*
X564198Y739711D02*
X573214Y739711D01*
X573214Y741852D02*
X564198Y741852D01*
X564198Y743993D02*
X573214Y743993D01*
X573214Y746134D02*
X564198Y746134D01*
D19*
X573698Y674118D02*
X573698Y662382D01*
X554062Y662382D01*
X554062Y674118D01*
X573698Y674118D01*
X573698Y664505D02*
X554062Y664505D01*
X554062Y666628D02*
X573698Y666628D01*
X573698Y668751D02*
X554062Y668751D01*
X554062Y670874D02*
X573698Y670874D01*
X573698Y672997D02*
X554062Y672997D01*
X573698Y697482D02*
X573698Y709218D01*
X573698Y697482D02*
X554062Y697482D01*
X554062Y709218D01*
X573698Y709218D01*
X573698Y699605D02*
X554062Y699605D01*
X554062Y701728D02*
X573698Y701728D01*
X573698Y703851D02*
X554062Y703851D01*
X554062Y705974D02*
X573698Y705974D01*
X573698Y708097D02*
X554062Y708097D01*
D12*
X522288Y655892D02*
X512272Y655892D01*
X512272Y664908D01*
X522288Y664908D01*
X522288Y655892D01*
X522288Y658033D02*
X512272Y658033D01*
X512272Y660174D02*
X522288Y660174D01*
X522288Y662315D02*
X512272Y662315D01*
X512272Y664456D02*
X522288Y664456D01*
X529272Y655892D02*
X539288Y655892D01*
X529272Y655892D02*
X529272Y664908D01*
X539288Y664908D01*
X539288Y655892D01*
X539288Y658033D02*
X529272Y658033D01*
X529272Y660174D02*
X539288Y660174D01*
X539288Y662315D02*
X529272Y662315D01*
X529272Y664456D02*
X539288Y664456D01*
D20*
X421492Y849018D02*
X421492Y856542D01*
X421492Y849018D02*
X405468Y849018D01*
X405468Y856542D01*
X421492Y856542D01*
X421492Y851153D02*
X405468Y851153D01*
X405468Y853288D02*
X421492Y853288D01*
X421492Y855423D02*
X405468Y855423D01*
X451492Y836542D02*
X451492Y829018D01*
X435468Y829018D01*
X435468Y836542D01*
X451492Y836542D01*
X451492Y831153D02*
X435468Y831153D01*
X435468Y833288D02*
X451492Y833288D01*
X451492Y835423D02*
X435468Y835423D01*
X421492Y816542D02*
X421492Y809018D01*
X405468Y809018D01*
X405468Y816542D01*
X421492Y816542D01*
X421492Y811153D02*
X405468Y811153D01*
X405468Y813288D02*
X421492Y813288D01*
X421492Y815423D02*
X405468Y815423D01*
X451492Y796542D02*
X451492Y789018D01*
X435468Y789018D01*
X435468Y796542D01*
X451492Y796542D01*
X451492Y791153D02*
X435468Y791153D01*
X435468Y793288D02*
X451492Y793288D01*
X451492Y795423D02*
X435468Y795423D01*
X421492Y776542D02*
X421492Y769018D01*
X405468Y769018D01*
X405468Y776542D01*
X421492Y776542D01*
X421492Y771153D02*
X405468Y771153D01*
X405468Y773288D02*
X421492Y773288D01*
X421492Y775423D02*
X405468Y775423D01*
X451492Y756542D02*
X451492Y749018D01*
X435468Y749018D01*
X435468Y756542D01*
X451492Y756542D01*
X451492Y751153D02*
X435468Y751153D01*
X435468Y753288D02*
X451492Y753288D01*
X451492Y755423D02*
X435468Y755423D01*
X421492Y736542D02*
X421492Y729018D01*
X405468Y729018D01*
X405468Y736542D01*
X421492Y736542D01*
X421492Y731153D02*
X405468Y731153D01*
X405468Y733288D02*
X421492Y733288D01*
X421492Y735423D02*
X405468Y735423D01*
X451492Y716542D02*
X451492Y709018D01*
X435468Y709018D01*
X435468Y716542D01*
X451492Y716542D01*
X451492Y711153D02*
X435468Y711153D01*
X435468Y713288D02*
X451492Y713288D01*
X451492Y715423D02*
X435468Y715423D01*
X421492Y696542D02*
X421492Y689018D01*
X405468Y689018D01*
X405468Y696542D01*
X421492Y696542D01*
X421492Y691153D02*
X405468Y691153D01*
X405468Y693288D02*
X421492Y693288D01*
X421492Y695423D02*
X405468Y695423D01*
X451492Y676542D02*
X451492Y669018D01*
X435468Y669018D01*
X435468Y676542D01*
X451492Y676542D01*
X451492Y671153D02*
X435468Y671153D01*
X435468Y673288D02*
X451492Y673288D01*
X451492Y675423D02*
X435468Y675423D01*
X671492Y676542D02*
X671492Y669018D01*
X655468Y669018D01*
X655468Y676542D01*
X671492Y676542D01*
X671492Y671153D02*
X655468Y671153D01*
X655468Y673288D02*
X671492Y673288D01*
X671492Y675423D02*
X655468Y675423D01*
X641492Y689018D02*
X641492Y696542D01*
X641492Y689018D02*
X625468Y689018D01*
X625468Y696542D01*
X641492Y696542D01*
X641492Y691153D02*
X625468Y691153D01*
X625468Y693288D02*
X641492Y693288D01*
X641492Y695423D02*
X625468Y695423D01*
X671492Y709018D02*
X671492Y716542D01*
X671492Y709018D02*
X655468Y709018D01*
X655468Y716542D01*
X671492Y716542D01*
X671492Y711153D02*
X655468Y711153D01*
X655468Y713288D02*
X671492Y713288D01*
X671492Y715423D02*
X655468Y715423D01*
X641492Y729018D02*
X641492Y736542D01*
X641492Y729018D02*
X625468Y729018D01*
X625468Y736542D01*
X641492Y736542D01*
X641492Y731153D02*
X625468Y731153D01*
X625468Y733288D02*
X641492Y733288D01*
X641492Y735423D02*
X625468Y735423D01*
X671492Y749018D02*
X671492Y756542D01*
X671492Y749018D02*
X655468Y749018D01*
X655468Y756542D01*
X671492Y756542D01*
X671492Y751153D02*
X655468Y751153D01*
X655468Y753288D02*
X671492Y753288D01*
X671492Y755423D02*
X655468Y755423D01*
X641492Y769018D02*
X641492Y776542D01*
X641492Y769018D02*
X625468Y769018D01*
X625468Y776542D01*
X641492Y776542D01*
X641492Y771153D02*
X625468Y771153D01*
X625468Y773288D02*
X641492Y773288D01*
X641492Y775423D02*
X625468Y775423D01*
X671492Y789018D02*
X671492Y796542D01*
X671492Y789018D02*
X655468Y789018D01*
X655468Y796542D01*
X671492Y796542D01*
X671492Y791153D02*
X655468Y791153D01*
X655468Y793288D02*
X671492Y793288D01*
X671492Y795423D02*
X655468Y795423D01*
X641492Y809018D02*
X641492Y816542D01*
X641492Y809018D02*
X625468Y809018D01*
X625468Y816542D01*
X641492Y816542D01*
X641492Y811153D02*
X625468Y811153D01*
X625468Y813288D02*
X641492Y813288D01*
X641492Y815423D02*
X625468Y815423D01*
X671492Y829018D02*
X671492Y836542D01*
X671492Y829018D02*
X655468Y829018D01*
X655468Y836542D01*
X671492Y836542D01*
X671492Y831153D02*
X655468Y831153D01*
X655468Y833288D02*
X671492Y833288D01*
X671492Y835423D02*
X655468Y835423D01*
X641492Y849018D02*
X641492Y856542D01*
X641492Y849018D02*
X625468Y849018D01*
X625468Y856542D01*
X641492Y856542D01*
X641492Y851153D02*
X625468Y851153D01*
X625468Y853288D02*
X641492Y853288D01*
X641492Y855423D02*
X625468Y855423D01*
D12*
X399588Y779208D02*
X389572Y779208D01*
X399588Y779208D02*
X399588Y770192D01*
X389572Y770192D01*
X389572Y779208D01*
X389572Y772333D02*
X399588Y772333D01*
X399588Y774474D02*
X389572Y774474D01*
X389572Y776615D02*
X399588Y776615D01*
X399588Y778756D02*
X389572Y778756D01*
X382588Y779208D02*
X372572Y779208D01*
X382588Y779208D02*
X382588Y770192D01*
X372572Y770192D01*
X372572Y779208D01*
X372572Y772333D02*
X382588Y772333D01*
X382588Y774474D02*
X372572Y774474D01*
X372572Y776615D02*
X382588Y776615D01*
X382588Y778756D02*
X372572Y778756D01*
X389572Y826198D02*
X399588Y826198D01*
X399588Y817182D01*
X389572Y817182D01*
X389572Y826198D01*
X389572Y819323D02*
X399588Y819323D01*
X399588Y821464D02*
X389572Y821464D01*
X389572Y823605D02*
X399588Y823605D01*
X399588Y825746D02*
X389572Y825746D01*
X382588Y826198D02*
X372572Y826198D01*
X382588Y826198D02*
X382588Y817182D01*
X372572Y817182D01*
X372572Y826198D01*
X372572Y819323D02*
X382588Y819323D01*
X382588Y821464D02*
X372572Y821464D01*
X372572Y823605D02*
X382588Y823605D01*
X382588Y825746D02*
X372572Y825746D01*
X389572Y810958D02*
X399588Y810958D01*
X399588Y801942D01*
X389572Y801942D01*
X389572Y810958D01*
X389572Y804083D02*
X399588Y804083D01*
X399588Y806224D02*
X389572Y806224D01*
X389572Y808365D02*
X399588Y808365D01*
X399588Y810506D02*
X389572Y810506D01*
X382588Y810958D02*
X372572Y810958D01*
X382588Y810958D02*
X382588Y801942D01*
X372572Y801942D01*
X372572Y810958D01*
X372572Y804083D02*
X382588Y804083D01*
X382588Y806224D02*
X372572Y806224D01*
X372572Y808365D02*
X382588Y808365D01*
X382588Y810506D02*
X372572Y810506D01*
X389572Y795718D02*
X399588Y795718D01*
X399588Y786702D01*
X389572Y786702D01*
X389572Y795718D01*
X389572Y788843D02*
X399588Y788843D01*
X399588Y790984D02*
X389572Y790984D01*
X389572Y793125D02*
X399588Y793125D01*
X399588Y795266D02*
X389572Y795266D01*
X382588Y795718D02*
X372572Y795718D01*
X382588Y795718D02*
X382588Y786702D01*
X372572Y786702D01*
X372572Y795718D01*
X372572Y788843D02*
X382588Y788843D01*
X382588Y790984D02*
X372572Y790984D01*
X372572Y793125D02*
X382588Y793125D01*
X382588Y795266D02*
X372572Y795266D01*
D21*
X690880Y1021080D03*
X690880Y551180D03*
X386080Y1021080D03*
X386080Y551180D03*
D16*
X699966Y614996D02*
X699966Y621984D01*
X706954Y621984D01*
X706954Y614996D01*
X699966Y614996D01*
X699966Y619065D02*
X706954Y619065D01*
X682426Y621984D02*
X682426Y614996D01*
X682426Y621984D02*
X689414Y621984D01*
X689414Y614996D01*
X682426Y614996D01*
X682426Y619065D02*
X689414Y619065D01*
D12*
X659448Y613982D02*
X649432Y613982D01*
X649432Y622998D01*
X659448Y622998D01*
X659448Y613982D01*
X659448Y616123D02*
X649432Y616123D01*
X649432Y618264D02*
X659448Y618264D01*
X659448Y620405D02*
X649432Y620405D01*
X649432Y622546D02*
X659448Y622546D01*
X666432Y613982D02*
X676448Y613982D01*
X666432Y613982D02*
X666432Y622998D01*
X676448Y622998D01*
X676448Y613982D01*
X676448Y616123D02*
X666432Y616123D01*
X666432Y618264D02*
X676448Y618264D01*
X676448Y620405D02*
X666432Y620405D01*
X666432Y622546D02*
X676448Y622546D01*
D15*
X601980Y601980D03*
X474980Y601980D03*
D12*
X399588Y841438D02*
X389572Y841438D01*
X399588Y841438D02*
X399588Y832422D01*
X389572Y832422D01*
X389572Y841438D01*
X389572Y834563D02*
X399588Y834563D01*
X399588Y836704D02*
X389572Y836704D01*
X389572Y838845D02*
X399588Y838845D01*
X399588Y840986D02*
X389572Y840986D01*
X382588Y841438D02*
X372572Y841438D01*
X382588Y841438D02*
X382588Y832422D01*
X372572Y832422D01*
X372572Y841438D01*
X372572Y834563D02*
X382588Y834563D01*
X382588Y836704D02*
X372572Y836704D01*
X372572Y838845D02*
X382588Y838845D01*
X382588Y840986D02*
X372572Y840986D01*
X389572Y856678D02*
X399588Y856678D01*
X399588Y847662D01*
X389572Y847662D01*
X389572Y856678D01*
X389572Y849803D02*
X399588Y849803D01*
X399588Y851944D02*
X389572Y851944D01*
X389572Y854085D02*
X399588Y854085D01*
X399588Y856226D02*
X389572Y856226D01*
X382588Y856678D02*
X372572Y856678D01*
X382588Y856678D02*
X382588Y847662D01*
X372572Y847662D01*
X372572Y856678D01*
X372572Y849803D02*
X382588Y849803D01*
X382588Y851944D02*
X372572Y851944D01*
X372572Y854085D02*
X382588Y854085D01*
X382588Y856226D02*
X372572Y856226D01*
D10*
X865653Y530323D02*
X876667Y530323D01*
X865653Y530323D02*
X865653Y549337D01*
X876667Y549337D01*
X876667Y530323D01*
X876667Y532466D02*
X865653Y532466D01*
X865653Y534609D02*
X876667Y534609D01*
X876667Y536752D02*
X865653Y536752D01*
X865653Y538895D02*
X876667Y538895D01*
X876667Y541038D02*
X865653Y541038D01*
X865653Y543181D02*
X876667Y543181D01*
X876667Y545324D02*
X865653Y545324D01*
X865653Y547467D02*
X876667Y547467D01*
X921653Y530323D02*
X932667Y530323D01*
X921653Y530323D02*
X921653Y549337D01*
X932667Y549337D01*
X932667Y530323D01*
X932667Y532466D02*
X921653Y532466D01*
X921653Y534609D02*
X932667Y534609D01*
X932667Y536752D02*
X921653Y536752D01*
X921653Y538895D02*
X932667Y538895D01*
X932667Y541038D02*
X921653Y541038D01*
X921653Y543181D02*
X932667Y543181D01*
X932667Y545324D02*
X921653Y545324D01*
X921653Y547467D02*
X932667Y547467D01*
D11*
X886668Y570322D02*
X881652Y570322D01*
X881652Y582838D01*
X886668Y582838D01*
X886668Y570322D01*
X886668Y572463D02*
X881652Y572463D01*
X881652Y574604D02*
X886668Y574604D01*
X886668Y576745D02*
X881652Y576745D01*
X881652Y578886D02*
X886668Y578886D01*
X886668Y581027D02*
X881652Y581027D01*
X891652Y570322D02*
X896668Y570322D01*
X891652Y570322D02*
X891652Y582838D01*
X896668Y582838D01*
X896668Y570322D01*
X896668Y572463D02*
X891652Y572463D01*
X891652Y574604D02*
X896668Y574604D01*
X896668Y576745D02*
X891652Y576745D01*
X891652Y578886D02*
X896668Y578886D01*
X896668Y581027D02*
X891652Y581027D01*
X901652Y570322D02*
X906668Y570322D01*
X901652Y570322D02*
X901652Y582838D01*
X906668Y582838D01*
X906668Y570322D01*
X906668Y572463D02*
X901652Y572463D01*
X901652Y574604D02*
X906668Y574604D01*
X906668Y576745D02*
X901652Y576745D01*
X901652Y578886D02*
X906668Y578886D01*
X906668Y581027D02*
X901652Y581027D01*
X911652Y570322D02*
X916668Y570322D01*
X911652Y570322D02*
X911652Y582838D01*
X916668Y582838D01*
X916668Y570322D01*
X916668Y572463D02*
X911652Y572463D01*
X911652Y574604D02*
X916668Y574604D01*
X916668Y576745D02*
X911652Y576745D01*
X911652Y578886D02*
X916668Y578886D01*
X916668Y581027D02*
X911652Y581027D01*
D12*
X881952Y623252D02*
X881952Y633268D01*
X890968Y633268D01*
X890968Y623252D01*
X881952Y623252D01*
X881952Y625393D02*
X890968Y625393D01*
X890968Y627534D02*
X881952Y627534D01*
X881952Y629675D02*
X890968Y629675D01*
X890968Y631816D02*
X881952Y631816D01*
X881952Y616268D02*
X881952Y606252D01*
X881952Y616268D02*
X890968Y616268D01*
X890968Y606252D01*
X881952Y606252D01*
X881952Y608393D02*
X890968Y608393D01*
X890968Y610534D02*
X881952Y610534D01*
X881952Y612675D02*
X890968Y612675D01*
X890968Y614816D02*
X881952Y614816D01*
X907352Y623252D02*
X907352Y633268D01*
X916368Y633268D01*
X916368Y623252D01*
X907352Y623252D01*
X907352Y625393D02*
X916368Y625393D01*
X916368Y627534D02*
X907352Y627534D01*
X907352Y629675D02*
X916368Y629675D01*
X916368Y631816D02*
X907352Y631816D01*
X907352Y616268D02*
X907352Y606252D01*
X907352Y616268D02*
X916368Y616268D01*
X916368Y606252D01*
X907352Y606252D01*
X907352Y608393D02*
X916368Y608393D01*
X916368Y610534D02*
X907352Y610534D01*
X907352Y612675D02*
X916368Y612675D01*
X916368Y614816D02*
X907352Y614816D01*
D13*
X734060Y906780D03*
X1031240Y535940D03*
D14*
X802164Y573246D02*
X802164Y579914D01*
X802164Y573246D02*
X787876Y573246D01*
X787876Y579914D01*
X802164Y579914D01*
X802164Y575358D02*
X787876Y575358D01*
X787876Y577470D02*
X802164Y577470D01*
X802164Y579582D02*
X787876Y579582D01*
X858044Y579914D02*
X858044Y573246D01*
X843756Y573246D01*
X843756Y579914D01*
X858044Y579914D01*
X858044Y575358D02*
X843756Y575358D01*
X843756Y577470D02*
X858044Y577470D01*
X858044Y579582D02*
X843756Y579582D01*
X802164Y541814D02*
X802164Y535146D01*
X787876Y535146D01*
X787876Y541814D01*
X802164Y541814D01*
X802164Y537258D02*
X787876Y537258D01*
X787876Y539370D02*
X802164Y539370D01*
X802164Y541482D02*
X787876Y541482D01*
X858044Y541814D02*
X858044Y535146D01*
X843756Y535146D01*
X843756Y541814D01*
X858044Y541814D01*
X858044Y537258D02*
X843756Y537258D01*
X843756Y539370D02*
X858044Y539370D01*
X858044Y541482D02*
X843756Y541482D01*
X954564Y573246D02*
X954564Y579914D01*
X954564Y573246D02*
X940276Y573246D01*
X940276Y579914D01*
X954564Y579914D01*
X954564Y575358D02*
X940276Y575358D01*
X940276Y577470D02*
X954564Y577470D01*
X954564Y579582D02*
X940276Y579582D01*
X1010444Y579914D02*
X1010444Y573246D01*
X996156Y573246D01*
X996156Y579914D01*
X1010444Y579914D01*
X1010444Y575358D02*
X996156Y575358D01*
X996156Y577470D02*
X1010444Y577470D01*
X1010444Y579582D02*
X996156Y579582D01*
X954564Y541814D02*
X954564Y535146D01*
X940276Y535146D01*
X940276Y541814D01*
X954564Y541814D01*
X954564Y537258D02*
X940276Y537258D01*
X940276Y539370D02*
X954564Y539370D01*
X954564Y541482D02*
X940276Y541482D01*
X1010444Y541814D02*
X1010444Y535146D01*
X996156Y535146D01*
X996156Y541814D01*
X1010444Y541814D01*
X1010444Y537258D02*
X996156Y537258D01*
X996156Y539370D02*
X1010444Y539370D01*
X1010444Y541482D02*
X996156Y541482D01*
D15*
X962660Y855980D03*
X962660Y830580D03*
X962660Y805180D03*
X962660Y779780D03*
X962660Y754380D03*
X962660Y728980D03*
X962660Y703580D03*
X962660Y678180D03*
X962660Y652780D03*
X962660Y627380D03*
X835660Y855980D03*
X835660Y830580D03*
X835660Y805180D03*
X835660Y779780D03*
X835660Y754380D03*
X835660Y728980D03*
X835660Y703580D03*
X835660Y678180D03*
X835660Y652780D03*
X835660Y627380D03*
D12*
X1010112Y583502D02*
X1020128Y583502D01*
X1010112Y583502D02*
X1010112Y592518D01*
X1020128Y592518D01*
X1020128Y583502D01*
X1020128Y585643D02*
X1010112Y585643D01*
X1010112Y587784D02*
X1020128Y587784D01*
X1020128Y589925D02*
X1010112Y589925D01*
X1010112Y592066D02*
X1020128Y592066D01*
X1027112Y583502D02*
X1037128Y583502D01*
X1027112Y583502D02*
X1027112Y592518D01*
X1037128Y592518D01*
X1037128Y583502D01*
X1037128Y585643D02*
X1027112Y585643D01*
X1027112Y587784D02*
X1037128Y587784D01*
X1037128Y589925D02*
X1027112Y589925D01*
X1027112Y592066D02*
X1037128Y592066D01*
D16*
X1060646Y591504D02*
X1060646Y584516D01*
X1060646Y591504D02*
X1067634Y591504D01*
X1067634Y584516D01*
X1060646Y584516D01*
X1060646Y588585D02*
X1067634Y588585D01*
X1043106Y591504D02*
X1043106Y584516D01*
X1043106Y591504D02*
X1050094Y591504D01*
X1050094Y584516D01*
X1043106Y584516D01*
X1043106Y588585D02*
X1050094Y588585D01*
X1060646Y645476D02*
X1060646Y652464D01*
X1067634Y652464D01*
X1067634Y645476D01*
X1060646Y645476D01*
X1060646Y649545D02*
X1067634Y649545D01*
X1043106Y652464D02*
X1043106Y645476D01*
X1043106Y652464D02*
X1050094Y652464D01*
X1050094Y645476D01*
X1043106Y645476D01*
X1043106Y649545D02*
X1050094Y649545D01*
D12*
X1020128Y644462D02*
X1010112Y644462D01*
X1010112Y653478D01*
X1020128Y653478D01*
X1020128Y644462D01*
X1020128Y646603D02*
X1010112Y646603D01*
X1010112Y648744D02*
X1020128Y648744D01*
X1020128Y650885D02*
X1010112Y650885D01*
X1010112Y653026D02*
X1020128Y653026D01*
X1027112Y644462D02*
X1037128Y644462D01*
X1027112Y644462D02*
X1027112Y653478D01*
X1037128Y653478D01*
X1037128Y644462D01*
X1037128Y646603D02*
X1027112Y646603D01*
X1027112Y648744D02*
X1037128Y648744D01*
X1037128Y650885D02*
X1027112Y650885D01*
X1027112Y653026D02*
X1037128Y653026D01*
D17*
X879228Y670861D02*
X874692Y670861D01*
X874692Y683397D01*
X879228Y683397D01*
X879228Y670861D01*
X879228Y672983D02*
X874692Y672983D01*
X874692Y675105D02*
X879228Y675105D01*
X879228Y677227D02*
X874692Y677227D01*
X874692Y679349D02*
X879228Y679349D01*
X879228Y681471D02*
X874692Y681471D01*
X884192Y670861D02*
X888728Y670861D01*
X884192Y670861D02*
X884192Y683397D01*
X888728Y683397D01*
X888728Y670861D01*
X888728Y672983D02*
X884192Y672983D01*
X884192Y675105D02*
X888728Y675105D01*
X888728Y677227D02*
X884192Y677227D01*
X884192Y679349D02*
X888728Y679349D01*
X888728Y681471D02*
X884192Y681471D01*
X893692Y670861D02*
X898228Y670861D01*
X893692Y670861D02*
X893692Y683397D01*
X898228Y683397D01*
X898228Y670861D01*
X898228Y672983D02*
X893692Y672983D01*
X893692Y675105D02*
X898228Y675105D01*
X898228Y677227D02*
X893692Y677227D01*
X893692Y679349D02*
X898228Y679349D01*
X898228Y681471D02*
X893692Y681471D01*
X893692Y698363D02*
X898228Y698363D01*
X893692Y698363D02*
X893692Y710899D01*
X898228Y710899D01*
X898228Y698363D01*
X898228Y700485D02*
X893692Y700485D01*
X893692Y702607D02*
X898228Y702607D01*
X898228Y704729D02*
X893692Y704729D01*
X893692Y706851D02*
X898228Y706851D01*
X898228Y708973D02*
X893692Y708973D01*
X888728Y698363D02*
X884192Y698363D01*
X884192Y710899D01*
X888728Y710899D01*
X888728Y698363D01*
X888728Y700485D02*
X884192Y700485D01*
X884192Y702607D02*
X888728Y702607D01*
X888728Y704729D02*
X884192Y704729D01*
X884192Y706851D02*
X888728Y706851D01*
X888728Y708973D02*
X884192Y708973D01*
X879228Y698363D02*
X874692Y698363D01*
X874692Y710899D01*
X879228Y710899D01*
X879228Y698363D01*
X879228Y700485D02*
X874692Y700485D01*
X874692Y702607D02*
X879228Y702607D01*
X879228Y704729D02*
X874692Y704729D01*
X874692Y706851D02*
X879228Y706851D01*
X879228Y708973D02*
X874692Y708973D01*
D18*
X872027Y716707D02*
X911053Y716707D01*
X872027Y716707D02*
X872027Y731733D01*
X911053Y731733D01*
X911053Y716707D01*
X911053Y718840D02*
X872027Y718840D01*
X872027Y720973D02*
X911053Y720973D01*
X911053Y723106D02*
X872027Y723106D01*
X872027Y725239D02*
X911053Y725239D01*
X911053Y727372D02*
X872027Y727372D01*
X872027Y729505D02*
X911053Y729505D01*
X911053Y731638D02*
X872027Y731638D01*
X872027Y755707D02*
X911053Y755707D01*
X872027Y755707D02*
X872027Y770733D01*
X911053Y770733D01*
X911053Y755707D01*
X911053Y757840D02*
X872027Y757840D01*
X872027Y759973D02*
X911053Y759973D01*
X911053Y762106D02*
X872027Y762106D01*
X872027Y764239D02*
X911053Y764239D01*
X911053Y766372D02*
X872027Y766372D01*
X872027Y768505D02*
X911053Y768505D01*
X911053Y770638D02*
X872027Y770638D01*
D12*
X861758Y712788D02*
X861758Y702772D01*
X852742Y702772D01*
X852742Y712788D01*
X861758Y712788D01*
X861758Y704913D02*
X852742Y704913D01*
X852742Y707054D02*
X861758Y707054D01*
X861758Y709195D02*
X852742Y709195D01*
X852742Y711336D02*
X861758Y711336D01*
X861758Y719772D02*
X861758Y729788D01*
X861758Y719772D02*
X852742Y719772D01*
X852742Y729788D01*
X861758Y729788D01*
X861758Y721913D02*
X852742Y721913D01*
X852742Y724054D02*
X861758Y724054D01*
X861758Y726195D02*
X852742Y726195D01*
X852742Y728336D02*
X861758Y728336D01*
X940118Y754570D02*
X940118Y764586D01*
X949134Y764586D01*
X949134Y754570D01*
X940118Y754570D01*
X940118Y756711D02*
X949134Y756711D01*
X949134Y758852D02*
X940118Y758852D01*
X940118Y760993D02*
X949134Y760993D01*
X949134Y763134D02*
X940118Y763134D01*
X940118Y747586D02*
X940118Y737570D01*
X940118Y747586D02*
X949134Y747586D01*
X949134Y737570D01*
X940118Y737570D01*
X940118Y739711D02*
X949134Y739711D01*
X949134Y741852D02*
X940118Y741852D01*
X940118Y743993D02*
X949134Y743993D01*
X949134Y746134D02*
X940118Y746134D01*
X924878Y754570D02*
X924878Y764586D01*
X933894Y764586D01*
X933894Y754570D01*
X924878Y754570D01*
X924878Y756711D02*
X933894Y756711D01*
X933894Y758852D02*
X924878Y758852D01*
X924878Y760993D02*
X933894Y760993D01*
X933894Y763134D02*
X924878Y763134D01*
X924878Y747586D02*
X924878Y737570D01*
X924878Y747586D02*
X933894Y747586D01*
X933894Y737570D01*
X924878Y737570D01*
X924878Y739711D02*
X933894Y739711D01*
X933894Y741852D02*
X924878Y741852D01*
X924878Y743993D02*
X933894Y743993D01*
X933894Y746134D02*
X924878Y746134D01*
D19*
X934378Y674118D02*
X934378Y662382D01*
X914742Y662382D01*
X914742Y674118D01*
X934378Y674118D01*
X934378Y664505D02*
X914742Y664505D01*
X914742Y666628D02*
X934378Y666628D01*
X934378Y668751D02*
X914742Y668751D01*
X914742Y670874D02*
X934378Y670874D01*
X934378Y672997D02*
X914742Y672997D01*
X934378Y697482D02*
X934378Y709218D01*
X934378Y697482D02*
X914742Y697482D01*
X914742Y709218D01*
X934378Y709218D01*
X934378Y699605D02*
X914742Y699605D01*
X914742Y701728D02*
X934378Y701728D01*
X934378Y703851D02*
X914742Y703851D01*
X914742Y705974D02*
X934378Y705974D01*
X934378Y708097D02*
X914742Y708097D01*
D12*
X882968Y655892D02*
X872952Y655892D01*
X872952Y664908D01*
X882968Y664908D01*
X882968Y655892D01*
X882968Y658033D02*
X872952Y658033D01*
X872952Y660174D02*
X882968Y660174D01*
X882968Y662315D02*
X872952Y662315D01*
X872952Y664456D02*
X882968Y664456D01*
X889952Y655892D02*
X899968Y655892D01*
X889952Y655892D02*
X889952Y664908D01*
X899968Y664908D01*
X899968Y655892D01*
X899968Y658033D02*
X889952Y658033D01*
X889952Y660174D02*
X899968Y660174D01*
X899968Y662315D02*
X889952Y662315D01*
X889952Y664456D02*
X899968Y664456D01*
D20*
X782172Y849018D02*
X782172Y856542D01*
X782172Y849018D02*
X766148Y849018D01*
X766148Y856542D01*
X782172Y856542D01*
X782172Y851153D02*
X766148Y851153D01*
X766148Y853288D02*
X782172Y853288D01*
X782172Y855423D02*
X766148Y855423D01*
X812172Y836542D02*
X812172Y829018D01*
X796148Y829018D01*
X796148Y836542D01*
X812172Y836542D01*
X812172Y831153D02*
X796148Y831153D01*
X796148Y833288D02*
X812172Y833288D01*
X812172Y835423D02*
X796148Y835423D01*
X782172Y816542D02*
X782172Y809018D01*
X766148Y809018D01*
X766148Y816542D01*
X782172Y816542D01*
X782172Y811153D02*
X766148Y811153D01*
X766148Y813288D02*
X782172Y813288D01*
X782172Y815423D02*
X766148Y815423D01*
X812172Y796542D02*
X812172Y789018D01*
X796148Y789018D01*
X796148Y796542D01*
X812172Y796542D01*
X812172Y791153D02*
X796148Y791153D01*
X796148Y793288D02*
X812172Y793288D01*
X812172Y795423D02*
X796148Y795423D01*
X782172Y776542D02*
X782172Y769018D01*
X766148Y769018D01*
X766148Y776542D01*
X782172Y776542D01*
X782172Y771153D02*
X766148Y771153D01*
X766148Y773288D02*
X782172Y773288D01*
X782172Y775423D02*
X766148Y775423D01*
X812172Y756542D02*
X812172Y749018D01*
X796148Y749018D01*
X796148Y756542D01*
X812172Y756542D01*
X812172Y751153D02*
X796148Y751153D01*
X796148Y753288D02*
X812172Y753288D01*
X812172Y755423D02*
X796148Y755423D01*
X782172Y736542D02*
X782172Y729018D01*
X766148Y729018D01*
X766148Y736542D01*
X782172Y736542D01*
X782172Y731153D02*
X766148Y731153D01*
X766148Y733288D02*
X782172Y733288D01*
X782172Y735423D02*
X766148Y735423D01*
X812172Y716542D02*
X812172Y709018D01*
X796148Y709018D01*
X796148Y716542D01*
X812172Y716542D01*
X812172Y711153D02*
X796148Y711153D01*
X796148Y713288D02*
X812172Y713288D01*
X812172Y715423D02*
X796148Y715423D01*
X782172Y696542D02*
X782172Y689018D01*
X766148Y689018D01*
X766148Y696542D01*
X782172Y696542D01*
X782172Y691153D02*
X766148Y691153D01*
X766148Y693288D02*
X782172Y693288D01*
X782172Y695423D02*
X766148Y695423D01*
X812172Y676542D02*
X812172Y669018D01*
X796148Y669018D01*
X796148Y676542D01*
X812172Y676542D01*
X812172Y671153D02*
X796148Y671153D01*
X796148Y673288D02*
X812172Y673288D01*
X812172Y675423D02*
X796148Y675423D01*
X1032172Y676542D02*
X1032172Y669018D01*
X1016148Y669018D01*
X1016148Y676542D01*
X1032172Y676542D01*
X1032172Y671153D02*
X1016148Y671153D01*
X1016148Y673288D02*
X1032172Y673288D01*
X1032172Y675423D02*
X1016148Y675423D01*
X1002172Y689018D02*
X1002172Y696542D01*
X1002172Y689018D02*
X986148Y689018D01*
X986148Y696542D01*
X1002172Y696542D01*
X1002172Y691153D02*
X986148Y691153D01*
X986148Y693288D02*
X1002172Y693288D01*
X1002172Y695423D02*
X986148Y695423D01*
X1032172Y709018D02*
X1032172Y716542D01*
X1032172Y709018D02*
X1016148Y709018D01*
X1016148Y716542D01*
X1032172Y716542D01*
X1032172Y711153D02*
X1016148Y711153D01*
X1016148Y713288D02*
X1032172Y713288D01*
X1032172Y715423D02*
X1016148Y715423D01*
X1002172Y729018D02*
X1002172Y736542D01*
X1002172Y729018D02*
X986148Y729018D01*
X986148Y736542D01*
X1002172Y736542D01*
X1002172Y731153D02*
X986148Y731153D01*
X986148Y733288D02*
X1002172Y733288D01*
X1002172Y735423D02*
X986148Y735423D01*
X1032172Y749018D02*
X1032172Y756542D01*
X1032172Y749018D02*
X1016148Y749018D01*
X1016148Y756542D01*
X1032172Y756542D01*
X1032172Y751153D02*
X1016148Y751153D01*
X1016148Y753288D02*
X1032172Y753288D01*
X1032172Y755423D02*
X1016148Y755423D01*
X1002172Y769018D02*
X1002172Y776542D01*
X1002172Y769018D02*
X986148Y769018D01*
X986148Y776542D01*
X1002172Y776542D01*
X1002172Y771153D02*
X986148Y771153D01*
X986148Y773288D02*
X1002172Y773288D01*
X1002172Y775423D02*
X986148Y775423D01*
X1032172Y789018D02*
X1032172Y796542D01*
X1032172Y789018D02*
X1016148Y789018D01*
X1016148Y796542D01*
X1032172Y796542D01*
X1032172Y791153D02*
X1016148Y791153D01*
X1016148Y793288D02*
X1032172Y793288D01*
X1032172Y795423D02*
X1016148Y795423D01*
X1002172Y809018D02*
X1002172Y816542D01*
X1002172Y809018D02*
X986148Y809018D01*
X986148Y816542D01*
X1002172Y816542D01*
X1002172Y811153D02*
X986148Y811153D01*
X986148Y813288D02*
X1002172Y813288D01*
X1002172Y815423D02*
X986148Y815423D01*
X1032172Y829018D02*
X1032172Y836542D01*
X1032172Y829018D02*
X1016148Y829018D01*
X1016148Y836542D01*
X1032172Y836542D01*
X1032172Y831153D02*
X1016148Y831153D01*
X1016148Y833288D02*
X1032172Y833288D01*
X1032172Y835423D02*
X1016148Y835423D01*
X1002172Y849018D02*
X1002172Y856542D01*
X1002172Y849018D02*
X986148Y849018D01*
X986148Y856542D01*
X1002172Y856542D01*
X1002172Y851153D02*
X986148Y851153D01*
X986148Y853288D02*
X1002172Y853288D01*
X1002172Y855423D02*
X986148Y855423D01*
D12*
X760268Y779208D02*
X750252Y779208D01*
X760268Y779208D02*
X760268Y770192D01*
X750252Y770192D01*
X750252Y779208D01*
X750252Y772333D02*
X760268Y772333D01*
X760268Y774474D02*
X750252Y774474D01*
X750252Y776615D02*
X760268Y776615D01*
X760268Y778756D02*
X750252Y778756D01*
X743268Y779208D02*
X733252Y779208D01*
X743268Y779208D02*
X743268Y770192D01*
X733252Y770192D01*
X733252Y779208D01*
X733252Y772333D02*
X743268Y772333D01*
X743268Y774474D02*
X733252Y774474D01*
X733252Y776615D02*
X743268Y776615D01*
X743268Y778756D02*
X733252Y778756D01*
X750252Y826198D02*
X760268Y826198D01*
X760268Y817182D01*
X750252Y817182D01*
X750252Y826198D01*
X750252Y819323D02*
X760268Y819323D01*
X760268Y821464D02*
X750252Y821464D01*
X750252Y823605D02*
X760268Y823605D01*
X760268Y825746D02*
X750252Y825746D01*
X743268Y826198D02*
X733252Y826198D01*
X743268Y826198D02*
X743268Y817182D01*
X733252Y817182D01*
X733252Y826198D01*
X733252Y819323D02*
X743268Y819323D01*
X743268Y821464D02*
X733252Y821464D01*
X733252Y823605D02*
X743268Y823605D01*
X743268Y825746D02*
X733252Y825746D01*
X750252Y810958D02*
X760268Y810958D01*
X760268Y801942D01*
X750252Y801942D01*
X750252Y810958D01*
X750252Y804083D02*
X760268Y804083D01*
X760268Y806224D02*
X750252Y806224D01*
X750252Y808365D02*
X760268Y808365D01*
X760268Y810506D02*
X750252Y810506D01*
X743268Y810958D02*
X733252Y810958D01*
X743268Y810958D02*
X743268Y801942D01*
X733252Y801942D01*
X733252Y810958D01*
X733252Y804083D02*
X743268Y804083D01*
X743268Y806224D02*
X733252Y806224D01*
X733252Y808365D02*
X743268Y808365D01*
X743268Y810506D02*
X733252Y810506D01*
X750252Y795718D02*
X760268Y795718D01*
X760268Y786702D01*
X750252Y786702D01*
X750252Y795718D01*
X750252Y788843D02*
X760268Y788843D01*
X760268Y790984D02*
X750252Y790984D01*
X750252Y793125D02*
X760268Y793125D01*
X760268Y795266D02*
X750252Y795266D01*
X743268Y795718D02*
X733252Y795718D01*
X743268Y795718D02*
X743268Y786702D01*
X733252Y786702D01*
X733252Y795718D01*
X733252Y788843D02*
X743268Y788843D01*
X743268Y790984D02*
X733252Y790984D01*
X733252Y793125D02*
X743268Y793125D01*
X743268Y795266D02*
X733252Y795266D01*
D21*
X1051560Y1021080D03*
X1051560Y551180D03*
X746760Y1021080D03*
X746760Y551180D03*
D16*
X1060646Y614996D02*
X1060646Y621984D01*
X1067634Y621984D01*
X1067634Y614996D01*
X1060646Y614996D01*
X1060646Y619065D02*
X1067634Y619065D01*
X1043106Y621984D02*
X1043106Y614996D01*
X1043106Y621984D02*
X1050094Y621984D01*
X1050094Y614996D01*
X1043106Y614996D01*
X1043106Y619065D02*
X1050094Y619065D01*
D12*
X1020128Y613982D02*
X1010112Y613982D01*
X1010112Y622998D01*
X1020128Y622998D01*
X1020128Y613982D01*
X1020128Y616123D02*
X1010112Y616123D01*
X1010112Y618264D02*
X1020128Y618264D01*
X1020128Y620405D02*
X1010112Y620405D01*
X1010112Y622546D02*
X1020128Y622546D01*
X1027112Y613982D02*
X1037128Y613982D01*
X1027112Y613982D02*
X1027112Y622998D01*
X1037128Y622998D01*
X1037128Y613982D01*
X1037128Y616123D02*
X1027112Y616123D01*
X1027112Y618264D02*
X1037128Y618264D01*
X1037128Y620405D02*
X1027112Y620405D01*
X1027112Y622546D02*
X1037128Y622546D01*
D15*
X962660Y601980D03*
X835660Y601980D03*
D12*
X760268Y841438D02*
X750252Y841438D01*
X760268Y841438D02*
X760268Y832422D01*
X750252Y832422D01*
X750252Y841438D01*
X750252Y834563D02*
X760268Y834563D01*
X760268Y836704D02*
X750252Y836704D01*
X750252Y838845D02*
X760268Y838845D01*
X760268Y840986D02*
X750252Y840986D01*
X743268Y841438D02*
X733252Y841438D01*
X743268Y841438D02*
X743268Y832422D01*
X733252Y832422D01*
X733252Y841438D01*
X733252Y834563D02*
X743268Y834563D01*
X743268Y836704D02*
X733252Y836704D01*
X733252Y838845D02*
X743268Y838845D01*
X743268Y840986D02*
X733252Y840986D01*
X750252Y856678D02*
X760268Y856678D01*
X760268Y847662D01*
X750252Y847662D01*
X750252Y856678D01*
X750252Y849803D02*
X760268Y849803D01*
X760268Y851944D02*
X750252Y851944D01*
X750252Y854085D02*
X760268Y854085D01*
X760268Y856226D02*
X750252Y856226D01*
X743268Y856678D02*
X733252Y856678D01*
X743268Y856678D02*
X743268Y847662D01*
X733252Y847662D01*
X733252Y856678D01*
X733252Y849803D02*
X743268Y849803D01*
X743268Y851944D02*
X733252Y851944D01*
X733252Y854085D02*
X743268Y854085D01*
X743268Y856226D02*
X733252Y856226D01*
D10*
X155307Y1056103D02*
X144293Y1056103D01*
X144293Y1075117D01*
X155307Y1075117D01*
X155307Y1056103D01*
X155307Y1058246D02*
X144293Y1058246D01*
X144293Y1060389D02*
X155307Y1060389D01*
X155307Y1062532D02*
X144293Y1062532D01*
X144293Y1064675D02*
X155307Y1064675D01*
X155307Y1066818D02*
X144293Y1066818D01*
X144293Y1068961D02*
X155307Y1068961D01*
X155307Y1071104D02*
X144293Y1071104D01*
X144293Y1073247D02*
X155307Y1073247D01*
X200293Y1056103D02*
X211307Y1056103D01*
X200293Y1056103D02*
X200293Y1075117D01*
X211307Y1075117D01*
X211307Y1056103D01*
X211307Y1058246D02*
X200293Y1058246D01*
X200293Y1060389D02*
X211307Y1060389D01*
X211307Y1062532D02*
X200293Y1062532D01*
X200293Y1064675D02*
X211307Y1064675D01*
X211307Y1066818D02*
X200293Y1066818D01*
X200293Y1068961D02*
X211307Y1068961D01*
X211307Y1071104D02*
X200293Y1071104D01*
X200293Y1073247D02*
X211307Y1073247D01*
D11*
X165308Y1096102D02*
X160292Y1096102D01*
X160292Y1108618D01*
X165308Y1108618D01*
X165308Y1096102D01*
X165308Y1098243D02*
X160292Y1098243D01*
X160292Y1100384D02*
X165308Y1100384D01*
X165308Y1102525D02*
X160292Y1102525D01*
X160292Y1104666D02*
X165308Y1104666D01*
X165308Y1106807D02*
X160292Y1106807D01*
X170292Y1096102D02*
X175308Y1096102D01*
X170292Y1096102D02*
X170292Y1108618D01*
X175308Y1108618D01*
X175308Y1096102D01*
X175308Y1098243D02*
X170292Y1098243D01*
X170292Y1100384D02*
X175308Y1100384D01*
X175308Y1102525D02*
X170292Y1102525D01*
X170292Y1104666D02*
X175308Y1104666D01*
X175308Y1106807D02*
X170292Y1106807D01*
X180292Y1096102D02*
X185308Y1096102D01*
X180292Y1096102D02*
X180292Y1108618D01*
X185308Y1108618D01*
X185308Y1096102D01*
X185308Y1098243D02*
X180292Y1098243D01*
X180292Y1100384D02*
X185308Y1100384D01*
X185308Y1102525D02*
X180292Y1102525D01*
X180292Y1104666D02*
X185308Y1104666D01*
X185308Y1106807D02*
X180292Y1106807D01*
X190292Y1096102D02*
X195308Y1096102D01*
X190292Y1096102D02*
X190292Y1108618D01*
X195308Y1108618D01*
X195308Y1096102D01*
X195308Y1098243D02*
X190292Y1098243D01*
X190292Y1100384D02*
X195308Y1100384D01*
X195308Y1102525D02*
X190292Y1102525D01*
X190292Y1104666D02*
X195308Y1104666D01*
X195308Y1106807D02*
X190292Y1106807D01*
D12*
X160592Y1149032D02*
X160592Y1159048D01*
X169608Y1159048D01*
X169608Y1149032D01*
X160592Y1149032D01*
X160592Y1151173D02*
X169608Y1151173D01*
X169608Y1153314D02*
X160592Y1153314D01*
X160592Y1155455D02*
X169608Y1155455D01*
X169608Y1157596D02*
X160592Y1157596D01*
X160592Y1142048D02*
X160592Y1132032D01*
X160592Y1142048D02*
X169608Y1142048D01*
X169608Y1132032D01*
X160592Y1132032D01*
X160592Y1134173D02*
X169608Y1134173D01*
X169608Y1136314D02*
X160592Y1136314D01*
X160592Y1138455D02*
X169608Y1138455D01*
X169608Y1140596D02*
X160592Y1140596D01*
X185992Y1149032D02*
X185992Y1159048D01*
X195008Y1159048D01*
X195008Y1149032D01*
X185992Y1149032D01*
X185992Y1151173D02*
X195008Y1151173D01*
X195008Y1153314D02*
X185992Y1153314D01*
X185992Y1155455D02*
X195008Y1155455D01*
X195008Y1157596D02*
X185992Y1157596D01*
X185992Y1142048D02*
X185992Y1132032D01*
X185992Y1142048D02*
X195008Y1142048D01*
X195008Y1132032D01*
X185992Y1132032D01*
X185992Y1134173D02*
X195008Y1134173D01*
X195008Y1136314D02*
X185992Y1136314D01*
X185992Y1138455D02*
X195008Y1138455D01*
X195008Y1140596D02*
X185992Y1140596D01*
D13*
X12700Y1432560D03*
X309880Y1061720D03*
D14*
X80804Y1099026D02*
X80804Y1105694D01*
X80804Y1099026D02*
X66516Y1099026D01*
X66516Y1105694D01*
X80804Y1105694D01*
X80804Y1101138D02*
X66516Y1101138D01*
X66516Y1103250D02*
X80804Y1103250D01*
X80804Y1105362D02*
X66516Y1105362D01*
X136684Y1105694D02*
X136684Y1099026D01*
X122396Y1099026D01*
X122396Y1105694D01*
X136684Y1105694D01*
X136684Y1101138D02*
X122396Y1101138D01*
X122396Y1103250D02*
X136684Y1103250D01*
X136684Y1105362D02*
X122396Y1105362D01*
X80804Y1067594D02*
X80804Y1060926D01*
X66516Y1060926D01*
X66516Y1067594D01*
X80804Y1067594D01*
X80804Y1063038D02*
X66516Y1063038D01*
X66516Y1065150D02*
X80804Y1065150D01*
X80804Y1067262D02*
X66516Y1067262D01*
X136684Y1067594D02*
X136684Y1060926D01*
X122396Y1060926D01*
X122396Y1067594D01*
X136684Y1067594D01*
X136684Y1063038D02*
X122396Y1063038D01*
X122396Y1065150D02*
X136684Y1065150D01*
X136684Y1067262D02*
X122396Y1067262D01*
X233204Y1099026D02*
X233204Y1105694D01*
X233204Y1099026D02*
X218916Y1099026D01*
X218916Y1105694D01*
X233204Y1105694D01*
X233204Y1101138D02*
X218916Y1101138D01*
X218916Y1103250D02*
X233204Y1103250D01*
X233204Y1105362D02*
X218916Y1105362D01*
X289084Y1105694D02*
X289084Y1099026D01*
X274796Y1099026D01*
X274796Y1105694D01*
X289084Y1105694D01*
X289084Y1101138D02*
X274796Y1101138D01*
X274796Y1103250D02*
X289084Y1103250D01*
X289084Y1105362D02*
X274796Y1105362D01*
X233204Y1067594D02*
X233204Y1060926D01*
X218916Y1060926D01*
X218916Y1067594D01*
X233204Y1067594D01*
X233204Y1063038D02*
X218916Y1063038D01*
X218916Y1065150D02*
X233204Y1065150D01*
X233204Y1067262D02*
X218916Y1067262D01*
X289084Y1067594D02*
X289084Y1060926D01*
X274796Y1060926D01*
X274796Y1067594D01*
X289084Y1067594D01*
X289084Y1063038D02*
X274796Y1063038D01*
X274796Y1065150D02*
X289084Y1065150D01*
X289084Y1067262D02*
X274796Y1067262D01*
D15*
X241300Y1381760D03*
X241300Y1356360D03*
X241300Y1330960D03*
X241300Y1305560D03*
X241300Y1280160D03*
X241300Y1254760D03*
X241300Y1229360D03*
X241300Y1203960D03*
X241300Y1178560D03*
X241300Y1153160D03*
X114300Y1381760D03*
X114300Y1356360D03*
X114300Y1330960D03*
X114300Y1305560D03*
X114300Y1280160D03*
X114300Y1254760D03*
X114300Y1229360D03*
X114300Y1203960D03*
X114300Y1178560D03*
X114300Y1153160D03*
D12*
X288752Y1109282D02*
X298768Y1109282D01*
X288752Y1109282D02*
X288752Y1118298D01*
X298768Y1118298D01*
X298768Y1109282D01*
X298768Y1111423D02*
X288752Y1111423D01*
X288752Y1113564D02*
X298768Y1113564D01*
X298768Y1115705D02*
X288752Y1115705D01*
X288752Y1117846D02*
X298768Y1117846D01*
X305752Y1109282D02*
X315768Y1109282D01*
X305752Y1109282D02*
X305752Y1118298D01*
X315768Y1118298D01*
X315768Y1109282D01*
X315768Y1111423D02*
X305752Y1111423D01*
X305752Y1113564D02*
X315768Y1113564D01*
X315768Y1115705D02*
X305752Y1115705D01*
X305752Y1117846D02*
X315768Y1117846D01*
D16*
X339286Y1117284D02*
X339286Y1110296D01*
X339286Y1117284D02*
X346274Y1117284D01*
X346274Y1110296D01*
X339286Y1110296D01*
X339286Y1114365D02*
X346274Y1114365D01*
X321746Y1117284D02*
X321746Y1110296D01*
X321746Y1117284D02*
X328734Y1117284D01*
X328734Y1110296D01*
X321746Y1110296D01*
X321746Y1114365D02*
X328734Y1114365D01*
X339286Y1171256D02*
X339286Y1178244D01*
X346274Y1178244D01*
X346274Y1171256D01*
X339286Y1171256D01*
X339286Y1175325D02*
X346274Y1175325D01*
X321746Y1178244D02*
X321746Y1171256D01*
X321746Y1178244D02*
X328734Y1178244D01*
X328734Y1171256D01*
X321746Y1171256D01*
X321746Y1175325D02*
X328734Y1175325D01*
D12*
X298768Y1170242D02*
X288752Y1170242D01*
X288752Y1179258D01*
X298768Y1179258D01*
X298768Y1170242D01*
X298768Y1172383D02*
X288752Y1172383D01*
X288752Y1174524D02*
X298768Y1174524D01*
X298768Y1176665D02*
X288752Y1176665D01*
X288752Y1178806D02*
X298768Y1178806D01*
X305752Y1170242D02*
X315768Y1170242D01*
X305752Y1170242D02*
X305752Y1179258D01*
X315768Y1179258D01*
X315768Y1170242D01*
X315768Y1172383D02*
X305752Y1172383D01*
X305752Y1174524D02*
X315768Y1174524D01*
X315768Y1176665D02*
X305752Y1176665D01*
X305752Y1178806D02*
X315768Y1178806D01*
D17*
X157868Y1196641D02*
X153332Y1196641D01*
X153332Y1209177D01*
X157868Y1209177D01*
X157868Y1196641D01*
X157868Y1198763D02*
X153332Y1198763D01*
X153332Y1200885D02*
X157868Y1200885D01*
X157868Y1203007D02*
X153332Y1203007D01*
X153332Y1205129D02*
X157868Y1205129D01*
X157868Y1207251D02*
X153332Y1207251D01*
X162832Y1196641D02*
X167368Y1196641D01*
X162832Y1196641D02*
X162832Y1209177D01*
X167368Y1209177D01*
X167368Y1196641D01*
X167368Y1198763D02*
X162832Y1198763D01*
X162832Y1200885D02*
X167368Y1200885D01*
X167368Y1203007D02*
X162832Y1203007D01*
X162832Y1205129D02*
X167368Y1205129D01*
X167368Y1207251D02*
X162832Y1207251D01*
X172332Y1196641D02*
X176868Y1196641D01*
X172332Y1196641D02*
X172332Y1209177D01*
X176868Y1209177D01*
X176868Y1196641D01*
X176868Y1198763D02*
X172332Y1198763D01*
X172332Y1200885D02*
X176868Y1200885D01*
X176868Y1203007D02*
X172332Y1203007D01*
X172332Y1205129D02*
X176868Y1205129D01*
X176868Y1207251D02*
X172332Y1207251D01*
X172332Y1224143D02*
X176868Y1224143D01*
X172332Y1224143D02*
X172332Y1236679D01*
X176868Y1236679D01*
X176868Y1224143D01*
X176868Y1226265D02*
X172332Y1226265D01*
X172332Y1228387D02*
X176868Y1228387D01*
X176868Y1230509D02*
X172332Y1230509D01*
X172332Y1232631D02*
X176868Y1232631D01*
X176868Y1234753D02*
X172332Y1234753D01*
X167368Y1224143D02*
X162832Y1224143D01*
X162832Y1236679D01*
X167368Y1236679D01*
X167368Y1224143D01*
X167368Y1226265D02*
X162832Y1226265D01*
X162832Y1228387D02*
X167368Y1228387D01*
X167368Y1230509D02*
X162832Y1230509D01*
X162832Y1232631D02*
X167368Y1232631D01*
X167368Y1234753D02*
X162832Y1234753D01*
X157868Y1224143D02*
X153332Y1224143D01*
X153332Y1236679D01*
X157868Y1236679D01*
X157868Y1224143D01*
X157868Y1226265D02*
X153332Y1226265D01*
X153332Y1228387D02*
X157868Y1228387D01*
X157868Y1230509D02*
X153332Y1230509D01*
X153332Y1232631D02*
X157868Y1232631D01*
X157868Y1234753D02*
X153332Y1234753D01*
D18*
X150667Y1242487D02*
X189693Y1242487D01*
X150667Y1242487D02*
X150667Y1257513D01*
X189693Y1257513D01*
X189693Y1242487D01*
X189693Y1244620D02*
X150667Y1244620D01*
X150667Y1246753D02*
X189693Y1246753D01*
X189693Y1248886D02*
X150667Y1248886D01*
X150667Y1251019D02*
X189693Y1251019D01*
X189693Y1253152D02*
X150667Y1253152D01*
X150667Y1255285D02*
X189693Y1255285D01*
X189693Y1257418D02*
X150667Y1257418D01*
X150667Y1281487D02*
X189693Y1281487D01*
X150667Y1281487D02*
X150667Y1296513D01*
X189693Y1296513D01*
X189693Y1281487D01*
X189693Y1283620D02*
X150667Y1283620D01*
X150667Y1285753D02*
X189693Y1285753D01*
X189693Y1287886D02*
X150667Y1287886D01*
X150667Y1290019D02*
X189693Y1290019D01*
X189693Y1292152D02*
X150667Y1292152D01*
X150667Y1294285D02*
X189693Y1294285D01*
X189693Y1296418D02*
X150667Y1296418D01*
D12*
X140398Y1238568D02*
X140398Y1228552D01*
X131382Y1228552D01*
X131382Y1238568D01*
X140398Y1238568D01*
X140398Y1230693D02*
X131382Y1230693D01*
X131382Y1232834D02*
X140398Y1232834D01*
X140398Y1234975D02*
X131382Y1234975D01*
X131382Y1237116D02*
X140398Y1237116D01*
X140398Y1245552D02*
X140398Y1255568D01*
X140398Y1245552D02*
X131382Y1245552D01*
X131382Y1255568D01*
X140398Y1255568D01*
X140398Y1247693D02*
X131382Y1247693D01*
X131382Y1249834D02*
X140398Y1249834D01*
X140398Y1251975D02*
X131382Y1251975D01*
X131382Y1254116D02*
X140398Y1254116D01*
X218758Y1280350D02*
X218758Y1290366D01*
X227774Y1290366D01*
X227774Y1280350D01*
X218758Y1280350D01*
X218758Y1282491D02*
X227774Y1282491D01*
X227774Y1284632D02*
X218758Y1284632D01*
X218758Y1286773D02*
X227774Y1286773D01*
X227774Y1288914D02*
X218758Y1288914D01*
X218758Y1273366D02*
X218758Y1263350D01*
X218758Y1273366D02*
X227774Y1273366D01*
X227774Y1263350D01*
X218758Y1263350D01*
X218758Y1265491D02*
X227774Y1265491D01*
X227774Y1267632D02*
X218758Y1267632D01*
X218758Y1269773D02*
X227774Y1269773D01*
X227774Y1271914D02*
X218758Y1271914D01*
X203518Y1280350D02*
X203518Y1290366D01*
X212534Y1290366D01*
X212534Y1280350D01*
X203518Y1280350D01*
X203518Y1282491D02*
X212534Y1282491D01*
X212534Y1284632D02*
X203518Y1284632D01*
X203518Y1286773D02*
X212534Y1286773D01*
X212534Y1288914D02*
X203518Y1288914D01*
X203518Y1273366D02*
X203518Y1263350D01*
X203518Y1273366D02*
X212534Y1273366D01*
X212534Y1263350D01*
X203518Y1263350D01*
X203518Y1265491D02*
X212534Y1265491D01*
X212534Y1267632D02*
X203518Y1267632D01*
X203518Y1269773D02*
X212534Y1269773D01*
X212534Y1271914D02*
X203518Y1271914D01*
D19*
X213018Y1199898D02*
X213018Y1188162D01*
X193382Y1188162D01*
X193382Y1199898D01*
X213018Y1199898D01*
X213018Y1190285D02*
X193382Y1190285D01*
X193382Y1192408D02*
X213018Y1192408D01*
X213018Y1194531D02*
X193382Y1194531D01*
X193382Y1196654D02*
X213018Y1196654D01*
X213018Y1198777D02*
X193382Y1198777D01*
X213018Y1223262D02*
X213018Y1234998D01*
X213018Y1223262D02*
X193382Y1223262D01*
X193382Y1234998D01*
X213018Y1234998D01*
X213018Y1225385D02*
X193382Y1225385D01*
X193382Y1227508D02*
X213018Y1227508D01*
X213018Y1229631D02*
X193382Y1229631D01*
X193382Y1231754D02*
X213018Y1231754D01*
X213018Y1233877D02*
X193382Y1233877D01*
D12*
X161608Y1181672D02*
X151592Y1181672D01*
X151592Y1190688D01*
X161608Y1190688D01*
X161608Y1181672D01*
X161608Y1183813D02*
X151592Y1183813D01*
X151592Y1185954D02*
X161608Y1185954D01*
X161608Y1188095D02*
X151592Y1188095D01*
X151592Y1190236D02*
X161608Y1190236D01*
X168592Y1181672D02*
X178608Y1181672D01*
X168592Y1181672D02*
X168592Y1190688D01*
X178608Y1190688D01*
X178608Y1181672D01*
X178608Y1183813D02*
X168592Y1183813D01*
X168592Y1185954D02*
X178608Y1185954D01*
X178608Y1188095D02*
X168592Y1188095D01*
X168592Y1190236D02*
X178608Y1190236D01*
D20*
X60812Y1374798D02*
X60812Y1382322D01*
X60812Y1374798D02*
X44788Y1374798D01*
X44788Y1382322D01*
X60812Y1382322D01*
X60812Y1376933D02*
X44788Y1376933D01*
X44788Y1379068D02*
X60812Y1379068D01*
X60812Y1381203D02*
X44788Y1381203D01*
X90812Y1362322D02*
X90812Y1354798D01*
X74788Y1354798D01*
X74788Y1362322D01*
X90812Y1362322D01*
X90812Y1356933D02*
X74788Y1356933D01*
X74788Y1359068D02*
X90812Y1359068D01*
X90812Y1361203D02*
X74788Y1361203D01*
X60812Y1342322D02*
X60812Y1334798D01*
X44788Y1334798D01*
X44788Y1342322D01*
X60812Y1342322D01*
X60812Y1336933D02*
X44788Y1336933D01*
X44788Y1339068D02*
X60812Y1339068D01*
X60812Y1341203D02*
X44788Y1341203D01*
X90812Y1322322D02*
X90812Y1314798D01*
X74788Y1314798D01*
X74788Y1322322D01*
X90812Y1322322D01*
X90812Y1316933D02*
X74788Y1316933D01*
X74788Y1319068D02*
X90812Y1319068D01*
X90812Y1321203D02*
X74788Y1321203D01*
X60812Y1302322D02*
X60812Y1294798D01*
X44788Y1294798D01*
X44788Y1302322D01*
X60812Y1302322D01*
X60812Y1296933D02*
X44788Y1296933D01*
X44788Y1299068D02*
X60812Y1299068D01*
X60812Y1301203D02*
X44788Y1301203D01*
X90812Y1282322D02*
X90812Y1274798D01*
X74788Y1274798D01*
X74788Y1282322D01*
X90812Y1282322D01*
X90812Y1276933D02*
X74788Y1276933D01*
X74788Y1279068D02*
X90812Y1279068D01*
X90812Y1281203D02*
X74788Y1281203D01*
X60812Y1262322D02*
X60812Y1254798D01*
X44788Y1254798D01*
X44788Y1262322D01*
X60812Y1262322D01*
X60812Y1256933D02*
X44788Y1256933D01*
X44788Y1259068D02*
X60812Y1259068D01*
X60812Y1261203D02*
X44788Y1261203D01*
X90812Y1242322D02*
X90812Y1234798D01*
X74788Y1234798D01*
X74788Y1242322D01*
X90812Y1242322D01*
X90812Y1236933D02*
X74788Y1236933D01*
X74788Y1239068D02*
X90812Y1239068D01*
X90812Y1241203D02*
X74788Y1241203D01*
X60812Y1222322D02*
X60812Y1214798D01*
X44788Y1214798D01*
X44788Y1222322D01*
X60812Y1222322D01*
X60812Y1216933D02*
X44788Y1216933D01*
X44788Y1219068D02*
X60812Y1219068D01*
X60812Y1221203D02*
X44788Y1221203D01*
X90812Y1202322D02*
X90812Y1194798D01*
X74788Y1194798D01*
X74788Y1202322D01*
X90812Y1202322D01*
X90812Y1196933D02*
X74788Y1196933D01*
X74788Y1199068D02*
X90812Y1199068D01*
X90812Y1201203D02*
X74788Y1201203D01*
X310812Y1202322D02*
X310812Y1194798D01*
X294788Y1194798D01*
X294788Y1202322D01*
X310812Y1202322D01*
X310812Y1196933D02*
X294788Y1196933D01*
X294788Y1199068D02*
X310812Y1199068D01*
X310812Y1201203D02*
X294788Y1201203D01*
X280812Y1214798D02*
X280812Y1222322D01*
X280812Y1214798D02*
X264788Y1214798D01*
X264788Y1222322D01*
X280812Y1222322D01*
X280812Y1216933D02*
X264788Y1216933D01*
X264788Y1219068D02*
X280812Y1219068D01*
X280812Y1221203D02*
X264788Y1221203D01*
X310812Y1234798D02*
X310812Y1242322D01*
X310812Y1234798D02*
X294788Y1234798D01*
X294788Y1242322D01*
X310812Y1242322D01*
X310812Y1236933D02*
X294788Y1236933D01*
X294788Y1239068D02*
X310812Y1239068D01*
X310812Y1241203D02*
X294788Y1241203D01*
X280812Y1254798D02*
X280812Y1262322D01*
X280812Y1254798D02*
X264788Y1254798D01*
X264788Y1262322D01*
X280812Y1262322D01*
X280812Y1256933D02*
X264788Y1256933D01*
X264788Y1259068D02*
X280812Y1259068D01*
X280812Y1261203D02*
X264788Y1261203D01*
X310812Y1274798D02*
X310812Y1282322D01*
X310812Y1274798D02*
X294788Y1274798D01*
X294788Y1282322D01*
X310812Y1282322D01*
X310812Y1276933D02*
X294788Y1276933D01*
X294788Y1279068D02*
X310812Y1279068D01*
X310812Y1281203D02*
X294788Y1281203D01*
X280812Y1294798D02*
X280812Y1302322D01*
X280812Y1294798D02*
X264788Y1294798D01*
X264788Y1302322D01*
X280812Y1302322D01*
X280812Y1296933D02*
X264788Y1296933D01*
X264788Y1299068D02*
X280812Y1299068D01*
X280812Y1301203D02*
X264788Y1301203D01*
X310812Y1314798D02*
X310812Y1322322D01*
X310812Y1314798D02*
X294788Y1314798D01*
X294788Y1322322D01*
X310812Y1322322D01*
X310812Y1316933D02*
X294788Y1316933D01*
X294788Y1319068D02*
X310812Y1319068D01*
X310812Y1321203D02*
X294788Y1321203D01*
X280812Y1334798D02*
X280812Y1342322D01*
X280812Y1334798D02*
X264788Y1334798D01*
X264788Y1342322D01*
X280812Y1342322D01*
X280812Y1336933D02*
X264788Y1336933D01*
X264788Y1339068D02*
X280812Y1339068D01*
X280812Y1341203D02*
X264788Y1341203D01*
X310812Y1354798D02*
X310812Y1362322D01*
X310812Y1354798D02*
X294788Y1354798D01*
X294788Y1362322D01*
X310812Y1362322D01*
X310812Y1356933D02*
X294788Y1356933D01*
X294788Y1359068D02*
X310812Y1359068D01*
X310812Y1361203D02*
X294788Y1361203D01*
X280812Y1374798D02*
X280812Y1382322D01*
X280812Y1374798D02*
X264788Y1374798D01*
X264788Y1382322D01*
X280812Y1382322D01*
X280812Y1376933D02*
X264788Y1376933D01*
X264788Y1379068D02*
X280812Y1379068D01*
X280812Y1381203D02*
X264788Y1381203D01*
D12*
X38908Y1304988D02*
X28892Y1304988D01*
X38908Y1304988D02*
X38908Y1295972D01*
X28892Y1295972D01*
X28892Y1304988D01*
X28892Y1298113D02*
X38908Y1298113D01*
X38908Y1300254D02*
X28892Y1300254D01*
X28892Y1302395D02*
X38908Y1302395D01*
X38908Y1304536D02*
X28892Y1304536D01*
X21908Y1304988D02*
X11892Y1304988D01*
X21908Y1304988D02*
X21908Y1295972D01*
X11892Y1295972D01*
X11892Y1304988D01*
X11892Y1298113D02*
X21908Y1298113D01*
X21908Y1300254D02*
X11892Y1300254D01*
X11892Y1302395D02*
X21908Y1302395D01*
X21908Y1304536D02*
X11892Y1304536D01*
X28892Y1351978D02*
X38908Y1351978D01*
X38908Y1342962D01*
X28892Y1342962D01*
X28892Y1351978D01*
X28892Y1345103D02*
X38908Y1345103D01*
X38908Y1347244D02*
X28892Y1347244D01*
X28892Y1349385D02*
X38908Y1349385D01*
X38908Y1351526D02*
X28892Y1351526D01*
X21908Y1351978D02*
X11892Y1351978D01*
X21908Y1351978D02*
X21908Y1342962D01*
X11892Y1342962D01*
X11892Y1351978D01*
X11892Y1345103D02*
X21908Y1345103D01*
X21908Y1347244D02*
X11892Y1347244D01*
X11892Y1349385D02*
X21908Y1349385D01*
X21908Y1351526D02*
X11892Y1351526D01*
X28892Y1336738D02*
X38908Y1336738D01*
X38908Y1327722D01*
X28892Y1327722D01*
X28892Y1336738D01*
X28892Y1329863D02*
X38908Y1329863D01*
X38908Y1332004D02*
X28892Y1332004D01*
X28892Y1334145D02*
X38908Y1334145D01*
X38908Y1336286D02*
X28892Y1336286D01*
X21908Y1336738D02*
X11892Y1336738D01*
X21908Y1336738D02*
X21908Y1327722D01*
X11892Y1327722D01*
X11892Y1336738D01*
X11892Y1329863D02*
X21908Y1329863D01*
X21908Y1332004D02*
X11892Y1332004D01*
X11892Y1334145D02*
X21908Y1334145D01*
X21908Y1336286D02*
X11892Y1336286D01*
X28892Y1321498D02*
X38908Y1321498D01*
X38908Y1312482D01*
X28892Y1312482D01*
X28892Y1321498D01*
X28892Y1314623D02*
X38908Y1314623D01*
X38908Y1316764D02*
X28892Y1316764D01*
X28892Y1318905D02*
X38908Y1318905D01*
X38908Y1321046D02*
X28892Y1321046D01*
X21908Y1321498D02*
X11892Y1321498D01*
X21908Y1321498D02*
X21908Y1312482D01*
X11892Y1312482D01*
X11892Y1321498D01*
X11892Y1314623D02*
X21908Y1314623D01*
X21908Y1316764D02*
X11892Y1316764D01*
X11892Y1318905D02*
X21908Y1318905D01*
X21908Y1321046D02*
X11892Y1321046D01*
D21*
X330200Y1546860D03*
X330200Y1076960D03*
X25400Y1546860D03*
X25400Y1076960D03*
D16*
X339286Y1140776D02*
X339286Y1147764D01*
X346274Y1147764D01*
X346274Y1140776D01*
X339286Y1140776D01*
X339286Y1144845D02*
X346274Y1144845D01*
X321746Y1147764D02*
X321746Y1140776D01*
X321746Y1147764D02*
X328734Y1147764D01*
X328734Y1140776D01*
X321746Y1140776D01*
X321746Y1144845D02*
X328734Y1144845D01*
D12*
X298768Y1139762D02*
X288752Y1139762D01*
X288752Y1148778D01*
X298768Y1148778D01*
X298768Y1139762D01*
X298768Y1141903D02*
X288752Y1141903D01*
X288752Y1144044D02*
X298768Y1144044D01*
X298768Y1146185D02*
X288752Y1146185D01*
X288752Y1148326D02*
X298768Y1148326D01*
X305752Y1139762D02*
X315768Y1139762D01*
X305752Y1139762D02*
X305752Y1148778D01*
X315768Y1148778D01*
X315768Y1139762D01*
X315768Y1141903D02*
X305752Y1141903D01*
X305752Y1144044D02*
X315768Y1144044D01*
X315768Y1146185D02*
X305752Y1146185D01*
X305752Y1148326D02*
X315768Y1148326D01*
D15*
X241300Y1127760D03*
X114300Y1127760D03*
D12*
X38908Y1367218D02*
X28892Y1367218D01*
X38908Y1367218D02*
X38908Y1358202D01*
X28892Y1358202D01*
X28892Y1367218D01*
X28892Y1360343D02*
X38908Y1360343D01*
X38908Y1362484D02*
X28892Y1362484D01*
X28892Y1364625D02*
X38908Y1364625D01*
X38908Y1366766D02*
X28892Y1366766D01*
X21908Y1367218D02*
X11892Y1367218D01*
X21908Y1367218D02*
X21908Y1358202D01*
X11892Y1358202D01*
X11892Y1367218D01*
X11892Y1360343D02*
X21908Y1360343D01*
X21908Y1362484D02*
X11892Y1362484D01*
X11892Y1364625D02*
X21908Y1364625D01*
X21908Y1366766D02*
X11892Y1366766D01*
X28892Y1382458D02*
X38908Y1382458D01*
X38908Y1373442D01*
X28892Y1373442D01*
X28892Y1382458D01*
X28892Y1375583D02*
X38908Y1375583D01*
X38908Y1377724D02*
X28892Y1377724D01*
X28892Y1379865D02*
X38908Y1379865D01*
X38908Y1382006D02*
X28892Y1382006D01*
X21908Y1382458D02*
X11892Y1382458D01*
X21908Y1382458D02*
X21908Y1373442D01*
X11892Y1373442D01*
X11892Y1382458D01*
X11892Y1375583D02*
X21908Y1375583D01*
X21908Y1377724D02*
X11892Y1377724D01*
X11892Y1379865D02*
X21908Y1379865D01*
X21908Y1382006D02*
X11892Y1382006D01*
D10*
X504973Y1056103D02*
X515987Y1056103D01*
X504973Y1056103D02*
X504973Y1075117D01*
X515987Y1075117D01*
X515987Y1056103D01*
X515987Y1058246D02*
X504973Y1058246D01*
X504973Y1060389D02*
X515987Y1060389D01*
X515987Y1062532D02*
X504973Y1062532D01*
X504973Y1064675D02*
X515987Y1064675D01*
X515987Y1066818D02*
X504973Y1066818D01*
X504973Y1068961D02*
X515987Y1068961D01*
X515987Y1071104D02*
X504973Y1071104D01*
X504973Y1073247D02*
X515987Y1073247D01*
X560973Y1056103D02*
X571987Y1056103D01*
X560973Y1056103D02*
X560973Y1075117D01*
X571987Y1075117D01*
X571987Y1056103D01*
X571987Y1058246D02*
X560973Y1058246D01*
X560973Y1060389D02*
X571987Y1060389D01*
X571987Y1062532D02*
X560973Y1062532D01*
X560973Y1064675D02*
X571987Y1064675D01*
X571987Y1066818D02*
X560973Y1066818D01*
X560973Y1068961D02*
X571987Y1068961D01*
X571987Y1071104D02*
X560973Y1071104D01*
X560973Y1073247D02*
X571987Y1073247D01*
D11*
X525988Y1096102D02*
X520972Y1096102D01*
X520972Y1108618D01*
X525988Y1108618D01*
X525988Y1096102D01*
X525988Y1098243D02*
X520972Y1098243D01*
X520972Y1100384D02*
X525988Y1100384D01*
X525988Y1102525D02*
X520972Y1102525D01*
X520972Y1104666D02*
X525988Y1104666D01*
X525988Y1106807D02*
X520972Y1106807D01*
X530972Y1096102D02*
X535988Y1096102D01*
X530972Y1096102D02*
X530972Y1108618D01*
X535988Y1108618D01*
X535988Y1096102D01*
X535988Y1098243D02*
X530972Y1098243D01*
X530972Y1100384D02*
X535988Y1100384D01*
X535988Y1102525D02*
X530972Y1102525D01*
X530972Y1104666D02*
X535988Y1104666D01*
X535988Y1106807D02*
X530972Y1106807D01*
X540972Y1096102D02*
X545988Y1096102D01*
X540972Y1096102D02*
X540972Y1108618D01*
X545988Y1108618D01*
X545988Y1096102D01*
X545988Y1098243D02*
X540972Y1098243D01*
X540972Y1100384D02*
X545988Y1100384D01*
X545988Y1102525D02*
X540972Y1102525D01*
X540972Y1104666D02*
X545988Y1104666D01*
X545988Y1106807D02*
X540972Y1106807D01*
X550972Y1096102D02*
X555988Y1096102D01*
X550972Y1096102D02*
X550972Y1108618D01*
X555988Y1108618D01*
X555988Y1096102D01*
X555988Y1098243D02*
X550972Y1098243D01*
X550972Y1100384D02*
X555988Y1100384D01*
X555988Y1102525D02*
X550972Y1102525D01*
X550972Y1104666D02*
X555988Y1104666D01*
X555988Y1106807D02*
X550972Y1106807D01*
D12*
X521272Y1149032D02*
X521272Y1159048D01*
X530288Y1159048D01*
X530288Y1149032D01*
X521272Y1149032D01*
X521272Y1151173D02*
X530288Y1151173D01*
X530288Y1153314D02*
X521272Y1153314D01*
X521272Y1155455D02*
X530288Y1155455D01*
X530288Y1157596D02*
X521272Y1157596D01*
X521272Y1142048D02*
X521272Y1132032D01*
X521272Y1142048D02*
X530288Y1142048D01*
X530288Y1132032D01*
X521272Y1132032D01*
X521272Y1134173D02*
X530288Y1134173D01*
X530288Y1136314D02*
X521272Y1136314D01*
X521272Y1138455D02*
X530288Y1138455D01*
X530288Y1140596D02*
X521272Y1140596D01*
X546672Y1149032D02*
X546672Y1159048D01*
X555688Y1159048D01*
X555688Y1149032D01*
X546672Y1149032D01*
X546672Y1151173D02*
X555688Y1151173D01*
X555688Y1153314D02*
X546672Y1153314D01*
X546672Y1155455D02*
X555688Y1155455D01*
X555688Y1157596D02*
X546672Y1157596D01*
X546672Y1142048D02*
X546672Y1132032D01*
X546672Y1142048D02*
X555688Y1142048D01*
X555688Y1132032D01*
X546672Y1132032D01*
X546672Y1134173D02*
X555688Y1134173D01*
X555688Y1136314D02*
X546672Y1136314D01*
X546672Y1138455D02*
X555688Y1138455D01*
X555688Y1140596D02*
X546672Y1140596D01*
D13*
X373380Y1432560D03*
X670560Y1061720D03*
D14*
X441484Y1099026D02*
X441484Y1105694D01*
X441484Y1099026D02*
X427196Y1099026D01*
X427196Y1105694D01*
X441484Y1105694D01*
X441484Y1101138D02*
X427196Y1101138D01*
X427196Y1103250D02*
X441484Y1103250D01*
X441484Y1105362D02*
X427196Y1105362D01*
X497364Y1105694D02*
X497364Y1099026D01*
X483076Y1099026D01*
X483076Y1105694D01*
X497364Y1105694D01*
X497364Y1101138D02*
X483076Y1101138D01*
X483076Y1103250D02*
X497364Y1103250D01*
X497364Y1105362D02*
X483076Y1105362D01*
X441484Y1067594D02*
X441484Y1060926D01*
X427196Y1060926D01*
X427196Y1067594D01*
X441484Y1067594D01*
X441484Y1063038D02*
X427196Y1063038D01*
X427196Y1065150D02*
X441484Y1065150D01*
X441484Y1067262D02*
X427196Y1067262D01*
X497364Y1067594D02*
X497364Y1060926D01*
X483076Y1060926D01*
X483076Y1067594D01*
X497364Y1067594D01*
X497364Y1063038D02*
X483076Y1063038D01*
X483076Y1065150D02*
X497364Y1065150D01*
X497364Y1067262D02*
X483076Y1067262D01*
X593884Y1099026D02*
X593884Y1105694D01*
X593884Y1099026D02*
X579596Y1099026D01*
X579596Y1105694D01*
X593884Y1105694D01*
X593884Y1101138D02*
X579596Y1101138D01*
X579596Y1103250D02*
X593884Y1103250D01*
X593884Y1105362D02*
X579596Y1105362D01*
X649764Y1105694D02*
X649764Y1099026D01*
X635476Y1099026D01*
X635476Y1105694D01*
X649764Y1105694D01*
X649764Y1101138D02*
X635476Y1101138D01*
X635476Y1103250D02*
X649764Y1103250D01*
X649764Y1105362D02*
X635476Y1105362D01*
X593884Y1067594D02*
X593884Y1060926D01*
X579596Y1060926D01*
X579596Y1067594D01*
X593884Y1067594D01*
X593884Y1063038D02*
X579596Y1063038D01*
X579596Y1065150D02*
X593884Y1065150D01*
X593884Y1067262D02*
X579596Y1067262D01*
X649764Y1067594D02*
X649764Y1060926D01*
X635476Y1060926D01*
X635476Y1067594D01*
X649764Y1067594D01*
X649764Y1063038D02*
X635476Y1063038D01*
X635476Y1065150D02*
X649764Y1065150D01*
X649764Y1067262D02*
X635476Y1067262D01*
D15*
X601980Y1381760D03*
X601980Y1356360D03*
X601980Y1330960D03*
X601980Y1305560D03*
X601980Y1280160D03*
X601980Y1254760D03*
X601980Y1229360D03*
X601980Y1203960D03*
X601980Y1178560D03*
X601980Y1153160D03*
X474980Y1381760D03*
X474980Y1356360D03*
X474980Y1330960D03*
X474980Y1305560D03*
X474980Y1280160D03*
X474980Y1254760D03*
X474980Y1229360D03*
X474980Y1203960D03*
X474980Y1178560D03*
X474980Y1153160D03*
D12*
X649432Y1109282D02*
X659448Y1109282D01*
X649432Y1109282D02*
X649432Y1118298D01*
X659448Y1118298D01*
X659448Y1109282D01*
X659448Y1111423D02*
X649432Y1111423D01*
X649432Y1113564D02*
X659448Y1113564D01*
X659448Y1115705D02*
X649432Y1115705D01*
X649432Y1117846D02*
X659448Y1117846D01*
X666432Y1109282D02*
X676448Y1109282D01*
X666432Y1109282D02*
X666432Y1118298D01*
X676448Y1118298D01*
X676448Y1109282D01*
X676448Y1111423D02*
X666432Y1111423D01*
X666432Y1113564D02*
X676448Y1113564D01*
X676448Y1115705D02*
X666432Y1115705D01*
X666432Y1117846D02*
X676448Y1117846D01*
D16*
X699966Y1117284D02*
X699966Y1110296D01*
X699966Y1117284D02*
X706954Y1117284D01*
X706954Y1110296D01*
X699966Y1110296D01*
X699966Y1114365D02*
X706954Y1114365D01*
X682426Y1117284D02*
X682426Y1110296D01*
X682426Y1117284D02*
X689414Y1117284D01*
X689414Y1110296D01*
X682426Y1110296D01*
X682426Y1114365D02*
X689414Y1114365D01*
X699966Y1171256D02*
X699966Y1178244D01*
X706954Y1178244D01*
X706954Y1171256D01*
X699966Y1171256D01*
X699966Y1175325D02*
X706954Y1175325D01*
X682426Y1178244D02*
X682426Y1171256D01*
X682426Y1178244D02*
X689414Y1178244D01*
X689414Y1171256D01*
X682426Y1171256D01*
X682426Y1175325D02*
X689414Y1175325D01*
D12*
X659448Y1170242D02*
X649432Y1170242D01*
X649432Y1179258D01*
X659448Y1179258D01*
X659448Y1170242D01*
X659448Y1172383D02*
X649432Y1172383D01*
X649432Y1174524D02*
X659448Y1174524D01*
X659448Y1176665D02*
X649432Y1176665D01*
X649432Y1178806D02*
X659448Y1178806D01*
X666432Y1170242D02*
X676448Y1170242D01*
X666432Y1170242D02*
X666432Y1179258D01*
X676448Y1179258D01*
X676448Y1170242D01*
X676448Y1172383D02*
X666432Y1172383D01*
X666432Y1174524D02*
X676448Y1174524D01*
X676448Y1176665D02*
X666432Y1176665D01*
X666432Y1178806D02*
X676448Y1178806D01*
D17*
X518548Y1196641D02*
X514012Y1196641D01*
X514012Y1209177D01*
X518548Y1209177D01*
X518548Y1196641D01*
X518548Y1198763D02*
X514012Y1198763D01*
X514012Y1200885D02*
X518548Y1200885D01*
X518548Y1203007D02*
X514012Y1203007D01*
X514012Y1205129D02*
X518548Y1205129D01*
X518548Y1207251D02*
X514012Y1207251D01*
X523512Y1196641D02*
X528048Y1196641D01*
X523512Y1196641D02*
X523512Y1209177D01*
X528048Y1209177D01*
X528048Y1196641D01*
X528048Y1198763D02*
X523512Y1198763D01*
X523512Y1200885D02*
X528048Y1200885D01*
X528048Y1203007D02*
X523512Y1203007D01*
X523512Y1205129D02*
X528048Y1205129D01*
X528048Y1207251D02*
X523512Y1207251D01*
X533012Y1196641D02*
X537548Y1196641D01*
X533012Y1196641D02*
X533012Y1209177D01*
X537548Y1209177D01*
X537548Y1196641D01*
X537548Y1198763D02*
X533012Y1198763D01*
X533012Y1200885D02*
X537548Y1200885D01*
X537548Y1203007D02*
X533012Y1203007D01*
X533012Y1205129D02*
X537548Y1205129D01*
X537548Y1207251D02*
X533012Y1207251D01*
X533012Y1224143D02*
X537548Y1224143D01*
X533012Y1224143D02*
X533012Y1236679D01*
X537548Y1236679D01*
X537548Y1224143D01*
X537548Y1226265D02*
X533012Y1226265D01*
X533012Y1228387D02*
X537548Y1228387D01*
X537548Y1230509D02*
X533012Y1230509D01*
X533012Y1232631D02*
X537548Y1232631D01*
X537548Y1234753D02*
X533012Y1234753D01*
X528048Y1224143D02*
X523512Y1224143D01*
X523512Y1236679D01*
X528048Y1236679D01*
X528048Y1224143D01*
X528048Y1226265D02*
X523512Y1226265D01*
X523512Y1228387D02*
X528048Y1228387D01*
X528048Y1230509D02*
X523512Y1230509D01*
X523512Y1232631D02*
X528048Y1232631D01*
X528048Y1234753D02*
X523512Y1234753D01*
X518548Y1224143D02*
X514012Y1224143D01*
X514012Y1236679D01*
X518548Y1236679D01*
X518548Y1224143D01*
X518548Y1226265D02*
X514012Y1226265D01*
X514012Y1228387D02*
X518548Y1228387D01*
X518548Y1230509D02*
X514012Y1230509D01*
X514012Y1232631D02*
X518548Y1232631D01*
X518548Y1234753D02*
X514012Y1234753D01*
D18*
X511347Y1242487D02*
X550373Y1242487D01*
X511347Y1242487D02*
X511347Y1257513D01*
X550373Y1257513D01*
X550373Y1242487D01*
X550373Y1244620D02*
X511347Y1244620D01*
X511347Y1246753D02*
X550373Y1246753D01*
X550373Y1248886D02*
X511347Y1248886D01*
X511347Y1251019D02*
X550373Y1251019D01*
X550373Y1253152D02*
X511347Y1253152D01*
X511347Y1255285D02*
X550373Y1255285D01*
X550373Y1257418D02*
X511347Y1257418D01*
X511347Y1281487D02*
X550373Y1281487D01*
X511347Y1281487D02*
X511347Y1296513D01*
X550373Y1296513D01*
X550373Y1281487D01*
X550373Y1283620D02*
X511347Y1283620D01*
X511347Y1285753D02*
X550373Y1285753D01*
X550373Y1287886D02*
X511347Y1287886D01*
X511347Y1290019D02*
X550373Y1290019D01*
X550373Y1292152D02*
X511347Y1292152D01*
X511347Y1294285D02*
X550373Y1294285D01*
X550373Y1296418D02*
X511347Y1296418D01*
D12*
X501078Y1238568D02*
X501078Y1228552D01*
X492062Y1228552D01*
X492062Y1238568D01*
X501078Y1238568D01*
X501078Y1230693D02*
X492062Y1230693D01*
X492062Y1232834D02*
X501078Y1232834D01*
X501078Y1234975D02*
X492062Y1234975D01*
X492062Y1237116D02*
X501078Y1237116D01*
X501078Y1245552D02*
X501078Y1255568D01*
X501078Y1245552D02*
X492062Y1245552D01*
X492062Y1255568D01*
X501078Y1255568D01*
X501078Y1247693D02*
X492062Y1247693D01*
X492062Y1249834D02*
X501078Y1249834D01*
X501078Y1251975D02*
X492062Y1251975D01*
X492062Y1254116D02*
X501078Y1254116D01*
X579438Y1280350D02*
X579438Y1290366D01*
X588454Y1290366D01*
X588454Y1280350D01*
X579438Y1280350D01*
X579438Y1282491D02*
X588454Y1282491D01*
X588454Y1284632D02*
X579438Y1284632D01*
X579438Y1286773D02*
X588454Y1286773D01*
X588454Y1288914D02*
X579438Y1288914D01*
X579438Y1273366D02*
X579438Y1263350D01*
X579438Y1273366D02*
X588454Y1273366D01*
X588454Y1263350D01*
X579438Y1263350D01*
X579438Y1265491D02*
X588454Y1265491D01*
X588454Y1267632D02*
X579438Y1267632D01*
X579438Y1269773D02*
X588454Y1269773D01*
X588454Y1271914D02*
X579438Y1271914D01*
X564198Y1280350D02*
X564198Y1290366D01*
X573214Y1290366D01*
X573214Y1280350D01*
X564198Y1280350D01*
X564198Y1282491D02*
X573214Y1282491D01*
X573214Y1284632D02*
X564198Y1284632D01*
X564198Y1286773D02*
X573214Y1286773D01*
X573214Y1288914D02*
X564198Y1288914D01*
X564198Y1273366D02*
X564198Y1263350D01*
X564198Y1273366D02*
X573214Y1273366D01*
X573214Y1263350D01*
X564198Y1263350D01*
X564198Y1265491D02*
X573214Y1265491D01*
X573214Y1267632D02*
X564198Y1267632D01*
X564198Y1269773D02*
X573214Y1269773D01*
X573214Y1271914D02*
X564198Y1271914D01*
D19*
X573698Y1199898D02*
X573698Y1188162D01*
X554062Y1188162D01*
X554062Y1199898D01*
X573698Y1199898D01*
X573698Y1190285D02*
X554062Y1190285D01*
X554062Y1192408D02*
X573698Y1192408D01*
X573698Y1194531D02*
X554062Y1194531D01*
X554062Y1196654D02*
X573698Y1196654D01*
X573698Y1198777D02*
X554062Y1198777D01*
X573698Y1223262D02*
X573698Y1234998D01*
X573698Y1223262D02*
X554062Y1223262D01*
X554062Y1234998D01*
X573698Y1234998D01*
X573698Y1225385D02*
X554062Y1225385D01*
X554062Y1227508D02*
X573698Y1227508D01*
X573698Y1229631D02*
X554062Y1229631D01*
X554062Y1231754D02*
X573698Y1231754D01*
X573698Y1233877D02*
X554062Y1233877D01*
D12*
X522288Y1181672D02*
X512272Y1181672D01*
X512272Y1190688D01*
X522288Y1190688D01*
X522288Y1181672D01*
X522288Y1183813D02*
X512272Y1183813D01*
X512272Y1185954D02*
X522288Y1185954D01*
X522288Y1188095D02*
X512272Y1188095D01*
X512272Y1190236D02*
X522288Y1190236D01*
X529272Y1181672D02*
X539288Y1181672D01*
X529272Y1181672D02*
X529272Y1190688D01*
X539288Y1190688D01*
X539288Y1181672D01*
X539288Y1183813D02*
X529272Y1183813D01*
X529272Y1185954D02*
X539288Y1185954D01*
X539288Y1188095D02*
X529272Y1188095D01*
X529272Y1190236D02*
X539288Y1190236D01*
D20*
X421492Y1374798D02*
X421492Y1382322D01*
X421492Y1374798D02*
X405468Y1374798D01*
X405468Y1382322D01*
X421492Y1382322D01*
X421492Y1376933D02*
X405468Y1376933D01*
X405468Y1379068D02*
X421492Y1379068D01*
X421492Y1381203D02*
X405468Y1381203D01*
X451492Y1362322D02*
X451492Y1354798D01*
X435468Y1354798D01*
X435468Y1362322D01*
X451492Y1362322D01*
X451492Y1356933D02*
X435468Y1356933D01*
X435468Y1359068D02*
X451492Y1359068D01*
X451492Y1361203D02*
X435468Y1361203D01*
X421492Y1342322D02*
X421492Y1334798D01*
X405468Y1334798D01*
X405468Y1342322D01*
X421492Y1342322D01*
X421492Y1336933D02*
X405468Y1336933D01*
X405468Y1339068D02*
X421492Y1339068D01*
X421492Y1341203D02*
X405468Y1341203D01*
X451492Y1322322D02*
X451492Y1314798D01*
X435468Y1314798D01*
X435468Y1322322D01*
X451492Y1322322D01*
X451492Y1316933D02*
X435468Y1316933D01*
X435468Y1319068D02*
X451492Y1319068D01*
X451492Y1321203D02*
X435468Y1321203D01*
X421492Y1302322D02*
X421492Y1294798D01*
X405468Y1294798D01*
X405468Y1302322D01*
X421492Y1302322D01*
X421492Y1296933D02*
X405468Y1296933D01*
X405468Y1299068D02*
X421492Y1299068D01*
X421492Y1301203D02*
X405468Y1301203D01*
X451492Y1282322D02*
X451492Y1274798D01*
X435468Y1274798D01*
X435468Y1282322D01*
X451492Y1282322D01*
X451492Y1276933D02*
X435468Y1276933D01*
X435468Y1279068D02*
X451492Y1279068D01*
X451492Y1281203D02*
X435468Y1281203D01*
X421492Y1262322D02*
X421492Y1254798D01*
X405468Y1254798D01*
X405468Y1262322D01*
X421492Y1262322D01*
X421492Y1256933D02*
X405468Y1256933D01*
X405468Y1259068D02*
X421492Y1259068D01*
X421492Y1261203D02*
X405468Y1261203D01*
X451492Y1242322D02*
X451492Y1234798D01*
X435468Y1234798D01*
X435468Y1242322D01*
X451492Y1242322D01*
X451492Y1236933D02*
X435468Y1236933D01*
X435468Y1239068D02*
X451492Y1239068D01*
X451492Y1241203D02*
X435468Y1241203D01*
X421492Y1222322D02*
X421492Y1214798D01*
X405468Y1214798D01*
X405468Y1222322D01*
X421492Y1222322D01*
X421492Y1216933D02*
X405468Y1216933D01*
X405468Y1219068D02*
X421492Y1219068D01*
X421492Y1221203D02*
X405468Y1221203D01*
X451492Y1202322D02*
X451492Y1194798D01*
X435468Y1194798D01*
X435468Y1202322D01*
X451492Y1202322D01*
X451492Y1196933D02*
X435468Y1196933D01*
X435468Y1199068D02*
X451492Y1199068D01*
X451492Y1201203D02*
X435468Y1201203D01*
X671492Y1202322D02*
X671492Y1194798D01*
X655468Y1194798D01*
X655468Y1202322D01*
X671492Y1202322D01*
X671492Y1196933D02*
X655468Y1196933D01*
X655468Y1199068D02*
X671492Y1199068D01*
X671492Y1201203D02*
X655468Y1201203D01*
X641492Y1214798D02*
X641492Y1222322D01*
X641492Y1214798D02*
X625468Y1214798D01*
X625468Y1222322D01*
X641492Y1222322D01*
X641492Y1216933D02*
X625468Y1216933D01*
X625468Y1219068D02*
X641492Y1219068D01*
X641492Y1221203D02*
X625468Y1221203D01*
X671492Y1234798D02*
X671492Y1242322D01*
X671492Y1234798D02*
X655468Y1234798D01*
X655468Y1242322D01*
X671492Y1242322D01*
X671492Y1236933D02*
X655468Y1236933D01*
X655468Y1239068D02*
X671492Y1239068D01*
X671492Y1241203D02*
X655468Y1241203D01*
X641492Y1254798D02*
X641492Y1262322D01*
X641492Y1254798D02*
X625468Y1254798D01*
X625468Y1262322D01*
X641492Y1262322D01*
X641492Y1256933D02*
X625468Y1256933D01*
X625468Y1259068D02*
X641492Y1259068D01*
X641492Y1261203D02*
X625468Y1261203D01*
X671492Y1274798D02*
X671492Y1282322D01*
X671492Y1274798D02*
X655468Y1274798D01*
X655468Y1282322D01*
X671492Y1282322D01*
X671492Y1276933D02*
X655468Y1276933D01*
X655468Y1279068D02*
X671492Y1279068D01*
X671492Y1281203D02*
X655468Y1281203D01*
X641492Y1294798D02*
X641492Y1302322D01*
X641492Y1294798D02*
X625468Y1294798D01*
X625468Y1302322D01*
X641492Y1302322D01*
X641492Y1296933D02*
X625468Y1296933D01*
X625468Y1299068D02*
X641492Y1299068D01*
X641492Y1301203D02*
X625468Y1301203D01*
X671492Y1314798D02*
X671492Y1322322D01*
X671492Y1314798D02*
X655468Y1314798D01*
X655468Y1322322D01*
X671492Y1322322D01*
X671492Y1316933D02*
X655468Y1316933D01*
X655468Y1319068D02*
X671492Y1319068D01*
X671492Y1321203D02*
X655468Y1321203D01*
X641492Y1334798D02*
X641492Y1342322D01*
X641492Y1334798D02*
X625468Y1334798D01*
X625468Y1342322D01*
X641492Y1342322D01*
X641492Y1336933D02*
X625468Y1336933D01*
X625468Y1339068D02*
X641492Y1339068D01*
X641492Y1341203D02*
X625468Y1341203D01*
X671492Y1354798D02*
X671492Y1362322D01*
X671492Y1354798D02*
X655468Y1354798D01*
X655468Y1362322D01*
X671492Y1362322D01*
X671492Y1356933D02*
X655468Y1356933D01*
X655468Y1359068D02*
X671492Y1359068D01*
X671492Y1361203D02*
X655468Y1361203D01*
X641492Y1374798D02*
X641492Y1382322D01*
X641492Y1374798D02*
X625468Y1374798D01*
X625468Y1382322D01*
X641492Y1382322D01*
X641492Y1376933D02*
X625468Y1376933D01*
X625468Y1379068D02*
X641492Y1379068D01*
X641492Y1381203D02*
X625468Y1381203D01*
D12*
X399588Y1304988D02*
X389572Y1304988D01*
X399588Y1304988D02*
X399588Y1295972D01*
X389572Y1295972D01*
X389572Y1304988D01*
X389572Y1298113D02*
X399588Y1298113D01*
X399588Y1300254D02*
X389572Y1300254D01*
X389572Y1302395D02*
X399588Y1302395D01*
X399588Y1304536D02*
X389572Y1304536D01*
X382588Y1304988D02*
X372572Y1304988D01*
X382588Y1304988D02*
X382588Y1295972D01*
X372572Y1295972D01*
X372572Y1304988D01*
X372572Y1298113D02*
X382588Y1298113D01*
X382588Y1300254D02*
X372572Y1300254D01*
X372572Y1302395D02*
X382588Y1302395D01*
X382588Y1304536D02*
X372572Y1304536D01*
X389572Y1351978D02*
X399588Y1351978D01*
X399588Y1342962D01*
X389572Y1342962D01*
X389572Y1351978D01*
X389572Y1345103D02*
X399588Y1345103D01*
X399588Y1347244D02*
X389572Y1347244D01*
X389572Y1349385D02*
X399588Y1349385D01*
X399588Y1351526D02*
X389572Y1351526D01*
X382588Y1351978D02*
X372572Y1351978D01*
X382588Y1351978D02*
X382588Y1342962D01*
X372572Y1342962D01*
X372572Y1351978D01*
X372572Y1345103D02*
X382588Y1345103D01*
X382588Y1347244D02*
X372572Y1347244D01*
X372572Y1349385D02*
X382588Y1349385D01*
X382588Y1351526D02*
X372572Y1351526D01*
X389572Y1336738D02*
X399588Y1336738D01*
X399588Y1327722D01*
X389572Y1327722D01*
X389572Y1336738D01*
X389572Y1329863D02*
X399588Y1329863D01*
X399588Y1332004D02*
X389572Y1332004D01*
X389572Y1334145D02*
X399588Y1334145D01*
X399588Y1336286D02*
X389572Y1336286D01*
X382588Y1336738D02*
X372572Y1336738D01*
X382588Y1336738D02*
X382588Y1327722D01*
X372572Y1327722D01*
X372572Y1336738D01*
X372572Y1329863D02*
X382588Y1329863D01*
X382588Y1332004D02*
X372572Y1332004D01*
X372572Y1334145D02*
X382588Y1334145D01*
X382588Y1336286D02*
X372572Y1336286D01*
X389572Y1321498D02*
X399588Y1321498D01*
X399588Y1312482D01*
X389572Y1312482D01*
X389572Y1321498D01*
X389572Y1314623D02*
X399588Y1314623D01*
X399588Y1316764D02*
X389572Y1316764D01*
X389572Y1318905D02*
X399588Y1318905D01*
X399588Y1321046D02*
X389572Y1321046D01*
X382588Y1321498D02*
X372572Y1321498D01*
X382588Y1321498D02*
X382588Y1312482D01*
X372572Y1312482D01*
X372572Y1321498D01*
X372572Y1314623D02*
X382588Y1314623D01*
X382588Y1316764D02*
X372572Y1316764D01*
X372572Y1318905D02*
X382588Y1318905D01*
X382588Y1321046D02*
X372572Y1321046D01*
D21*
X690880Y1546860D03*
X690880Y1076960D03*
X386080Y1546860D03*
X386080Y1076960D03*
D16*
X699966Y1140776D02*
X699966Y1147764D01*
X706954Y1147764D01*
X706954Y1140776D01*
X699966Y1140776D01*
X699966Y1144845D02*
X706954Y1144845D01*
X682426Y1147764D02*
X682426Y1140776D01*
X682426Y1147764D02*
X689414Y1147764D01*
X689414Y1140776D01*
X682426Y1140776D01*
X682426Y1144845D02*
X689414Y1144845D01*
D12*
X659448Y1139762D02*
X649432Y1139762D01*
X649432Y1148778D01*
X659448Y1148778D01*
X659448Y1139762D01*
X659448Y1141903D02*
X649432Y1141903D01*
X649432Y1144044D02*
X659448Y1144044D01*
X659448Y1146185D02*
X649432Y1146185D01*
X649432Y1148326D02*
X659448Y1148326D01*
X666432Y1139762D02*
X676448Y1139762D01*
X666432Y1139762D02*
X666432Y1148778D01*
X676448Y1148778D01*
X676448Y1139762D01*
X676448Y1141903D02*
X666432Y1141903D01*
X666432Y1144044D02*
X676448Y1144044D01*
X676448Y1146185D02*
X666432Y1146185D01*
X666432Y1148326D02*
X676448Y1148326D01*
D15*
X601980Y1127760D03*
X474980Y1127760D03*
D12*
X399588Y1367218D02*
X389572Y1367218D01*
X399588Y1367218D02*
X399588Y1358202D01*
X389572Y1358202D01*
X389572Y1367218D01*
X389572Y1360343D02*
X399588Y1360343D01*
X399588Y1362484D02*
X389572Y1362484D01*
X389572Y1364625D02*
X399588Y1364625D01*
X399588Y1366766D02*
X389572Y1366766D01*
X382588Y1367218D02*
X372572Y1367218D01*
X382588Y1367218D02*
X382588Y1358202D01*
X372572Y1358202D01*
X372572Y1367218D01*
X372572Y1360343D02*
X382588Y1360343D01*
X382588Y1362484D02*
X372572Y1362484D01*
X372572Y1364625D02*
X382588Y1364625D01*
X382588Y1366766D02*
X372572Y1366766D01*
X389572Y1382458D02*
X399588Y1382458D01*
X399588Y1373442D01*
X389572Y1373442D01*
X389572Y1382458D01*
X389572Y1375583D02*
X399588Y1375583D01*
X399588Y1377724D02*
X389572Y1377724D01*
X389572Y1379865D02*
X399588Y1379865D01*
X399588Y1382006D02*
X389572Y1382006D01*
X382588Y1382458D02*
X372572Y1382458D01*
X382588Y1382458D02*
X382588Y1373442D01*
X372572Y1373442D01*
X372572Y1382458D01*
X372572Y1375583D02*
X382588Y1375583D01*
X382588Y1377724D02*
X372572Y1377724D01*
X372572Y1379865D02*
X382588Y1379865D01*
X382588Y1382006D02*
X372572Y1382006D01*
D10*
X865653Y1056103D02*
X876667Y1056103D01*
X865653Y1056103D02*
X865653Y1075117D01*
X876667Y1075117D01*
X876667Y1056103D01*
X876667Y1058246D02*
X865653Y1058246D01*
X865653Y1060389D02*
X876667Y1060389D01*
X876667Y1062532D02*
X865653Y1062532D01*
X865653Y1064675D02*
X876667Y1064675D01*
X876667Y1066818D02*
X865653Y1066818D01*
X865653Y1068961D02*
X876667Y1068961D01*
X876667Y1071104D02*
X865653Y1071104D01*
X865653Y1073247D02*
X876667Y1073247D01*
X921653Y1056103D02*
X932667Y1056103D01*
X921653Y1056103D02*
X921653Y1075117D01*
X932667Y1075117D01*
X932667Y1056103D01*
X932667Y1058246D02*
X921653Y1058246D01*
X921653Y1060389D02*
X932667Y1060389D01*
X932667Y1062532D02*
X921653Y1062532D01*
X921653Y1064675D02*
X932667Y1064675D01*
X932667Y1066818D02*
X921653Y1066818D01*
X921653Y1068961D02*
X932667Y1068961D01*
X932667Y1071104D02*
X921653Y1071104D01*
X921653Y1073247D02*
X932667Y1073247D01*
D11*
X886668Y1096102D02*
X881652Y1096102D01*
X881652Y1108618D01*
X886668Y1108618D01*
X886668Y1096102D01*
X886668Y1098243D02*
X881652Y1098243D01*
X881652Y1100384D02*
X886668Y1100384D01*
X886668Y1102525D02*
X881652Y1102525D01*
X881652Y1104666D02*
X886668Y1104666D01*
X886668Y1106807D02*
X881652Y1106807D01*
X891652Y1096102D02*
X896668Y1096102D01*
X891652Y1096102D02*
X891652Y1108618D01*
X896668Y1108618D01*
X896668Y1096102D01*
X896668Y1098243D02*
X891652Y1098243D01*
X891652Y1100384D02*
X896668Y1100384D01*
X896668Y1102525D02*
X891652Y1102525D01*
X891652Y1104666D02*
X896668Y1104666D01*
X896668Y1106807D02*
X891652Y1106807D01*
X901652Y1096102D02*
X906668Y1096102D01*
X901652Y1096102D02*
X901652Y1108618D01*
X906668Y1108618D01*
X906668Y1096102D01*
X906668Y1098243D02*
X901652Y1098243D01*
X901652Y1100384D02*
X906668Y1100384D01*
X906668Y1102525D02*
X901652Y1102525D01*
X901652Y1104666D02*
X906668Y1104666D01*
X906668Y1106807D02*
X901652Y1106807D01*
X911652Y1096102D02*
X916668Y1096102D01*
X911652Y1096102D02*
X911652Y1108618D01*
X916668Y1108618D01*
X916668Y1096102D01*
X916668Y1098243D02*
X911652Y1098243D01*
X911652Y1100384D02*
X916668Y1100384D01*
X916668Y1102525D02*
X911652Y1102525D01*
X911652Y1104666D02*
X916668Y1104666D01*
X916668Y1106807D02*
X911652Y1106807D01*
D12*
X881952Y1149032D02*
X881952Y1159048D01*
X890968Y1159048D01*
X890968Y1149032D01*
X881952Y1149032D01*
X881952Y1151173D02*
X890968Y1151173D01*
X890968Y1153314D02*
X881952Y1153314D01*
X881952Y1155455D02*
X890968Y1155455D01*
X890968Y1157596D02*
X881952Y1157596D01*
X881952Y1142048D02*
X881952Y1132032D01*
X881952Y1142048D02*
X890968Y1142048D01*
X890968Y1132032D01*
X881952Y1132032D01*
X881952Y1134173D02*
X890968Y1134173D01*
X890968Y1136314D02*
X881952Y1136314D01*
X881952Y1138455D02*
X890968Y1138455D01*
X890968Y1140596D02*
X881952Y1140596D01*
X907352Y1149032D02*
X907352Y1159048D01*
X916368Y1159048D01*
X916368Y1149032D01*
X907352Y1149032D01*
X907352Y1151173D02*
X916368Y1151173D01*
X916368Y1153314D02*
X907352Y1153314D01*
X907352Y1155455D02*
X916368Y1155455D01*
X916368Y1157596D02*
X907352Y1157596D01*
X907352Y1142048D02*
X907352Y1132032D01*
X907352Y1142048D02*
X916368Y1142048D01*
X916368Y1132032D01*
X907352Y1132032D01*
X907352Y1134173D02*
X916368Y1134173D01*
X916368Y1136314D02*
X907352Y1136314D01*
X907352Y1138455D02*
X916368Y1138455D01*
X916368Y1140596D02*
X907352Y1140596D01*
D13*
X734060Y1432560D03*
X1031240Y1061720D03*
D14*
X802164Y1099026D02*
X802164Y1105694D01*
X802164Y1099026D02*
X787876Y1099026D01*
X787876Y1105694D01*
X802164Y1105694D01*
X802164Y1101138D02*
X787876Y1101138D01*
X787876Y1103250D02*
X802164Y1103250D01*
X802164Y1105362D02*
X787876Y1105362D01*
X858044Y1105694D02*
X858044Y1099026D01*
X843756Y1099026D01*
X843756Y1105694D01*
X858044Y1105694D01*
X858044Y1101138D02*
X843756Y1101138D01*
X843756Y1103250D02*
X858044Y1103250D01*
X858044Y1105362D02*
X843756Y1105362D01*
X802164Y1067594D02*
X802164Y1060926D01*
X787876Y1060926D01*
X787876Y1067594D01*
X802164Y1067594D01*
X802164Y1063038D02*
X787876Y1063038D01*
X787876Y1065150D02*
X802164Y1065150D01*
X802164Y1067262D02*
X787876Y1067262D01*
X858044Y1067594D02*
X858044Y1060926D01*
X843756Y1060926D01*
X843756Y1067594D01*
X858044Y1067594D01*
X858044Y1063038D02*
X843756Y1063038D01*
X843756Y1065150D02*
X858044Y1065150D01*
X858044Y1067262D02*
X843756Y1067262D01*
X954564Y1099026D02*
X954564Y1105694D01*
X954564Y1099026D02*
X940276Y1099026D01*
X940276Y1105694D01*
X954564Y1105694D01*
X954564Y1101138D02*
X940276Y1101138D01*
X940276Y1103250D02*
X954564Y1103250D01*
X954564Y1105362D02*
X940276Y1105362D01*
X1010444Y1105694D02*
X1010444Y1099026D01*
X996156Y1099026D01*
X996156Y1105694D01*
X1010444Y1105694D01*
X1010444Y1101138D02*
X996156Y1101138D01*
X996156Y1103250D02*
X1010444Y1103250D01*
X1010444Y1105362D02*
X996156Y1105362D01*
X954564Y1067594D02*
X954564Y1060926D01*
X940276Y1060926D01*
X940276Y1067594D01*
X954564Y1067594D01*
X954564Y1063038D02*
X940276Y1063038D01*
X940276Y1065150D02*
X954564Y1065150D01*
X954564Y1067262D02*
X940276Y1067262D01*
X1010444Y1067594D02*
X1010444Y1060926D01*
X996156Y1060926D01*
X996156Y1067594D01*
X1010444Y1067594D01*
X1010444Y1063038D02*
X996156Y1063038D01*
X996156Y1065150D02*
X1010444Y1065150D01*
X1010444Y1067262D02*
X996156Y1067262D01*
D15*
X962660Y1381760D03*
X962660Y1356360D03*
X962660Y1330960D03*
X962660Y1305560D03*
X962660Y1280160D03*
X962660Y1254760D03*
X962660Y1229360D03*
X962660Y1203960D03*
X962660Y1178560D03*
X962660Y1153160D03*
X835660Y1381760D03*
X835660Y1356360D03*
X835660Y1330960D03*
X835660Y1305560D03*
X835660Y1280160D03*
X835660Y1254760D03*
X835660Y1229360D03*
X835660Y1203960D03*
X835660Y1178560D03*
X835660Y1153160D03*
D12*
X1010112Y1109282D02*
X1020128Y1109282D01*
X1010112Y1109282D02*
X1010112Y1118298D01*
X1020128Y1118298D01*
X1020128Y1109282D01*
X1020128Y1111423D02*
X1010112Y1111423D01*
X1010112Y1113564D02*
X1020128Y1113564D01*
X1020128Y1115705D02*
X1010112Y1115705D01*
X1010112Y1117846D02*
X1020128Y1117846D01*
X1027112Y1109282D02*
X1037128Y1109282D01*
X1027112Y1109282D02*
X1027112Y1118298D01*
X1037128Y1118298D01*
X1037128Y1109282D01*
X1037128Y1111423D02*
X1027112Y1111423D01*
X1027112Y1113564D02*
X1037128Y1113564D01*
X1037128Y1115705D02*
X1027112Y1115705D01*
X1027112Y1117846D02*
X1037128Y1117846D01*
D16*
X1060646Y1117284D02*
X1060646Y1110296D01*
X1060646Y1117284D02*
X1067634Y1117284D01*
X1067634Y1110296D01*
X1060646Y1110296D01*
X1060646Y1114365D02*
X1067634Y1114365D01*
X1043106Y1117284D02*
X1043106Y1110296D01*
X1043106Y1117284D02*
X1050094Y1117284D01*
X1050094Y1110296D01*
X1043106Y1110296D01*
X1043106Y1114365D02*
X1050094Y1114365D01*
X1060646Y1171256D02*
X1060646Y1178244D01*
X1067634Y1178244D01*
X1067634Y1171256D01*
X1060646Y1171256D01*
X1060646Y1175325D02*
X1067634Y1175325D01*
X1043106Y1178244D02*
X1043106Y1171256D01*
X1043106Y1178244D02*
X1050094Y1178244D01*
X1050094Y1171256D01*
X1043106Y1171256D01*
X1043106Y1175325D02*
X1050094Y1175325D01*
D12*
X1020128Y1170242D02*
X1010112Y1170242D01*
X1010112Y1179258D01*
X1020128Y1179258D01*
X1020128Y1170242D01*
X1020128Y1172383D02*
X1010112Y1172383D01*
X1010112Y1174524D02*
X1020128Y1174524D01*
X1020128Y1176665D02*
X1010112Y1176665D01*
X1010112Y1178806D02*
X1020128Y1178806D01*
X1027112Y1170242D02*
X1037128Y1170242D01*
X1027112Y1170242D02*
X1027112Y1179258D01*
X1037128Y1179258D01*
X1037128Y1170242D01*
X1037128Y1172383D02*
X1027112Y1172383D01*
X1027112Y1174524D02*
X1037128Y1174524D01*
X1037128Y1176665D02*
X1027112Y1176665D01*
X1027112Y1178806D02*
X1037128Y1178806D01*
D17*
X879228Y1196641D02*
X874692Y1196641D01*
X874692Y1209177D01*
X879228Y1209177D01*
X879228Y1196641D01*
X879228Y1198763D02*
X874692Y1198763D01*
X874692Y1200885D02*
X879228Y1200885D01*
X879228Y1203007D02*
X874692Y1203007D01*
X874692Y1205129D02*
X879228Y1205129D01*
X879228Y1207251D02*
X874692Y1207251D01*
X884192Y1196641D02*
X888728Y1196641D01*
X884192Y1196641D02*
X884192Y1209177D01*
X888728Y1209177D01*
X888728Y1196641D01*
X888728Y1198763D02*
X884192Y1198763D01*
X884192Y1200885D02*
X888728Y1200885D01*
X888728Y1203007D02*
X884192Y1203007D01*
X884192Y1205129D02*
X888728Y1205129D01*
X888728Y1207251D02*
X884192Y1207251D01*
X893692Y1196641D02*
X898228Y1196641D01*
X893692Y1196641D02*
X893692Y1209177D01*
X898228Y1209177D01*
X898228Y1196641D01*
X898228Y1198763D02*
X893692Y1198763D01*
X893692Y1200885D02*
X898228Y1200885D01*
X898228Y1203007D02*
X893692Y1203007D01*
X893692Y1205129D02*
X898228Y1205129D01*
X898228Y1207251D02*
X893692Y1207251D01*
X893692Y1224143D02*
X898228Y1224143D01*
X893692Y1224143D02*
X893692Y1236679D01*
X898228Y1236679D01*
X898228Y1224143D01*
X898228Y1226265D02*
X893692Y1226265D01*
X893692Y1228387D02*
X898228Y1228387D01*
X898228Y1230509D02*
X893692Y1230509D01*
X893692Y1232631D02*
X898228Y1232631D01*
X898228Y1234753D02*
X893692Y1234753D01*
X888728Y1224143D02*
X884192Y1224143D01*
X884192Y1236679D01*
X888728Y1236679D01*
X888728Y1224143D01*
X888728Y1226265D02*
X884192Y1226265D01*
X884192Y1228387D02*
X888728Y1228387D01*
X888728Y1230509D02*
X884192Y1230509D01*
X884192Y1232631D02*
X888728Y1232631D01*
X888728Y1234753D02*
X884192Y1234753D01*
X879228Y1224143D02*
X874692Y1224143D01*
X874692Y1236679D01*
X879228Y1236679D01*
X879228Y1224143D01*
X879228Y1226265D02*
X874692Y1226265D01*
X874692Y1228387D02*
X879228Y1228387D01*
X879228Y1230509D02*
X874692Y1230509D01*
X874692Y1232631D02*
X879228Y1232631D01*
X879228Y1234753D02*
X874692Y1234753D01*
D18*
X872027Y1242487D02*
X911053Y1242487D01*
X872027Y1242487D02*
X872027Y1257513D01*
X911053Y1257513D01*
X911053Y1242487D01*
X911053Y1244620D02*
X872027Y1244620D01*
X872027Y1246753D02*
X911053Y1246753D01*
X911053Y1248886D02*
X872027Y1248886D01*
X872027Y1251019D02*
X911053Y1251019D01*
X911053Y1253152D02*
X872027Y1253152D01*
X872027Y1255285D02*
X911053Y1255285D01*
X911053Y1257418D02*
X872027Y1257418D01*
X872027Y1281487D02*
X911053Y1281487D01*
X872027Y1281487D02*
X872027Y1296513D01*
X911053Y1296513D01*
X911053Y1281487D01*
X911053Y1283620D02*
X872027Y1283620D01*
X872027Y1285753D02*
X911053Y1285753D01*
X911053Y1287886D02*
X872027Y1287886D01*
X872027Y1290019D02*
X911053Y1290019D01*
X911053Y1292152D02*
X872027Y1292152D01*
X872027Y1294285D02*
X911053Y1294285D01*
X911053Y1296418D02*
X872027Y1296418D01*
D12*
X861758Y1238568D02*
X861758Y1228552D01*
X852742Y1228552D01*
X852742Y1238568D01*
X861758Y1238568D01*
X861758Y1230693D02*
X852742Y1230693D01*
X852742Y1232834D02*
X861758Y1232834D01*
X861758Y1234975D02*
X852742Y1234975D01*
X852742Y1237116D02*
X861758Y1237116D01*
X861758Y1245552D02*
X861758Y1255568D01*
X861758Y1245552D02*
X852742Y1245552D01*
X852742Y1255568D01*
X861758Y1255568D01*
X861758Y1247693D02*
X852742Y1247693D01*
X852742Y1249834D02*
X861758Y1249834D01*
X861758Y1251975D02*
X852742Y1251975D01*
X852742Y1254116D02*
X861758Y1254116D01*
X940118Y1280350D02*
X940118Y1290366D01*
X949134Y1290366D01*
X949134Y1280350D01*
X940118Y1280350D01*
X940118Y1282491D02*
X949134Y1282491D01*
X949134Y1284632D02*
X940118Y1284632D01*
X940118Y1286773D02*
X949134Y1286773D01*
X949134Y1288914D02*
X940118Y1288914D01*
X940118Y1273366D02*
X940118Y1263350D01*
X940118Y1273366D02*
X949134Y1273366D01*
X949134Y1263350D01*
X940118Y1263350D01*
X940118Y1265491D02*
X949134Y1265491D01*
X949134Y1267632D02*
X940118Y1267632D01*
X940118Y1269773D02*
X949134Y1269773D01*
X949134Y1271914D02*
X940118Y1271914D01*
X924878Y1280350D02*
X924878Y1290366D01*
X933894Y1290366D01*
X933894Y1280350D01*
X924878Y1280350D01*
X924878Y1282491D02*
X933894Y1282491D01*
X933894Y1284632D02*
X924878Y1284632D01*
X924878Y1286773D02*
X933894Y1286773D01*
X933894Y1288914D02*
X924878Y1288914D01*
X924878Y1273366D02*
X924878Y1263350D01*
X924878Y1273366D02*
X933894Y1273366D01*
X933894Y1263350D01*
X924878Y1263350D01*
X924878Y1265491D02*
X933894Y1265491D01*
X933894Y1267632D02*
X924878Y1267632D01*
X924878Y1269773D02*
X933894Y1269773D01*
X933894Y1271914D02*
X924878Y1271914D01*
D19*
X934378Y1199898D02*
X934378Y1188162D01*
X914742Y1188162D01*
X914742Y1199898D01*
X934378Y1199898D01*
X934378Y1190285D02*
X914742Y1190285D01*
X914742Y1192408D02*
X934378Y1192408D01*
X934378Y1194531D02*
X914742Y1194531D01*
X914742Y1196654D02*
X934378Y1196654D01*
X934378Y1198777D02*
X914742Y1198777D01*
X934378Y1223262D02*
X934378Y1234998D01*
X934378Y1223262D02*
X914742Y1223262D01*
X914742Y1234998D01*
X934378Y1234998D01*
X934378Y1225385D02*
X914742Y1225385D01*
X914742Y1227508D02*
X934378Y1227508D01*
X934378Y1229631D02*
X914742Y1229631D01*
X914742Y1231754D02*
X934378Y1231754D01*
X934378Y1233877D02*
X914742Y1233877D01*
D12*
X882968Y1181672D02*
X872952Y1181672D01*
X872952Y1190688D01*
X882968Y1190688D01*
X882968Y1181672D01*
X882968Y1183813D02*
X872952Y1183813D01*
X872952Y1185954D02*
X882968Y1185954D01*
X882968Y1188095D02*
X872952Y1188095D01*
X872952Y1190236D02*
X882968Y1190236D01*
X889952Y1181672D02*
X899968Y1181672D01*
X889952Y1181672D02*
X889952Y1190688D01*
X899968Y1190688D01*
X899968Y1181672D01*
X899968Y1183813D02*
X889952Y1183813D01*
X889952Y1185954D02*
X899968Y1185954D01*
X899968Y1188095D02*
X889952Y1188095D01*
X889952Y1190236D02*
X899968Y1190236D01*
D20*
X782172Y1374798D02*
X782172Y1382322D01*
X782172Y1374798D02*
X766148Y1374798D01*
X766148Y1382322D01*
X782172Y1382322D01*
X782172Y1376933D02*
X766148Y1376933D01*
X766148Y1379068D02*
X782172Y1379068D01*
X782172Y1381203D02*
X766148Y1381203D01*
X812172Y1362322D02*
X812172Y1354798D01*
X796148Y1354798D01*
X796148Y1362322D01*
X812172Y1362322D01*
X812172Y1356933D02*
X796148Y1356933D01*
X796148Y1359068D02*
X812172Y1359068D01*
X812172Y1361203D02*
X796148Y1361203D01*
X782172Y1342322D02*
X782172Y1334798D01*
X766148Y1334798D01*
X766148Y1342322D01*
X782172Y1342322D01*
X782172Y1336933D02*
X766148Y1336933D01*
X766148Y1339068D02*
X782172Y1339068D01*
X782172Y1341203D02*
X766148Y1341203D01*
X812172Y1322322D02*
X812172Y1314798D01*
X796148Y1314798D01*
X796148Y1322322D01*
X812172Y1322322D01*
X812172Y1316933D02*
X796148Y1316933D01*
X796148Y1319068D02*
X812172Y1319068D01*
X812172Y1321203D02*
X796148Y1321203D01*
X782172Y1302322D02*
X782172Y1294798D01*
X766148Y1294798D01*
X766148Y1302322D01*
X782172Y1302322D01*
X782172Y1296933D02*
X766148Y1296933D01*
X766148Y1299068D02*
X782172Y1299068D01*
X782172Y1301203D02*
X766148Y1301203D01*
X812172Y1282322D02*
X812172Y1274798D01*
X796148Y1274798D01*
X796148Y1282322D01*
X812172Y1282322D01*
X812172Y1276933D02*
X796148Y1276933D01*
X796148Y1279068D02*
X812172Y1279068D01*
X812172Y1281203D02*
X796148Y1281203D01*
X782172Y1262322D02*
X782172Y1254798D01*
X766148Y1254798D01*
X766148Y1262322D01*
X782172Y1262322D01*
X782172Y1256933D02*
X766148Y1256933D01*
X766148Y1259068D02*
X782172Y1259068D01*
X782172Y1261203D02*
X766148Y1261203D01*
X812172Y1242322D02*
X812172Y1234798D01*
X796148Y1234798D01*
X796148Y1242322D01*
X812172Y1242322D01*
X812172Y1236933D02*
X796148Y1236933D01*
X796148Y1239068D02*
X812172Y1239068D01*
X812172Y1241203D02*
X796148Y1241203D01*
X782172Y1222322D02*
X782172Y1214798D01*
X766148Y1214798D01*
X766148Y1222322D01*
X782172Y1222322D01*
X782172Y1216933D02*
X766148Y1216933D01*
X766148Y1219068D02*
X782172Y1219068D01*
X782172Y1221203D02*
X766148Y1221203D01*
X812172Y1202322D02*
X812172Y1194798D01*
X796148Y1194798D01*
X796148Y1202322D01*
X812172Y1202322D01*
X812172Y1196933D02*
X796148Y1196933D01*
X796148Y1199068D02*
X812172Y1199068D01*
X812172Y1201203D02*
X796148Y1201203D01*
X1032172Y1202322D02*
X1032172Y1194798D01*
X1016148Y1194798D01*
X1016148Y1202322D01*
X1032172Y1202322D01*
X1032172Y1196933D02*
X1016148Y1196933D01*
X1016148Y1199068D02*
X1032172Y1199068D01*
X1032172Y1201203D02*
X1016148Y1201203D01*
X1002172Y1214798D02*
X1002172Y1222322D01*
X1002172Y1214798D02*
X986148Y1214798D01*
X986148Y1222322D01*
X1002172Y1222322D01*
X1002172Y1216933D02*
X986148Y1216933D01*
X986148Y1219068D02*
X1002172Y1219068D01*
X1002172Y1221203D02*
X986148Y1221203D01*
X1032172Y1234798D02*
X1032172Y1242322D01*
X1032172Y1234798D02*
X1016148Y1234798D01*
X1016148Y1242322D01*
X1032172Y1242322D01*
X1032172Y1236933D02*
X1016148Y1236933D01*
X1016148Y1239068D02*
X1032172Y1239068D01*
X1032172Y1241203D02*
X1016148Y1241203D01*
X1002172Y1254798D02*
X1002172Y1262322D01*
X1002172Y1254798D02*
X986148Y1254798D01*
X986148Y1262322D01*
X1002172Y1262322D01*
X1002172Y1256933D02*
X986148Y1256933D01*
X986148Y1259068D02*
X1002172Y1259068D01*
X1002172Y1261203D02*
X986148Y1261203D01*
X1032172Y1274798D02*
X1032172Y1282322D01*
X1032172Y1274798D02*
X1016148Y1274798D01*
X1016148Y1282322D01*
X1032172Y1282322D01*
X1032172Y1276933D02*
X1016148Y1276933D01*
X1016148Y1279068D02*
X1032172Y1279068D01*
X1032172Y1281203D02*
X1016148Y1281203D01*
X1002172Y1294798D02*
X1002172Y1302322D01*
X1002172Y1294798D02*
X986148Y1294798D01*
X986148Y1302322D01*
X1002172Y1302322D01*
X1002172Y1296933D02*
X986148Y1296933D01*
X986148Y1299068D02*
X1002172Y1299068D01*
X1002172Y1301203D02*
X986148Y1301203D01*
X1032172Y1314798D02*
X1032172Y1322322D01*
X1032172Y1314798D02*
X1016148Y1314798D01*
X1016148Y1322322D01*
X1032172Y1322322D01*
X1032172Y1316933D02*
X1016148Y1316933D01*
X1016148Y1319068D02*
X1032172Y1319068D01*
X1032172Y1321203D02*
X1016148Y1321203D01*
X1002172Y1334798D02*
X1002172Y1342322D01*
X1002172Y1334798D02*
X986148Y1334798D01*
X986148Y1342322D01*
X1002172Y1342322D01*
X1002172Y1336933D02*
X986148Y1336933D01*
X986148Y1339068D02*
X1002172Y1339068D01*
X1002172Y1341203D02*
X986148Y1341203D01*
X1032172Y1354798D02*
X1032172Y1362322D01*
X1032172Y1354798D02*
X1016148Y1354798D01*
X1016148Y1362322D01*
X1032172Y1362322D01*
X1032172Y1356933D02*
X1016148Y1356933D01*
X1016148Y1359068D02*
X1032172Y1359068D01*
X1032172Y1361203D02*
X1016148Y1361203D01*
X1002172Y1374798D02*
X1002172Y1382322D01*
X1002172Y1374798D02*
X986148Y1374798D01*
X986148Y1382322D01*
X1002172Y1382322D01*
X1002172Y1376933D02*
X986148Y1376933D01*
X986148Y1379068D02*
X1002172Y1379068D01*
X1002172Y1381203D02*
X986148Y1381203D01*
D12*
X760268Y1304988D02*
X750252Y1304988D01*
X760268Y1304988D02*
X760268Y1295972D01*
X750252Y1295972D01*
X750252Y1304988D01*
X750252Y1298113D02*
X760268Y1298113D01*
X760268Y1300254D02*
X750252Y1300254D01*
X750252Y1302395D02*
X760268Y1302395D01*
X760268Y1304536D02*
X750252Y1304536D01*
X743268Y1304988D02*
X733252Y1304988D01*
X743268Y1304988D02*
X743268Y1295972D01*
X733252Y1295972D01*
X733252Y1304988D01*
X733252Y1298113D02*
X743268Y1298113D01*
X743268Y1300254D02*
X733252Y1300254D01*
X733252Y1302395D02*
X743268Y1302395D01*
X743268Y1304536D02*
X733252Y1304536D01*
X750252Y1351978D02*
X760268Y1351978D01*
X760268Y1342962D01*
X750252Y1342962D01*
X750252Y1351978D01*
X750252Y1345103D02*
X760268Y1345103D01*
X760268Y1347244D02*
X750252Y1347244D01*
X750252Y1349385D02*
X760268Y1349385D01*
X760268Y1351526D02*
X750252Y1351526D01*
X743268Y1351978D02*
X733252Y1351978D01*
X743268Y1351978D02*
X743268Y1342962D01*
X733252Y1342962D01*
X733252Y1351978D01*
X733252Y1345103D02*
X743268Y1345103D01*
X743268Y1347244D02*
X733252Y1347244D01*
X733252Y1349385D02*
X743268Y1349385D01*
X743268Y1351526D02*
X733252Y1351526D01*
X750252Y1336738D02*
X760268Y1336738D01*
X760268Y1327722D01*
X750252Y1327722D01*
X750252Y1336738D01*
X750252Y1329863D02*
X760268Y1329863D01*
X760268Y1332004D02*
X750252Y1332004D01*
X750252Y1334145D02*
X760268Y1334145D01*
X760268Y1336286D02*
X750252Y1336286D01*
X743268Y1336738D02*
X733252Y1336738D01*
X743268Y1336738D02*
X743268Y1327722D01*
X733252Y1327722D01*
X733252Y1336738D01*
X733252Y1329863D02*
X743268Y1329863D01*
X743268Y1332004D02*
X733252Y1332004D01*
X733252Y1334145D02*
X743268Y1334145D01*
X743268Y1336286D02*
X733252Y1336286D01*
X750252Y1321498D02*
X760268Y1321498D01*
X760268Y1312482D01*
X750252Y1312482D01*
X750252Y1321498D01*
X750252Y1314623D02*
X760268Y1314623D01*
X760268Y1316764D02*
X750252Y1316764D01*
X750252Y1318905D02*
X760268Y1318905D01*
X760268Y1321046D02*
X750252Y1321046D01*
X743268Y1321498D02*
X733252Y1321498D01*
X743268Y1321498D02*
X743268Y1312482D01*
X733252Y1312482D01*
X733252Y1321498D01*
X733252Y1314623D02*
X743268Y1314623D01*
X743268Y1316764D02*
X733252Y1316764D01*
X733252Y1318905D02*
X743268Y1318905D01*
X743268Y1321046D02*
X733252Y1321046D01*
D21*
X1051560Y1546860D03*
X1051560Y1076960D03*
X746760Y1546860D03*
X746760Y1076960D03*
D16*
X1060646Y1140776D02*
X1060646Y1147764D01*
X1067634Y1147764D01*
X1067634Y1140776D01*
X1060646Y1140776D01*
X1060646Y1144845D02*
X1067634Y1144845D01*
X1043106Y1147764D02*
X1043106Y1140776D01*
X1043106Y1147764D02*
X1050094Y1147764D01*
X1050094Y1140776D01*
X1043106Y1140776D01*
X1043106Y1144845D02*
X1050094Y1144845D01*
D12*
X1020128Y1139762D02*
X1010112Y1139762D01*
X1010112Y1148778D01*
X1020128Y1148778D01*
X1020128Y1139762D01*
X1020128Y1141903D02*
X1010112Y1141903D01*
X1010112Y1144044D02*
X1020128Y1144044D01*
X1020128Y1146185D02*
X1010112Y1146185D01*
X1010112Y1148326D02*
X1020128Y1148326D01*
X1027112Y1139762D02*
X1037128Y1139762D01*
X1027112Y1139762D02*
X1027112Y1148778D01*
X1037128Y1148778D01*
X1037128Y1139762D01*
X1037128Y1141903D02*
X1027112Y1141903D01*
X1027112Y1144044D02*
X1037128Y1144044D01*
X1037128Y1146185D02*
X1027112Y1146185D01*
X1027112Y1148326D02*
X1037128Y1148326D01*
D15*
X962660Y1127760D03*
X835660Y1127760D03*
D12*
X760268Y1367218D02*
X750252Y1367218D01*
X760268Y1367218D02*
X760268Y1358202D01*
X750252Y1358202D01*
X750252Y1367218D01*
X750252Y1360343D02*
X760268Y1360343D01*
X760268Y1362484D02*
X750252Y1362484D01*
X750252Y1364625D02*
X760268Y1364625D01*
X760268Y1366766D02*
X750252Y1366766D01*
X743268Y1367218D02*
X733252Y1367218D01*
X743268Y1367218D02*
X743268Y1358202D01*
X733252Y1358202D01*
X733252Y1367218D01*
X733252Y1360343D02*
X743268Y1360343D01*
X743268Y1362484D02*
X733252Y1362484D01*
X733252Y1364625D02*
X743268Y1364625D01*
X743268Y1366766D02*
X733252Y1366766D01*
X750252Y1382458D02*
X760268Y1382458D01*
X760268Y1373442D01*
X750252Y1373442D01*
X750252Y1382458D01*
X750252Y1375583D02*
X760268Y1375583D01*
X760268Y1377724D02*
X750252Y1377724D01*
X750252Y1379865D02*
X760268Y1379865D01*
X760268Y1382006D02*
X750252Y1382006D01*
X743268Y1382458D02*
X733252Y1382458D01*
X743268Y1382458D02*
X743268Y1373442D01*
X733252Y1373442D01*
X733252Y1382458D01*
X733252Y1375583D02*
X743268Y1375583D01*
X743268Y1377724D02*
X733252Y1377724D01*
X733252Y1379865D02*
X743268Y1379865D01*
X743268Y1382006D02*
X733252Y1382006D01*
D13*
X-26238Y1545590D03*
X1098118Y1545590D03*
D22*
X-35293Y63500D02*
X-35290Y63722D01*
X-35282Y63944D01*
X-35268Y64166D01*
X-35249Y64388D01*
X-35225Y64608D01*
X-35195Y64829D01*
X-35160Y65048D01*
X-35119Y65267D01*
X-35073Y65484D01*
X-35022Y65700D01*
X-34965Y65915D01*
X-34903Y66129D01*
X-34836Y66340D01*
X-34764Y66551D01*
X-34686Y66759D01*
X-34604Y66965D01*
X-34516Y67169D01*
X-34424Y67372D01*
X-34326Y67571D01*
X-34224Y67768D01*
X-34117Y67963D01*
X-34005Y68155D01*
X-33888Y68344D01*
X-33767Y68531D01*
X-33641Y68714D01*
X-33511Y68894D01*
X-33376Y69071D01*
X-33238Y69244D01*
X-33095Y69414D01*
X-32947Y69581D01*
X-32796Y69744D01*
X-32641Y69903D01*
X-32482Y70058D01*
X-32319Y70209D01*
X-32152Y70357D01*
X-31982Y70500D01*
X-31809Y70638D01*
X-31632Y70773D01*
X-31452Y70903D01*
X-31269Y71029D01*
X-31082Y71150D01*
X-30893Y71267D01*
X-30701Y71379D01*
X-30506Y71486D01*
X-30309Y71588D01*
X-30110Y71686D01*
X-29907Y71778D01*
X-29703Y71866D01*
X-29497Y71948D01*
X-29289Y72026D01*
X-29078Y72098D01*
X-28867Y72165D01*
X-28653Y72227D01*
X-28438Y72284D01*
X-28222Y72335D01*
X-28005Y72381D01*
X-27786Y72422D01*
X-27567Y72457D01*
X-27346Y72487D01*
X-27126Y72511D01*
X-26904Y72530D01*
X-26682Y72544D01*
X-26460Y72552D01*
X-26238Y72555D01*
X-26016Y72552D01*
X-25794Y72544D01*
X-25572Y72530D01*
X-25350Y72511D01*
X-25130Y72487D01*
X-24909Y72457D01*
X-24690Y72422D01*
X-24471Y72381D01*
X-24254Y72335D01*
X-24038Y72284D01*
X-23823Y72227D01*
X-23609Y72165D01*
X-23398Y72098D01*
X-23187Y72026D01*
X-22979Y71948D01*
X-22773Y71866D01*
X-22569Y71778D01*
X-22366Y71686D01*
X-22167Y71588D01*
X-21970Y71486D01*
X-21775Y71379D01*
X-21583Y71267D01*
X-21394Y71150D01*
X-21207Y71029D01*
X-21024Y70903D01*
X-20844Y70773D01*
X-20667Y70638D01*
X-20494Y70500D01*
X-20324Y70357D01*
X-20157Y70209D01*
X-19994Y70058D01*
X-19835Y69903D01*
X-19680Y69744D01*
X-19529Y69581D01*
X-19381Y69414D01*
X-19238Y69244D01*
X-19100Y69071D01*
X-18965Y68894D01*
X-18835Y68714D01*
X-18709Y68531D01*
X-18588Y68344D01*
X-18471Y68155D01*
X-18359Y67963D01*
X-18252Y67768D01*
X-18150Y67571D01*
X-18052Y67372D01*
X-17960Y67169D01*
X-17872Y66965D01*
X-17790Y66759D01*
X-17712Y66551D01*
X-17640Y66340D01*
X-17573Y66129D01*
X-17511Y65915D01*
X-17454Y65700D01*
X-17403Y65484D01*
X-17357Y65267D01*
X-17316Y65048D01*
X-17281Y64829D01*
X-17251Y64608D01*
X-17227Y64388D01*
X-17208Y64166D01*
X-17194Y63944D01*
X-17186Y63722D01*
X-17183Y63500D01*
X-17186Y63278D01*
X-17194Y63056D01*
X-17208Y62834D01*
X-17227Y62612D01*
X-17251Y62392D01*
X-17281Y62171D01*
X-17316Y61952D01*
X-17357Y61733D01*
X-17403Y61516D01*
X-17454Y61300D01*
X-17511Y61085D01*
X-17573Y60871D01*
X-17640Y60660D01*
X-17712Y60449D01*
X-17790Y60241D01*
X-17872Y60035D01*
X-17960Y59831D01*
X-18052Y59628D01*
X-18150Y59429D01*
X-18252Y59232D01*
X-18359Y59037D01*
X-18471Y58845D01*
X-18588Y58656D01*
X-18709Y58469D01*
X-18835Y58286D01*
X-18965Y58106D01*
X-19100Y57929D01*
X-19238Y57756D01*
X-19381Y57586D01*
X-19529Y57419D01*
X-19680Y57256D01*
X-19835Y57097D01*
X-19994Y56942D01*
X-20157Y56791D01*
X-20324Y56643D01*
X-20494Y56500D01*
X-20667Y56362D01*
X-20844Y56227D01*
X-21024Y56097D01*
X-21207Y55971D01*
X-21394Y55850D01*
X-21583Y55733D01*
X-21775Y55621D01*
X-21970Y55514D01*
X-22167Y55412D01*
X-22366Y55314D01*
X-22569Y55222D01*
X-22773Y55134D01*
X-22979Y55052D01*
X-23187Y54974D01*
X-23398Y54902D01*
X-23609Y54835D01*
X-23823Y54773D01*
X-24038Y54716D01*
X-24254Y54665D01*
X-24471Y54619D01*
X-24690Y54578D01*
X-24909Y54543D01*
X-25130Y54513D01*
X-25350Y54489D01*
X-25572Y54470D01*
X-25794Y54456D01*
X-26016Y54448D01*
X-26238Y54445D01*
X-26460Y54448D01*
X-26682Y54456D01*
X-26904Y54470D01*
X-27126Y54489D01*
X-27346Y54513D01*
X-27567Y54543D01*
X-27786Y54578D01*
X-28005Y54619D01*
X-28222Y54665D01*
X-28438Y54716D01*
X-28653Y54773D01*
X-28867Y54835D01*
X-29078Y54902D01*
X-29289Y54974D01*
X-29497Y55052D01*
X-29703Y55134D01*
X-29907Y55222D01*
X-30110Y55314D01*
X-30309Y55412D01*
X-30506Y55514D01*
X-30701Y55621D01*
X-30893Y55733D01*
X-31082Y55850D01*
X-31269Y55971D01*
X-31452Y56097D01*
X-31632Y56227D01*
X-31809Y56362D01*
X-31982Y56500D01*
X-32152Y56643D01*
X-32319Y56791D01*
X-32482Y56942D01*
X-32641Y57097D01*
X-32796Y57256D01*
X-32947Y57419D01*
X-33095Y57586D01*
X-33238Y57756D01*
X-33376Y57929D01*
X-33511Y58106D01*
X-33641Y58286D01*
X-33767Y58469D01*
X-33888Y58656D01*
X-34005Y58845D01*
X-34117Y59037D01*
X-34224Y59232D01*
X-34326Y59429D01*
X-34424Y59628D01*
X-34516Y59831D01*
X-34604Y60035D01*
X-34686Y60241D01*
X-34764Y60449D01*
X-34836Y60660D01*
X-34903Y60871D01*
X-34965Y61085D01*
X-35022Y61300D01*
X-35073Y61516D01*
X-35119Y61733D01*
X-35160Y61952D01*
X-35195Y62171D01*
X-35225Y62392D01*
X-35249Y62612D01*
X-35268Y62834D01*
X-35282Y63056D01*
X-35290Y63278D01*
X-35293Y63500D01*
D23*
X-26238Y63500D03*
M02*
