M48
;GenerationSoftware,Autodesk,EAGLE,9.6.2*%
;CreationDate,2023-03-03T20:01:28Z*%
FMAT,2
ICI,OFF
METRIC,TZ,000.000
T3C0.305
T2C1.016
T1C3.048
%
G90
M71
T1
X2540Y107696
X74676Y154686
X33020Y49530
X33020Y2540
X2540Y49530
X2540Y2540
X69088Y49530
X69088Y2540
X38608Y49530
X38608Y2540
X105156Y49530
X105156Y2540
X74676Y49530
X74676Y2540
X33020Y102108
X33020Y55118
X2540Y102108
X2540Y55118
X69088Y102108
X69088Y55118
X38608Y102108
X38608Y55118
X105156Y102108
X105156Y55118
X74676Y102108
X74676Y55118
X33020Y154686
X33020Y107696
X2540Y154686
X74676Y107696
X69088Y154686
X69088Y107696
X38608Y154686
X38608Y107696
X105156Y154686
X105156Y107696
T2
X11430Y83058
X83566Y112776
X24130Y33020
X24130Y30480
X24130Y27940
X24130Y25400
X24130Y22860
X24130Y20320
X24130Y17780
X24130Y15240
X24130Y12700
X24130Y10160
X11430Y33020
X11430Y30480
X11430Y27940
X11430Y25400
X11430Y22860
X11430Y20320
X11430Y17780
X11430Y15240
X11430Y12700
X11430Y10160
X24130Y7620
X11430Y7620
X60198Y33020
X60198Y30480
X60198Y27940
X60198Y25400
X60198Y22860
X60198Y20320
X60198Y17780
X60198Y15240
X60198Y12700
X60198Y10160
X47498Y33020
X47498Y30480
X47498Y27940
X47498Y25400
X47498Y22860
X47498Y20320
X47498Y17780
X47498Y15240
X47498Y12700
X47498Y10160
X60198Y7620
X47498Y7620
X96266Y33020
X96266Y30480
X96266Y27940
X96266Y25400
X96266Y22860
X96266Y20320
X96266Y17780
X96266Y15240
X96266Y12700
X96266Y10160
X83566Y33020
X83566Y30480
X83566Y27940
X83566Y25400
X83566Y22860
X83566Y20320
X83566Y17780
X83566Y15240
X83566Y12700
X83566Y10160
X96266Y7620
X83566Y7620
X24130Y85598
X24130Y83058
X24130Y80518
X24130Y77978
X24130Y75438
X24130Y72898
X24130Y70358
X24130Y67818
X24130Y65278
X24130Y62738
X11430Y85598
X11430Y80518
X11430Y77978
X11430Y75438
X11430Y72898
X11430Y70358
X11430Y67818
X11430Y65278
X11430Y62738
X24130Y60198
X11430Y60198
X60198Y85598
X60198Y83058
X60198Y80518
X60198Y77978
X60198Y75438
X60198Y72898
X60198Y70358
X60198Y67818
X60198Y65278
X60198Y62738
X47498Y85598
X47498Y83058
X47498Y80518
X47498Y77978
X47498Y75438
X47498Y72898
X47498Y70358
X47498Y67818
X47498Y65278
X47498Y62738
X60198Y60198
X47498Y60198
X96266Y85598
X96266Y83058
X96266Y80518
X96266Y77978
X96266Y75438
X96266Y72898
X96266Y70358
X96266Y67818
X96266Y65278
X96266Y62738
X83566Y85598
X83566Y83058
X83566Y80518
X83566Y77978
X83566Y75438
X83566Y72898
X83566Y70358
X83566Y67818
X83566Y65278
X83566Y62738
X96266Y60198
X83566Y60198
X24130Y138176
X24130Y135636
X24130Y133096
X24130Y130556
X24130Y128016
X24130Y125476
X24130Y122936
X24130Y120396
X24130Y117856
X24130Y115316
X11430Y138176
X11430Y135636
X11430Y133096
X11430Y130556
X11430Y128016
X11430Y125476
X11430Y122936
X11430Y120396
X11430Y117856
X11430Y115316
X24130Y112776
X11430Y112776
X60198Y138176
X60198Y135636
X60198Y133096
X60198Y130556
X60198Y128016
X60198Y125476
X60198Y122936
X60198Y120396
X60198Y117856
X60198Y115316
X47498Y138176
X47498Y135636
X47498Y133096
X47498Y130556
X47498Y128016
X47498Y125476
X47498Y122936
X47498Y120396
X47498Y117856
X47498Y115316
X60198Y112776
X47498Y112776
X96266Y138176
X96266Y135636
X96266Y133096
X96266Y130556
X96266Y128016
X96266Y125476
X96266Y122936
X96266Y120396
X96266Y117856
X96266Y115316
X83566Y138176
X83566Y135636
X83566Y133096
X83566Y130556
X83566Y128016
X83566Y125476
X83566Y122936
X83566Y120396
X83566Y117856
X83566Y115316
X96266Y112776
T3
X84836Y26670
X84836Y21590
X84836Y13970
X78486Y10160
X97663Y9601
X94437Y20371
X92862Y20371
X84836Y24130
X89281Y16510
X17297Y56566
X16535Y77622
X17678Y77622
X18034Y60706
X18948Y77622
X20345Y77622
X29464Y59817
X15469Y68936
X4572Y79121
X16002Y59690
X19558Y59690
X19761Y55728
X29464Y66167
X29591Y57658
X33480Y66627
X18288Y66675
X18796Y67056
X34417Y65913
X34544Y59817
X20193Y64643
X34519Y62789
X20726Y71780
X22225Y71755
X18415Y69088
X6350Y67310
X25654Y65405
X1270Y58928
X10160Y53848
X17780Y55118
X25400Y53848
X635Y79121
X635Y80645
X635Y85344
X635Y82169
X635Y83693
X20320Y69088
X22225Y70485
X22225Y69088
X26543Y58293
X22911Y60808
X18415Y70485
X635Y77470
X34290Y85598
X34290Y75438
X30886Y68478
X34290Y67818
X1270Y67818
X1270Y75438
X21082Y64643
X31725Y63500
X34417Y66675
X32512Y63373
X32283Y66065
X17780Y85598
X31648Y60147
X22835Y62078
X6350Y84328
X6350Y79248
X6350Y71628
X6350Y75438
X29210Y84328
X29210Y81788
X29210Y76708
X29210Y74168
X29210Y70358
X25400Y84328
X10160Y84328
X17780Y81788
X17780Y79248
X22860Y81788
X22860Y79248
X12700Y81788
X12700Y79248
X12700Y74168
X12700Y66548
X6350Y62738
X25527Y62179
X22301Y72949
X20726Y72949
X12700Y76708
X17145Y69088
X53365Y56566
X52603Y77622
X53746Y77622
X54102Y60706
X55016Y77622
X56413Y77622
X65532Y59817
X51537Y68936
X40640Y79121
X52070Y59690
X55626Y59690
X55829Y55728
X65532Y66167
X65659Y57658
X69548Y66627
X54356Y66675
X54864Y67056
X70485Y65913
X70612Y59817
X56261Y64643
X70587Y62789
X56794Y71780
X58293Y71755
X54483Y69088
X42418Y67310
X61722Y65405
X37338Y58928
X46228Y53848
X53848Y55118
X61468Y53848
X36703Y79121
X36703Y80645
X36703Y85344
X36703Y82169
X36703Y83693
X56388Y69088
X58293Y70485
X58293Y69088
X62611Y58293
X58979Y60808
X54483Y70485
X36703Y77470
X70358Y85598
X70358Y75438
X66954Y68478
X70358Y67818
X37338Y67818
X37338Y75438
X57150Y64643
X67793Y63500
X70485Y66675
X68580Y63373
X68351Y66065
X53848Y85598
X67716Y60147
X58903Y62078
X42418Y84328
X42418Y79248
X42418Y71628
X42418Y75438
X65278Y84328
X65278Y81788
X65278Y76708
X65278Y74168
X65278Y70358
X61468Y84328
X46228Y84328
X53848Y81788
X53848Y79248
X58928Y81788
X58928Y79248
X48768Y81788
X48768Y79248
X48768Y74168
X48768Y66548
X42418Y62738
X61595Y62179
X58369Y72949
X56794Y72949
X48768Y76708
X53213Y69088
X89433Y56566
X88671Y77622
X89814Y77622
X90170Y60706
X91084Y77622
X92481Y77622
X101600Y59817
X87605Y68936
X76708Y79121
X88138Y59690
X91694Y59690
X91897Y55728
X101600Y66167
X101727Y57658
X105616Y66627
X90424Y66675
X90932Y67056
X106553Y65913
X106680Y59817
X92329Y64643
X106655Y62789
X92862Y71780
X94361Y71755
X90551Y69088
X78486Y67310
X97790Y65405
X73406Y58928
X82296Y53848
X89916Y55118
X97536Y53848
X72771Y79121
X72771Y80645
X72771Y85344
X72771Y82169
X72771Y83693
X92456Y69088
X94361Y70485
X94361Y69088
X98679Y58293
X95047Y60808
X90551Y70485
X72771Y77470
X106426Y85598
X106426Y75438
X103022Y68478
X106426Y67818
X73406Y67818
X73406Y75438
X93218Y64643
X103861Y63500
X106553Y66675
X104648Y63373
X104419Y66065
X89916Y85598
X103784Y60147
X94971Y62078
X78486Y84328
X78486Y79248
X78486Y71628
X78486Y75438
X101346Y84328
X101346Y81788
X101346Y76708
X101346Y74168
X101346Y70358
X97536Y84328
X82296Y84328
X89916Y81788
X89916Y79248
X94996Y81788
X94996Y79248
X84836Y81788
X84836Y79248
X84836Y74168
X84836Y66548
X78486Y62738
X58979Y8230
X94437Y72949
X92862Y72949
X84836Y76708
X89281Y69088
X17297Y109144
X16535Y130200
X17678Y130200
X18034Y113284
X18948Y130200
X20345Y130200
X29464Y112395
X15469Y121514
X4572Y131699
X16002Y112268
X19558Y112268
X19761Y108306
X29464Y118745
X29591Y110236
X33480Y119205
X18288Y119253
X18796Y119634
X34417Y118491
X34544Y112395
X20193Y117221
X34519Y115367
X20726Y124358
X22225Y124333
X18415Y121666
X6350Y119888
X25654Y117983
X1270Y111506
X10160Y106426
X17780Y107696
X25400Y106426
X635Y131699
X635Y133223
X635Y137922
X635Y134747
X635Y136271
X20320Y121666
X22225Y123063
X22225Y121666
X26543Y110871
X22911Y113386
X18415Y123063
X635Y130048
X34290Y138176
X34290Y128016
X30886Y121056
X34290Y120396
X1270Y120396
X1270Y128016
X21082Y117221
X31725Y116078
X34417Y119253
X32512Y115951
X32283Y118643
X17780Y138176
X31648Y112725
X22835Y114656
X6350Y136906
X6350Y131826
X6350Y124206
X6350Y128016
X29210Y136906
X29210Y134366
X29210Y129286
X29210Y126746
X29210Y122936
X25400Y136906
X10160Y136906
X17780Y134366
X17780Y131826
X22860Y134366
X22860Y131826
X12700Y134366
X12700Y131826
X12700Y126746
X12700Y119126
X6350Y115316
X25527Y114757
X22301Y125527
X20726Y125527
X12700Y129286
X17145Y121666
X53365Y109144
X52603Y130200
X53746Y130200
X54102Y113284
X55016Y130200
X56413Y130200
X65532Y112395
X51537Y121514
X40640Y131699
X52070Y112268
X55626Y112268
X55829Y108306
X65532Y118745
X65659Y110236
X69548Y119205
X54356Y119253
X54864Y119634
X70485Y118491
X70612Y112395
X56261Y117221
X70587Y115367
X56794Y124358
X58293Y124333
X54483Y121666
X42418Y119888
X61722Y117983
X37338Y111506
X46228Y106426
X53848Y107696
X61468Y106426
X36703Y131699
X36703Y133223
X36703Y137922
X36703Y134747
X36703Y136271
X56388Y121666
X58293Y123063
X58293Y121666
X62611Y110871
X58979Y113386
X54483Y123063
X36703Y130048
X70358Y138176
X70358Y128016
X66954Y121056
X70358Y120396
X37338Y120396
X37338Y128016
X57150Y117221
X67793Y116078
X70485Y119253
X68580Y115951
X68351Y118643
X53848Y138176
X67716Y112725
X58903Y114656
X42418Y136906
X42418Y131826
X42418Y124206
X42418Y128016
X65278Y136906
X65278Y134366
X65278Y129286
X65278Y126746
X65278Y122936
X61468Y136906
X46228Y136906
X53848Y134366
X53848Y131826
X58928Y134366
X58928Y131826
X48768Y134366
X48768Y131826
X48768Y126746
X48768Y119126
X42418Y115316
X61595Y114757
X58369Y125527
X56794Y125527
X48768Y129286
X53213Y121666
X89433Y109144
X88671Y130200
X89814Y130200
X90170Y113284
X91084Y130200
X92481Y130200
X101600Y112395
X87605Y121514
X76708Y131699
X88138Y112268
X91694Y112268
X91897Y108306
X101600Y118745
X101727Y110236
X105616Y119205
X90424Y119253
X90932Y119634
X106553Y118491
X106680Y112395
X92329Y117221
X106655Y115367
X92862Y124358
X94361Y124333
X90551Y121666
X78486Y119888
X97790Y117983
X73406Y111506
X82296Y106426
X89916Y107696
X97536Y106426
X72771Y131699
X72771Y133223
X72771Y137922
X72771Y134747
X72771Y136271
X92456Y121666
X94361Y123063
X94361Y121666
X98679Y110871
X95047Y113386
X90551Y123063
X72771Y130048
X106426Y138176
X106426Y128016
X103022Y121056
X106426Y120396
X73406Y120396
X73406Y128016
X93218Y117221
X103861Y116078
X106553Y119253
X104648Y115951
X104419Y118643
X89916Y138176
X103784Y112725
X94971Y114656
X78486Y136906
X78486Y131826
X78486Y124206
X78486Y128016
X101346Y136906
X101346Y134366
X101346Y129286
X101346Y126746
X101346Y122936
X97536Y136906
X82296Y136906
X89916Y134366
X89916Y131826
X94996Y134366
X94996Y131826
X84836Y134366
X84836Y131826
X84836Y126746
X17297Y3988
X78486Y115316
X97663Y114757
X94437Y125527
X92862Y125527
X84836Y129286
X89281Y121666
X16535Y25044
X17678Y25044
X18034Y8128
X18948Y25044
X20345Y25044
X29464Y7239
X15469Y16358
X4572Y26543
X16002Y7112
X19558Y7112
X19761Y3150
X29464Y13589
X29591Y5080
X33480Y14049
X18288Y14097
X18796Y14478
X34417Y13335
X34544Y7239
X20193Y12065
X34519Y10211
X20726Y19202
X22225Y19177
X18415Y16510
X6350Y14732
X25654Y12827
X1270Y6350
X10160Y1270
X17780Y2540
X25400Y1270
X635Y26543
X635Y28067
X635Y32766
X635Y29591
X635Y31115
X20320Y16510
X22225Y17907
X22225Y16510
X26543Y5715
X22911Y8230
X18415Y17907
X635Y24892
X34290Y33020
X34290Y22860
X30886Y15900
X34290Y15240
X1270Y15240
X1270Y22860
X21082Y12065
X31725Y10922
X34417Y14097
X32512Y10795
X32283Y13487
X17780Y33020
X31648Y7569
X22835Y9500
X6350Y31750
X6350Y26670
X6350Y19050
X6350Y22860
X29210Y31750
X29210Y29210
X29210Y24130
X29210Y21590
X29210Y17780
X25400Y31750
X10160Y31750
X17780Y29210
X17780Y26670
X22860Y29210
X22860Y26670
X12700Y29210
X12700Y26670
X12700Y21590
X12700Y13970
X6350Y10160
X25527Y9601
X22301Y20371
X20726Y20371
X12700Y24130
X17145Y16510
X53365Y3988
X52603Y25044
X53746Y25044
X54102Y8128
X55016Y25044
X56413Y25044
X65532Y7239
X51537Y16358
X40640Y26543
X52070Y7112
X55626Y7112
X55829Y3150
X65532Y13589
X65659Y5080
X69548Y14049
X54356Y14097
X54864Y14478
X70485Y13335
X70612Y7239
X56261Y12065
X70587Y10211
X56794Y19202
X58293Y19177
X54483Y16510
X42418Y14732
X61722Y12827
X37338Y6350
X46228Y1270
X53848Y2540
X61468Y1270
X36703Y26543
X36703Y28067
X36703Y32766
X97663Y62179
X36703Y29591
X36703Y31115
X56388Y16510
X58293Y17907
X58293Y16510
X62611Y5715
X54483Y17907
X36703Y24892
X70358Y33020
X70358Y22860
X66954Y15900
X70358Y15240
X37338Y15240
X37338Y22860
X57150Y12065
X67793Y10922
X70485Y14097
X68580Y10795
X68351Y13487
X53848Y33020
X67716Y7569
X58903Y9500
X42418Y31750
X42418Y26670
X42418Y19050
X42418Y22860
X65278Y31750
X65278Y29210
X65278Y24130
X65278Y21590
X65278Y17780
X61468Y31750
X46228Y31750
X53848Y29210
X53848Y26670
X58928Y29210
X58928Y26670
X48768Y29210
X48768Y26670
X48768Y21590
X48768Y13970
X42418Y10160
X61595Y9601
X58369Y20371
X56794Y20371
X48768Y24130
X53213Y16510
X89433Y3988
X88671Y25044
X89814Y25044
X90170Y8128
X91084Y25044
X92481Y25044
X101600Y7239
X87605Y16358
X76708Y26543
X88138Y7112
X91694Y7112
X91897Y3150
X101600Y13589
X101727Y5080
X105616Y14049
X90424Y14097
X90932Y14478
X106553Y13335
X106680Y7239
X92329Y12065
X106655Y10211
X92862Y19202
X94361Y19177
X90551Y16510
X78486Y14732
X97790Y12827
X73406Y6350
X82296Y1270
X89916Y2540
X97536Y1270
X72771Y26543
X72771Y28067
X72771Y32766
X72771Y29591
X72771Y31115
X92456Y16510
X94361Y17907
X94361Y16510
X98679Y5715
X95047Y8230
X90551Y17907
X72771Y24892
X106426Y33020
X106426Y22860
X103022Y15900
X106426Y15240
X73406Y15240
X73406Y22860
X93218Y12065
X103861Y10922
X106553Y14097
X104648Y10795
X104419Y13487
X89916Y33020
X103784Y7569
X94971Y9500
X78486Y31750
X78486Y26670
X78486Y19050
X78486Y22860
X101346Y31750
X101346Y29210
X101346Y24130
X101346Y21590
X101346Y17780
X97536Y31750
X82296Y31750
X89916Y29210
X89916Y26670
X94996Y29210
X94996Y26670
X84836Y29210
X84836Y119126
M30